<svg xmlns="http://www.w3.org/2000/svg" width="18" height="18" viewBox="0 0 18 18">
  <defs>
    <style>
      .cls-1 {
        fill: #fff;
        stroke: #707070;
        opacity: 0;
      }

      .cls-2 {
        fill: #333;
      }

      .cls-3, .cls-4, .cls-6 {
        fill: none;
      }

      .cls-3, .cls-4 {
        stroke: #333;
        stroke-width: 1.2px;
      }

      .cls-3 {
        stroke-miterlimit: 10;
      }

      .cls-4 {
        stroke-linecap: round;
        stroke-linejoin: round;
      }

      .cls-5 {
        stroke: none;
      }
    </style>
  </defs>
  <g id="组_19832" data-name="组 19832" transform="translate(2760 19569)">
    <g id="矩形_12652" data-name="矩形 12652" class="cls-1" transform="translate(-2760 -19569)">
      <rect class="cls-5" width="18" height="18"/>
      <rect class="cls-6" x="0.5" y="0.5" width="17" height="17"/>
    </g>
    <g id="组_18591" data-name="组 18591" transform="translate(-2757.654 -19566.654)">
      <rect id="矩形_12646" data-name="矩形 12646" class="cls-2" width="5.019" height="1.2" rx="0.6" transform="translate(4.476 8.024) rotate(-45)"/>
      <circle id="椭圆_1745" data-name="椭圆 1745" class="cls-3" cx="6.771" cy="6.771" r="6.771" transform="translate(-0.117 -0.117)"/>
      <path id="路径_24248" data-name="路径 24248" class="cls-4" d="M-972.253,822.79l1.606-1.606a1.576,1.576,0,0,1,2.229,0h0a1.576,1.576,0,0,1,0,2.229l-1.607,1.607" transform="translate(978.302 -817.76)"/>
      <path id="路径_24250" data-name="路径 24250" class="cls-4" d="M4.3,2.068,2.691.462a1.576,1.576,0,0,0-2.229,0h0a1.576,1.576,0,0,0,0,2.229L2.068,4.3" transform="translate(2.998 10.312) rotate(-90)"/>
    </g>
  </g>
</svg>
