<svg xmlns="http://www.w3.org/2000/svg" width="18" height="18" viewBox="0 0 18 18">
  <defs>
    <style>
      .cls-1 {
        fill: #fff;
        stroke: #707070;
        opacity: 0;
      }

      .cls-2, .cls-4 {
        fill: none;
      }

      .cls-2 {
        stroke: #333;
        stroke-linecap: round;
        stroke-miterlimit: 10;
        stroke-width: 1.2px;
      }

      .cls-3 {
        stroke: none;
      }
    </style>
  </defs>
  <g id="组_19830" data-name="组 19830" transform="translate(-7.904 -1053.904)">
    <g id="矩形_13151" data-name="矩形 13151" class="cls-1" transform="translate(7.904 1053.904)">
      <rect class="cls-3" width="18" height="18"/>
      <rect class="cls-4" x="0.5" y="0.5" width="17" height="17"/>
    </g>
    <g id="组_19050" data-name="组 19050" transform="translate(10.326 1056.946)">
      <path id="路径_24468" data-name="路径 24468" class="cls-2" d="M356.289,97.927l-4.985,4.985a3.894,3.894,0,0,1-5.506.036h0a3.893,3.893,0,0,1,.036-5.506l4.985-4.985" transform="translate(-344.675 -92.155)"/>
      <path id="路径_24469" data-name="路径 24469" class="cls-2" d="M418.774,97.354l4.656-4.656c1.429-1.429,1.7-3.475.608-4.569h0c-1.375-1.375-2.664-1.3-4.569.608l-3.845,3.845" transform="translate(-411.552 -87.189)"/>
      <path id="路径_24470" data-name="路径 24470" class="cls-2" d="M393.716,133.557l-4.528,4.528c-1.02,1.02-1.975,1.718-2.987.707h0c-.979-.979-.313-1.967.707-2.987l3.323-3.323" transform="translate(-383.366 -129.882)"/>
    </g>
  </g>
</svg>
