<svg xmlns="http://www.w3.org/2000/svg" width="18" height="18" viewBox="0 0 18 18">
  <defs>
    <style>
      .cls-1 {
        fill: #fff;
        stroke: #707070;
        opacity: 0;
      }

      .cls-2, .cls-3, .cls-5 {
        fill: none;
      }

      .cls-2 {
        stroke: #333;
        stroke-width: 1.2px;
      }

      .cls-4, .cls-6 {
        stroke: none;
      }

      .cls-6 {
        fill: #333;
      }
    </style>
  </defs>
  <g id="组_19829" data-name="组 19829" transform="translate(-1063 -1030)">
    <g id="矩形_13783" data-name="矩形 13783" class="cls-1" transform="translate(1063 1030)">
      <rect class="cls-4" width="18" height="18"/>
      <rect class="cls-5" x="0.5" y="0.5" width="17" height="17"/>
    </g>
    <g id="组_6804" data-name="组 6804" transform="translate(-420.674 224.455)">
      <g id="矩形_3544" data-name="矩形 3544" class="cls-2" transform="translate(1485.953 808.163)">
        <rect class="cls-4" width="13.41" height="12.763" rx="2"/>
        <rect class="cls-5" x="0.6" y="0.6" width="12.21" height="11.563" rx="1.4"/>
      </g>
      <g id="多边形_41" data-name="多边形 41" class="cls-3" transform="translate(1496.29 810.605) rotate(90)">
        <path class="cls-4" d="M3.114,1.208a1,1,0,0,1,1.651,0L6.81,4.2a1,1,0,0,1-.826,1.564H1.895A1,1,0,0,1,1.069,4.2Z"/>
        <path class="cls-6" d="M 3.939521074295044 2.126439094543457 L 2.273860931396484 4.563146114349365 L 5.605183601379395 4.563146114349365 L 3.939521074295044 2.126439094543457 M 3.939522504806519 0.772031307220459 C 4.253027439117432 0.772031307220459 4.566532611846924 0.9172558784484863 4.765072822570801 1.207705974578857 L 6.809712409973145 4.198825836181641 C 7.263412475585938 4.862535953521729 6.788132667541504 5.763145923614502 5.984162330627441 5.763145923614502 L 1.894882678985596 5.763145923614502 C 1.090912342071533 5.763145923614502 0.6156325340270996 4.862535953521729 1.06932258605957 4.198825836181641 L 3.113972663879395 1.207705974578857 C 3.312512397766113 0.9172558784484863 3.626017570495605 0.772031307220459 3.939522504806519 0.772031307220459 Z"/>
      </g>
    </g>
  </g>
</svg>
