<svg xmlns="http://www.w3.org/2000/svg" width="18" height="18" viewBox="0 0 18 18">
  <defs>
    <style>
      .cls-1, .cls-2, .cls-5 {
        fill: none;
      }

      .cls-1 {
        stroke: #707070;
        opacity: 0;
      }

      .cls-2 {
        stroke: #333;
        stroke-miterlimit: 10;
        stroke-width: 1.2px;
      }

      .cls-3 {
        fill: #333;
      }

      .cls-4 {
        stroke: none;
      }
    </style>
  </defs>
  <g id="组_19839" data-name="组 19839" transform="translate(-1193 -660)">
    <g id="矩形_637" data-name="矩形 637" class="cls-1" transform="translate(1193 660)">
      <rect class="cls-4" width="18" height="18"/>
      <rect class="cls-5" x="0.5" y="0.5" width="17" height="17"/>
    </g>
    <g id="组_19577" data-name="组 19577" transform="translate(-21.887 23.235)">
      <path id="路径_24853" data-name="路径 24853" class="cls-2" d="M-2516.931,606.684l4.6-3.262a.345.345,0,0,1,.392,0l4.6,3.262s.568.283.568-.283V594.783a.3.3,0,0,0-.316-.283h-10.1a.3.3,0,0,0-.316.283V606.4C-2517.5,606.967-2516.931,606.684-2516.931,606.684Z" transform="translate(3736.019 45.137)"/>
      <rect id="矩形_13714" data-name="矩形 13714" class="cls-3" width="4.896" height="1.2" rx="0.6" transform="translate(1221.438 641.951)"/>
    </g>
  </g>
</svg>
