<svg xmlns="http://www.w3.org/2000/svg" width="18" height="18" viewBox="0 0 18 18">
  <defs>
    <style>
      .cls-1 {
        fill: #fff;
        stroke: #707070;
        opacity: 0;
      }

      .cls-2, .cls-4 {
        fill: none;
      }

      .cls-3, .cls-5 {
        stroke: none;
      }

      .cls-5 {
        fill: #fff;
      }
    </style>
  </defs>
  <g id="组_19851" data-name="组 19851" transform="translate(-1216 -702)">
    <g id="矩形_13654" data-name="矩形 13654" class="cls-1" transform="translate(1216 702)">
      <rect class="cls-3" width="18" height="18"/>
      <rect class="cls-4" x="0.5" y="0.5" width="17" height="17"/>
    </g>
    <g id="组_19581" data-name="组 19581" transform="translate(43.285 -14.723)">
      <g id="减去_96" data-name="减去 96" class="cls-2" transform="translate(1175 719.959)">
        <path class="cls-3" d="M6.233,12.468A6.234,6.234,0,0,1,6.233,0c.153,0,.3.008.482.019v6.7h5.739a6.234,6.234,0,0,1-6.22,5.752Z"/>
        <path class="cls-5" d="M 6.232537269592285 11.268141746521 C 7.51052713394165 11.268141746521 8.729996681213379 10.78933238983154 9.666056632995605 9.920132637023926 C 10.26696109771729 9.361846923828125 10.71552658081055 8.674479484558105 10.98358631134033 7.916362285614014 L 5.514327049255371 7.916362285614014 L 5.514327049255371 1.251127600669861 C 3.078242063522339 1.600830674171448 1.199997067451477 3.702833414077759 1.199997067451477 6.235602378845215 C 1.199997067451477 9.010552406311035 3.457587003707886 11.268141746521 6.232537269592285 11.268141746521 M 6.232537269592285 12.46814250946045 C 2.796787023544312 12.46814250946045 -2.935333213827107e-06 9.671361923217773 -2.935333213827107e-06 6.235602378845215 C -2.935333213827107e-06 2.797802209854126 2.796787023544312 2.208404566772515e-06 6.232537269592285 2.208404566772515e-06 C 6.385647296905518 2.208404566772515e-06 6.536716938018799 0.008162208832800388 6.714326858520508 0.01939220912754536 L 6.714326858520508 6.716361999511719 L 12.45283699035645 6.716361999511719 C 12.33238697052002 8.279091835021973 11.63421726226807 9.729541778564453 10.48283672332764 10.79926204681396 C 9.325337409973145 11.87408256530762 7.818747043609619 12.46814250946045 6.232537269592285 12.46814250946045 Z"/>
      </g>
      <g id="交叉_1" data-name="交叉 1" class="cls-2" transform="translate(1182.674 719.02)">
        <path class="cls-3" d="M0,6.7V0A6.236,6.236,0,0,1,5.757,6.216c0,.16-.006.322-.018.481Z"/>
        <path class="cls-5" d="M 4.505707263946533 5.496975421905518 C 4.360960483551025 4.487209796905518 3.912812232971191 3.544281721115112 3.208181858062744 2.787435293197632 C 2.647511005401611 2.185215473175049 1.958606362342834 1.736061453819275 1.200001835823059 1.468208909034729 L 1.200001835823059 5.496975421905518 L 4.505707263946533 5.496975421905518 M 5.73851203918457 6.696975231170654 L 1.810607955121668e-06 6.696975231170654 L 1.810607955121668e-06 -4.768600319948746e-06 C 3.221401691436768 0.2449752241373062 5.756881713867188 2.93560528755188 5.756881713867188 6.21620512008667 C 5.756881713867188 6.376465320587158 5.750761985778809 6.537735462188721 5.73851203918457 6.696975231170654 Z"/>
      </g>
    </g>
  </g>
</svg>
