<svg xmlns="http://www.w3.org/2000/svg" width="22" height="22" viewBox="0 0 22 22">
  <defs>
    <style>
      .cls-1 {
        fill: #fff;
        stroke: #707070;
        opacity: 0;
      }

      .cls-2 {
        fill: #333;
      }

      .cls-3 {
        stroke: none;
      }

      .cls-4 {
        fill: none;
      }
    </style>
  </defs>
  <g id="组_2403" data-name="组 2403" transform="translate(-181 -574)">
    <g id="矩形_1469" data-name="矩形 1469" class="cls-1" transform="translate(181 574)">
      <rect class="cls-3" width="22" height="22"/>
      <rect class="cls-4" x="0.5" y="0.5" width="21" height="21"/>
    </g>
    <g id="组_2376" data-name="组 2376" transform="translate(182 575)">
      <path id="路径_2723" data-name="路径 2723" class="cls-2" d="M10,20A9.938,9.938,0,0,1,0,10,9.938,9.938,0,0,1,10,0,9.938,9.938,0,0,1,20,10,9.938,9.938,0,0,1,10,20ZM10,1.429A8.571,8.571,0,1,0,18.571,10,8.6,8.6,0,0,0,10,1.429Z"/>
      <path id="路径_2724" data-name="路径 2724" class="cls-2" d="M260.562,265.124a.616.616,0,0,1-.652-.652v-3.259h-3.259a.652.652,0,0,1,0-1.3h3.259v-3.259a.652.652,0,0,1,1.3,0v3.259h3.259a.652.652,0,0,1,0,1.3h-3.259v3.259A.616.616,0,0,1,260.562,265.124Z" transform="translate(-250.562 -250.562)"/>
    </g>
  </g>
</svg>
