<svg xmlns="http://www.w3.org/2000/svg" width="22" height="22" viewBox="0 0 22 22">
  <defs>
    <style>
      .cls-1 {
        fill: #fff;
        stroke: #707070;
        opacity: 0;
      }

      .cls-2 {
        fill: #333;
      }

      .cls-3 {
        stroke: none;
      }

      .cls-4 {
        fill: none;
      }
    </style>
  </defs>
  <g id="组_2345" data-name="组 2345" transform="translate(-114.778 -57.778)">
    <g id="矩形_1459" data-name="矩形 1459" class="cls-1" transform="translate(114.778 57.778)">
      <rect class="cls-3" width="22" height="22"/>
      <rect class="cls-4" x="0.5" y="0.5" width="21" height="21"/>
    </g>
    <path id="路径_2710" data-name="路径 2710" class="cls-2" d="M75.084,116.011v-1.877a.7.7,0,1,1,1.406,0v1.877h1.848a.714.714,0,0,1,0,1.429H76.49v1.877a.7.7,0,1,1-1.406,0V117.44H73.236a.714.714,0,0,1,0-1.429h1.848Zm6.767,2.87h9.136V114.31H81.851Zm0,1.571v4a.638.638,0,0,0,.633.643h7.871a.638.638,0,0,0,.632-.643v-4H81.851Zm0-7.714h9.136v-3.857a.638.638,0,0,0-.633-.643H82.484a.638.638,0,0,0-.632.643Zm.632-6.071h7.871a2.2,2.2,0,0,1,2.179,2.214v15.571a2.2,2.2,0,0,1-2.179,2.214H82.484a2.2,2.2,0,0,1-2.179-2.214V108.881A2.2,2.2,0,0,1,82.484,106.667Z" transform="translate(43.245 -47.889)"/>
  </g>
</svg>
