<svg xmlns="http://www.w3.org/2000/svg" width="12" height="12" viewBox="0 0 12 12">
  <defs>
    <style>
      .cls-1 {
        fill: #fff;
        stroke: #707070;
        opacity: 0;
      }

      .cls-2 {
        fill: #4d4d4d;
      }

      .cls-3 {
        stroke: none;
      }

      .cls-4 {
        fill: none;
      }
    </style>
  </defs>
  <g id="组_6325" data-name="组 6325" transform="translate(-1527 -520)">
    <g id="矩形_3418" data-name="矩形 3418" class="cls-1" transform="translate(1527 520)">
      <rect class="cls-3" width="12" height="12"/>
      <rect class="cls-4" x="0.5" y="0.5" width="11" height="11"/>
    </g>
    <path id="路径_7425" data-name="路径 7425" class="cls-2" d="M93.621,93.085H82.665a.522.522,0,0,0,0,1.043H93.621a.522.522,0,0,0,0-1.043Zm-6.26-1.565h1.565A.522.522,0,0,0,89.448,91V82.65a.522.522,0,0,0-.522-.522H87.361a.522.522,0,0,0-.522.522V91A.522.522,0,0,0,87.361,91.52Zm.783-2.608a.783.783,0,1,1-.783.783A.783.783,0,0,1,88.143,88.911Zm2.869,2.608h1.565A.522.522,0,0,0,93.1,91V84.215a.522.522,0,0,0-.522-.522H91.013a.522.522,0,0,0-.522.522V91A.522.522,0,0,0,91.013,91.52Zm.783-2.608a.783.783,0,1,1-.783.783A.783.783,0,0,1,91.8,88.911ZM83.709,91.52h1.565A.522.522,0,0,0,85.8,91V85.259a.522.522,0,0,0-.522-.522H83.709a.522.522,0,0,0-.522.522V91A.522.522,0,0,0,83.709,91.52Zm.783-2.608a.783.783,0,1,1-.783.783A.783.783,0,0,1,84.491,88.911Z" transform="translate(1444.857 437.872)"/>
  </g>
</svg>
