<svg xmlns="http://www.w3.org/2000/svg" width="16" height="16" viewBox="0 0 16 16">
  <defs>
    <style>
      .cls-1 {
        fill: #fff;
        stroke: #707070;
        opacity: 0;
      }

      .cls-2 {
        fill: #666;
      }

      .cls-3 {
        stroke: none;
      }

      .cls-4 {
        fill: none;
      }
    </style>
  </defs>
  <g id="组_5112" data-name="组 5112" transform="translate(-13929 5859)">
    <g id="矩形_2734" data-name="矩形 2734" class="cls-1" transform="translate(13929 -5859)">
      <rect class="cls-3" width="16" height="16"/>
      <rect class="cls-4" x="0.5" y="0.5" width="15" height="15"/>
    </g>
    <path id="路径_5832" data-name="路径 5832" class="cls-2" d="M107.436,75.952H95.69a.492.492,0,0,1-.49-.49V62.69a.492.492,0,0,1,.49-.49h11.746a.491.491,0,0,1,.49.49V75.462A.491.491,0,0,1,107.436,75.952ZM95.813,75.34h11.5V62.813h-11.5Zm-.069-9.012h11.639v.613H95.744Zm0,4.885h11.639v.613H95.744Zm5.819,4.492a.307.307,0,0,1-.306-.306V62.564a.306.306,0,1,1,.613,0V75.4A.307.307,0,0,1,101.563,75.7Zm-3.757-4.352a.307.307,0,0,1-.3-.233l-.42-1.678a.307.307,0,0,1,.6-.149l.42,1.678a.306.306,0,0,1-.224.372A.324.324,0,0,1,97.806,71.352Zm-1.072.015a.307.307,0,0,1-.3-.233l-.42-1.678a.307.307,0,0,1,.6-.149l.42,1.678a.306.306,0,0,1-.224.372A.324.324,0,0,1,96.734,71.367Zm7.2-4.533a.307.307,0,0,1-.3-.233l-.42-1.678a.307.307,0,1,1,.6-.149l.42,1.678a.306.306,0,0,1-.224.372A.324.324,0,0,1,103.932,66.834Zm-1.072.015a.307.307,0,0,1-.3-.233l-.42-1.678a.307.307,0,0,1,.6-.149l.42,1.678a.306.306,0,0,1-.224.372A.324.324,0,0,1,102.86,66.849Zm1.24,8.836a.307.307,0,0,1-.3-.233l-.42-1.678a.307.307,0,1,1,.6-.149l.42,1.678a.306.306,0,0,1-.224.372A.324.324,0,0,1,104.1,75.686Zm-1.072.015a.307.307,0,0,1-.3-.233l-.42-1.678a.307.307,0,0,1,.6-.149l.42,1.678a.306.306,0,0,1-.224.372A.324.324,0,0,1,103.029,75.7Z" transform="translate(13835.437 -5920.077)"/>
  </g>
</svg>
