<svg xmlns="http://www.w3.org/2000/svg" width="22" height="22" viewBox="0 0 22 22">
  <g id="组_2284" data-name="组 2284" transform="translate(-289 -30)">
    <g id="矩形_1412" data-name="矩形 1412" transform="translate(289 30)" fill="#fff" stroke="#707070" stroke-width="1" opacity="0">
      <rect width="22" height="22" stroke="none"/>
      <rect x="0.5" y="0.5" width="21" height="21" fill="none"/>
    </g>
    <path id="路径_2676" data-name="路径 2676" d="M10.542,19a.769.769,0,1,0,.769.769A.762.762,0,0,0,10.542,19Zm0-9.231a.769.769,0,1,0,.769.769.762.762,0,0,0-.769-.769Zm0,4.615a.769.769,0,1,0,.769.77.762.762,0,0,0-.769-.77ZM22.08,5.15H8.234A3.086,3.086,0,0,0,5.157,8.227V22.073A3.086,3.086,0,0,0,8.234,25.15H22.08a3.086,3.086,0,0,0,3.077-3.077V8.227A3.086,3.086,0,0,0,22.08,5.15Zm1.538,16.923a1.543,1.543,0,0,1-1.538,1.538H8.234A1.543,1.543,0,0,1,6.7,22.073V8.227A1.543,1.543,0,0,1,8.234,6.688H22.08a1.543,1.543,0,0,1,1.538,1.538V22.073ZM19.772,9.765H13.619a.769.769,0,1,0,0,1.538h6.154a.769.769,0,1,0,0-1.538Zm0,4.615H13.619a.769.769,0,0,0,0,1.539h6.154a.769.769,0,0,0,0-1.539Zm0,4.616H13.619a.769.769,0,1,0,0,1.538h6.154a.769.769,0,1,0,0-1.538Zm0,0" transform="translate(284.843 25.85)" fill="#333"/>
  </g>
</svg>
