<svg xmlns="http://www.w3.org/2000/svg" width="16" height="16" viewBox="0 0 16 16">
  <defs>
    <style>
      .cls-1 {
        fill: #fff;
        stroke: #707070;
        opacity: 0;
      }

      .cls-2 {
        fill: #666;
      }

      .cls-3 {
        stroke: none;
      }

      .cls-4 {
        fill: none;
      }
    </style>
  </defs>
  <g id="组_5006" data-name="组 5006" transform="translate(-13957 5743)">
    <g id="矩形_2730" data-name="矩形 2730" class="cls-1" transform="translate(13957 -5743)">
      <rect class="cls-3" width="16" height="16"/>
      <rect class="cls-4" x="0.5" y="0.5" width="15" height="15"/>
    </g>
    <path id="路径_5830" data-name="路径 5830" class="cls-2" d="M76.2,14.375a1.038,1.038,0,0,0-1.063-1.063H73.767A1.038,1.038,0,0,0,72.7,14.375V24.931H76.2Zm-.759,9.8H73.463v-9.8a.327.327,0,0,1,.3-.3h1.367a.327.327,0,0,1,.3.3Zm4.936-9.8a1.038,1.038,0,0,0-1.063-1.063H77.944a1.038,1.038,0,0,0-1.063,1.063V24.931h3.493Zm-.759,9.8H77.64v-9.8a.327.327,0,0,1,.3-.3h1.367a.327.327,0,0,1,.3.3Zm3.873-10.859H82.12a1.038,1.038,0,0,0-1.063,1.063V24.931H84.55V14.375A1.038,1.038,0,0,0,83.487,13.312Zm.3,10.859H81.817v-9.8a.327.327,0,0,1,.3-.3h1.367a.327.327,0,0,1,.3.3Zm.38,1.519H73.084a.38.38,0,0,0,0,.759H84.171a.38.38,0,1,0,0-.759Z" transform="translate(13886.373 -5754.881)"/>
  </g>
</svg>
