<svg xmlns="http://www.w3.org/2000/svg" width="28" height="28" viewBox="0 0 28 28"><defs><style>.a{fill:#fff;stroke:#707070;opacity:0;}.b,.d{fill:none;}.b{stroke:#fff;stroke-width:1.5px;}.c{stroke:none;}</style></defs><g transform="translate(-1276 -733)"><g class="a" transform="translate(1276 733)"><rect class="c" width="28" height="28"/><rect class="d" x="0.5" y="0.5" width="27" height="27"/></g><path class="b" d="M1290.814,741.709a16.507,16.507,0,0,0-8.906-2.066,7.591,7.591,0,0,0-2.908.73" transform="translate(0.494 0.904)"/><line class="b" y2="12.999" transform="translate(1279.974 740.5)"/><path class="b" d="M1290.814,741.709c-7.308-3.782-11.814-1.336-11.814-1.336" transform="translate(0.494 12.904)"/><line class="b" y2="12.999" transform="translate(1290.531 741.613)"/><path class="b" d="M1279,741.709c6.626-3.783,10.711-1.336,10.711-1.336" transform="translate(11.309 0.904)"/><line class="b" y2="12.999" transform="translate(1300.519 740.5)"/><path class="b" d="M1279,741.709c6.626-3.783,10.711-1.336,10.711-1.336" transform="translate(11.309 12.904)"/><path class="b" d="M0,0V13" transform="translate(1291.118 741.613)"/></g></svg>