<svg xmlns="http://www.w3.org/2000/svg" width="28" height="28" viewBox="0 0 28 28">
  <defs>
    <style>
      .cls-1 {
        fill: #fff;
        stroke: #707070;
        opacity: 0;
      }

      .cls-2, .cls-4 {
        fill: none;
      }

      .cls-3, .cls-5 {
        stroke: none;
      }

      .cls-5 {
        fill: #fff;
      }
    </style>
  </defs>
  <g id="组_19438" data-name="组 19438" transform="translate(-1177 -605)">
    <g id="矩形_13594" data-name="矩形 13594" class="cls-1" transform="translate(1177 605)">
      <rect class="cls-3" width="28" height="28"/>
      <rect class="cls-4" x="0.5" y="0.5" width="27" height="27"/>
    </g>
    <g id="联合_116" data-name="联合 116" class="cls-2" transform="translate(1201.498 625.773) rotate(180)">
      <path class="cls-3" d="M13,12.54v-2H1a1,1,0,0,1-1-1v-6a1,1,0,0,1,1-1H13V1A1,1,0,0,1,14.5.137l6,5.768a1,1,0,0,1,0,1.733l-6,5.769A1,1,0,0,1,13,12.54Z"/>
      <path class="cls-5" d="M 14.49960041046143 11.32554912567139 L 19.23516654968262 6.771162509918213 L 14.49960041046143 2.217486381530762 L 14.49960041046143 4.040699005126953 L 1.500000238418579 4.040699005126953 L 1.500000238418579 9.040799140930176 L 14.49960041046143 9.040799140930176 L 14.49960041046143 11.32554912567139 M 14.00160884857178 13.54158878326416 C 14.00158882141113 13.54158878326416 14.00157070159912 13.54158878326416 14.00154972076416 13.54158878326416 C 13.47900009155273 13.541579246521 12.99960041046143 13.12398910522461 12.99960041046143 12.53969860076904 L 12.99960041046143 10.54079914093018 L 0.9999001622200012 10.54079914093018 C 0.4473001956939697 10.54079914093018 1.846313466558058e-07 10.09349918365479 1.846313466558058e-07 9.540899276733398 L 1.846313466558058e-07 3.54059886932373 C 1.846313466558058e-07 2.988898992538452 0.4473001956939697 2.540699005126953 0.9999001622200012 2.540699005126953 L 12.99960041046143 2.540699005126953 L 12.99960041046143 1.002599000930786 C 12.99960041046143 0.2330985516309738 13.8330020904541 -0.2475004643201828 14.49989986419678 0.1367989480495453 L 20.49839973449707 5.904899120330811 C 21.1653003692627 6.290099143981934 21.1653003692627 7.253098964691162 20.49839973449707 7.637398719787598 L 14.49989986419678 13.40639877319336 C 14.33880996704102 13.49922752380371 14.16802978515625 13.54158878326416 14.00160884857178 13.54158878326416 Z"/>
    </g>
  </g>
</svg>
