<svg xmlns="http://www.w3.org/2000/svg" width="28" height="28" viewBox="0 0 28 28">
  <defs>
    <style>
      .cls-1 {
        fill: #fff;
        stroke: #707070;
        opacity: 0;
      }

      .cls-2, .cls-4 {
        fill: none;
      }

      .cls-2 {
        stroke: #333;
        stroke-miterlimit: 10;
        stroke-width: 1.5px;
      }

      .cls-3 {
        stroke: none;
      }
    </style>
  </defs>
  <g id="组_19408" data-name="组 19408" transform="translate(-1242 -828)">
    <g id="矩形_13627" data-name="矩形 13627" class="cls-1" transform="translate(1242 828)">
      <rect class="cls-3" width="28" height="28"/>
      <rect class="cls-4" x="0.5" y="0.5" width="27" height="27"/>
    </g>
    <path id="路径_8072" data-name="路径 8072" class="cls-2" d="M-2212.761-1.988s-.06.114-.173.308a12.222,12.222,0,0,1-3.521,3.812,26.918,26.918,0,0,1-3.4,2.243,47.469,47.469,0,0,1-4.366-2.976,7.365,7.365,0,0,1-1.483-1.37,7.483,7.483,0,0,1-1.248-2.016c-.1-.489,0-9.74,0-9.74a8.76,8.76,0,0,0,7.1-1.273,8.564,8.564,0,0,0,7.1,1.273Z" transform="translate(3475.879 846.313)"/>
  </g>
</svg>
