<svg xmlns="http://www.w3.org/2000/svg" width="28" height="28" viewBox="0 0 28 28">
  <defs>
    <style>
      .cls-1 {
        fill: #fff;
        stroke: #707070;
        opacity: 0;
      }

      .cls-2, .cls-4 {
        fill: none;
      }

      .cls-2 {
        stroke: #fff;
        stroke-width: 1.2px;
      }

      .cls-3 {
        stroke: none;
      }
    </style>
  </defs>
  <g id="组_19411" data-name="组 19411" transform="translate(-1243 -701)">
    <g id="矩形_13610" data-name="矩形 13610" class="cls-1" transform="translate(1243 701)">
      <rect class="cls-3" width="28" height="28"/>
      <rect class="cls-4" x="0.5" y="0.5" width="27" height="27"/>
    </g>
    <path id="路径_24830" data-name="路径 24830" class="cls-2" d="M12189.4-7303.085a2.5,2.5,0,0,1-1.735.7,2.506,2.506,0,0,1-2.023-1.03,2.511,2.511,0,0,1-2.026,1.03,2.506,2.506,0,0,1-2.023-1.03,2.506,2.506,0,0,1-2.023,1.03,2.511,2.511,0,0,1-2.025-1.03,2.505,2.505,0,0,1-2.025,1.03,2.521,2.521,0,0,1-2.512-2.526,2.534,2.534,0,0,1,1.024-2.036,2.531,2.531,0,0,1-1.024-2.036,2.521,2.521,0,0,1,.7-1.744,2.519,2.519,0,0,1-.7-1.744,2.523,2.523,0,0,1,2.512-2.529,2.507,2.507,0,0,1,2.025,1.031,2.512,2.512,0,0,1,2.025-1.031,2.505,2.505,0,0,1,2.023,1.032,2.505,2.505,0,0,1,2.023-1.032,2.512,2.512,0,0,1,2.026,1.032,2.507,2.507,0,0,1,2.023-1.032,2.5,2.5,0,0,1,1.735.7,2.5,2.5,0,0,1,1.735-.7,2.525,2.525,0,0,1,2.515,2.529,2.527,2.527,0,0,1-.7,1.744,2.529,2.529,0,0,1,.7,1.744,2.529,2.529,0,0,1-1.025,2.036,2.532,2.532,0,0,1,1.025,2.036,2.523,2.523,0,0,1-2.515,2.526A2.5,2.5,0,0,1,12189.4-7303.085Z" transform="translate(-10926.32 8023.504)"/>
  </g>
</svg>
