<svg xmlns="http://www.w3.org/2000/svg" width="36" height="22.172" viewBox="0 0 36 22.172">
  <defs>
    <style>
      .cls-1 {
        fill: #fff;
        stroke: #707070;
        opacity: 0;
      }

      .cls-2, .cls-4 {
        fill: none;
      }

      .cls-2 {
        stroke: #666;
        stroke-miterlimit: 10;
      }

      .cls-3 {
        stroke: none;
      }
    </style>
  </defs>
  <g id="组_19746" data-name="组 19746" transform="translate(-712 -622.914)">
    <g id="矩形_1327" data-name="矩形 1327" class="cls-1" transform="translate(712 623)">
      <rect class="cls-3" width="36" height="22"/>
      <rect class="cls-4" x="0.5" y="0.5" width="35" height="21"/>
    </g>
    <path id="路径_2722" data-name="路径 2722" class="cls-2" d="M670.331,349.624l-12.448,7.78a.815.815,0,0,0-.383.69v3.984a.815.815,0,0,0,.383.691l12.448,7.78a.815.815,0,0,0,.432.124h19.309a.815.815,0,0,0,.814-.814V350.314a.815.815,0,0,0-.814-.814H670.763A.815.815,0,0,0,670.331,349.624Z" transform="translate(55.807 273.914)"/>
  </g>
</svg>
