<svg xmlns="http://www.w3.org/2000/svg" width="28" height="28" viewBox="0 0 28 28">
  <defs>
    <style>
      .cls-1 {
        fill: #fff;
        stroke: #707070;
        opacity: 0;
      }

      .cls-2, .cls-4 {
        fill: none;
      }

      .cls-3, .cls-5 {
        stroke: none;
      }

      .cls-5 {
        fill: #fff;
      }
    </style>
  </defs>
  <g id="组_19412" data-name="组 19412" transform="translate(-1276 -701)">
    <g id="矩形_13611" data-name="矩形 13611" class="cls-1" transform="translate(1276 701)">
      <rect class="cls-3" width="28" height="28"/>
      <rect class="cls-4" x="0.5" y="0.5" width="27" height="27"/>
    </g>
    <g id="多边形_133" data-name="多边形 133" class="cls-2" transform="translate(1279 706)">
      <path class="cls-3" d="M9.352,2.4a2,2,0,0,1,3.3,0l7.2,10.47A2,2,0,0,1,18.2,16H3.8a2,2,0,0,1-1.648-3.133Z"/>
      <path class="cls-5" d="M 10.99999809265137 3.030265808105469 C 10.90176773071289 3.030265808105469 10.71762847900391 3.058425903320312 10.58797836303711 3.247005462646484 L 3.390037536621094 13.71674537658691 C 3.241209030151367 13.93322563171387 3.307048797607422 14.13297557830811 3.359548568725586 14.23277568817139 C 3.41204833984375 14.33257579803467 3.539337158203125 14.49999523162842 3.802057266235352 14.49999523162842 L 18.19793891906738 14.49999523162842 C 18.46065902709961 14.49999523162842 18.58794784545898 14.33257579803467 18.64044761657715 14.23277568817139 C 18.69294738769531 14.13297557830811 18.7587890625 13.93322563171387 18.60995864868164 13.71673583984375 L 11.41200828552246 3.247005462646484 C 11.28236770629883 3.058425903320312 11.09822845458984 3.030265808105469 10.99999809265137 3.030265808105469 M 10.99999809265137 1.530267715454102 C 11.62536525726318 1.530267715454102 12.25073337554932 1.819250106811523 12.64807796478271 2.397215843200684 L 19.84601783752441 12.86694526672363 C 20.75833892822266 14.19394493103027 19.80829811096191 15.99999523162842 18.19793891906738 15.99999523162842 L 3.802057266235352 15.99999523162842 C 2.19169807434082 15.99999523162842 1.241657257080078 14.19394493103027 2.15397834777832 12.86694526672363 L 9.35191822052002 2.397215843200684 C 9.749262809753418 1.819250106811523 10.37463092803955 1.530267715454102 10.99999809265137 1.530267715454102 Z"/>
    </g>
  </g>
</svg>
