<svg xmlns="http://www.w3.org/2000/svg" width="28" height="28" viewBox="0 0 28 28">
  <defs>
    <style>
      .cls-1 {
        fill: #fff;
        stroke: #707070;
        opacity: 0;
      }

      .cls-2, .cls-4 {
        fill: none;
      }

      .cls-2 {
        stroke: #333;
        stroke-miterlimit: 10;
        stroke-width: 1.5px;
      }

      .cls-3 {
        stroke: none;
      }
    </style>
  </defs>
  <g id="组_19382" data-name="组 19382" transform="translate(-1241 -605)">
    <g id="矩形_13597" data-name="矩形 13597" class="cls-1" transform="translate(1241 605)">
      <rect class="cls-3" width="28" height="28"/>
      <rect class="cls-4" x="0.5" y="0.5" width="27" height="27"/>
    </g>
    <path id="路径_24824" data-name="路径 24824" class="cls-2" d="M472.7,95.924h0a.139.139,0,0,1-.139-.138,5.424,5.424,0,0,0-10.845,0,.139.139,0,0,1-.139.138h0a4.027,4.027,0,0,0-4.08,3.8,3.918,3.918,0,0,0,3.916,4.038h11.452a3.919,3.919,0,0,0,3.889-4.393A4.028,4.028,0,0,0,472.7,95.924Z" transform="translate(787.857 521.871)"/>
  </g>
</svg>
