<svg xmlns="http://www.w3.org/2000/svg" width="28" height="28" viewBox="0 0 28 28">
  <defs>
    <style>
      .cls-1 {
        fill: #fff;
        stroke: #707070;
        opacity: 0;
      }

      .cls-2, .cls-4 {
        fill: none;
      }

      .cls-3, .cls-5 {
        stroke: none;
      }

      .cls-5 {
        fill: #fff;
      }
    </style>
  </defs>
  <g id="组_19421" data-name="组 19421" transform="translate(-1210 -733)">
    <g id="矩形_13613" data-name="矩形 13613" class="cls-1" transform="translate(1210 733)">
      <rect class="cls-3" width="28" height="28"/>
      <rect class="cls-4" x="0.5" y="0.5" width="27" height="27"/>
    </g>
    <g id="多边形_135" data-name="多边形 135" class="cls-2" transform="translate(1233 736) rotate(90)">
      <path class="cls-3" d="M9.352,2.4a2,2,0,0,1,3.3,0l7.2,10.47A2,2,0,0,1,18.2,16H3.8a2,2,0,0,1-1.648-3.133Z"/>
      <path class="cls-5" d="M 10.99999904632568 3.030274391174316 C 10.90176868438721 3.030274391174316 10.71762943267822 3.05843448638916 10.58797931671143 3.247004508972168 L 3.390039443969727 13.7167444229126 C 3.241199493408203 13.93322467803955 3.307048797607422 14.13297462463379 3.359548568725586 14.23277473449707 C 3.41204833984375 14.33257484436035 3.539339065551758 14.50000476837158 3.802059173583984 14.50000476837158 L 18.19793891906738 14.50000476837158 C 18.46065902709961 14.50000476837158 18.58794975280762 14.33257484436035 18.64044952392578 14.23277473449707 C 18.69294929504395 14.13297462463379 18.75879859924316 13.93322467803955 18.60995864868164 13.71673488616943 L 11.41200923919678 3.247004508972168 C 11.28236865997314 3.05843448638916 11.09822940826416 3.030274391174316 10.99999904632568 3.030274391174316 M 11.00000286102295 1.530270576477051 C 11.62537097930908 1.530270576477051 12.25073432922363 1.819249153137207 12.64807891845703 2.397214889526367 L 19.84601974487305 12.86694526672363 C 20.75833892822266 14.19394493103027 19.80830001831055 16.00000381469727 18.19793891906738 16.00000381469727 L 3.802059173583984 16.00000381469727 C 2.191699981689453 16.00000381469727 1.241659164428711 14.19394493103027 2.15397834777832 12.86694526672363 L 9.351919174194336 2.397214889526367 C 9.749263763427734 1.819254875183105 10.37463569641113 1.530270576477051 11.00000286102295 1.530270576477051 Z"/>
    </g>
  </g>
</svg>
