<svg xmlns="http://www.w3.org/2000/svg" width="28" height="28" viewBox="0 0 28 28">
  <defs>
    <style>
      .cls-1, .cls-2 {
        fill: #fff;
      }

      .cls-1 {
        stroke: #707070;
        opacity: 0;
      }

      .cls-2 {
        stroke: #fff;
        stroke-width: 0.6px;
      }

      .cls-3 {
        stroke: none;
      }

      .cls-4 {
        fill: none;
      }
    </style>
  </defs>
  <g id="组_19423" data-name="组 19423" transform="translate(-1211 -797)">
    <g id="矩形_13622" data-name="矩形 13622" class="cls-1" transform="translate(1211 797)">
      <rect class="cls-3" width="28" height="28"/>
      <rect class="cls-4" x="0.5" y="0.5" width="27" height="27"/>
    </g>
    <g id="组_17025" data-name="组 17025" transform="translate(3779.252 1019.357)">
      <path id="路径_8067" data-name="路径 8067" class="cls-2" d="M-2555.246-199.439a1.317,1.317,0,0,1-.849-.3c-.2-.168-5.164-4-7.148-7.125a7.86,7.86,0,0,1-1.566-4.411,5.777,5.777,0,0,1,5.5-6,5.355,5.355,0,0,1,4.064,1.937,5.257,5.257,0,0,1,4.053-1.937,5.769,5.769,0,0,1,5.5,6,7.743,7.743,0,0,1-1.542,4.375l-.024.036c-1.985,3.12-6.946,6.969-7.149,7.125a1.327,1.327,0,0,1-.837.3Zm-4.064-16.88a4.813,4.813,0,0,0-4.543,5.045,6.929,6.929,0,0,0,1.411,3.9c1.9,2.976,6.73,6.73,6.933,6.886a.444.444,0,0,0,.263.1.443.443,0,0,0,.263-.1c.2-.155,5.033-3.909,6.933-6.886l.024-.036a6.917,6.917,0,0,0,1.387-3.861,4.828,4.828,0,0,0-4.543-5.045,4.33,4.33,0,0,0-3.514,1.853l-.144.2a.5.5,0,0,1-.382.191.48.48,0,0,1-.383-.191l-.144-.2a4.534,4.534,0,0,0-3.562-1.853Zm0,0"/>
    </g>
  </g>
</svg>
