<svg xmlns="http://www.w3.org/2000/svg" width="28" height="28" viewBox="0 0 28 28">
  <defs>
    <style>
      .cls-1 {
        fill: #fff;
        stroke: #707070;
        opacity: 0;
      }

      .cls-2, .cls-4 {
        fill: none;
      }

      .cls-3, .cls-5 {
        stroke: none;
      }

      .cls-5 {
        fill: #333;
      }
    </style>
  </defs>
  <g id="组_19389" data-name="组 19389" transform="translate(-1210 -669)">
    <g id="矩形_13605" data-name="矩形 13605" class="cls-1" transform="translate(1210 669)">
      <rect class="cls-3" width="28" height="28"/>
      <rect class="cls-4" x="0.5" y="0.5" width="27" height="27"/>
    </g>
    <g id="路径_24825" data-name="路径 24825" class="cls-2" transform="translate(1213.029 676)">
      <path class="cls-3" d="M17.344,0l4.6,4.125V9.959l-4.6,4.125H4.6L0,9.959V4.125L4.6,0Z"/>
      <path class="cls-5" d="M 5.172534942626953 1.500001907348633 L 1.500001907348633 4.794597625732422 L 1.500001907348633 9.289386749267578 L 5.172534942626953 12.58398246765137 L 16.77016830444336 12.58398246765137 L 20.44270133972168 9.289386749267578 L 20.44270133972168 4.794597625732422 L 16.77016830444336 1.500001907348633 L 5.172534942626953 1.500001907348633 M 4.598312377929688 1.9073486328125e-06 L 17.34439086914062 1.9073486328125e-06 L 21.94270133972168 4.125102043151855 L 21.94270133972168 9.958882331848145 L 17.34439086914062 14.08398246765137 L 4.598312377929688 14.08398246765137 L 1.9073486328125e-06 9.958882331848145 L 1.9073486328125e-06 4.125102043151855 L 4.598312377929688 1.9073486328125e-06 Z"/>
    </g>
  </g>
</svg>
