<svg xmlns="http://www.w3.org/2000/svg" width="36" height="22" viewBox="0 0 36 22">
  <defs>
    <style>
      .cls-1 {
        fill: #fff;
        stroke: #707070;
        opacity: 0;
      }

      .cls-2, .cls-4 {
        fill: none;
      }

      .cls-2 {
        stroke: #fff;
        stroke-miterlimit: 10;
      }

      .cls-3 {
        stroke: none;
      }
    </style>
  </defs>
  <g id="组_2236" data-name="组 2236" transform="translate(-687 -689)">
    <g id="矩形_1328" data-name="矩形 1328" class="cls-1" transform="translate(687 689)">
      <rect class="cls-3" width="36" height="22"/>
      <rect class="cls-4" x="0.5" y="0.5" width="35" height="21"/>
    </g>
    <path id="路径_2721" data-name="路径 2721" class="cls-2" d="M767.871,363.466a.717.717,0,0,1,0-1.25,5.139,5.139,0,0,0,2.722-4.368c0-2.954-2.873-5.349-6.419-5.349a6.951,6.951,0,0,0-4.992,1.99,6.951,6.951,0,0,0-4.992-1.99,7.061,7.061,0,0,0-4.636,1.655,7.061,7.061,0,0,0-4.636-1.655c-3.545,0-6.419,2.395-6.419,5.349a5.139,5.139,0,0,0,2.722,4.368.717.717,0,0,1,0,1.25,5.139,5.139,0,0,0-2.722,4.367c0,2.954,2.873,5.349,6.419,5.349a7.061,7.061,0,0,0,4.636-1.655,7.061,7.061,0,0,0,4.636,1.655,6.951,6.951,0,0,0,4.992-1.99,6.951,6.951,0,0,0,4.992,1.99c3.545,0,6.419-2.395,6.419-5.349A5.139,5.139,0,0,0,767.871,363.466Z" transform="translate(-50 337)"/>
  </g>
</svg>
