<svg xmlns="http://www.w3.org/2000/svg" width="28" height="28" viewBox="0 0 28 28">
  <defs>
    <style>
      .cls-1 {
        fill: #fff;
        stroke: #707070;
        opacity: 0;
      }

      .cls-2, .cls-4 {
        fill: none;
      }

      .cls-3, .cls-5 {
        stroke: none;
      }

      .cls-5 {
        fill: #fff;
      }
    </style>
  </defs>
  <g id="组_19445" data-name="组 19445" transform="translate(-1273 -572)">
    <g id="矩形_13592" data-name="矩形 13592" class="cls-1" transform="translate(1273 572)">
      <rect class="cls-3" width="28" height="28"/>
      <rect class="cls-4" x="0.5" y="0.5" width="27" height="27"/>
    </g>
    <g id="联合_115" data-name="联合 115" class="cls-2" transform="translate(-19887 -18029.266)">
      <path class="cls-3" d="M21177,18621.039v-1.541h-12a1,1,0,0,1-1-1v-6a1,1,0,0,1,1-1h12v-2a1,1,0,0,1,1.5-.867l6,5.77a1,1,0,0,1,0,1.732l-6,5.77a1,1,0,0,1-1.5-.867Z"/>
      <path class="cls-5" d="M 21178.5 18619.82421875 L 21183.232421875 18615.26953125 L 21178.5 18610.716796875 L 21178.5 18613.001953125 L 21165.5 18613.001953125 L 21165.5 18617.998046875 L 21178.5 18617.998046875 L 21178.5 18619.82421875 M 21178.001953125 18622.041015625 C 21177.48046875 18622.041015625 21177 18621.625 21177 18621.0390625 L 21177 18619.498046875 L 21165 18619.498046875 C 21164.447265625 18619.498046875 21164 18619.05078125 21164 18618.498046875 L 21164 18612.5 C 21164 18611.947265625 21164.447265625 18611.501953125 21165 18611.501953125 L 21177 18611.501953125 L 21177 18609.501953125 C 21177 18608.916015625 21177.48046875 18608.5 21178.00390625 18608.5 C 21178.169921875 18608.5 21178.33984375 18608.54296875 21178.5 18608.634765625 L 21184.49609375 18614.404296875 C 21185.166015625 18614.787109375 21185.166015625 18615.75 21184.49609375 18616.13671875 L 21178.5 18621.90625 C 21178.33984375 18621.998046875 21178.16796875 18622.041015625 21178.001953125 18622.041015625 Z"/>
    </g>
  </g>
</svg>
