<svg xmlns="http://www.w3.org/2000/svg" width="28" height="28" viewBox="0 0 28 28">
  <defs>
    <style>
      .cls-1 {
        fill: #fff;
        stroke: #707070;
        opacity: 0;
      }

      .cls-2, .cls-4 {
        fill: none;
      }

      .cls-2 {
        stroke: #333;
        stroke-width: 1.5px;
      }

      .cls-3 {
        stroke: none;
      }
    </style>
  </defs>
  <g id="组_19399" data-name="组 19399" transform="translate(-1276 -733)">
    <g id="矩形_13616" data-name="矩形 13616" class="cls-1" transform="translate(1276 733)">
      <rect class="cls-3" width="28" height="28"/>
      <rect class="cls-4" x="0.5" y="0.5" width="27" height="27"/>
    </g>
    <g id="矩形_13615" data-name="矩形 13615" class="cls-2" transform="translate(1279 740)">
      <path class="cls-3" d="M6,0H22a0,0,0,0,1,0,0V9a6,6,0,0,1-6,6H0a0,0,0,0,1,0,0V6A6,6,0,0,1,6,0Z"/>
      <path class="cls-4" d="M6,.75H20.5a.75.75,0,0,1,.75.75V9A5.25,5.25,0,0,1,16,14.25H1.5a.75.75,0,0,1-.75-.75V6A5.25,5.25,0,0,1,6,.75Z"/>
    </g>
  </g>
</svg>
