<svg xmlns="http://www.w3.org/2000/svg" width="28" height="28" viewBox="0 0 28 28">
  <defs>
    <style>
      .cls-1, .cls-2 {
        fill: #fff;
      }

      .cls-1 {
        stroke: #707070;
        opacity: 0;
      }

      .cls-2 {
        stroke: #fff;
        stroke-width: 0.6px;
      }

      .cls-3 {
        stroke: none;
      }

      .cls-4 {
        fill: none;
      }
    </style>
  </defs>
  <g id="组_19418" data-name="组 19418" transform="translate(-1276 -797)">
    <g id="矩形_13624" data-name="矩形 13624" class="cls-1" transform="translate(1276 797)">
      <rect class="cls-3" width="28" height="28"/>
      <rect class="cls-4" x="0.5" y="0.5" width="27" height="27"/>
    </g>
    <path id="路径_8080" data-name="路径 8080" class="cls-2" d="M94.811,104.853a.837.837,0,0,0-.6-.552l-5.191-1.253-2.8-4.551a.831.831,0,0,0-1.418,0l-2.8,4.551L76.821,104.3a.837.837,0,0,0-.6.552.827.827,0,0,0,.159.8l3.464,4.065-.413,5.324a.834.834,0,0,0,.832.9.864.864,0,0,0,.318-.062l4.935-2.039,4.938,2.039a.822.822,0,0,0,.318.062.834.834,0,0,0,.832-.9l-.413-5.324,3.464-4.065A.847.847,0,0,0,94.811,104.853Zm-4.48,4.585.44,5.668-5.256-2.17-5.253,2.17.44-5.668-3.689-4.327,5.526-1.332,2.976-4.843,2.976,4.843,5.526,1.332Z" transform="translate(1204.486 703.98)"/>
  </g>
</svg>
