<svg xmlns="http://www.w3.org/2000/svg" width="35" height="30" viewBox="0 0 35 30">
  <defs>
    <style>
      .cls-1, .cls-2 {
        fill: #fff;
      }

      .cls-1 {
        stroke: #707070;
        opacity: 0;
      }

      .cls-3, .cls-5 {
        fill: none;
      }

      .cls-3 {
        stroke: #fff;
        stroke-linecap: round;
        stroke-linejoin: round;
        stroke-width: 1.3px;
      }

      .cls-4 {
        stroke: none;
      }
    </style>
  </defs>
  <g id="组_6710" data-name="组 6710" transform="translate(-444.604 -513.292)">
    <g id="矩形_2124" data-name="矩形 2124" class="cls-1" transform="translate(444.603 513.292)">
      <rect class="cls-4" width="35" height="30"/>
      <rect class="cls-5" x="0.5" y="0.5" width="34" height="29"/>
    </g>
    <rect id="矩形_2123" data-name="矩形 2123" class="cls-2" width="11" height="7" transform="translate(444.604 525.292)"/>
    <rect id="矩形_2125" data-name="矩形 2125" class="cls-2" width="11" height="6" transform="translate(468.603 513.292)"/>
    <rect id="矩形_2126" data-name="矩形 2126" class="cls-2" width="11" height="7" transform="translate(468.603 525.292)"/>
    <rect id="矩形_2127" data-name="矩形 2127" class="cls-2" width="11" height="6" transform="translate(468.603 537.292)"/>
    <path id="路径_4879" data-name="路径 4879" class="cls-3" d="M101.679,12.547a3.074,3.074,0,0,0-3.058,3.089V21.5a3.074,3.074,0,0,1-3.059,3.089,3.074,3.074,0,0,1,3.059,3.089v5.864a3.073,3.073,0,0,0,3.058,3.089" transform="translate(362.899 504.202)"/>
  </g>
</svg>
