<svg xmlns="http://www.w3.org/2000/svg" width="24" height="24" viewBox="0 0 24 24">
  <defs>
    <style>
      .cls-1 {
        fill: #fff;
        stroke: #707070;
        opacity: 0;
      }

      .cls-2 {
        fill: #ccc;
      }

      .cls-3 {
        stroke: none;
      }

      .cls-4 {
        fill: none;
      }
    </style>
  </defs>
  <g id="组_6478" data-name="组 6478" transform="translate(-748.711 -9105.711)">
    <g id="矩形_2208" data-name="矩形 2208" class="cls-1" transform="translate(748.711 9105.711)">
      <rect class="cls-3" width="24" height="24"/>
      <rect class="cls-4" x="0.5" y="0.5" width="23" height="23"/>
    </g>
    <path id="路径_7457" data-name="路径 7457" class="cls-2" d="M97.712,4.375V3.48h-.854v.895Zm-4.354,0V3.48H92.5v.895Zm4.8-2.482a4.891,4.891,0,0,1,2.156,4.191H89.9a4.854,4.854,0,0,1,2.116-4.191L90.876.752a.367.367,0,0,1,0-.61.4.4,0,0,1,.61,0l1.3,1.3A4.816,4.816,0,0,1,95.108.875a4.734,4.734,0,0,1,2.278.569l1.3-1.3a.4.4,0,0,1,.61,0,.4.4,0,0,1,0,.61Zm4.312,5.086a1.319,1.319,0,0,1,1.3,1.3v6.062a1.233,1.233,0,0,1-.386.936,1.328,1.328,0,0,1-1.831,0,1.233,1.233,0,0,1-.386-.936V8.28a1.319,1.319,0,0,1,1.3-1.3Zm-14.728,0a1.319,1.319,0,0,1,1.3,1.3v6.062a1.233,1.233,0,0,1-.386.936,1.328,1.328,0,0,1-1.831,0,1.233,1.233,0,0,1-.386-.936V8.28a1.319,1.319,0,0,1,1.3-1.3ZM89.9,15.644V6.978h10.416v8.666a.834.834,0,0,1-.854.854h-.895V19.55a1.233,1.233,0,0,1-.386.936,1.328,1.328,0,0,1-1.831,0,1.233,1.233,0,0,1-.386-.936V16.5H94.254V19.55a1.233,1.233,0,0,1-.386.936,1.328,1.328,0,0,1-1.831,0,1.233,1.233,0,0,1-.386-.936V16.5h-.895a.834.834,0,0,1-.854-.854Z" transform="translate(665.603 9107.285)"/>
  </g>
</svg>
