<svg xmlns="http://www.w3.org/2000/svg" width="24" height="24" viewBox="0 0 24 24">
  <defs>
    <style>
      .cls-1 {
        fill: #fff;
        stroke: #707070;
        opacity: 0;
      }

      .cls-2 {
        fill: #ccc;
      }

      .cls-3 {
        stroke: none;
      }

      .cls-4 {
        fill: none;
      }
    </style>
  </defs>
  <g id="组_6477" data-name="组 6477" transform="translate(-602.557 -9105.557)">
    <g id="矩形_2207" data-name="矩形 2207" class="cls-1" transform="translate(602.557 9105.557)">
      <rect class="cls-3" width="24" height="24"/>
      <rect class="cls-4" x="0.5" y="0.5" width="23" height="23"/>
    </g>
    <path id="路径_7456" data-name="路径 7456" class="cls-2" d="M191.415,112.852a11.062,11.062,0,0,1-1.4,2.9c-.848,1.234-1.725,2.478-3.111,2.5-1.362.024-1.8-.813-3.354-.813s-2.042.791-3.329.837c-1.331.054-2.355-1.348-3.206-2.576-1.74-2.516-3.08-7.129-1.283-10.22a4.967,4.967,0,0,1,4.2-2.557c1.3-.025,2.545.883,3.337.883.814,0,2.315-1.1,3.9-.934a4.781,4.781,0,0,1,3.712,2.009,4.653,4.653,0,0,0-2.2,3.87,4.466,4.466,0,0,0,2.731,4.1m-5.285-11.631a4.538,4.538,0,0,0,1.06-3.257,4.554,4.554,0,0,0-3,1.543,4.233,4.233,0,0,0-1.068,3.147,3.882,3.882,0,0,0,3.008-1.432" transform="translate(431.411 9009.437)"/>
  </g>
</svg>
