<svg xmlns="http://www.w3.org/2000/svg" width="24" height="24" viewBox="0 0 24 24">
  <defs>
    <style>
      .cls-1 {
        fill: #fff;
        stroke: #707070;
        opacity: 0;
      }

      .cls-2 {
        fill: #ccc;
      }

      .cls-3 {
        stroke: none;
      }

      .cls-4 {
        fill: none;
      }
    </style>
  </defs>
  <g id="组_6479" data-name="组 6479" transform="translate(-877.088 -9106.088)">
    <g id="矩形_2209" data-name="矩形 2209" class="cls-1" transform="translate(877.088 9106.088)">
      <rect class="cls-3" width="24" height="24"/>
      <rect class="cls-4" x="0.5" y="0.5" width="23" height="23"/>
    </g>
    <path id="ios-grey.3b5e097a" class="cls-2" d="M5.685,22.3a.326.326,0,0,1,.163-.131,3.262,3.262,0,0,1,.783-.131,2.836,2.836,0,0,1,1.892.721.2.2,0,0,1,.033.229L7.218,25.281A1.436,1.436,0,0,1,5.978,26a1.4,1.4,0,0,1-.848-.295,1.471,1.471,0,0,1-.359-1.9Zm17.391-3.506a1.457,1.457,0,0,1,1.468,1.278,1.438,1.438,0,0,1-1.4,1.573H21.412l1.273,2.2a1.471,1.471,0,0,1-.359,1.9,1.4,1.4,0,0,1-.848.295,1.436,1.436,0,0,1-1.24-.721l-3.067-5.34L14.755,15.78c-.033-.033-.033-.066-.033-.131,0-.164-.033-.328-.033-.491a6.586,6.586,0,0,1,.783-3.211.183.183,0,0,1,.294,0l3.981,6.815h3.328Zm-7.5.066a2.493,2.493,0,0,1,1.175,2.162,3.239,3.239,0,0,1-.065.557c0,.033-.065.066-.1.066H4.412a1.426,1.426,0,1,1,.065-2.85h3.23l4.4-7.6L10.905,9.129a1.4,1.4,0,0,1,.653-2,1.512,1.512,0,0,1,1.86.622l.359.623.392-.655a1.415,1.415,0,1,1,2.414,1.474l-5.612,9.6h4.372A.47.47,0,0,1,15.571,18.859Z" transform="translate(875.314 9101.57)"/>
  </g>
</svg>
