<svg xmlns="http://www.w3.org/2000/svg" width="18" height="18" viewBox="0 0 18 18">
  <defs>
    <style>
      .cls-1 {
        fill: #fff;
        stroke: #707070;
        opacity: 0;
      }

      .cls-2, .cls-3, .cls-5 {
        fill: none;
      }

      .cls-2, .cls-3 {
        stroke: #fff;
        stroke-miterlimit: 10;
        stroke-width: 1.2px;
      }

      .cls-3 {
        stroke-dasharray: 2;
      }

      .cls-4 {
        stroke: none;
      }
    </style>
  </defs>
  <g id="组_19536" data-name="组 19536" transform="translate(-1203 -248)">
    <g id="矩形_13632" data-name="矩形 13632" class="cls-1" transform="translate(1203 248)">
      <rect class="cls-4" width="18" height="18"/>
      <rect class="cls-5" x="0.5" y="0.5" width="17" height="17"/>
    </g>
    <g id="组_19471" data-name="组 19471" transform="translate(1841.762 231.336)">
      <path id="减去_93" data-name="减去 93" class="cls-2" d="M9.417,10.417H8.357V2.912a1,1,0,0,0-1-1H0V1A1,1,0,0,1,1,0H9.417a1,1,0,0,1,1,1V9.417A1,1,0,0,1,9.417,10.417Z" transform="translate(-633.94 19.5)"/>
      <rect id="矩形_13633" data-name="矩形 13633" class="cls-2" width="10.417" height="10.417" rx="1" transform="translate(-636 21.411)"/>
      <path id="路径_24835" data-name="路径 24835" class="cls-3" d="M-600.2,96.762h-6.3V92.5" transform="translate(-27.289 -67.295)"/>
    </g>
  </g>
</svg>
