<svg xmlns="http://www.w3.org/2000/svg" width="18" height="18" viewBox="0 0 18 18">
  <defs>
    <style>
      .cls-1 {
        fill: #fff;
        stroke: #707070;
        opacity: 0;
      }

      .cls-2, .cls-3, .cls-5 {
        fill: none;
      }

      .cls-2, .cls-3 {
        stroke: #fff;
        stroke-miterlimit: 10;
        stroke-width: 1.2px;
      }

      .cls-3 {
        stroke-linecap: round;
      }

      .cls-4 {
        stroke: none;
      }
    </style>
  </defs>
  <g id="组_19542" data-name="组 19542" transform="translate(-1203 -290)">
    <g id="矩形_13638" data-name="矩形 13638" class="cls-1" transform="translate(1203 290)">
      <rect class="cls-4" width="18" height="18"/>
      <rect class="cls-5" x="0.5" y="0.5" width="17" height="17"/>
    </g>
    <g id="组_19475" data-name="组 19475" transform="translate(2070.396 -231.98)">
      <path id="路径_24838" data-name="路径 24838" class="cls-2" d="M-851.324,527.126l-6.194-3.467a.113.113,0,0,0-.11,0l-6.138,3.467a.113.113,0,0,0-.005.194l6.143,3.826a.113.113,0,0,0,.12,0l6.188-3.826A.113.113,0,0,0-851.324,527.126Z" transform="translate(-0.852 0.548)"/>
      <path id="路径_24839" data-name="路径 24839" class="cls-3" d="M-864.784,588.784l6.36,3.56a.113.113,0,0,0,.11,0l6.3-3.5" transform="translate(0 -57.589)"/>
      <path id="路径_24840" data-name="路径 24840" class="cls-3" d="M-864.784,616.784l6.36,3.56a.113.113,0,0,0,.11,0l6.3-3.5" transform="translate(0 -82.59)"/>
    </g>
  </g>
</svg>
