<svg xmlns="http://www.w3.org/2000/svg" width="18" height="18" viewBox="0 0 18 18"><defs><style>.a,.c{fill:#fff;}.a{stroke:#707070;opacity:0;}.b,.e{fill:none;}.b{stroke:#fff;stroke-miterlimit:10;stroke-width:1.2px;}.d{stroke:none;}</style></defs><g transform="translate(-540.349 -141.349)"><g class="a" transform="translate(540.349 141.349)"><rect class="d" width="18" height="18"/><rect class="e" x="0.5" y="0.5" width="17" height="17"/></g><g transform="translate(3187.115 2768.513)"><path class="b" d="M-2620.7-2618.9l-4.2,4.2-4.833-4.833a.114.114,0,0,1-.026-.1.114.114,0,0,1,.062-.08c.786-.454,2.16-3.657,2.757-5.125a.505.505,0,0,1,.342-.321.505.505,0,0,1,.458.1l5.868,5.525c.176.2-.2.385-.429.633Z" transform="translate(-11.034)"/><path class="b" d="M-2635.55-2597.21l-5.319-5.319a.478.478,0,0,0-.339-.141.477.477,0,0,0-.339.141l-1.121,1.12a.481.481,0,0,0,0,.679l1.645,1.644a.241.241,0,0,1,.073.173.241.241,0,0,1-.073.173,10.271,10.271,0,0,1-2.392,1.372,1.331,1.331,0,0,0-.611.536,1.868,1.868,0,0,0,.3,2.241,1.869,1.869,0,0,0,2.241.3,1.339,1.339,0,0,0,.536-.612,10.253,10.253,0,0,1,1.371-2.392.237.237,0,0,1,.172-.074.239.239,0,0,1,.173.074l1.545,1.545a.961.961,0,0,0,1.357,0l.781-.782a.478.478,0,0,0,.141-.339.478.478,0,0,0-.141-.339Z" transform="translate(0 -17.106)"/><path class="c" d="M-2607.223-2610.9s-1.305,2.074-1.843,2.752c-.1.16,0,.32.24.2.635-.2,2.358-1,2.756-1.864Z" transform="translate(-26.924 -10.855)"/></g></g></svg>