<svg xmlns="http://www.w3.org/2000/svg" width="18" height="18" viewBox="0 0 18 18">
  <defs>
    <style>
      .cls-1 {
        fill: #fff;
        opacity: 0;
      }

      .cls-1, .cls-2, .cls-3 {
        stroke: #707070;
      }

      .cls-2, .cls-3, .cls-5 {
        fill: none;
      }

      .cls-2 {
        stroke-miterlimit: 10;
      }

      .cls-2, .cls-3 {
        stroke-width: 1.3px;
      }

      .cls-4 {
        stroke: none;
      }
    </style>
  </defs>
  <g id="组_17070" data-name="组 17070" transform="translate(-926 -370)">
    <g id="矩形_3844" data-name="矩形 3844" class="cls-1" transform="translate(926 370)">
      <rect class="cls-4" width="18" height="18"/>
      <rect class="cls-5" x="0.5" y="0.5" width="17" height="17"/>
    </g>
    <g id="组_17053" data-name="组 17053" transform="translate(930.223 384.159) rotate(-90)">
      <g id="组_17052" data-name="组 17052" transform="translate(0.657 -2.234)">
        <path id="路径_8108" data-name="路径 8108" class="cls-2" d="M4.5,0V7.268a2.543,2.543,0,0,1-2.251,2.758h0A2.543,2.543,0,0,1,0,7.268V0" transform="translate(4.502 3.997)"/>
        <path id="路径_8109" data-name="路径 8109" class="cls-2" d="M0,10.206v-7.4A2.576,2.576,0,0,1,2.251,0h0A2.576,2.576,0,0,1,4.5,2.808v7.4"/>
      </g>
      <g id="椭圆_1038" data-name="椭圆 1038" class="cls-3" transform="translate(6.604 -3.074)">
        <circle class="cls-4" cx="3.057" cy="3.057" r="3.057"/>
        <circle class="cls-5" cx="3.057" cy="3.057" r="2.407"/>
      </g>
      <g id="椭圆_1039" data-name="椭圆 1039" class="cls-3" transform="translate(-2.4 6.674)">
        <circle class="cls-4" cx="3.057" cy="3.057" r="3.057"/>
        <circle class="cls-5" cx="3.057" cy="3.057" r="2.407"/>
      </g>
    </g>
  </g>
</svg>
