<svg xmlns="http://www.w3.org/2000/svg" width="18" height="18" viewBox="0 0 18 18">
  <defs>
    <style>
      .cls-1 {
        fill: #fff;
        stroke: #707070;
        opacity: 0;
      }

      .cls-2, .cls-3, .cls-5 {
        fill: none;
      }

      .cls-2, .cls-3 {
        stroke: #333;
        stroke-miterlimit: 10;
        stroke-width: 1.2px;
      }

      .cls-3 {
        stroke-dasharray: 2;
      }

      .cls-4 {
        stroke: none;
      }
    </style>
  </defs>
  <g id="组_19500" data-name="组 19500" transform="translate(-1203 -248)">
    <g id="矩形_13632" data-name="矩形 13632" class="cls-1" transform="translate(1203 248)">
      <rect class="cls-4" width="18" height="18"/>
      <rect class="cls-5" x="0.5" y="0.5" width="17" height="17"/>
    </g>
    <g id="组_19471" data-name="组 19471" transform="translate(1841.482 231.059)">
      <path id="减去_93" data-name="减去 93" class="cls-2" d="M9.885,10.884H8.732V3a1,1,0,0,0-1-1H0V1A1,1,0,0,1,1,0H9.885a1,1,0,0,1,1,1V9.884A1,1,0,0,1,9.885,10.884Z" transform="translate(-633.848 19.5)"/>
      <rect id="矩形_13633" data-name="矩形 13633" class="cls-2" width="10.884" height="10.884" rx="1" transform="translate(-636 21.497)"/>
      <path id="路径_24835" data-name="路径 24835" class="cls-3" d="M-599.922,96.954H-606.5V92.5" transform="translate(-27.19 -67.039)"/>
    </g>
  </g>
</svg>
