<svg xmlns="http://www.w3.org/2000/svg" width="18" height="18" viewBox="0 0 18 18">
  <defs>
    <style>
      .cls-1, .cls-2 {
        fill: #fff;
      }

      .cls-1 {
        stroke: #707070;
        opacity: 0;
      }

      .cls-3, .cls-5 {
        fill: none;
      }

      .cls-3 {
        stroke: #fff;
        stroke-miterlimit: 10;
        stroke-width: 1.2px;
      }

      .cls-4 {
        stroke: none;
      }
    </style>
  </defs>
  <g id="组_19534" data-name="组 19534" transform="translate(-1203 -224)">
    <g id="矩形_13631" data-name="矩形 13631" class="cls-1" transform="translate(1203 224)">
      <rect class="cls-4" width="18" height="18"/>
      <rect class="cls-5" x="0.5" y="0.5" width="17" height="17"/>
    </g>
    <g id="组_19470" data-name="组 19470" transform="translate(1527 236.21)">
      <rect id="矩形_13630" data-name="矩形 13630" class="cls-2" width="14" height="1.2" rx="0.6" transform="translate(-322 1.754)"/>
      <path id="路径_24834" data-name="路径 24834" class="cls-3" d="M-291.128-2.078l7.624-7.4a.194.194,0,0,0,.036-.273l-1.632-1.584a.208.208,0,0,0-.281.035l-7.631,7.406a.256.256,0,0,0-.073.128l-.231,1.09-.2.952a.147.147,0,0,0,.186.181l.981-.2,1.1-.271A.272.272,0,0,0-291.128-2.078Z" transform="translate(-26.527 2)"/>
    </g>
  </g>
</svg>
