<svg xmlns="http://www.w3.org/2000/svg" width="18" height="18" viewBox="0 0 18 18">
  <defs>
    <style>
      .cls-1 {
        fill: #fff;
        stroke: #707070;
        opacity: 0;
      }

      .cls-2, .cls-3, .cls-5 {
        fill: none;
      }

      .cls-3 {
        stroke: #333;
        stroke-width: 1.2px;
      }

      .cls-4, .cls-6 {
        stroke: none;
      }

      .cls-6 {
        fill: #333;
      }
    </style>
  </defs>
  <g id="组_19506" data-name="组 19506" transform="translate(-1203 -312)">
    <g id="矩形_13639" data-name="矩形 13639" class="cls-1" transform="translate(1203 312)">
      <rect class="cls-4" width="18" height="18"/>
      <rect class="cls-5" x="0.5" y="0.5" width="17" height="17"/>
    </g>
    <g id="组_19478" data-name="组 19478" transform="translate(-3.5 -40.22)">
      <g id="联合_117" data-name="联合 117" class="cls-2" transform="translate(1208.5 355)">
        <path class="cls-4" d="M11.54,12.436q-.049,0-.1,0H1a1,1,0,0,1-1-1V1A1,1,0,0,1,1,0H11.441a1,1,0,0,1,1,1V6.306a3.11,3.11,0,0,1-.725,6.135Q11.627,12.441,11.54,12.436Z"/>
        <path class="cls-6" d="M 11.71530055999756 11.24070072174072 C 12.76870059967041 11.24070072174072 13.62569999694824 10.38370037078857 13.62569999694824 9.330300331115723 C 13.62569999694824 8.442580223083496 13.02379035949707 7.678840160369873 12.1619701385498 7.473030090332031 L 11.24070072174072 7.253020286560059 L 11.24070072174072 1.200000286102295 L 1.200000405311584 1.200000286102295 L 1.200000405311584 11.24070072174072 L 11.43113422393799 11.24070072174072 L 11.51418018341064 11.23249053955078 L 11.60663032531738 11.23762989044189 C 11.64337062835693 11.23966979980469 11.67993068695068 11.24070072174072 11.71530055999756 11.24070072174072 M 11.71530055999756 12.44070053100586 C 11.65650081634521 12.44070053100586 11.59809017181396 12.43900012969971 11.54010009765625 12.43578052520752 C 11.50743007659912 12.43901062011719 11.47430038452148 12.44070053100586 11.44080066680908 12.44070053100586 L 0.9999004006385803 12.44070053100586 C 0.4482003748416901 12.44070053100586 3.799438559326518e-07 11.99250030517578 3.799438559326518e-07 11.44080066680908 L 3.799438559326518e-07 0.9999002814292908 C 3.799438559326518e-07 0.4482002556324005 0.4482003748416901 2.655029334164283e-07 0.9999004006385803 2.655029334164283e-07 L 11.44080066680908 2.655029334164283e-07 C 11.99250030517578 2.655029334164283e-07 12.44070053100586 0.4482002556324005 12.44070053100586 0.9999002814292908 L 12.44070053100586 6.305850028991699 C 13.80879020690918 6.632560253143311 14.8257007598877 7.862760066986084 14.8257007598877 9.330300331115723 C 14.8257007598877 11.04839992523193 13.43340015411377 12.44070053100586 11.71530055999756 12.44070053100586 Z"/>
      </g>
      <g id="椭圆_1858" data-name="椭圆 1858" class="cls-3" transform="translate(1217.105 361.22)">
        <circle class="cls-4" cx="3.11" cy="3.11" r="3.11"/>
        <circle class="cls-5" cx="3.11" cy="3.11" r="2.51"/>
      </g>
    </g>
  </g>
</svg>
