<svg xmlns="http://www.w3.org/2000/svg" width="18" height="18" viewBox="0 0 18 18">
  <defs>
    <style>
      .cls-1 {
        fill: #fff;
        stroke: #707070;
        opacity: 0;
      }

      .cls-2, .cls-3, .cls-5 {
        fill: none;
      }

      .cls-3 {
        stroke: #fff;
        stroke-width: 1.2px;
      }

      .cls-4, .cls-6 {
        stroke: none;
      }

      .cls-6 {
        fill: #fff;
      }
    </style>
  </defs>
  <g id="组_19544" data-name="组 19544" transform="translate(-1203 -312)">
    <g id="矩形_13639" data-name="矩形 13639" class="cls-1" transform="translate(1203 312)">
      <rect class="cls-4" width="18" height="18"/>
      <rect class="cls-5" x="0.5" y="0.5" width="17" height="17"/>
    </g>
    <g id="组_19478" data-name="组 19478" transform="translate(-3.496 -39.869)">
      <g id="联合_117" data-name="联合 117" class="cls-2" transform="translate(1208.5 355)">
        <path class="cls-4" d="M10.856,11.733a1.012,1.012,0,0,1-.116.007H1a1,1,0,0,1-1-1V1A1,1,0,0,1,1,0h9.74a1,1,0,0,1,1,1V5.95a2.935,2.935,0,0,1-.684,5.79Q10.955,11.74,10.856,11.733Z"/>
        <path class="cls-6" d="M 11.0556001663208 10.53960037231445 C 12.01222991943359 10.53960037231445 12.79050064086914 9.761329650878906 12.79050064086914 8.804699897766113 C 12.79050064086914 7.998030185699463 12.24375057220459 7.304090023040771 11.46090984344482 7.117169857025146 L 10.53960037231445 6.897190093994141 L 10.53960037231445 1.200000047683716 L 1.200000166893005 1.200000047683716 L 1.200000166893005 10.53960037231445 L 10.72832107543945 10.53960037231445 L 10.82711982727051 10.52818965911865 L 10.93652057647705 10.53555965423584 C 10.97627067565918 10.53824043273926 11.0163402557373 10.53960037231445 11.0556001663208 10.53960037231445 M 11.0556001663208 11.73960018157959 C 10.98843002319336 11.73960018157959 10.92191028594971 11.73729991912842 10.85585975646973 11.73285007476807 C 10.8177604675293 11.73725032806396 10.77898979187012 11.73960018157959 10.73970031738281 11.73960018157959 L 0.999900221824646 11.73960018157959 C 0.4482002258300781 11.73960018157959 2.250671400361171e-07 11.2923002243042 2.250671400361171e-07 10.73970031738281 L 2.250671400361171e-07 0.9999001026153564 C 2.250671400361171e-07 0.4482000768184662 0.4482002258300781 9.078979701371281e-08 0.999900221824646 9.078979701371281e-08 L 10.73970031738281 9.078979701371281e-08 C 11.2923002243042 9.078979701371281e-08 11.73960018157959 0.4482000768184662 11.73960018157959 0.9999001026153564 L 11.73960018157959 5.94998025894165 C 13.03052997589111 6.258220195770264 13.99050045013428 7.419360160827637 13.99050045013428 8.804699897766113 C 13.99050045013428 10.42560005187988 12.67650032043457 11.73960018157959 11.0556001663208 11.73960018157959 Z"/>
      </g>
      <g id="椭圆_1858" data-name="椭圆 1858" class="cls-3" transform="translate(1216.621 360.87)">
        <circle class="cls-4" cx="2.935" cy="2.935" r="2.935"/>
        <circle class="cls-5" cx="2.935" cy="2.935" r="2.335"/>
      </g>
    </g>
  </g>
</svg>
