<svg xmlns="http://www.w3.org/2000/svg" width="18" height="18" viewBox="0 0 18 18">
  <g id="组_21736" data-name="组 21736" transform="translate(-1026 -706)">
    <rect id="矩形_636" data-name="矩形 636" width="18" height="18" transform="translate(1026 706)" fill="none"/>
    <g id="矩形_634" data-name="矩形 634" transform="translate(1026 707)" fill="#c5c5c5" stroke="#fff" stroke-width="1.3">
      <rect width="18" height="16" rx="2" stroke="none"/>
      <rect x="0.65" y="0.65" width="16.7" height="14.7" rx="1.35" fill="none"/>
    </g>
    <g id="矩形_14957" data-name="矩形 14957" transform="translate(1026 707)" fill="#fff" stroke="#fff" stroke-width="1">
      <path d="M2,0H16a2,2,0,0,1,2,2V6a0,0,0,0,1,0,0H0A0,0,0,0,1,0,6V2A2,2,0,0,1,2,0Z" stroke="none"/>
      <path d="M2,.5H16A1.5,1.5,0,0,1,17.5,2V5.5a0,0,0,0,1,0,0H.5a0,0,0,0,1,0,0V2A1.5,1.5,0,0,1,2,.5Z" fill="none"/>
    </g>
  </g>
</svg>
