<svg xmlns="http://www.w3.org/2000/svg" width="14" height="14" viewBox="0 0 14 14">
  <defs>
    <style>
      .cls-1 {
        fill: #333;
      }
    </style>
  </defs>
  <path id="路径_755" data-name="路径 755" class="cls-1" d="M77.978,47.333a.456.456,0,0,1-.438.473H64.414a.456.456,0,0,1-.436-.473h0a.455.455,0,0,1,.436-.473H77.541a.455.455,0,0,1,.438.473ZM76.341,37.29a.522.522,0,0,1-.707,0l-2.119-2.007a.457.457,0,0,1,0-.669l.707-.67a.522.522,0,0,1,.707,0l2.121,2.007a.459.459,0,0,1,0,.669ZM68.565,44.65a.524.524,0,0,1-.707,0l-2.122-2.007a.458.458,0,0,1,0-.669L72.1,35.951a.524.524,0,0,1,.707,0l2.12,2.007a.455.455,0,0,1,0,.669Zm-3.537-1.337c-.194-.184-.4-.126-.451.129l-.512,2.419c-.054.255.123.421.393.371l2.555-.483c.27-.051.33-.243.137-.428Z" transform="translate(-63.978 -33.806)"/>
</svg>
