<svg xmlns="http://www.w3.org/2000/svg" width="16" height="16" viewBox="0 0 16 16">
  <defs>
    <style>
      .cls-1 {
        fill: #ff765e;
      }

      .cls-2 {
        fill: #ffafa4;
      }
    </style>
  </defs>
  <g id="图层_1" data-name="图层 1" transform="translate(0 0.996)">
    <path id="路径_757" data-name="路径 757" class="cls-1" d="M3995,4004.692a8,8,0,1,0,8-7.755,7.88,7.88,0,0,0-8,7.755Zm0,0" transform="translate(-3995 -3997.443)"/>
    <path id="路径_758" data-name="路径 758" class="cls-1" d="M4003,4012.446a7.758,7.758,0,1,1,8-7.755,7.889,7.889,0,0,1-8,7.755Zm0-14.055a6.3,6.3,0,1,0,6.5,6.3,6.41,6.41,0,0,0-6.5-6.3Zm0,0" transform="translate(-3995 -3997.443)"/>
    <path id="路径_759" data-name="路径 759" class="cls-2" d="M4258.2,4028.188a7.2,7.2,0,0,0-7.2-7.2c0,2.083,0,3.939,0,7.2Zm0,0" transform="translate(-4242.943 -4020.751)"/>
    <path id="路径_760" data-name="路径 760" class="cls-2" d="M4230.78,4005.682h-3.035a.745.745,0,0,1-.745-.745c0-1.1,0-2.047,0-2.893,0-1.635,0-2.926,0-4.3a.745.745,0,0,1,.745-.746,7.951,7.951,0,0,1,7.941,7.941.745.745,0,0,1-.745.745Zm-2.291-1.49h5.665a6.465,6.465,0,0,0-5.664-5.664c0,1.1,0,2.2,0,3.517,0,.649,0,1.355,0,2.148Zm0,0" transform="translate(-4219.688 -3997.992)"/>
  </g>
</svg>
