<svg xmlns="http://www.w3.org/2000/svg" width="16" height="14" viewBox="0 0 16 14">
  <defs>
    <style>
      .cls-1 {
        fill: #333;
      }

      .cls-2 {
        fill: #cecece;
      }
    </style>
  </defs>
  <g id="排序" transform="translate(-147.063 -179.866)">
    <path id="路径_750" data-name="路径 750" class="cls-1" d="M617.11,193.865a.81.81,0,0,1-.585-.235.8.8,0,0,1-.236-.581V180.681a.822.822,0,0,1,1.643,0V193.05A.839.839,0,0,1,617.11,193.865Z" transform="translate(-458.756 0)"/>
    <path id="路径_751" data-name="路径 751" class="cls-2" d="M326.813,193.865a.82.82,0,0,1-.59-.235.8.8,0,0,1-.238-.581V180.681a.828.828,0,0,1,1.656,0V193.05A.842.842,0,0,1,326.813,193.865Z" transform="translate(-174.955 0)"/>
    <path id="路径_752" data-name="路径 752" class="cls-2" d="M151.682,593.362a.787.787,0,0,1-.575-.247l-3.8-3.8a.814.814,0,0,1,1.146-1.156l3.8,3.8a.822.822,0,0,1-.575,1.4Z" transform="translate(0 -399.497)"/>
    <path id="路径_754" data-name="路径 754" class="cls-1" d="M151.682,593.362a.787.787,0,0,1-.575-.247l-3.8-3.8a.814.814,0,0,1,1.146-1.156l3.8,3.8a.822.822,0,0,1-.575,1.4Z" transform="translate(10.574 -407.962)"/>
  </g>
</svg>
