<svg xmlns="http://www.w3.org/2000/svg" xmlns:xlink="http://www.w3.org/1999/xlink" width="24" height="24" viewBox="0 0 24 24">
  <defs>
    <style>
      .cls-1, .cls-2 {
        fill: #fff;
        stroke: #707070;
        opacity: 0;
      }

      .cls-2 {
        stroke-width: 46.958px;
      }

      .cls-3 {
        fill: #ccc;
      }

      .cls-4 {
        stroke: none;
      }

      .cls-5, .cls-6 {
        fill: none;
      }

      .cls-6 {
        clip-path: url(#clip);
      }
    </style>
    <clipPath id="clip">
      <use xlink:href="#fill"/>
    </clipPath>
  </defs>
  <g id="组_17046" data-name="组 17046" transform="translate(-217 -1132)">
    <g id="矩形_3841" data-name="矩形 3841" class="cls-1" transform="translate(217 1132)">
      <rect class="cls-4" width="24" height="24"/>
      <rect class="cls-5" x="0.5" y="0.5" width="23" height="23"/>
    </g>
    <g id="组_4721" data-name="组 4721" transform="translate(218.087 1133.086)">
      <g id="矩形_2489" data-name="矩形 2489" class="cls-2" transform="translate(0.913 0.914)">
        <rect id="fill" class="cls-4" width="20" height="20"/>
        <path class="cls-6" d="M0,-3.479166030883789h20M23.47916603088379,0v20M20,23.47916603088379h-20M-3.479166030883789,20v-20"/>
      </g>
      <path id="路径_5585" data-name="路径 5585" class="cls-3" d="M10.009,19.191a9.775,9.775,0,0,0,5.059-1.346,9.84,9.84,0,0,0,3.948-4.173l-8.323.437a5.506,5.506,0,0,1-3.3-.836A4.838,4.838,0,0,1,5.32,10.7l-3.1,4.756a9.8,9.8,0,0,0,3.489,2.753,10.056,10.056,0,0,0,4.3.981ZM1.632,14.648,5.409,7.212A5.479,5.479,0,0,1,7.778,4.778a4.881,4.881,0,0,1,3.286-.5L8.482-.787A10.017,10.017,0,0,0,1.108,4.524,9.865,9.865,0,0,0-.008,9.14a9.882,9.882,0,0,0,1.64,5.508Zm17.787-1.9a9.835,9.835,0,0,0,.667-3.483,10.19,10.19,0,0,0-.547-3.432,9.916,9.916,0,0,0-1.717-3.051A10,10,0,0,0,15.063.435,9.9,9.9,0,0,0,9.481-.9l4.542,6.987a5.37,5.37,0,0,1,.926,3.258,4.908,4.908,0,0,1-1.194,3.112Zm-9.377-.224A3.387,3.387,0,1,0,6.654,9.142a3.389,3.389,0,0,0,3.388,3.386Z" transform="translate(0.873 1.775)"/>
    </g>
  </g>
</svg>
