<svg id="组_6715" data-name="组 6715" xmlns="http://www.w3.org/2000/svg" width="35" height="30" viewBox="0 0 35 30">
  <defs>
    <style>
      .cls-1 {
        fill: #fff;
      }

      .cls-2 {
        fill: none;
        stroke: #fff;
        stroke-width: 1.3px;
      }
    </style>
  </defs>
  <g id="组_4722" data-name="组 4722">
    <rect id="矩形_526" data-name="矩形 526" class="cls-1" width="12" height="6"/>
    <rect id="矩形_531" data-name="矩形 531" class="cls-1" width="12" height="6" transform="translate(23)"/>
    <rect id="矩形_529" data-name="矩形 529" class="cls-1" width="12" height="6" transform="translate(12 12)"/>
    <rect id="矩形_528" data-name="矩形 528" class="cls-1" width="12" height="6" transform="translate(0 24)"/>
    <rect id="矩形_532" data-name="矩形 532" class="cls-1" width="12" height="6" transform="translate(23 24)"/>
    <path id="路径_731" data-name="路径 731" class="cls-2" d="M-13573.332,7929.842h-6.245v23.835h7.138" transform="translate(13599.016 -7927)"/>
    <path id="路径_736" data-name="路径 736" class="cls-2" d="M-13578.684,7929.842h6.245v23.835h-7.138" transform="translate(13588.015 -7927)"/>
  </g>
  <g id="组_19786" data-name="组 19786" transform="translate(26.65 8.416)">
    <rect id="矩形_2490" data-name="矩形 2490" class="cls-1" width="1.3" height="12" transform="translate(2.329)"/>
    <g id="组_4723" data-name="组 4723" transform="translate(-0.274 10) rotate(-45)">
      <rect id="矩形_2491" data-name="矩形 2491" class="cls-1" width="1.3" height="4" transform="translate(0.068 0.539)"/>
      <rect id="矩形_2492" data-name="矩形 2492" class="cls-1" width="1.3" height="4" transform="translate(4.061 3.231) rotate(90)"/>
    </g>
  </g>
  <g id="组_19787" data-name="组 19787" transform="translate(2 8.418)">
    <rect id="矩形_2490-2" data-name="矩形 2490" class="cls-1" width="1.3" height="12" transform="translate(2.178 1.167)"/>
    <g id="组_4723-2" data-name="组 4723" transform="translate(2.828 0.001) rotate(45)">
      <rect id="矩形_2491-2" data-name="矩形 2491" class="cls-1" width="1.3" height="4" transform="translate(0.006 0)"/>
      <rect id="矩形_2492-2" data-name="矩形 2492" class="cls-1" width="1.3" height="4" transform="translate(0 1.308) rotate(-90)"/>
    </g>
  </g>
</svg>
