<svg xmlns="http://www.w3.org/2000/svg" width="12" height="11.495" viewBox="0 0 12 11.495">
  <defs>
    <style>
      .cls-1 {
        fill: #666;
      }
    </style>
  </defs>
  <g id="组_1470" data-name="组 1470" transform="translate(-127.148 -128.244)">
    <path id="路径_1157" data-name="路径 1157" class="cls-1" d="M138.5,132.005l-2.906-.728a.219.219,0,0,1-.13-.094l-1.59-2.538a.865.865,0,0,0-.27-.27.856.856,0,0,0-1.179.27l-1.593,2.539a.219.219,0,0,1-.13.094l-2.906.728a.858.858,0,0,0-.449,1.381l.5.6.636.057a8.469,8.469,0,0,1,6.926,4.895l.282.614.313.125a.857.857,0,0,0,1.175-.852l-.206-2.988a.211.211,0,0,1,.049-.152l1.923-2.3a.866.866,0,0,0,.175-.342A.856.856,0,0,0,138.5,132.005Z" transform="translate(0)"/>
    <path id="路径_1158" data-name="路径 1158" class="cls-1" d="M213.1,559.2l.865,1.034a.215.215,0,0,1,.051.156l-.212,3.069a.894.894,0,0,0,.061.39.88.88,0,0,0,.816.551.855.855,0,0,0,.328-.064l2.856-1.15a.215.215,0,0,1,.083-.015.226.226,0,0,1,.083.015l1.649.664A8.035,8.035,0,0,0,213.1,559.2Z" transform="translate(-84.634 -424.661)"/>
  </g>
</svg>
