<svg xmlns="http://www.w3.org/2000/svg" width="24" height="24" viewBox="0 0 24 24">
  <defs>
    <style>
      .cls-1 {
        fill: #fff;
        stroke: #707070;
        opacity: 0;
      }

      .cls-2 {
        fill: #fd492b;
      }

      .cls-3 {
        stroke: none;
      }

      .cls-4 {
        fill: none;
      }
    </style>
  </defs>
  <g id="组_5924" data-name="组 5924" transform="translate(0.167)">
    <g id="矩形_3112" data-name="矩形 3112" class="cls-1" transform="translate(-0.167)">
      <rect class="cls-3" width="24" height="24"/>
      <rect class="cls-4" x="0.5" y="0.5" width="23" height="23"/>
    </g>
    <path id="路径_7281" data-name="路径 7281" class="cls-2" d="M200.148,20.323a1.938,1.938,0,0,1-.89-.232l-4.2-2.1-4.225,2.1a1.893,1.893,0,0,1-2.011-.145,1.976,1.976,0,0,1-.754-1.914l.861-4.477-3.316-3.084A2.035,2.035,0,0,1,185.1,8.5l.01-.019a1.919,1.919,0,0,1,1.566-1.325l4.6-.841,2.059-4.2a1.942,1.942,0,0,1,1.721-1.093,1.907,1.907,0,0,1,1.731,1.1l2.059,4.187,4.6.8a1.883,1.883,0,0,1,1.537,1.344,1.938,1.938,0,0,1-.483,1.982l-.01.01-3.3,3.113.831,4.486a1.938,1.938,0,0,1-.744,1.9,1.966,1.966,0,0,1-1.141.377Z" transform="translate(-183.06 1.326)"/>
  </g>
</svg>
