<svg xmlns="http://www.w3.org/2000/svg" width="17.834" height="17.166" viewBox="0 0 17.834 17.166">
  <defs>
    <style>
      .cls-1 {
        fill: #fd5436;
        stroke: rgba(204,204,204,0.4);
      }
    </style>
  </defs>
  <path id="路径_8099" data-name="路径 8099" class="cls-1" d="M197.694,17.19a1.623,1.623,0,0,1-.745-.194l-3.515-1.758L189.895,17a1.586,1.586,0,0,1-1.685-.121,1.655,1.655,0,0,1-.632-1.6l.721-3.75-2.778-2.584a1.7,1.7,0,0,1-.429-1.652l.008-.016a1.608,1.608,0,0,1,1.312-1.11l3.855-.7,1.725-3.515a1.627,1.627,0,0,1,1.442-.915,1.6,1.6,0,0,1,1.45.923l1.725,3.507,3.855.672a1.577,1.577,0,0,1,1.288,1.126,1.623,1.623,0,0,1-.4,1.66l-.008.008-2.762,2.608.7,3.758a1.624,1.624,0,0,1-.624,1.587,1.647,1.647,0,0,1-.956.316Z" transform="translate(-184.517 -0.524)"/>
</svg>
