<svg xmlns="http://www.w3.org/2000/svg" width="24" height="24" viewBox="0 0 24 24">
  <defs>
    <style>
      .cls-1, .cls-2 {
        fill: #fff;
      }

      .cls-1 {
        stroke: #707070;
        opacity: 0;
      }

      .cls-3 {
        stroke: none;
      }

      .cls-4 {
        fill: none;
      }
    </style>
  </defs>
  <g id="组_6089" data-name="组 6089" transform="translate(0.167 -0.186)">
    <g id="矩形_3110" data-name="矩形 3110" class="cls-1" transform="translate(-0.167 0.186)">
      <rect class="cls-3" width="24" height="24"/>
      <rect class="cls-4" x="0.5" y="0.5" width="23" height="23"/>
    </g>
    <path id="路径_7279" data-name="路径 7279" class="cls-2" d="M16.839,39.409a2.05,2.05,0,0,1-.892-.228l-4.192-2.1L7.538,39.178a1.907,1.907,0,0,1-2.01-.152,1.96,1.96,0,0,1-.753-1.908l.863-4.475L2.331,29.562a2.035,2.035,0,0,1-.514-1.969l.007-.023a1.916,1.916,0,0,1,1.56-1.322l4.594-.835,2.062-4.188a1.947,1.947,0,0,1,1.717-1.089,1.894,1.894,0,0,1,1.724,1.1l2.055,4.174,4.594.8a1.871,1.871,0,0,1,1.531,1.337,1.936,1.936,0,0,1-.479,1.976l-.011.011-3.3,3.1.833,4.483a1.925,1.925,0,0,1-.745,1.892A1.769,1.769,0,0,1,16.839,39.409Zm-5.082-3.835L16.211,37.8a.952.952,0,0,0,.385.107.645.645,0,0,0,.414-.139l.02-.017a.8.8,0,0,0,.321-.787l-.9-4.828L20,28.8a.809.809,0,0,0,.2-.827l-.01-.031a.73.73,0,0,0-.606-.528l-.02,0-4.9-.857L12.447,22.07a.77.77,0,0,0-.692-.432.807.807,0,0,0-.7.46L8.858,26.551l-4.931.9a.773.773,0,0,0-.64.547.909.909,0,0,0,.222.838l3.549,3.307-.931,4.83a.82.82,0,0,0,.321.784A.748.748,0,0,0,6.9,37.9a.755.755,0,0,0,.358-.087L7.27,37.8l4.487-2.226Z" transform="translate(0.25 -17.772)"/>
  </g>
</svg>
