<svg xmlns="http://www.w3.org/2000/svg" width="20" height="20" viewBox="0 0 20 20">
  <defs>
    <style>
      .cls-1 {
        fill: #fff;
        stroke: #707070;
        opacity: 0;
      }

      .cls-2 {
        fill: #666;
      }

      .cls-3 {
        stroke: none;
      }

      .cls-4 {
        fill: none;
      }
    </style>
  </defs>
  <g id="组_6141" data-name="组 6141" transform="translate(-259 -662)">
    <g id="矩形_3233" data-name="矩形 3233" class="cls-1" transform="translate(259 662)">
      <rect class="cls-3" width="20" height="20"/>
      <rect class="cls-4" x="0.5" y="0.5" width="19" height="19"/>
    </g>
    <path id="路径_7369" data-name="路径 7369" class="cls-2" d="M15.326,37.477a1.845,1.845,0,0,1-.8-.2l-3.772-1.886L6.957,37.269a1.716,1.716,0,0,1-1.809-.136,1.764,1.764,0,0,1-.678-1.717l.776-4.026L2.272,28.617a1.831,1.831,0,0,1-.463-1.772l.006-.02a1.724,1.724,0,0,1,1.4-1.189l4.133-.752,1.855-3.768a1.752,1.752,0,0,1,1.545-.98,1.7,1.7,0,0,1,1.551.991l1.849,3.756,4.134.723a1.684,1.684,0,0,1,1.377,1.2,1.742,1.742,0,0,1-.431,1.778l-.01.01L16.256,31.39l.75,4.034a1.732,1.732,0,0,1-.67,1.7A1.591,1.591,0,0,1,15.326,37.477Zm-4.573-3.451,4.007,2a.857.857,0,0,0,.346.1A.58.58,0,0,0,15.479,36l.018-.015a.721.721,0,0,0,.289-.708l-.806-4.344,3.189-3a.728.728,0,0,0,.176-.744l-.009-.027a.657.657,0,0,0-.545-.475l-.018,0L13.36,25.91l-1.986-4.034a.693.693,0,0,0-.622-.389.727.727,0,0,0-.634.414L8.145,25.908l-4.436.806a.7.7,0,0,0-.575.492.818.818,0,0,0,.2.754l3.193,2.975-.838,4.346a.738.738,0,0,0,.289.706.673.673,0,0,0,.4.129.68.68,0,0,0,.322-.078l.014-.008,4.038-2Z" transform="translate(258.252 643.193)"/>
  </g>
</svg>
