<svg id="编组备份_4" data-name="编组备份 4" xmlns="http://www.w3.org/2000/svg" width="88" height="88" viewBox="0 0 88 88">
  <defs>
    <style>
      .cls-1 {
        fill: #e60013;
      }

      .cls-2 {
        fill: #eb6101;
      }

      .cls-3 {
        fill: #f39800;
      }

      .cls-4 {
        fill: #fff100;
      }

      .cls-5 {
        fill: #8fc41f;
      }

      .cls-6 {
        fill: #23ac39;
      }

      .cls-7 {
        fill: #094;
      }
    </style>
  </defs>
  <path id="矩形" class="cls-1" d="M4,0H84a4,4,0,0,1,4,4v9a0,0,0,0,1,0,0H0a0,0,0,0,1,0,0V4A4,4,0,0,1,4,0Z"/>
  <rect id="矩形备份" class="cls-2" width="88" height="12" transform="translate(0 13)"/>
  <rect id="矩形备份_2" data-name="矩形备份 2" class="cls-3" width="88" height="13" transform="translate(0 25)"/>
  <rect id="矩形备份_3" data-name="矩形备份 3" class="cls-4" width="88" height="13" transform="translate(0 38)"/>
  <rect id="矩形备份_4" data-name="矩形备份 4" class="cls-5" width="88" height="13" transform="translate(0 51)"/>
  <rect id="矩形备份_5" data-name="矩形备份 5" class="cls-6" width="88" height="12" transform="translate(0 64)"/>
  <path id="矩形备份_6" data-name="矩形备份 6" class="cls-7" d="M0,0H88a0,0,0,0,1,0,0V8a4,4,0,0,1-4,4H4A4,4,0,0,1,0,8V0A0,0,0,0,1,0,0Z" transform="translate(0 76)"/>
</svg>
