<svg id="编组备份_3" data-name="编组备份 3" xmlns="http://www.w3.org/2000/svg" width="88" height="88" viewBox="0 0 88 88">
  <defs>
    <style>
      .cls-1 {
        fill: #7532e9;
      }

      .cls-2 {
        fill: #7d66e3;
      }

      .cls-3 {
        fill: #9ec1e6;
      }

      .cls-4 {
        fill: #64ff5c;
      }

      .cls-5 {
        fill: #caff7f;
      }

      .cls-6 {
        fill: #fb7272;
      }

      .cls-7 {
        fill: #e06262;
      }
    </style>
  </defs>
  <path id="矩形" class="cls-1" d="M4,0H84a4,4,0,0,1,4,4v9a0,0,0,0,1,0,0H0a0,0,0,0,1,0,0V4A4,4,0,0,1,4,0Z"/>
  <rect id="矩形备份" class="cls-2" width="88" height="12" transform="translate(0 13)"/>
  <rect id="矩形备份_2" data-name="矩形备份 2" class="cls-3" width="88" height="13" transform="translate(0 24.671)"/>
  <rect id="矩形备份_3" data-name="矩形备份 3" class="cls-4" width="88" height="13" transform="translate(0 37.5)"/>
  <rect id="矩形备份_4" data-name="矩形备份 4" class="cls-5" width="88" height="13" transform="translate(0 50.329)"/>
  <rect id="矩形备份_5" data-name="矩形备份 5" class="cls-6" width="88" height="12" transform="translate(0 63)"/>
  <path id="矩形备份_6" data-name="矩形备份 6" class="cls-7" d="M0,0H88a0,0,0,0,1,0,0V9a4,4,0,0,1-4,4H4A4,4,0,0,1,0,9V0A0,0,0,0,1,0,0Z" transform="translate(0 75)"/>
</svg>
