<svg xmlns="http://www.w3.org/2000/svg" width="16" height="16" viewBox="0 0 16 16">
  <defs>
    <style>
      .cls-1 {
        fill: gray;
        opacity: 0.4;
      }
    </style>
  </defs>
  <path id="路径_7583" data-name="路径 7583" class="cls-1" d="M8,0a8,8,0,1,0,8,8V7.989A8,8,0,0,0,8,0Zm3.426,10.385A.748.748,0,1,1,10.4,11.469L8,9.029,5.6,11.414A.766.766,0,1,1,4.52,10.33l2.385-2.4L4.521,5.549A.766.766,0,1,1,5.6,4.466L8,6.959l2.4-2.4a.748.748,0,0,1,1.029,1.084L9.041,8.033l2.384,2.352Z"/>
</svg>
