<svg xmlns="http://www.w3.org/2000/svg" width="18" height="18" viewBox="0 0 18 18">
  <defs>
    <style>
      .cls-1 {
        fill: #fff;
        stroke: #707070;
        opacity: 0;
      }

      .cls-2, .cls-4 {
        fill: none;
      }

      .cls-2 {
        stroke: #333;
        stroke-miterlimit: 10;
        stroke-width: 1.2px;
      }

      .cls-3 {
        stroke: none;
      }
    </style>
  </defs>
  <g id="组_19653" data-name="组 19653" transform="translate(-215 -487)">
    <g id="矩形_13705" data-name="矩形 13705" class="cls-1" transform="translate(215 487)">
      <rect class="cls-3" width="18" height="18"/>
      <rect class="cls-4" x="0.5" y="0.5" width="17" height="17"/>
    </g>
    <g id="组_19652" data-name="组 19652" transform="translate(6367.436 4581.92)">
      <circle id="椭圆_1870" data-name="椭圆 1870" class="cls-2" cx="2.313" cy="2.313" r="2.313" transform="translate(-6145.747 -4088.232)"/>
      <path id="路径_24892" data-name="路径 24892" class="cls-2" d="M-6137.653-4085.92a5.89,5.89,0,0,0-.061-.836.127.127,0,0,1,.061-.129l1.7-.981a.129.129,0,0,0,.047-.175l-1.928-3.338a.128.128,0,0,0-.176-.047l-1.7.981a.127.127,0,0,1-.143-.011,5.771,5.771,0,0,0-1.447-.836.128.128,0,0,1-.081-.119v-1.961a.128.128,0,0,0-.128-.128h-3.854a.129.129,0,0,0-.129.128v1.961a.128.128,0,0,1-.081.119,5.765,5.765,0,0,0-1.446.836.13.13,0,0,1-.145.011l-1.7-.981a.129.129,0,0,0-.176.047l-1.927,3.338a.129.129,0,0,0,.047.175l1.7.981a.128.128,0,0,1,.062.129,5.75,5.75,0,0,0-.061.836,5.772,5.772,0,0,0,.061.836.126.126,0,0,1-.062.128l-1.7.981a.13.13,0,0,0-.047.176l1.927,3.337a.129.129,0,0,0,.176.048l1.7-.982a.132.132,0,0,1,.145.011,5.752,5.752,0,0,0,1.446.836.127.127,0,0,1,.081.118v1.961a.129.129,0,0,0,.129.129h3.854a.129.129,0,0,0,.128-.129v-1.961a.127.127,0,0,1,.081-.118,5.758,5.758,0,0,0,1.447-.836.128.128,0,0,1,.143-.011l1.7.982a.129.129,0,0,0,.176-.048l1.928-3.337a.13.13,0,0,0-.047-.176l-1.7-.981a.125.125,0,0,1-.061-.128A5.914,5.914,0,0,0-6137.653-4085.92Z" transform="translate(0.001 0.001)"/>
    </g>
  </g>
</svg>
