<svg xmlns="http://www.w3.org/2000/svg" width="18" height="18" viewBox="0 0 18 18">
  <defs>
    <style>
      .cls-1 {
        fill: #fff;
        stroke: #707070;
        opacity: 0;
      }

      .cls-2 {
        fill: #707070;
      }

      .cls-3 {
        stroke: none;
      }

      .cls-4 {
        fill: none;
      }
    </style>
  </defs>
  <g id="组_17094" data-name="组 17094" transform="translate(-939 -551)">
    <g id="矩形_3944" data-name="矩形 3944" class="cls-1" transform="translate(939 551)">
      <rect class="cls-3" width="18" height="18"/>
      <rect class="cls-4" x="0.5" y="0.5" width="17" height="17"/>
    </g>
    <path id="路径_8125" data-name="路径 8125" class="cls-2" d="M16.073,77.528l-1.157,7.664a.756.756,0,0,1-.721.628H.628A.628.628,0,0,1,0,85.192V72.628A.628.628,0,0,1,.628,72h7.79a.5.5,0,0,1,.5.5v2.01h5.4a.5.5,0,0,1,.5.5V76.9h.716a.526.526,0,0,1,.532.628Zm-2.253-2.01h-5.4a.5.5,0,0,1-.5-.5v-2.01H1.256a.251.251,0,0,0-.251.251v6.168l.286-1.9a.756.756,0,0,1,.721-.628H13.82Zm.943,2.387H2.488a.3.3,0,0,0-.289.251l-.967,6.408a.211.211,0,0,0,.213.251H13.72a.3.3,0,0,0,.289-.251l.967-6.408a.21.21,0,0,0-.213-.251Z" transform="translate(939.958 481.09)"/>
  </g>
</svg>
