<svg xmlns="http://www.w3.org/2000/svg" width="30" height="30" viewBox="0 0 30 30">
  <defs>
    <style>
      .cls-1 {
        fill: #fd5436;
      }
    </style>
  </defs>
  <path id="路径_7596" data-name="路径 7596" class="cls-1" d="M77,62A15,15,0,1,0,92,77,15.005,15.005,0,0,0,77,62Zm7.109,16.091H78.356v5.754a1.275,1.275,0,0,1-2.549,0V78.091H70.053a1.275,1.275,0,1,1,0-2.549h5.754V69.788a1.275,1.275,0,0,1,2.549,0v5.754h5.753a1.29,1.29,0,0,1,1.275,1.274,1.267,1.267,0,0,1-1.275,1.274Z" transform="translate(-62 -62)"/>
</svg>
