<svg xmlns="http://www.w3.org/2000/svg" width="18" height="18" viewBox="0 0 18 18">
  <defs>
    <style>
      .cls-1 {
        fill: #fff;
        stroke: #707070;
        opacity: 0;
      }

      .cls-2 {
        fill: #707070;
      }

      .cls-3 {
        stroke: none;
      }

      .cls-4 {
        fill: none;
      }
    </style>
  </defs>
  <g id="组_17095" data-name="组 17095" transform="translate(-965 -589)">
    <g id="矩形_3945" data-name="矩形 3945" class="cls-1" transform="translate(965 589)">
      <rect class="cls-3" width="18" height="18"/>
      <rect class="cls-4" x="0.5" y="0.5" width="17" height="17"/>
    </g>
    <path id="路径_8127" data-name="路径 8127" class="cls-2" d="M218.853,240.692a7.51,7.51,0,0,1,3.742-.912h.081l.021.078a1.838,1.838,0,0,0,1.769,1.351h2.239a1.833,1.833,0,0,0,1.832-1.824v-.56A1.833,1.833,0,0,0,226.705,237h-2.239a1.835,1.835,0,0,0-1.8,1.5l-.015.084h-.086a8.675,8.675,0,0,0-4.316,1.075,5.986,5.986,0,0,0-2.4,2.541l-.028.059h-1.99A1.835,1.835,0,0,0,212,244.081v1.194a1.833,1.833,0,0,0,1.831,1.826h1.806l.025.067a5.377,5.377,0,0,0,2.231,2.716,9.127,9.127,0,0,0,4.783,1.193h.065l.028.058a1.822,1.822,0,0,0,1.645,1.023h2.24a1.833,1.833,0,0,0,1.832-1.826v-.559a1.834,1.834,0,0,0-1.832-1.827h-2.24a1.836,1.836,0,0,0-1.831,1.821v.108l-.107,0c-2.707-.074-4.595-.981-5.46-2.619l-.079-.149.169,0a1.83,1.83,0,0,0,1.781-1.667l.008-.1h3.738l.022.073a1.829,1.829,0,0,0,1.746,1.273h2.239a1.834,1.834,0,0,0,1.832-1.825v-.56a1.833,1.833,0,0,0-1.832-1.824H224.4a1.842,1.842,0,0,0-1.815,1.574l-.012.089H218.9l0-.1a1.835,1.835,0,0,0-1.536-1.756l-.164-.027.094-.135A4.861,4.861,0,0,1,218.853,240.692Zm4.986-1.868a.628.628,0,0,1,.627-.625h2.239a.629.629,0,0,1,.627.625v.56a.629.629,0,0,1-.627.625h-2.239a.628.628,0,0,1-.627-.625Zm-.051,10.949a.627.627,0,0,1,.626-.626h2.24a.627.627,0,0,1,.627.626v.559a.626.626,0,0,1-.626.625h-2.241a.626.626,0,0,1-.626-.625Zm-.013-5.475a.627.627,0,0,1,.627-.625h2.239a.628.628,0,0,1,.628.625v.56a.629.629,0,0,1-.628.625H224.4a.629.629,0,0,1-.627-.625Zm-6.085-.218v1.194a.627.627,0,0,1-.626.625h-3.233a.627.627,0,0,1-.626-.625v-1.194a.628.628,0,0,1,.625-.626h3.234A.628.628,0,0,1,217.69,244.081Z" transform="translate(753.731 353.422)"/>
  </g>
</svg>
