<svg xmlns="http://www.w3.org/2000/svg" width="24" height="24" viewBox="0 0 24 24">
  <defs>
    <style>
      .cls-1 {
        fill: #fff;
        stroke: #707070;
        opacity: 0;
      }

      .cls-2 {
        fill: #707070;
      }

      .cls-3 {
        stroke: none;
      }

      .cls-4 {
        fill: none;
      }
    </style>
  </defs>
  <g id="组_5918" data-name="组 5918" transform="translate(0 -0.186)">
    <g id="矩形_3108" data-name="矩形 3108" class="cls-1" transform="translate(0 0.186)">
      <rect class="cls-3" width="24" height="24"/>
      <rect class="cls-4" x="0.5" y="0.5" width="23" height="23"/>
    </g>
    <path id="路径_7277" data-name="路径 7277" class="cls-2" d="M83.439,82.719a.72.72,0,1,1,0,1.44H64.72a.72.72,0,1,1,0-1.44ZM80.205,64.432l2.082,2.082a1.47,1.47,0,0,1,0,2.082L71.079,79.806a1.489,1.489,0,0,1-.576.356L67.378,81.2a1.473,1.473,0,0,1-1.863-1.863l1.043-3.125a1.489,1.489,0,0,1,.356-.576l11.21-11.209A1.47,1.47,0,0,1,80.205,64.432Zm-2.66,2.612-9.614,9.614a.033.033,0,0,0-.009.014L66.881,79.8a.033.033,0,0,0,.042.042L70.048,78.8a.033.033,0,0,0,.013-.009l9.614-9.614Zm1.6-1.594-.577.576,2.13,2.13.576-.576a.033.033,0,0,0,0-.048L79.187,65.45A.033.033,0,0,0,79.141,65.45Z" transform="translate(-62.08 -62.08)"/>
  </g>
</svg>
