<svg id="组_1049" data-name="组 1049" xmlns="http://www.w3.org/2000/svg" width="24" height="16" viewBox="0 0 24 16">
  <defs>
    <style>
      .cls-1 {
        fill: #f5c164;
      }

      .cls-2 {
        fill: #ffe09e;
      }

      .cls-3 {
        fill: #f9cf7e;
      }

      .cls-4 {
        fill: #ffe19f;
      }
    </style>
  </defs>
  <path id="路径_796" data-name="路径 796" class="cls-1" d="M60.26,382.066l17.8,10.17a.72.72,0,0,1-.356,1.344H62.969a1.44,1.44,0,0,1-1.429-1.261Z" transform="translate(-58.82 -377.582)"/>
  <path id="路径_797" data-name="路径 797" class="cls-1" d="M221.954,382.066l-1.281,10.255a1.44,1.44,0,0,1-1.429,1.261H204.515a.72.72,0,0,1-.357-1.344l17.8-10.17Z" transform="translate(-199.394 -377.582)"/>
  <path id="路径_798" data-name="路径 798" class="cls-2" d="M179.131,261.6l7.683,11.7a1.372,1.372,0,0,1,.056,1.414,1.4,1.4,0,0,1-1.229.724H172.62a1.4,1.4,0,0,1-1.229-.724,1.372,1.372,0,0,1,.056-1.414Z" transform="translate(-167.131 -259.445)"/>
  <path id="路径_799" data-name="路径 799" class="cls-3" d="M512.014,261.6l7.911,11.7a1.339,1.339,0,0,1,.058,1.414,1.449,1.449,0,0,1-1.265.724h-6.7Z" transform="translate(-500.131 -259.445)"/>
  <path id="路径_800" data-name="路径 800" class="cls-4" d="M10.6,172.675a1.412,1.412,0,1,0,1.412-1.44A1.426,1.426,0,0,0,10.6,172.675Zm10.588,2.879a1.412,1.412,0,1,0,1.412-1.44,1.425,1.425,0,0,0-1.412,1.44Zm-21.176,0a1.425,1.425,0,0,0,1.412,1.439,1.44,1.44,0,0,0,0-2.879,1.426,1.426,0,0,0-1.412,1.44Z" transform="translate(-0.007 -171.236)"/>
</svg>
