<svg xmlns="http://www.w3.org/2000/svg" width="137.582" height="189.759" viewBox="0 0 137.582 189.759">
  <path id="路径_7624" data-name="路径 7624" d="M282.578,268.891l2.664,2.743,2.664-2.743c.167-.167,16.6-17.114,32.8-37.916,22.114-28.382,33.33-50.194,33.33-64.825,0-17.124-7.2-33.2-20.279-45.265a72.627,72.627,0,0,0-97.024,0c-13.079,12.065-20.279,28.141-20.279,45.265,0,14.631,11.217,36.443,33.33,64.825,16.2,20.8,32.63,37.75,32.8,37.917Zm2.663-125.971a24.108,24.108,0,1,1-23.758,24.1A23.961,23.961,0,0,1,285.242,142.92Zm40.5,110.719-5.953,5.949c3.9,2.511,6.208,5.319,6.208,8.025,0,7.663-17.689,16.224-41.368,16.224s-41.368-8.561-41.368-16.224c0-2.956,2.683-6.033,7.278-8.72l-5.393-6.356c-6.305,4.1-10.007,9.284-10.007,15.066,0,13.945,21.27,24.462,49.49,24.462s49.485-10.508,49.485-24.462c-.009-5.263-3.058-10.054-8.371-13.964Z" transform="translate(-216.451 -102.307)" fill="#fd5436"/>
</svg>
