<svg xmlns="http://www.w3.org/2000/svg" width="34" height="25" viewBox="0 0 34 25">
  <defs>
    <style>
      .cls-1 {
        fill: #707070;
      }
    </style>
  </defs>
  <g id="组_909" data-name="组 909" transform="translate(0 -2)">
    <rect id="矩形_492" data-name="矩形 492" class="cls-1" width="34" height="3" rx="1.5" transform="translate(0 2)"/>
    <rect id="矩形_494" data-name="矩形 494" class="cls-1" width="18" height="3" rx="1.5" transform="translate(0 13)"/>
    <rect id="矩形_493" data-name="矩形 493" class="cls-1" width="34" height="3" rx="1.5" transform="translate(0 24)"/>
    <path id="路径_692" data-name="路径 692" class="cls-1" d="M2.252,0H8.846a.932.932,0,0,1,.932.932V7.527a.932.932,0,1,1-1.865,0V3.184L1.592,9.505A.933.933,0,0,1,.273,8.186L6.595,1.865H2.252A.932.932,0,0,1,2.252,0Z" transform="translate(26.874 20.902) rotate(-135)"/>
  </g>
</svg>
