<svg xmlns="http://www.w3.org/2000/svg" width="18" height="18" viewBox="0 0 18 18">
  <defs>
    <style>
      .cls-1, .cls-2 {
        fill: #fff;
      }

      .cls-2 {
        stroke: #707070;
        opacity: 0;
      }

      .cls-3, .cls-5 {
        fill: none;
      }

      .cls-3 {
        stroke: #fff;
        stroke-width: 1.2px;
      }

      .cls-4 {
        stroke: none;
      }
    </style>
  </defs>
  <g id="组_19558" data-name="组 19558" transform="translate(-1226 -290)">
    <g id="矩形_13670" data-name="矩形 13670" class="cls-2" transform="translate(1226 290)">
      <rect class="cls-4" width="18" height="18"/>
      <rect class="cls-5" x="0.5" y="0.5" width="17" height="17"/>
    </g>
    <g id="组_19493" data-name="组 19493" transform="translate(0.32 0.002)">
      <path id="减去_95" data-name="减去 95" class="cls-1" d="M21195,16586h-1.574l1.574-1.574V16586Zm-4.121,0h-1.7l5.818-5.818v1.7l-4.121,4.119Zm-4.24,0h-1.7l1.707-1.707a4.51,4.51,0,0,0,1.352.207c.047,0,.094,0,.141,0l-1.5,1.5Zm-4.244,0H21181v-.3l3.234-3.234a4.569,4.569,0,0,0,.787.91l-2.627,2.625Zm-1.395-2.846v-1.7l2.664-2.664a4.591,4.591,0,0,0-.164,1.211,4.725,4.725,0,0,0,.043.613l-2.541,2.539Zm11.5-3.018v0c0-.045,0-.088,0-.135a4.527,4.527,0,0,0-.205-1.352l2.705-2.707v1.691l-2.5,2.5Zm-11.5-1.227v-1.7l3.213-3.213h1.7l-4.908,4.908Zm10.373-1.889v0a4.583,4.583,0,0,0-.908-.785l2.232-2.234h1.7l-3.021,3.02Zm-4.58-1.357,0,0,1.66-1.662h1.7l-1.541,1.541a4.492,4.492,0,0,0-.613-.041,4.579,4.579,0,0,0-1.2.162Zm-5.793-1V16574h.67l-.668.664Z" transform="translate(-19953.32 -16281.004)"/>
      <g id="组_19491" data-name="组 19491" transform="translate(-27.322 -21.002)">
        <g id="椭圆_1864" data-name="椭圆 1864" class="cls-3" transform="translate(1258 316)">
          <circle class="cls-4" cx="4" cy="4" r="4"/>
          <circle class="cls-5" cx="4" cy="4" r="3.4"/>
        </g>
        <g id="组_19488" data-name="组 19488" transform="translate(22.182 8.227)">
          <rect id="矩形_13685" data-name="矩形 13685" class="cls-1" width="4.756" height="0.908" rx="0.454" transform="translate(1238.459 309.769) rotate(45)"/>
          <rect id="矩形_13686" data-name="矩形 13686" class="cls-1" width="4.756" height="0.908" rx="0.454" transform="translate(1241.822 310.412) rotate(135)"/>
        </g>
      </g>
    </g>
  </g>
</svg>
