<svg xmlns="http://www.w3.org/2000/svg" width="18" height="18" viewBox="0 0 18 18">
  <defs>
    <style>
      .cls-1, .cls-2 {
        fill: #fff;
      }

      .cls-1 {
        stroke: #707070;
        opacity: 0;
      }

      .cls-3, .cls-4, .cls-6 {
        fill: none;
      }

      .cls-3, .cls-4 {
        stroke: #fff;
        stroke-width: 1.2px;
      }

      .cls-3 {
        stroke-miterlimit: 10;
      }

      .cls-5 {
        stroke: none;
      }
    </style>
  </defs>
  <g id="组_19566" data-name="组 19566" transform="translate(-1266 -376)">
    <g id="矩形_13705" data-name="矩形 13705" class="cls-1" transform="translate(1266 376)">
      <rect class="cls-5" width="18" height="18"/>
      <rect class="cls-6" x="0.5" y="0.5" width="17" height="17"/>
    </g>
    <g id="组_19497" data-name="组 19497" transform="translate(3657.658 -219.258)">
      <rect id="矩形_13699" data-name="矩形 13699" class="cls-2" width="13.683" height="1.15" rx="0.575" transform="translate(-2389.535 599.81)"/>
      <path id="矩形_13700" data-name="矩形 13700" class="cls-3" d="M0,0H9.586a0,0,0,0,1,0,0V8.042a2,2,0,0,1-2,2H2a2,2,0,0,1-2-2V0A0,0,0,0,1,0,0Z" transform="translate(-2387.341 600.377)"/>
      <path id="路径_24850" data-name="路径 24850" class="cls-4" d="M.958,0H5.433a.958.958,0,0,1,.958.958V2.286H0V.958A.958.958,0,0,1,.958,0Z" transform="translate(-2385.889 598.094)"/>
      <rect id="矩形_13702" data-name="矩形 13702" class="cls-2" width="1.077" height="5.934" rx="0.539" transform="translate(-2385.515 602.203)"/>
      <rect id="矩形_13703" data-name="矩形 13703" class="cls-2" width="1.077" height="5.934" rx="0.539" transform="translate(-2383.232 602.203)"/>
      <rect id="矩形_13704" data-name="矩形 13704" class="cls-2" width="1.077" height="5.934" rx="0.539" transform="translate(-2380.493 602.203)"/>
    </g>
  </g>
</svg>
