<svg xmlns="http://www.w3.org/2000/svg" width="18" height="18" viewBox="0 0 18 18">
  <defs>
    <style>
      .cls-1 {
        fill: #fff;
        stroke: #707070;
        opacity: 0;
      }

      .cls-2, .cls-3, .cls-4, .cls-5 {
        fill: none;
      }

      .cls-3, .cls-4, .cls-5 {
        stroke: #333;
        stroke-miterlimit: 10;
      }

      .cls-4 {
        stroke-linecap: round;
        stroke-width: 1.2px;
      }

      .cls-5 {
        stroke-width: 1.1px;
      }

      .cls-6 {
        fill: #333;
      }

      .cls-7 {
        stroke: none;
      }
    </style>
  </defs>
  <g id="组_19512" data-name="组 19512" transform="translate(-1203 -376)">
    <g id="矩形_13654" data-name="矩形 13654" class="cls-1" transform="translate(1203 376)">
      <rect class="cls-7" width="18" height="18"/>
      <rect class="cls-2" x="0.5" y="0.5" width="17" height="17"/>
    </g>
    <path id="路径_24813" data-name="路径 24813" class="cls-2" d="M3.384.753a.5.5,0,0,1,.867,0L7.2,5.885a.5.5,0,0,1-.433.749H.865a.5.5,0,0,1-.433-.749Z" transform="translate(1215.135 381.183) rotate(90)"/>
    <g id="组_19482" data-name="组 19482" transform="translate(2795.127 -247.063)">
      <path id="路径_24844" data-name="路径 24844" class="cls-3" d="M-1530.259,666.575a.09.09,0,0,1,0,.156l-2.052,1.185-2.053,1.185a.09.09,0,0,1-.135-.078v-4.741a.09.09,0,0,1,.135-.078l2.053,1.185Z" transform="translate(-51.114 -34.969)"/>
      <path id="路径_24845" data-name="路径 24845" class="cls-4" d="M-1576.16,631.13V627.08a.083.083,0,0,0-.086-.08h-12.668a.083.083,0,0,0-.086.08v10.181a.083.083,0,0,0,.086.08h6.14" transform="translate(-0.89 -0.488)"/>
      <circle id="椭圆_1859" data-name="椭圆 1859" class="cls-5" cx="2.176" cy="2.176" r="2.176" transform="translate(-1580.718 633.262)"/>
      <rect id="矩形_13655" data-name="矩形 13655" class="cls-6" width="2.176" height="1.2" rx="0.6" transform="translate(-1579.63 634.785)"/>
    </g>
  </g>
</svg>
