<svg xmlns="http://www.w3.org/2000/svg" width="18" height="18" viewBox="0 0 18 18">
  <defs>
    <style>
      .cls-1, .cls-6 {
        fill: #fff;
      }

      .cls-1 {
        stroke: #707070;
        opacity: 0;
      }

      .cls-2, .cls-3, .cls-4, .cls-5 {
        fill: none;
      }

      .cls-3, .cls-4, .cls-5 {
        stroke: #fff;
        stroke-miterlimit: 10;
      }

      .cls-4 {
        stroke-linecap: round;
        stroke-width: 1.2px;
      }

      .cls-5 {
        stroke-width: 1.1px;
      }

      .cls-7 {
        stroke: none;
      }
    </style>
  </defs>
  <g id="组_19568" data-name="组 19568" transform="translate(-1203 -376)">
    <g id="矩形_13654" data-name="矩形 13654" class="cls-1" transform="translate(1203 376)">
      <rect class="cls-7" width="18" height="18"/>
      <rect class="cls-2" x="0.5" y="0.5" width="17" height="17"/>
    </g>
    <path id="路径_24813" data-name="路径 24813" class="cls-2" d="M3.384.753a.5.5,0,0,1,.867,0L7.2,5.885a.5.5,0,0,1-.433.749H.865a.5.5,0,0,1-.433-.749Z" transform="translate(1215.135 381.183) rotate(90)"/>
    <g id="组_19482" data-name="组 19482" transform="translate(2795.5 -246.759)">
      <path id="路径_24844" data-name="路径 24844" class="cls-3" d="M-1530.493,666.444a.085.085,0,0,1,0,.148l-1.94,1.12-1.94,1.12a.085.085,0,0,1-.128-.074v-4.48a.085.085,0,0,1,.128-.074l1.94,1.12Z" transform="translate(-51.349 -35.119)"/>
      <path id="路径_24845" data-name="路径 24845" class="cls-4" d="M-1576.867,630.9v-3.826a.079.079,0,0,0-.081-.076h-11.971a.079.079,0,0,0-.081.076v9.62a.079.079,0,0,0,.081.076h5.8" transform="translate(-0.89 -0.488)"/>
      <circle id="椭圆_1859" data-name="椭圆 1859" class="cls-5" cx="2.056" cy="2.056" r="2.056" transform="translate(-1581.222 632.891)"/>
      <rect id="矩形_13655" data-name="矩形 13655" class="cls-6" width="2.056" height="1.234" rx="0.617" transform="translate(-1580.195 634.33)"/>
    </g>
  </g>
</svg>
