<svg xmlns="http://www.w3.org/2000/svg" width="34" height="34" viewBox="0 0 34 34">
  <defs>
    <style>
      .cls-1, .cls-2 {
        fill: #fff;
      }

      .cls-1 {
        stroke: #707070;
        opacity: 0;
      }

      .cls-3 {
        stroke: none;
      }

      .cls-4 {
        fill: none;
      }
    </style>
  </defs>
  <g id="组_6652" data-name="组 6652" transform="translate(-376.064 -743.064)">
    <g id="矩形_3504" data-name="矩形 3504" class="cls-1" transform="translate(376.064 743.064)">
      <rect class="cls-3" width="34" height="34"/>
      <rect class="cls-4" x="0.5" y="0.5" width="33" height="33"/>
    </g>
    <path id="路径_7607" data-name="路径 7607" class="cls-2" d="M25.3,39.419a1.822,1.822,0,0,1-1.817,1.82H10.373a1.826,1.826,0,0,1-1.82-1.82V20.109H25.3v19.31ZM12.19,16.843a.37.37,0,0,1,.375-.375H21.31a.367.367,0,0,1,.372.375v1.1H12.19Zm18.563,1.1h-6.9v-1.1A2.549,2.549,0,0,0,21.31,14.3H12.565a2.549,2.549,0,0,0-2.543,2.543v1.1H3.1a1.1,1.1,0,1,0,0,2.192H6.361V39.419a4.013,4.013,0,0,0,4.012,4.012H23.478a4.013,4.013,0,0,0,4.012-4.012V20.109h3.266a1.1,1.1,0,0,0,1.1-1.1,1.075,1.075,0,0,0-1.1-1.071ZM16.926,37.95a1.1,1.1,0,0,0,1.1-1.1V25.193a1.1,1.1,0,1,0-2.195,0V36.852a1.1,1.1,0,0,0,1.1,1.1m-5.107,0a1.1,1.1,0,0,0,1.1-1.1V25.193a1.1,1.1,0,1,0-2.195,0V36.852a1.129,1.129,0,0,0,1.1,1.1m10.214,0a1.1,1.1,0,0,0,1.1-1.1V25.193a1.1,1.1,0,1,0-2.195,0V36.852a1.1,1.1,0,0,0,1.1,1.1" transform="translate(376.137 731.198)"/>
  </g>
</svg>
