<svg xmlns="http://www.w3.org/2000/svg" width="22" height="22" viewBox="0 0 22 22">
  <defs>
    <style>
      .cls-1, .cls-2, .cls-3 {
        fill: #fff;
      }

      .cls-1 {
        stroke: #707070;
        opacity: 0;
      }

      .cls-3 {
        font-size: 3px;
        font-family: PingFang SC Heavy, PingFang SC;
      }

      .cls-4 {
        stroke: none;
      }

      .cls-5 {
        fill: none;
      }
    </style>
  </defs>
  <g id="组_3978" data-name="组 3978" transform="translate(-31 -140)">
    <g id="矩形_2313" data-name="矩形 2313" class="cls-1" transform="translate(31 140)">
      <rect class="cls-4" width="22" height="22"/>
      <rect class="cls-5" x="0.5" y="0.5" width="21" height="21"/>
    </g>
    <g id="组_796" data-name="组 796" transform="translate(33.997 142.996)">
      <path id="路径_543" data-name="路径 543" class="cls-2" d="M52.307,0c1.2,0,5.027,3.418,5.186,4.6l.005.072V7.587a.7.7,0,0,1-.7.665.724.724,0,0,1-.78-.587l-.006-.078V5.336H53.79a2.138,2.138,0,0,1-2.221-1.884l0-.117v-2H44.892a.718.718,0,0,0-.736.589L44.15,2V13.34a1.4,1.4,0,0,0,1.372,1.331l.111,0h5.932a.713.713,0,0,1,.739.628.691.691,0,0,1-.653.7l-.087,0H45.633a2.848,2.848,0,0,1-2.962-2.534l0-.133V2a2.106,2.106,0,0,1,2.095-2l.13,0h7.415Zm4.449,10.948a.786.786,0,0,1,.524.2L58.457,12.2a.621.621,0,0,1,0,.943L57.281,14.2a.8.8,0,0,1-.808.145.67.67,0,0,1-.458-.616V13.34H52.307a.671.671,0,1,1,0-1.334h3.708v-.391a.707.707,0,0,1,.742-.667ZM53.049,1.8V3.335A.7.7,0,0,0,53.7,4l.087,0H55.5A26.142,26.142,0,0,0,53.049,1.8Z" transform="translate(-42.667)"/>
      <text id="PDF" class="cls-3" transform="translate(4.603 8.181)"><tspan x="0" y="0">PDF</tspan></text>
      <rect id="矩形_395" data-name="矩形 395" class="cls-2" width="4.002" height="0.8" rx="0.4" transform="translate(2.771 12.673)"/>
      <rect id="矩形_396" data-name="矩形 396" class="cls-2" width="4.802" height="0.8" rx="0.4" transform="translate(2.802 10.983)"/>
    </g>
  </g>
</svg>
