<svg xmlns="http://www.w3.org/2000/svg" width="18" height="18" viewBox="0 0 18 18"><defs><style>.a,.b{fill:#fff;}.a{stroke:#707070;opacity:0;}.c{stroke:none;}.d{fill:none;}</style></defs><g transform="translate(-68 -383)"><g class="a" transform="translate(68 383)"><rect class="c" width="18" height="18"/><rect class="d" x="0.5" y="0.5" width="17" height="17"/></g><g transform="translate(-100.301 11.467)"><path class="b" d="M230.416,228.83a2.116,2.116,0,0,0,.368-.032,1.145,1.145,0,0,0,.323-.1.826.826,0,0,0,.247-.189.578.578,0,0,0,.134-.284h.489V231.9h-.657v-2.6h-.9v-.473Zm2.438,8.156h-2.511a1.5,1.5,0,0,1,.221-.8,2.02,2.02,0,0,1,.588-.594q.179-.131.373-.255a2.937,2.937,0,0,0,.357-.265,1.416,1.416,0,0,0,.268-.307.729.729,0,0,0,.11-.381,1.046,1.046,0,0,0-.024-.213.562.562,0,0,0-.092-.21.542.542,0,0,0-.189-.163.659.659,0,0,0-.315-.066.569.569,0,0,0-.3.071.531.531,0,0,0-.189.194.962.962,0,0,0-.1.292,2.091,2.091,0,0,0-.039.362h-.6a1.885,1.885,0,0,1,.081-.565,1.251,1.251,0,0,1,.244-.449,1.15,1.15,0,0,1,.4-.3,1.457,1.457,0,0,1,1.106,0,1.083,1.083,0,0,1,.365.278,1.017,1.017,0,0,1,.2.365,1.337,1.337,0,0,1,.058.376,1.111,1.111,0,0,1-.068.4,1.291,1.291,0,0,1-.184.328,1.862,1.862,0,0,1-.263.276q-.147.126-.3.236t-.315.21q-.157.1-.292.2a1.709,1.709,0,0,0-.234.208.591.591,0,0,0-.137.229h1.791v.535Zm-1.518,2.735a1.385,1.385,0,0,0,.294-.021.818.818,0,0,0,.263-.092.514.514,0,0,0,.187-.181.532.532,0,0,0,.071-.284.48.48,0,0,0-.16-.378.6.6,0,0,0-.412-.142.542.542,0,0,0-.465.234.765.765,0,0,0-.113.242.907.907,0,0,0-.032.276h-.6a1.516,1.516,0,0,1,.1-.5,1.253,1.253,0,0,1,.244-.4,1.084,1.084,0,0,1,.375-.263,1.257,1.257,0,0,1,.5-.095,1.448,1.448,0,0,1,.423.063,1.239,1.239,0,0,1,.373.184.9.9,0,0,1,.265.307.894.894,0,0,1,.1.428.916.916,0,0,1-.126.486.721.721,0,0,1-.394.3v.011a.76.76,0,0,1,.491.313,1.121,1.121,0,0,1,.071,1.077,1.068,1.068,0,0,1-.284.352,1.31,1.31,0,0,1-.415.223,1.572,1.572,0,0,1-.5.079,1.554,1.554,0,0,1-.559-.092,1.074,1.074,0,0,1-.4-.26,1.118,1.118,0,0,1-.244-.4,1.649,1.649,0,0,1-.089-.525h.6a.831.831,0,0,0,.166.559.631.631,0,0,0,.528.223.75.75,0,0,0,.5-.171.6.6,0,0,0,.2-.486.609.609,0,0,0-.084-.341.546.546,0,0,0-.221-.192.892.892,0,0,0-.307-.081,2.9,2.9,0,0,0-.349-.011v-.446Z" transform="translate(-60.857 145.45)"/><rect class="b" width="12.002" height="1.309" rx="0.655" transform="translate(173.337 375.263)"/><rect class="b" width="12.002" height="1.309" rx="0.655" transform="translate(173.337 379.88)"/><rect class="b" width="12.002" height="1.309" rx="0.655" transform="translate(173.337 384.498)"/></g></g></svg>