<svg xmlns="http://www.w3.org/2000/svg" width="13" height="11.328" viewBox="0 0 13 11.328">
  <defs>
    <style>
      .cls-1 {
        fill: #666;
      }
    </style>
  </defs>
  <path id="路径_2331" data-name="路径 2331" class="cls-1" d="M107.572,127.334h.007a.469.469,0,0,0,.236-.131l6.548-6.654a1.463,1.463,0,0,0,0-2.044l-1.545-1.57a1.408,1.408,0,0,0-2.011,0l-6.549,6.654-.017.018h0l-.014.017,0,0-.011.014,0,.007-.009.012-.005.008-.007.011-.006.01-.006.011-.006.011,0,.01-.005.012,0,.009-.005.014,0,.008-.005.016,0,.007-.005.019v0q-.006.024-.009.049l-.489,3.43a.485.485,0,0,0,.134.408.468.468,0,0,0,.4.136l3.377-.5h0l.015,0Zm3.9-9.72a.472.472,0,0,1,.675,0l1.545,1.57a.491.491,0,0,1,0,.686l-.988,1-2.22-2.255Zm-1.657,1.683,2.22,2.256-4.558,4.631-2.22-2.256Zm-4.894,5.648,1.555,1.58-1.818.267Zm11.233,1.934h-7.4a.48.48,0,0,0,0,.96h7.4a.48.48,0,0,0,0-.96Z" transform="translate(-103.63 -116.512)"/>
</svg>
