<svg xmlns="http://www.w3.org/2000/svg" width="15.986" height="16.343" viewBox="0 0 15.986 16.343">
  <defs>
    <style>
      .cls-1 {
        fill: #666;
      }
    </style>
  </defs>
  <path id="路径_7736" data-name="路径 7736" class="cls-1" d="M97.377,69.4a.587.587,0,0,1-.364.364L89.76,77.02a2.8,2.8,0,0,1-1.156.7l-2.968.913a.736.736,0,0,1-.92-.92l.913-2.969a2.8,2.8,0,0,1,.7-1.155l8.72-8.72A2.429,2.429,0,1,1,98.479,68.3l-1.1,1.1Zm-3.2-2-7.022,7.019a1.619,1.619,0,0,0-.4.669l-.668,2.171,2.171-.668a1.619,1.619,0,0,0,.67-.4l7.019-7.02L94.176,67.4Zm.832-.834,1.769,1.77.868-.868A1.251,1.251,0,1,0,95.877,65.7ZM85.36,80.5h14.72a.589.589,0,0,0,0-1.178H85.36a.589.589,0,0,0,0,1.178Z" transform="translate(-84.683 -64.153)"/>
</svg>
