<svg xmlns="http://www.w3.org/2000/svg" width="18" height="18" viewBox="0 0 18 18">
  <defs>
    <style>
      .cls-1 {
        opacity: 0;
      }

      .cls-2, .cls-3 {
        fill: #fff;
      }

      .cls-2 {
        stroke: #707070;
      }

      .cls-4 {
        stroke: none;
      }

      .cls-5 {
        fill: none;
      }
    </style>
  </defs>
  <g id="组_19853" data-name="组 19853" transform="translate(-95.04 -177.039)">
    <g id="组_19251" data-name="组 19251" class="cls-1" transform="translate(94.858 176.858)">
      <g id="矩形_13146" data-name="矩形 13146" class="cls-2" transform="translate(0.182 0.181)">
        <rect class="cls-4" width="18" height="18"/>
        <rect class="cls-5" x="0.5" y="0.5" width="17" height="17"/>
      </g>
    </g>
    <g id="组_19843" data-name="组 19843" transform="translate(0.01 -0.186)">
      <g id="组_19575" data-name="组 19575" transform="translate(98.725 185.307)">
        <g id="组_19330" data-name="组 19330" transform="translate(0 0)">
          <path id="矩形_4310" data-name="矩形 4310" class="cls-3" d="M0,0H9.959a.65.65,0,0,1,.65.65v0a.65.65,0,0,1-.65.65H0a0,0,0,0,1,0,0V0A0,0,0,0,1,0,0Z" transform="translate(0 5.536)"/>
          <path id="路径_9349" data-name="路径 9349" class="cls-3" d="M0,0,7.818.037V1.3L0,1.263Z" transform="translate(0.02 5.528) rotate(-45)"/>
        </g>
      </g>
      <g id="组_19576" data-name="组 19576" transform="translate(98.725 180.307)">
        <g id="组_19330-2" data-name="组 19330" transform="translate(0 0)">
          <path id="矩形_4310-2" data-name="矩形 4310" class="cls-3" d="M0,0H9.959a.65.65,0,0,1,.65.65v0a.65.65,0,0,1-.65.65H0a0,0,0,0,1,0,0V0A0,0,0,0,1,0,0Z" transform="translate(0 0)"/>
          <path id="路径_9349-2" data-name="路径 9349" class="cls-3" d="M0,1.3l7.818-.036V0L0,.037Z" transform="translate(0.94 0.389) rotate(45)"/>
        </g>
      </g>
    </g>
  </g>
</svg>
