<svg xmlns="http://www.w3.org/2000/svg" width="18" height="18" viewBox="0 0 18 18">
  <defs>
    <style>
      .cls-1, .cls-3 {
        fill: #fff;
      }

      .cls-1 {
        stroke: #707070;
        opacity: 0;
      }

      .cls-2, .cls-4, .cls-6 {
        fill: none;
      }

      .cls-2, .cls-4 {
        stroke: #fff;
        stroke-miterlimit: 10;
        stroke-width: 1.2px;
      }

      .cls-2 {
        stroke-linecap: round;
      }

      .cls-5 {
        stroke: none;
      }
    </style>
  </defs>
  <g id="组_19723" data-name="组 19723" transform="translate(-1063 -987)">
    <g id="矩形_13779" data-name="矩形 13779" class="cls-1" transform="translate(1063 987)">
      <rect class="cls-5" width="18" height="18"/>
      <rect class="cls-6" x="0.5" y="0.5" width="17" height="17"/>
    </g>
    <g id="组_19703" data-name="组 19703" transform="translate(6716.721 3919.715)">
      <path id="路径_24904" data-name="路径 24904" class="cls-2" d="M-5646.115-2917.65h-5.3a.085.085,0,0,1-.083-.088v-12.175a.085.085,0,0,1,.083-.088h9.967a.085.085,0,0,1,.083.088v4.007" transform="translate(0.508)"/>
      <rect id="矩形_13780" data-name="矩形 13780" class="cls-3" width="5.781" height="1.2" rx="0.6" transform="translate(-5649.047 -2927.066)"/>
      <rect id="矩形_13781" data-name="矩形 13781" class="cls-3" width="2.19" height="1.2" rx="0.6" transform="translate(-5649.047 -2923.212)"/>
      <circle id="椭圆_1873" data-name="椭圆 1873" class="cls-4" cx="3.416" cy="3.416" r="3.416" transform="translate(-5645.281 -2924.263)"/>
      <path id="路径_24905" data-name="路径 24905" class="cls-2" d="M-5541.573-2843.573h-1.84a.088.088,0,0,1-.087-.088v-1.839" transform="translate(-98.54 -77.099)"/>
    </g>
  </g>
</svg>
