<svg xmlns="http://www.w3.org/2000/svg" xmlns:xlink="http://www.w3.org/1999/xlink" width="56" height="56" viewBox="0 0 56 56">
  <defs>
    <style>
      .cls-1 {
        fill: #fff;
      }

      .cls-2 {
        clip-path: url(#clip-path);
      }

      .cls-3 {
        fill: #5acc9b;
      }

      .cls-4 {
        fill: #bdebd7;
      }
    </style>
    <clipPath id="clip-path">
      <rect id="矩形_2069" data-name="矩形 2069" class="cls-1" width="56" height="56" rx="2" transform="translate(20 525)"/>
    </clipPath>
  </defs>
  <g id="蒙版组_91" data-name="蒙版组 91" class="cls-2" transform="translate(-20 -525)">
    <g id="组_3390" data-name="组 3390" transform="translate(-6.667 483.667)">
      <path id="路径_4817" data-name="路径 4817" class="cls-3" d="M118.467,32a6.2,6.2,0,0,0-4.527,1.94A6.867,6.867,0,0,0,112,38.467v116.4a6.2,6.2,0,0,0,1.94,4.527,6.384,6.384,0,0,0,4.527,1.94h94.845a6.2,6.2,0,0,0,4.527-1.94,6.384,6.384,0,0,0,1.94-4.527V68.645L183.134,32Z" transform="translate(-112 -32)"/>
      <path id="路径_4818" data-name="路径 4818" class="cls-4" d="M676.645,68.645H646.467A6.631,6.631,0,0,1,640,62.178V32Z" transform="translate(-568.866 -32)"/>
      <path id="路径_4819" data-name="路径 4819" class="cls-1" d="M374.136,406.078,359.478,385.6h10.131l9.592,14.658L389.225,385.6h9.808l-14.981,20.478,15.736,21.771H389.548l-10.562-15.52-10.562,15.628H358.4Z" transform="translate(-325.204 -337.962)"/>
    </g>
  </g>
</svg>
