<svg xmlns="http://www.w3.org/2000/svg" width="36" height="22" viewBox="0 0 36 22">
  <defs>
    <style>
      .cls-1 {
        fill: #fff;
        stroke: #707070;
        opacity: 0;
      }

      .cls-2, .cls-4 {
        fill: none;
      }

      .cls-3, .cls-5 {
        stroke: none;
      }

      .cls-5 {
        fill: #333;
      }
    </style>
  </defs>
  <g id="组_19855" data-name="组 19855" transform="translate(-1319 -654)">
    <g id="矩形_1327" data-name="矩形 1327" class="cls-1" transform="translate(1319 654)">
      <rect class="cls-3" width="36" height="22"/>
      <rect class="cls-4" x="0.5" y="0.5" width="35" height="21"/>
    </g>
    <g id="联合_118" data-name="联合 118" class="cls-2" transform="translate(-19831 -17941.699)">
      <path class="cls-3" d="M21167.219,18615.023l-1.621-2.025H21155a2,2,0,0,1-2-2v-11a2,2,0,0,1,2-2h26a2,2,0,0,1,2,2v11a2,2,0,0,1-2,2h-10.6l-1.621,2.025a1,1,0,0,1-1.564,0Z"/>
      <path class="cls-5" d="M 21168 18614.080078125 L 21169.828125 18611.798828125 L 21181.00390625 18611.798828125 C 21181.4453125 18611.798828125 21181.8046875 18611.439453125 21181.8046875 18610.998046875 L 21181.8046875 18600 C 21181.8046875 18599.55859375 21181.4453125 18599.19921875 21181.00390625 18599.19921875 L 21155.001953125 18599.19921875 C 21154.5625 18599.19921875 21154.203125 18599.55859375 21154.203125 18600 L 21154.203125 18610.998046875 C 21154.203125 18611.439453125 21154.5625 18611.798828125 21155.001953125 18611.798828125 L 21166.173828125 18611.798828125 L 21166.53515625 18612.248046875 L 21168 18614.080078125 M 21168.001953125 18615.3984375 C 21167.712890625 18615.3984375 21167.421875 18615.2734375 21167.21875 18615.0234375 L 21165.59765625 18612.998046875 L 21155.001953125 18612.998046875 C 21153.896484375 18612.998046875 21153.00390625 18612.103515625 21153.00390625 18610.998046875 L 21153.00390625 18600 C 21153.00390625 18598.892578125 21153.896484375 18598 21155.001953125 18598 L 21181.00390625 18598 C 21182.109375 18598 21183.00390625 18598.892578125 21183.00390625 18600 L 21183.00390625 18610.998046875 C 21183.00390625 18612.103515625 21182.109375 18612.998046875 21181.00390625 18612.998046875 L 21170.404296875 18612.998046875 L 21168.783203125 18615.0234375 C 21168.58203125 18615.2734375 21168.29296875 18615.3984375 21168.001953125 18615.3984375 Z"/>
    </g>
  </g>
</svg>
