<svg xmlns="http://www.w3.org/2000/svg" width="36" height="22" viewBox="0 0 36 22">
  <defs>
    <style>
      .cls-1 {
        fill: #fff;
        stroke: #707070;
        opacity: 0;
      }

      .cls-2, .cls-4 {
        fill: none;
      }

      .cls-3, .cls-5 {
        stroke: none;
      }

      .cls-5 {
        fill: #333;
      }
    </style>
  </defs>
  <g id="组_19856" data-name="组 19856" transform="translate(-1365 -654)">
    <g id="矩形_13791" data-name="矩形 13791" class="cls-1" transform="translate(1365 654)">
      <rect class="cls-3" width="36" height="22"/>
      <rect class="cls-4" x="0.5" y="0.5" width="35" height="21"/>
    </g>
    <g id="联合_119" data-name="联合 119" class="cls-2" transform="translate(-19785 -17941.699)">
      <path class="cls-3" d="M21168,18615.4a1,1,0,0,1-.781-.375l-1.621-2.025h-5.1a7.5,7.5,0,0,1,0-15h15a7.5,7.5,0,1,1,0,15h-5.1l-1.621,2.025a1,1,0,0,1-.781.375Z"/>
      <path class="cls-5" d="M 21168 18614.080078125 L 21169.828125 18611.798828125 L 21175.501953125 18611.798828125 C 21178.9765625 18611.798828125 21181.8046875 18608.97265625 21181.8046875 18605.501953125 C 21181.8046875 18602.02734375 21178.9765625 18599.19921875 21175.501953125 18599.19921875 L 21160.5 18599.19921875 C 21157.02734375 18599.19921875 21154.203125 18602.02734375 21154.203125 18605.501953125 C 21154.203125 18608.97265625 21157.02734375 18611.798828125 21160.5 18611.798828125 L 21166.173828125 18611.798828125 L 21166.53515625 18612.248046875 L 21168 18614.080078125 M 21168.001953125 18615.3984375 C 21168.001953125 18615.3984375 21168.001953125 18615.3984375 21168 18615.3984375 C 21167.708984375 18615.3984375 21167.419921875 18615.2734375 21167.21875 18615.0234375 L 21165.59765625 18612.998046875 L 21160.5 18612.998046875 C 21156.357421875 18612.998046875 21153.00390625 18609.642578125 21153.00390625 18605.501953125 C 21153.00390625 18601.35546875 21156.357421875 18598 21160.5 18598 L 21175.501953125 18598 C 21179.642578125 18598 21183.00390625 18601.35546875 21183.00390625 18605.501953125 C 21183.00390625 18609.642578125 21179.642578125 18612.998046875 21175.501953125 18612.998046875 L 21170.404296875 18612.998046875 L 21168.783203125 18615.0234375 C 21168.58203125 18615.2734375 21168.29296875 18615.3984375 21168.001953125 18615.3984375 Z"/>
    </g>
  </g>
</svg>
