<svg xmlns="http://www.w3.org/2000/svg" width="36" height="22" viewBox="0 0 36 22">
  <defs>
    <style>
      .cls-1 {
        fill: #fff;
        stroke: #707070;
        opacity: 0;
      }

      .cls-2, .cls-4 {
        fill: none;
      }

      .cls-3, .cls-5 {
        stroke: none;
      }

      .cls-5 {
        fill: #fff;
      }
    </style>
  </defs>
  <g id="组_19861" data-name="组 19861" transform="translate(-1454 -654)">
    <g id="矩形_13793" data-name="矩形 13793" class="cls-1" transform="translate(1454 654)">
      <rect class="cls-3" width="36" height="22"/>
      <rect class="cls-4" x="0.5" y="0.5" width="35" height="21"/>
    </g>
    <g id="联合_120" data-name="联合 120" class="cls-2" transform="translate(-19694.5 -17940.949)">
      <path class="cls-3" d="M21165.719,18613.523l-1.281-1.6c-6.479-.516-11.437-3.42-11.437-6.92,0-3.869,6.043-7,13.5-7s13.5,3.131,13.5,7c0,3.5-4.963,6.4-11.437,6.92l-1.283,1.6a1,1,0,0,1-1.562,0Z"/>
      <path class="cls-5" d="M 21166.5 18612.580078125 L 21167.953125 18610.767578125 L 21168.46875 18610.7265625 C 21171.44140625 18610.48828125 21174.1484375 18609.716796875 21176.09375 18608.55078125 C 21177.83984375 18607.505859375 21178.802734375 18606.24609375 21178.802734375 18605.001953125 C 21178.802734375 18603.623046875 21177.595703125 18602.205078125 21175.494140625 18601.1171875 C 21173.111328125 18599.8828125 21169.91796875 18599.201171875 21166.5 18599.201171875 C 21163.08203125 18599.201171875 21159.88671875 18599.8828125 21157.505859375 18601.1171875 C 21155.404296875 18602.205078125 21154.19921875 18603.62109375 21154.19921875 18605.001953125 C 21154.19921875 18606.24609375 21155.16015625 18607.505859375 21156.90625 18608.55078125 C 21158.8515625 18609.716796875 21161.55859375 18610.48828125 21164.533203125 18610.7265625 L 21165.05078125 18610.767578125 L 21165.375 18611.171875 L 21166.5 18612.580078125 M 21166.5 18613.896484375 C 21166.208984375 18613.896484375 21165.91796875 18613.7734375 21165.71875 18613.5234375 L 21164.4375 18611.921875 C 21157.958984375 18611.40625 21153 18608.501953125 21153 18605.001953125 C 21153 18601.1328125 21159.04296875 18598.001953125 21166.5 18598.001953125 C 21173.953125 18598.001953125 21180.001953125 18601.1328125 21180.001953125 18605.001953125 C 21180.001953125 18608.501953125 21175.0390625 18611.40625 21168.564453125 18611.921875 L 21167.28125 18613.5234375 C 21167.08203125 18613.7734375 21166.791015625 18613.896484375 21166.5 18613.896484375 Z"/>
    </g>
  </g>
</svg>
