<svg xmlns="http://www.w3.org/2000/svg" width="23" height="23" viewBox="0 0 23 23"><defs><style>.a,.b,.c{fill:none;stroke-miterlimit:10;}.a{stroke:#d3a8a8;opacity:0;}.b,.c{stroke:#333;}.b{stroke-linecap:round;stroke-width:1.2px;}.d{fill:#333;}</style></defs><g transform="translate(10544.5 16640.5)"><rect class="a" width="22" height="22" transform="translate(-10544 -16640)"/><g transform="translate(-10239.381 -16764.23)"><path class="b" d="M-288.043,142.78h-12.341a.941.941,0,0,1-.869-1v-13.1a.942.942,0,0,1,.869-1h11.379a.942.942,0,0,1,.869,1l.094,14.1"/><path class="c" d="M0,0H8.011a0,0,0,0,1,0,0V4.868a1,1,0,0,1-1,1H1a1,1,0,0,1-1-1V0A0,0,0,0,1,0,0Z" transform="translate(-298.701 127.681)"/><rect class="d" width="1.2" height="2.8" rx="0.6" transform="translate(-294.046 129.216)"/></g></g></svg>