<svg xmlns="http://www.w3.org/2000/svg" width="12.522" height="10.88" viewBox="0 0 12.522 10.88">
  <defs>
    <style>
      .cls-1 {
        fill: #4d4d4d;
      }
    </style>
  </defs>
  <path id="路径_4778" data-name="路径 4778" class="cls-1" d="M85,50.881a4.9,4.9,0,0,1-.274,1.62,4.679,4.679,0,0,0-4.4-3.231v.806a.817.817,0,0,1-.434.726.8.8,0,0,1-.345.089.77.77,0,0,1-.469-.159l-3.116-2.426a.829.829,0,0,1,0-1.292l3.116-2.434a.752.752,0,0,1,.469-.159.692.692,0,0,1,.345.089.807.807,0,0,1,.434.726v.806A4.759,4.759,0,0,1,85,50.881Zm-1.758-.115a.571.571,0,0,0-.567.567v.682c0,1.2-.044,2.151-2.266,2.151H75.873c-2.293,0-2.266-1.018-2.266-2.266V49.067c-.159-1.779.682-2.169,1.7-2.249h.035a.571.571,0,0,0,.567-.567.578.578,0,0,0-.567-.575h-.035v-.009H74.74a2.271,2.271,0,0,0-2.266,2.266v5.1A2.271,2.271,0,0,0,74.74,55.3h6.79A2.271,2.271,0,0,0,83.8,53.033v-1.7a.557.557,0,0,0-.558-.567Z" transform="translate(-72.474 -44.419)"/>
</svg>
