<svg id="点赞" xmlns="http://www.w3.org/2000/svg" width="20" height="20" viewBox="0 0 20 20">
  <defs>
    <style>
      .cls-1 {
        fill: #fff;
        stroke: #707070;
        opacity: 0;
      }

      .cls-2 {
        fill: #666;
      }

      .cls-3 {
        stroke: none;
      }

      .cls-4 {
        fill: none;
      }
    </style>
  </defs>
  <g id="矩形_1166" data-name="矩形 1166" class="cls-1">
    <rect class="cls-3" width="20" height="20"/>
    <rect class="cls-4" x="0.5" y="0.5" width="19" height="19"/>
  </g>
  <path id="路径_2294" data-name="路径 2294" class="cls-2" d="M107.557,67.542a2.221,2.221,0,0,0-2.214,1.752s-.32,1.607-.488,2.185a4.411,4.411,0,0,1-1.936,2.342,10.492,10.492,0,0,1-2.6.259H97.652a1.318,1.318,0,0,0-1.329,1.31V85.867a1.318,1.318,0,0,0,1.329,1.31h12.263a3.968,3.968,0,0,0,3.941-3.345l1.026-6.742a2.629,2.629,0,0,0-2.628-3.005h-3.022a21.534,21.534,0,0,0,.676-3.941,2.379,2.379,0,0,0-2.11-2.584,1.655,1.655,0,0,0-.243-.018Zm-5.922,18.322V75.349a5.369,5.369,0,0,0,1.87-.36,5.69,5.69,0,0,0,2.624-3.156c.177-.611.479-2.121.515-2.3a.9.9,0,0,1,.91-.687c.036,0,.072,0,.108.006a1.064,1.064,0,0,1,.925,1.162,20.064,20.064,0,0,1-.628,3.681l-.518,1.687h4.815a1.329,1.329,0,0,1,1.009.454,1.269,1.269,0,0,1,.305,1.05l-1.024,6.742a2.63,2.63,0,0,1-2.628,2.23h-8.283v0Zm-3.983,0V75.387h2.654V85.864H97.652Zm0,0" transform="translate(-95.618 -67.359)"/>
</svg>
