<svg xmlns="http://www.w3.org/2000/svg" width="40" height="40" viewBox="0 0 40 40">
  <g id="组_1361" data-name="组 1361" transform="translate(-346 -325)">
    <rect id="矩形_929" data-name="矩形 929" width="40" height="40" transform="translate(346 325)" fill="none"/>
    <path id="路径_447" data-name="路径 447" d="M95.911,101.308a2.336,2.336,0,0,0,2.248,1.615h9.582a2.344,2.344,0,0,0-2.366-2.308h-9.7Zm-.946-3h10.41a4.689,4.689,0,0,1,4.732,4.615v.923A4.691,4.691,0,0,1,112,107.538v13.846A4.689,4.689,0,0,1,107.268,126H84.732A4.688,4.688,0,0,1,80,121.385V100.615A4.688,4.688,0,0,1,84.732,96h6.092A4.87,4.87,0,0,1,94.965,98.308Zm-4.14,0H84.732a2.344,2.344,0,0,0-2.366,2.308v20.769a2.344,2.344,0,0,0,2.366,2.308h22.477a2.344,2.344,0,0,0,2.366-2.308V107.538a2.344,2.344,0,0,0-2.366-2.308H98.277a4.692,4.692,0,0,1-4.5-3.231l-.71-2.077A2.284,2.284,0,0,0,90.824,98.308ZM87.1,117.923h9.464a1.154,1.154,0,1,1,0,2.308H87.1a1.154,1.154,0,1,1,0-2.308Z" transform="translate(270 234)" fill="#fd492b"/>
  </g>
</svg>
