<svg xmlns="http://www.w3.org/2000/svg" width="22" height="22" viewBox="0 0 22 22">
  <defs>
    <style>
      .cls-1, .cls-3 {
        fill: #fff;
      }

      .cls-1 {
        stroke: #707070;
        opacity: 0;
      }

      .cls-2, .cls-5 {
        fill: none;
      }

      .cls-4, .cls-6 {
        stroke: none;
      }

      .cls-6 {
        fill: #fff;
      }
    </style>
  </defs>
  <g id="组_19212" data-name="组 19212" transform="translate(-581 -366)">
    <g id="矩形_13146" data-name="矩形 13146" class="cls-1" transform="translate(581 366)">
      <rect class="cls-4" width="22" height="22"/>
      <rect class="cls-5" x="0.5" y="0.5" width="21" height="21"/>
    </g>
    <g id="组_19040" data-name="组 19040" transform="translate(546.44 -463.623)">
      <g id="联合_46" data-name="联合 46" class="cls-2" transform="translate(37.001 833)">
        <path class="cls-4" d="M1.613,14.127l.17-2.135A6.818,6.818,0,0,1,0,7.445C0,3.333,3.832,0,8.56,0s8.56,3.333,8.56,7.445-3.832,7.444-8.56,7.444a9.594,9.594,0,0,1-3.74-.746l-1.732.942a1,1,0,0,1-1.475-.958Z"/>
        <path class="cls-6" d="M 8.559900283813477 13.38870239257812 C 12.45274066925049 13.38870239257812 15.61980056762695 10.72228240966797 15.61980056762695 7.444802284240723 C 15.61980056762695 4.166831970214844 12.45274066925049 1.500002026557922 8.559900283813477 1.500002026557922 C 4.667060375213623 1.500002026557922 1.500000238418579 4.166831970214844 1.500000238418579 7.444802284240723 C 1.500000238418579 8.73458194732666 1.985470294952393 9.962621688842773 2.903910398483276 10.99617195129395 L 3.328650236129761 11.47414207458496 L 3.181268215179443 13.32641315460205 L 4.738280296325684 12.47920227050781 L 5.404390335083008 12.76104164123535 C 6.388730049133301 13.17752170562744 7.450400352478027 13.38870239257812 8.559900283813477 13.38870239257812 M 2.610970258712769 15.20801162719727 C 2.060040235519409 15.20808219909668 1.563860297203064 14.74182224273682 1.612800240516663 14.1273021697998 L 1.782660245895386 11.99256229400635 C 0.6649602651596069 10.73479175567627 2.838134776084189e-07 9.157382011413574 2.838134776084189e-07 7.444802284240723 C 2.838134776084189e-07 3.332702159881592 3.832200288772583 2.053222715403535e-06 8.559900283813477 2.053222715403535e-06 C 13.28760051727295 2.053222715403535e-06 17.11980056762695 3.332702159881592 17.11980056762695 7.444802284240723 C 17.11980056762695 11.55600166320801 13.28760051727295 14.88870239257812 8.559900283813477 14.88870239257812 C 7.218690395355225 14.88870239257812 5.949900150299072 14.62059211730957 4.81989049911499 14.14247226715088 L 3.087900400161743 15.08490180969238 C 2.932210206985474 15.16947174072266 2.769280195236206 15.20799160003662 2.610970258712769 15.20801162719727 Z"/>
      </g>
      <rect id="矩形_13123" data-name="矩形 13123" class="cls-3" width="8.955" height="1.428" rx="0.714" transform="translate(41.583 837.699)"/>
      <rect id="矩形_13124" data-name="矩形 13124" class="cls-3" width="6.176" height="1.428" rx="0.714" transform="translate(41.583 840.98)"/>
    </g>
  </g>
</svg>
