<svg xmlns="http://www.w3.org/2000/svg" width="9.232" height="11.424" viewBox="0 0 9.232 11.424">
  <defs>
    <style>
      .cls-1 {
        fill: #fff;
      }
    </style>
  </defs>
  <path id="路径_578" data-name="路径 578" class="cls-1" d="M1.12-11.424H6.336a3.936,3.936,0,0,1,2.624.8,2.578,2.578,0,0,1,.912,2.08,2.734,2.734,0,0,1-.48,1.632,2.89,2.89,0,0,1-1.328.944,2.867,2.867,0,0,1,1.712.912A2.8,2.8,0,0,1,10.352-3.2,2.857,2.857,0,0,1,9.168-.672,5.077,5.077,0,0,1,6.336,0H1.12Zm1.744,1.44v3.408H5.872A2.86,2.86,0,0,0,7.6-6.992a1.636,1.636,0,0,0,.528-1.344A1.439,1.439,0,0,0,7.6-9.584a2.792,2.792,0,0,0-1.7-.4Zm0,4.832V-1.44H6.1a3.655,3.655,0,0,0,1.728-.352,1.556,1.556,0,0,0,.784-1.44A1.733,1.733,0,0,0,8-4.7a3.087,3.087,0,0,0-1.856-.448Z" transform="translate(-1.12 11.424)"/>
</svg>
