<svg xmlns="http://www.w3.org/2000/svg" width="12" height="12" viewBox="0 0 12 12">
  <defs>
    <style>
      .cls-1 {
        fill: #fff;
        stroke: #707070;
        opacity: 0;
      }

      .cls-2 {
        fill: #333;
      }

      .cls-3 {
        stroke: none;
      }

      .cls-4 {
        fill: none;
      }
    </style>
  </defs>
  <g id="组_17151" data-name="组 17151" transform="translate(-1681 -221)">
    <g id="矩形_4006" data-name="矩形 4006" class="cls-1" transform="translate(1681 221)">
      <rect class="cls-3" width="12" height="12"/>
      <rect class="cls-4" x="0.5" y="0.5" width="11" height="11"/>
    </g>
    <path id="路径_8136" data-name="路径 8136" class="cls-2" d="M1.12-11.424H5.695a3.452,3.452,0,0,1,2.3.7A2.261,2.261,0,0,1,8.8-8.9a2.4,2.4,0,0,1-.421,1.431,2.535,2.535,0,0,1-1.165.828,2.514,2.514,0,0,1,1.5.8,2.455,2.455,0,0,1,.505,1.628A2.506,2.506,0,0,1,8.178-1.994,4.452,4.452,0,0,1,5.695-1.4H1.12Zm1.53,1.263v2.989H5.288A2.508,2.508,0,0,0,6.8-7.537a1.435,1.435,0,0,0,.463-1.179A1.262,1.262,0,0,0,6.8-9.81a2.449,2.449,0,0,0-1.487-.351Zm0,4.238v3.256H5.484A3.205,3.205,0,0,0,7-2.976a1.365,1.365,0,0,0,.688-1.263A1.52,1.52,0,0,0,7.154-5.53a2.707,2.707,0,0,0-1.628-.393Z" transform="translate(1681.809 233.422)"/>
  </g>
</svg>
