<svg xmlns="http://www.w3.org/2000/svg" width="10.206" height="10.192" viewBox="0 0 10.206 10.192">
  <defs>
    <style>
      .cls-1 {
        fill: #fff;
      }
    </style>
  </defs>
  <path id="路径_577" data-name="路径 577" class="cls-1" d="M.98-10H2.506V-3.78a2.757,2.757,0,0,0,.616,1.988,2.644,2.644,0,0,0,1.988.658,2.623,2.623,0,0,0,1.974-.658A2.818,2.818,0,0,0,7.7-3.78V-10H9.226v6.188A3.944,3.944,0,0,1,8.148-.826,4.273,4.273,0,0,1,5.11.2,4.218,4.218,0,0,1,2.072-.812a3.962,3.962,0,0,1-1.092-3ZM0-6H10.206v1H0Z" transform="translate(0 9.996)"/>
</svg>
