<svg xmlns="http://www.w3.org/2000/svg" width="22" height="22" viewBox="0 0 22 22">
  <defs>
    <style>
      .cls-1, .cls-3 {
        fill: #fff;
      }

      .cls-1 {
        stroke: #707070;
        opacity: 0;
      }

      .cls-2, .cls-5 {
        fill: none;
      }

      .cls-2 {
        stroke: #fff;
        stroke-miterlimit: 10;
        stroke-width: 1.5px;
      }

      .cls-4 {
        stroke: none;
      }
    </style>
  </defs>
  <g id="组_20263" data-name="组 20263" transform="translate(-538.349 -139.349)">
    <g id="矩形_14062" data-name="矩形 14062" class="cls-1" transform="translate(538.349 139.349)">
      <rect class="cls-4" width="22" height="22"/>
      <rect class="cls-5" x="0.5" y="0.5" width="21" height="21"/>
    </g>
    <g id="组_20262" data-name="组 20262" transform="translate(3187.274 2768.513)">
      <path id="路径_24969" data-name="路径 24969" class="cls-2" d="M-2620.7-2618.9l-4.2,4.2-4.833-4.833a.114.114,0,0,1,.036-.177c.786-.454,2.16-3.657,2.757-5.125a.505.505,0,0,1,.8-.223l5.48,5.48A.481.481,0,0,1-2620.7-2618.9Z" transform="translate(-11.034 0)"/>
      <path id="路径_24970" data-name="路径 24970" class="cls-2" d="M-2635.554-2597.211l-5.319-5.319a.478.478,0,0,0-.678,0l-1.121,1.12a.481.481,0,0,0,0,.679l1.645,1.644a.241.241,0,0,1,0,.346,10.258,10.258,0,0,1-2.392,1.372,1.331,1.331,0,0,0-.611.536,1.868,1.868,0,0,0,.3,2.241,1.868,1.868,0,0,0,2.241.3,1.342,1.342,0,0,0,.536-.612,10.26,10.26,0,0,1,1.371-2.392.239.239,0,0,1,.345,0l1.545,1.545a.961.961,0,0,0,1.357,0l.781-.782A.478.478,0,0,0-2635.554-2597.211Z" transform="translate(0 -17.106)"/>
      <path id="路径_24971" data-name="路径 24971" class="cls-3" d="M-2607.026-2610.9s-1.439,2.421-2.032,3.212c-.109.187,0,.374.264.233.7-.229,2.6-1.167,3.038-2.176Z" transform="translate(-26.844 -10.855)"/>
    </g>
  </g>
</svg>
