<svg xmlns="http://www.w3.org/2000/svg" width="22" height="22" viewBox="0 0 22 22">
  <defs>
    <style>
      .cls-1 {
        fill: #fff;
        stroke: #707070;
        opacity: 0;
      }

      .cls-2, .cls-3, .cls-5 {
        fill: none;
      }

      .cls-2, .cls-3 {
        stroke: #fd492b;
        stroke-miterlimit: 10;
      }

      .cls-3 {
        stroke-linecap: round;
      }

      .cls-4 {
        stroke: none;
      }
    </style>
  </defs>
  <g id="组_3661" data-name="组 3661" transform="translate(-4661 1512)">
    <g id="矩形_2294" data-name="矩形 2294" class="cls-1" transform="translate(4661 -1512)">
      <rect class="cls-4" width="22" height="22"/>
      <rect class="cls-5" x="0.5" y="0.5" width="21" height="21"/>
    </g>
    <g id="组_3321" data-name="组 3321" transform="translate(4175.516 -1815.134)">
      <circle id="椭圆_264" data-name="椭圆 264" class="cls-2" cx="3.636" cy="3.636" r="3.636" transform="translate(491.51 307.275)"/>
      <path id="路径_4775" data-name="路径 4775" class="cls-2" d="M495.146,326.394a6.445,6.445,0,0,0-6.432,6.032.384.384,0,0,0,.38.413h12.1a.384.384,0,0,0,.38-.413A6.445,6.445,0,0,0,495.146,326.394Z" transform="translate(0 -11.847)"/>
      <path id="路径_4776" data-name="路径 4776" class="cls-3" d="M517.5,309.177a2.59,2.59,0,1,1,0,5.18" transform="translate(-17.836 -1.179)"/>
      <path id="路径_4777" data-name="路径 4777" class="cls-3" d="M522.091,327.387A4.591,4.591,0,0,0,517.5,322.8" transform="translate(-17.836 -9.617)"/>
    </g>
  </g>
</svg>
