<svg xmlns="http://www.w3.org/2000/svg" width="22" height="22" viewBox="0 0 22 22">
  <defs>
    <style>
      .cls-1, .cls-3 {
        fill: #fff;
      }

      .cls-1 {
        stroke: #707070;
        opacity: 0;
      }

      .cls-2, .cls-5 {
        fill: none;
      }

      .cls-2 {
        stroke: #fff;
        stroke-miterlimit: 10;
      }

      .cls-4 {
        stroke: none;
      }
    </style>
  </defs>
  <g id="组_19884" data-name="组 19884" transform="translate(-35.557 -494.557)">
    <g id="矩形_3507" data-name="矩形 3507" class="cls-1" transform="translate(35.557 494.557)">
      <rect class="cls-4" width="22" height="22"/>
      <rect class="cls-5" x="0.5" y="0.5" width="21" height="21"/>
    </g>
    <g id="组_19739" data-name="组 19739" transform="translate(39.479 497.152)">
      <circle id="椭圆_1874" data-name="椭圆 1874" class="cls-2" cx="2.446" cy="2.446" r="2.446" transform="translate(0.323 1)"/>
      <circle id="椭圆_1875" data-name="椭圆 1875" class="cls-2" cx="2.446" cy="2.446" r="2.446" transform="translate(8.939 1)"/>
      <path id="矩形_13784" data-name="矩形 13784" class="cls-2" d="M2.771,0h0A2.771,2.771,0,0,1,5.542,2.771V8.2a.4.4,0,0,1-.4.4H.4A.4.4,0,0,1,0,8.2V2.771A2.771,2.771,0,0,1,2.771,0Z" transform="translate(0 7.216)"/>
      <path id="矩形_13785" data-name="矩形 13785" class="cls-2" d="M2.771,0h0A2.771,2.771,0,0,1,5.542,2.771V8.2a.4.4,0,0,1-.4.4H.4A.4.4,0,0,1,0,8.2V2.771A2.771,2.771,0,0,1,2.771,0Z" transform="translate(8.616 7.216)"/>
      <path id="矩形_13786" data-name="矩形 13786" class="cls-3" d="M.75,0H1A0,0,0,0,1,1,0V2.118a.5.5,0,0,1-.5.5h0a.5.5,0,0,1-.5-.5V.75A.75.75,0,0,1,.75,0Z" transform="translate(5.217 11.801) rotate(-50)"/>
      <path id="矩形_13790" data-name="矩形 13790" class="cls-3" d="M0,0H.5A.5.5,0,0,1,1,.5V2.042a.5.5,0,0,1-.5.5h0a.5.5,0,0,1-.5-.5V0A0,0,0,0,1,0,0Z" transform="matrix(0.719, 0.695, -0.695, 0.719, 8.373, 11.08)"/>
    </g>
  </g>
</svg>
