<svg xmlns="http://www.w3.org/2000/svg" width="89" height="89" viewBox="0 0 89 89">
  <defs>
    <style>
      .cls-1 {
        fill: #d8d8d8;
        stroke: #979797;
        stroke-miterlimit: 10;
        opacity: 0;
      }

      .cls-2 {
        fill: #ffee15;
      }

      .cls-3 {
        fill: #9274ed;
      }

      .cls-4 {
        fill: #f09ace;
      }
    </style>
  </defs>
  <g id="编组_21" data-name="编组 21" transform="translate(0.5 0.5)">
    <rect id="矩形备份_7" data-name="矩形备份 7" class="cls-1" width="88" height="88"/>
    <path id="形状结合" class="cls-2" d="M30.833,62a30.654,30.654,0,0,1-21.8-9.08,31.083,31.083,0,0,1,0-43.841A30.849,30.849,0,0,1,61.667,31,31.012,31.012,0,0,1,42.835,59.564,30.5,30.5,0,0,1,30.833,62Zm0-45.467A14.467,14.467,0,1,0,45.222,31,14.444,14.444,0,0,0,30.833,16.533Z" transform="translate(13 12)"/>
    <path id="形状结合-2" data-name="形状结合" class="cls-3" d="M14.389,31A14.446,14.446,0,0,0,.167,16.534V0A30.493,30.493,0,0,1,12,2.436a30.721,30.721,0,0,1,9.8,6.643,30.893,30.893,0,0,1,6.608,9.854A30.938,30.938,0,0,1,30.834,31Z" transform="translate(43.833 12)"/>
    <path id="形状结合-3" data-name="形状结合" class="cls-4" d="M14.389,31A14.446,14.446,0,0,0,.167,16.534V0A30.493,30.493,0,0,1,12,2.436a30.721,30.721,0,0,1,9.8,6.643,30.893,30.893,0,0,1,6.608,9.854A30.938,30.938,0,0,1,30.834,31Z" transform="matrix(0.017, 1, -1, 0.017, 74.829, 42.459)"/>
  </g>
</svg>
