<svg xmlns="http://www.w3.org/2000/svg" width="16" height="16" viewBox="0 0 16 16">
  <defs>
    <style>
      .cls-1 {
        fill: #fff;
        stroke: #707070;
        opacity: 0;
      }

      .cls-2 {
        fill: #333;
      }

      .cls-3 {
        stroke: none;
      }

      .cls-4 {
        fill: none;
      }
    </style>
  </defs>
  <g id="组_2375" data-name="组 2375" transform="translate(-155 -587)">
    <g id="矩形_1468" data-name="矩形 1468" class="cls-1" transform="translate(155 587)">
      <rect class="cls-3" width="16" height="16"/>
      <rect class="cls-4" x="0.5" y="0.5" width="15" height="15"/>
    </g>
    <path id="路径_2721" data-name="路径 2721" class="cls-2" d="M8,16a8,8,0,1,1,8-8A8,8,0,0,1,8,16Zm0-1.066A6.934,6.934,0,1,0,1.066,8,6.934,6.934,0,0,0,8,14.934ZM8.207,4.09a2.536,2.536,0,0,1,1.775.6,2.054,2.054,0,0,1,.683,1.627,2.2,2.2,0,0,1-.432,1.387,11.636,11.636,0,0,1-.956.887,1.924,1.924,0,0,0-.478.591,1.531,1.531,0,0,0-.183.752v.193H7.4V9.937a2.269,2.269,0,0,1,.226-1.081A5.645,5.645,0,0,1,8.91,7.446L9.1,7.231A1.33,1.33,0,0,0,9.42,6.4a1.288,1.288,0,0,0-.331-.932,1.316,1.316,0,0,0-.967-.341,1.255,1.255,0,0,0-1.114.489A1.9,1.9,0,0,0,6.7,6.777H5.506A2.645,2.645,0,0,1,6.222,4.82a2.65,2.65,0,0,1,1.984-.73ZM8,10.745a.817.817,0,0,1,.6.226.753.753,0,0,1,.24.581.806.806,0,0,1-.25.591.852.852,0,0,1-.591.226.817.817,0,0,1-.831-.82.757.757,0,0,1,.239-.58A.8.8,0,0,1,8,10.745Z" transform="translate(155 587)"/>
  </g>
</svg>
