<svg xmlns="http://www.w3.org/2000/svg" width="22" height="22" viewBox="0 0 22 22">
  <defs>
    <style>
      .cls-1 {
        fill: #fff;
        stroke: #707070;
        opacity: 0;
      }

      .cls-2 {
        fill: #333;
      }

      .cls-3 {
        stroke: none;
      }

      .cls-4 {
        fill: none;
      }
    </style>
  </defs>
  <g id="组_6795" data-name="组 6795" transform="translate(-379 -110)">
    <g id="矩形_3580" data-name="矩形 3580" class="cls-1" transform="translate(379 110)">
      <rect class="cls-3" width="22" height="22"/>
      <rect class="cls-4" x="0.5" y="0.5" width="21" height="21"/>
    </g>
    <path id="路径_7624" data-name="路径 7624" class="cls-2" d="M74.917,101.074,66,94.525a.566.566,0,0,0-.644,0l-8.915,6.55a.515.515,0,0,0-.109.722.52.52,0,0,0,.725.109l1.226-.9v9.345a1.382,1.382,0,0,0,1.376,1.37H63.4a.532.532,0,0,0,.227-.055.469.469,0,0,0,.161-.118.527.527,0,0,0,.131-.328v-3.484a.553.553,0,0,1,.586-.6H66.4a.575.575,0,0,1,.586.564v3.545a.5.5,0,0,0,.148.326.548.548,0,0,0,.364.149h4.239a1.382,1.382,0,0,0,1.376-1.37v-9.319l1.19.874a.517.517,0,1,0,.615-.83h0M72.1,109.9c0,.34-.126.784-.865.784H68.021V107.44a1.419,1.419,0,0,0-1.333-1.314H64.218a1.419,1.419,0,0,0-1.333,1.314v3.246h-2.72c-.739,0-.865-.444-.865-.784l.008-9.648,6.373-4.682,6.409,4.709L72.1,109.9h0m0,0" transform="translate(324.32 17.928)"/>
  </g>
</svg>
