<svg xmlns="http://www.w3.org/2000/svg" width="18" height="18" viewBox="0 0 18 18">
  <defs>
    <style>
      .cls-1 {
        fill: #fff;
        stroke: #707070;
        opacity: 0;
      }

      .cls-2 {
        fill: #707070;
      }

      .cls-3 {
        stroke: none;
      }

      .cls-4 {
        fill: none;
      }
    </style>
  </defs>
  <g id="组_17096" data-name="组 17096" transform="translate(-968 -649)">
    <g id="矩形_3946" data-name="矩形 3946" class="cls-1" transform="translate(968 649)">
      <rect class="cls-3" width="18" height="18"/>
      <rect class="cls-4" x="0.5" y="0.5" width="17" height="17"/>
    </g>
    <path id="路径_8128" data-name="路径 8128" class="cls-2" d="M6.164,6.715H.566A.566.566,0,0,1,0,6.15V.566A.566.566,0,0,1,.566,0h5.6a.566.566,0,0,1,.566.566V6.15a.566.566,0,0,1-.566.566ZM1.131,5.584H5.6V1.131H1.131ZM11.319,6.715h-.014a3.358,3.358,0,0,1,0-6.715h.014a3.358,3.358,0,0,1,0,6.715Zm-.014-5.584a2.227,2.227,0,1,0,0,4.453h.014a2.227,2.227,0,1,0,0-4.453ZM6.164,14.67H.566A.566.566,0,0,1,0,14.1V8.52a.566.566,0,0,1,.566-.566h5.6a.566.566,0,0,1,.566.566V14.1a.566.566,0,0,1-.566.566ZM1.131,13.539H5.6V9.085H1.131Zm12.98,1.131h-5.6a.566.566,0,0,1-.566-.566V8.52a.566.566,0,0,1,.566-.566h5.6a.566.566,0,0,1,.566.566V14.1a.566.566,0,0,1-.566.566ZM9.079,13.539h4.467V9.085H9.079Z" transform="translate(969.662 650.666)"/>
  </g>
</svg>
