<svg xmlns="http://www.w3.org/2000/svg" width="34" height="34" viewBox="0 0 34 34">
  <defs>
    <style>
      .cls-1 {
        fill: #fff;
        stroke: #707070;
        opacity: 0;
      }

      .cls-2 {
        fill: #666;
      }

      .cls-3 {
        stroke: none;
      }

      .cls-4 {
        fill: none;
      }
    </style>
  </defs>
  <g id="组_3483" data-name="组 3483" transform="translate(-1296 -401)">
    <g id="矩形_2167" data-name="矩形 2167" class="cls-1" transform="translate(1296 401)">
      <rect class="cls-3" width="34" height="34"/>
      <rect class="cls-4" x="0.5" y="0.5" width="33" height="33"/>
    </g>
    <path id="路径_4882" data-name="路径 4882" class="cls-2" d="M15.016,30a15,15,0,1,1,15-15A15,15,0,0,1,15.016,30Zm0-28.125A13.125,13.125,0,1,0,28.141,15,13.14,13.14,0,0,0,15.016,1.875Zm-.049,22.543h-.114c-5.726,0-8.128-5.167-8.228-5.389a.938.938,0,0,1,1.707-.775c.081.177,2.023,4.289,6.524,4.289h.088a7.742,7.742,0,0,0,6.722-4.281.937.937,0,1,1,1.712.764A9.546,9.546,0,0,1,14.967,24.418Zm4.722-10.36a1.87,1.87,0,1,1,1.87-1.871A1.871,1.871,0,0,1,19.689,14.058Zm-9.375,0a1.87,1.87,0,1,1,1.87-1.871A1.871,1.871,0,0,1,10.314,14.058Z" transform="translate(1297.984 403)"/>
  </g>
</svg>
