<svg xmlns="http://www.w3.org/2000/svg" width="36" height="36" viewBox="0 0 36 36">
  <defs>
    <style>
      .cls-1 {
        fill: #ccc;
        stroke: #707070;
      }

      .cls-2, .cls-3, .cls-5 {
        fill: none;
      }

      .cls-2, .cls-3 {
        stroke: #666;
      }

      .cls-2 {
        stroke-miterlimit: 10;
      }

      .cls-3 {
        stroke-linecap: round;
      }

      .cls-4 {
        stroke: none;
      }
    </style>
  </defs>
  <g id="组_6754" data-name="组 6754" transform="translate(-4041 -12443)">
    <g id="矩形_3542" data-name="矩形 3542" class="cls-1" transform="translate(4041 12443)">
      <rect class="cls-4" width="36" height="36" rx="2"/>
      <rect class="cls-5" x="0.5" y="0.5" width="35" height="35" rx="1.5"/>
    </g>
    <g id="组_6751" data-name="组 6751" transform="translate(49.5 6.442)">
      <g id="组_6750" data-name="组 6750" transform="translate(101.189 10702.391)">
        <rect id="矩形_3540" data-name="矩形 3540" class="cls-2" width="14.316" height="18.316" rx="1" transform="translate(3894.812 1743.008)"/>
        <rect id="矩形_3541" data-name="矩形 3541" class="cls-2" width="3.884" height="3.884" rx="1.942" transform="translate(3897.611 1745.675)"/>
        <path id="路径_7632" data-name="路径 7632" class="cls-2" d="M3894.811,1764.378a4.516,4.516,0,0,1,6.781.253" transform="translate(0 -8.432)"/>
        <path id="路径_7633" data-name="路径 7633" class="cls-2" d="M3904.192,1763.907c.286-6.285,4.107-11.325,8.9-11.767" transform="translate(-3.963 -2.581)"/>
      </g>
      <g id="组_6757" data-name="组 6757">
        <line id="直线_453" data-name="直线 453" class="cls-3" x2="10" transform="translate(4013 12447)"/>
        <line id="直线_454" data-name="直线 454" class="cls-3" x2="5" transform="translate(4013 12452)"/>
        <line id="直线_455" data-name="直线 455" class="cls-3" x2="7" transform="translate(4013 12458)"/>
        <line id="直线_456" data-name="直线 456" class="cls-3" x2="7" transform="translate(4013 12463)"/>
      </g>
    </g>
  </g>
</svg>
