<svg xmlns="http://www.w3.org/2000/svg" width="34" height="25" viewBox="0 0 34 25">
  <defs>
    <style>
      .cls-1 {
        fill: #707070;
      }
    </style>
  </defs>
  <g id="组_2192" data-name="组 2192" transform="translate(-717 -97)">
    <path id="路径_700" data-name="路径 700" class="cls-1" d="M1.5,0h31a1.5,1.5,0,0,1,0,3H1.5a1.5,1.5,0,0,1,0-3Z" transform="translate(717 97)"/>
    <rect id="矩形_494" data-name="矩形 494" class="cls-1" width="18" height="3" rx="1.5" transform="translate(733 108)"/>
    <rect id="矩形_493" data-name="矩形 493" class="cls-1" width="34" height="3" rx="1.5" transform="translate(717 119)"/>
    <path id="路径_692" data-name="路径 692" class="cls-1" d="M240.486,234.031h6.594a.932.932,0,0,0,.932-.932V226.5a.932.932,0,1,0-1.865,0v4.343l-6.321-6.321a.933.933,0,0,0-1.319,1.319l6.321,6.321h-4.343a.932.932,0,0,0,0,1.865Z" transform="translate(390.184 118.874) rotate(-45)"/>
  </g>
</svg>
