<svg xmlns="http://www.w3.org/2000/svg" width="22" height="22" viewBox="0 0 22 22">
  <defs>
    <style>
      .cls-1 {
        fill: #fff;
        stroke: #707070;
        opacity: 0;
      }

      .cls-2 {
        fill: #333;
      }

      .cls-3 {
        stroke: none;
      }

      .cls-4 {
        fill: none;
      }
    </style>
  </defs>
  <g id="组_2344" data-name="组 2344" transform="translate(-276.075 -281.075)">
    <g id="矩形_1458" data-name="矩形 1458" class="cls-1" transform="translate(276.075 281.075)">
      <rect class="cls-3" width="22" height="22"/>
      <rect class="cls-4" x="0.5" y="0.5" width="21" height="21"/>
    </g>
    <g id="组_2338" data-name="组 2338" transform="translate(279.075 282.075)">
      <path id="路径_2711" data-name="路径 2711" class="cls-2" d="M69.2,119.859H55.678a1.215,1.215,0,0,1-.87-.341,1.228,1.228,0,0,1-.374-.86v-1.326a1.245,1.245,0,0,1,.325-.834l1.557-2.085v-3.917a6.911,6.911,0,0,1,1.7-4.656,5.761,5.761,0,0,1,1.782-1.347.8.8,0,0,0,.415-.441,2.364,2.364,0,0,1,4.464,0,.8.8,0,0,0,.415.441,5.762,5.762,0,0,1,1.773,1.348,6.93,6.93,0,0,1,1.692,4.656V114.4l1.557,2.085a1.244,1.244,0,0,1,.321.844v1.321a1.228,1.228,0,0,1-.374.86,1.215,1.215,0,0,1-.87.341Zm-.014-2.527-1.558-2.085a1.237,1.237,0,0,1-.321-.845v-3.906a5.662,5.662,0,0,0-1.365-3.8,4.584,4.584,0,0,0-1.521-1.126q-.1-.046-.207-.088a1.1,1.1,0,0,1-.708-.8,1.149,1.149,0,0,0-.046-.175,1.083,1.083,0,0,0-.774-.7h-.032a1.022,1.022,0,0,0-.433,0h-.032a1.083,1.083,0,0,0-.774.7,1.143,1.143,0,0,0-.044.175,1.1,1.1,0,0,1-.7.809q-.105.04-.206.088a4.584,4.584,0,0,0-1.521,1.126,5.659,5.659,0,0,0-1.365,3.8v3.906a1.237,1.237,0,0,1-.326.838l-1.558,2.085-.012,1.308H69.2l-.012-1.308Zm-7.862,3.514a1.64,1.64,0,0,0,.935.389h.36a1.641,1.641,0,0,0,.936-.389,1.592,1.592,0,0,0,.4-.556h1.294a2.79,2.79,0,0,1-.863,1.44,2.9,2.9,0,0,1-1.731.715c-.072,0-.138.019-.216.019s-.138-.014-.216-.019a2.9,2.9,0,0,1-1.731-.715,2.791,2.791,0,0,1-.863-1.44h1.286a1.592,1.592,0,0,0,.4.556Z" transform="translate(-54.434 -102.464)"/>
    </g>
  </g>
</svg>
