<svg xmlns="http://www.w3.org/2000/svg" width="16" height="16" viewBox="0 0 16 16">
  <defs>
    <style>
      .cls-1 {
        fill: #fff;
        stroke: #707070;
        opacity: 0;
      }

      .cls-2 {
        fill: #666;
      }

      .cls-3 {
        stroke: none;
      }

      .cls-4 {
        fill: none;
      }
    </style>
  </defs>
  <g id="组_18889" data-name="组 18889" transform="translate(4712 16987)">
    <g id="矩形_12981" data-name="矩形 12981" class="cls-1" transform="translate(-4712 -16987)">
      <rect class="cls-3" width="16" height="16"/>
      <rect class="cls-4" x="0.5" y="0.5" width="15" height="15"/>
    </g>
    <path id="路径_24383" data-name="路径 24383" class="cls-2" d="M216.05,2.679V13.758a1.523,1.523,0,0,0,1.519,1.519h5.183a1.523,1.523,0,0,0,1.518-1.519V2.679a1.523,1.523,0,0,0-1.518-1.519h-5.183A1.523,1.523,0,0,0,216.05,2.679Zm3.4,11.576a.705.705,0,1,1,.705.706.705.705,0,0,1-.705-.706Zm-2.6-10.638a.391.391,0,0,1,.39-.39h5.829a.391.391,0,0,1,.39.39v9.2a.39.39,0,0,1-.39.39h-5.829a.39.39,0,0,1-.39-.39Zm4.25,4.592a.766.766,0,0,1,.371-.674.951.951,0,0,0-.666-.354c-.267-.011-.388.148-.637.154-.232.006-.214-.177-.695-.126a.93.93,0,0,0-.753,1.033c.029.623.469,1.485.88,1.485.29-.005.359-.143.6-.143.3,0,.365.171.6.137a1.227,1.227,0,0,0,.776-.879.794.794,0,0,1-.469-.634Zm-.336-1.782a.761.761,0,0,0-.677.8A.7.7,0,0,0,220.77,6.427Z" transform="translate(-4924.189 -16987.248)"/>
  </g>
</svg>
