<svg xmlns="http://www.w3.org/2000/svg" width="35" height="30" viewBox="0 0 35 30"><defs><style>.a,.b,.c{fill:#fff;}.a{stroke:#707070;opacity:0;}.b{stroke:#fff;stroke-miterlimit:10;}.d{stroke:none;}.e{fill:none;}</style></defs><g class="a"><rect class="d" width="35" height="30"/><rect class="e" x="0.5" y="0.5" width="34" height="29"/></g><g transform="translate(1.256 6.05)"><path class="b" d="M185.1,1477.416l-.072,17.193a.776.776,0,0,0,1.325.553l8.753-8.748a.776.776,0,0,0-.007-1.106l-8.681-8.446A.777.777,0,0,0,185.1,1477.416Z" transform="translate(-162.591 -1476.641)"/><path class="c" d="M.65,0H22.135a0,0,0,0,1,0,0V1.3a0,0,0,0,1,0,0H.65A.65.65,0,0,1,0,.65v0A.65.65,0,0,1,.65,0Z" transform="translate(0 8.723)"/><path class="c" d="M.794,0H6.922a.65.65,0,0,1,.65.65v0a.65.65,0,0,1-.65.65H0a0,0,0,0,1,0,0V.794A.794.794,0,0,1,.794,0Z" transform="translate(9.342 9.951) rotate(-149)"/><path class="c" d="M.794,0H6.922a.65.65,0,0,1,.65.65v0a.65.65,0,0,1-.65.65H0a0,0,0,0,1,0,0V.794A.794.794,0,0,1,.794,0Z" transform="translate(19.971 9.951) rotate(-149)"/><path class="c" d="M0,0H6.507a.65.65,0,0,1,.65.65v0a.65.65,0,0,1-.65.65H0a0,0,0,0,1,0,0V0A0,0,0,0,1,0,0Z" transform="translate(16.64 9.753) rotate(140)"/></g></svg>