<svg xmlns="http://www.w3.org/2000/svg" width="35" height="30.502" viewBox="0 0 35 30.502"><defs><style>.a,.b,.e,.g{fill:none;}.a{stroke:#666;}.b{stroke:#333;}.c{fill:#666;}.d{fill:#333;}.f,.h{stroke:none;}.h{fill:#333;}</style></defs><g transform="translate(-476 -861)"><g transform="translate(0 3)"><g transform="translate(-25 -12)"><g transform="translate(507 873)"><path class="a" d="M541,496.5" transform="translate(-535 -469)"/></g><g transform="translate(3 2)"><g class="b" transform="translate(524 893)"><rect class="f" width="9" height="5"/><rect class="g" x="0.5" y="0.5" width="8" height="4"/></g><g transform="translate(-9 -5)"><rect class="c" width="9" height="35" transform="translate(542 879) rotate(90)"/><rect class="d" width="35" height="6" transform="translate(507 873)"/><g class="b" transform="translate(542 887) rotate(90)"><rect class="f" width="7" height="35"/><rect class="g" x="0.5" y="0.5" width="6" height="34"/></g><g class="b" transform="translate(533 893)"><rect class="f" width="9" height="6"/><rect class="g" x="0.5" y="0.5" width="8" height="5"/></g><g class="b" transform="translate(525 898)"><rect class="f" width="9" height="5"/><rect class="g" x="0.5" y="0.5" width="8" height="4"/></g><g class="e" transform="translate(525 893)"><path class="f" d="M0,0H9V6H0Z"/><path class="h" d="M 1 1 L 1 5 L 8 5 L 8 1 L 1 1 M 0 0 L 9 0 L 9 6 L 0 6 L 0 0 Z"/></g><g class="e" transform="translate(507 893)"><path class="f" d="M0,0H11.061V6H0Z"/><path class="h" d="M 1.000003814697266 1 L 1.000003814697266 5 L 10.06054306030273 5 L 10.06054306030273 1 L 1.000003814697266 1 M 3.814697265625e-06 0 L 11.06054306030273 0 L 11.06054306030273 6 L 3.814697265625e-06 6 L 3.814697265625e-06 0 Z"/></g><g class="e" transform="translate(517 893)"><path class="f" d="M0,0H9V6H0Z"/><path class="h" d="M 1 1 L 1 5 L 8 5 L 8 1 L 1 1 M 0 0 L 9 0 L 9 6 L 0 6 L 0 0 Z"/></g><g class="b" transform="translate(517 898)"><rect class="f" width="9" height="5"/><rect class="g" x="0.5" y="0.5" width="8" height="4"/></g><g class="b" transform="translate(507 898)"><rect class="f" width="11" height="5"/><rect class="g" x="0.5" y="0.5" width="10" height="4"/></g></g></g></g></g></g></svg>