<svg xmlns="http://www.w3.org/2000/svg" width="35" height="30" viewBox="0 0 35 30"><defs><style>.a{fill:#f3f3f3;}.b,.c,.f{fill:none;}.b{stroke:#fff;}.d{fill:#fff;}.e,.g{stroke:none;}.g{fill:#fff;}</style></defs><g transform="translate(-578 -548)"><g transform="translate(578 548)"><g transform="translate(-507 -876)"><g transform="translate(507 876)"><rect class="a" width="9" height="35" transform="translate(35 6) rotate(90)"/><g class="b" transform="translate(10 25)"><rect class="e" width="9" height="5"/><rect class="f" x="0.5" y="0.5" width="8" height="4"/></g><g class="c" transform="translate(0 20)"><path class="e" d="M0,0H11.061V6H0Z"/><path class="g" d="M 1.000003814697266 1 L 1.000003814697266 5 L 10.06054306030273 5 L 10.06054306030273 1 L 1.000003814697266 1 M 3.814697265625e-06 0 L 11.06054306030273 0 L 11.06054306030273 6 L 3.814697265625e-06 6 L 3.814697265625e-06 0 Z"/></g><g class="c" transform="translate(10 20)"><path class="e" d="M0,0H9V6H0Z"/><path class="g" d="M 1 1 L 1 5 L 8 5 L 8 1 L 1 1 M 0 0 L 9 0 L 9 6 L 0 6 L 0 0 Z"/></g><g class="b" transform="translate(0 25)"><rect class="e" width="11" height="5"/><rect class="f" x="0.5" y="0.5" width="10" height="4"/></g><rect class="d" width="35" height="6"/><g class="b" transform="translate(35 14) rotate(90)"><rect class="e" width="7" height="35"/><rect class="f" x="0.5" y="0.5" width="6" height="34"/></g><g class="b" transform="translate(26 20)"><rect class="e" width="9" height="6"/><rect class="f" x="0.5" y="0.5" width="8" height="5"/></g><g class="b" transform="translate(18 25)"><rect class="e" width="9" height="5"/><rect class="f" x="0.5" y="0.5" width="8" height="4"/></g><g class="b" transform="translate(26 25)"><rect class="e" width="9" height="5"/><rect class="f" x="0.5" y="0.5" width="8" height="4"/></g></g></g></g></g></svg>