<svg xmlns="http://www.w3.org/2000/svg" width="35" height="30" viewBox="0 0 35 30">
  <defs>
    <style>
      .cls-1, .cls-2 {
        fill: #fff;
      }

      .cls-1 {
        stroke: #707070;
        opacity: 0;
      }

      .cls-3, .cls-5 {
        fill: none;
      }

      .cls-3 {
        stroke: #fff;
        stroke-miterlimit: 10;
        stroke-width: 1.3px;
      }

      .cls-4 {
        stroke: none;
      }
    </style>
  </defs>
  <g id="组_19951" data-name="组 19951" transform="translate(-727 -989)">
    <g id="矩形_13963" data-name="矩形 13963" class="cls-1" transform="translate(727 989)">
      <rect class="cls-4" width="35" height="30"/>
      <rect class="cls-5" x="0.5" y="0.5" width="34" height="29"/>
    </g>
    <g id="组_19763" data-name="组 19763" transform="translate(7333.699 3460.176)">
      <circle id="椭圆_1876" data-name="椭圆 1876" class="cls-2" cx="4.5" cy="4.5" r="4.5" transform="translate(-6594.035 -2460.176)"/>
      <circle id="椭圆_1877" data-name="椭圆 1877" class="cls-3" cx="3.5" cy="3.5" r="3.5" transform="translate(-6604.362 -2459.676)"/>
      <circle id="椭圆_1878" data-name="椭圆 1878" class="cls-3" cx="3.5" cy="3.5" r="3.5" transform="translate(-6599.035 -2469.676)"/>
      <circle id="椭圆_1879" data-name="椭圆 1879" class="cls-3" cx="3.5" cy="3.5" r="3.5" transform="translate(-6586.078 -2449.676)"/>
      <circle id="椭圆_1880" data-name="椭圆 1880" class="cls-3" cx="3.5" cy="3.5" r="3.5" transform="translate(-6585.035 -2469.676)"/>
      <circle id="椭圆_1881" data-name="椭圆 1881" class="cls-3" cx="3.5" cy="3.5" r="3.5" transform="translate(-6599.035 -2449.676)"/>
      <circle id="椭圆_1882" data-name="椭圆 1882" class="cls-3" cx="3.5" cy="3.5" r="3.5" transform="translate(-6581.034 -2459.676)"/>
      <rect id="矩形_13793" data-name="矩形 13793" class="cls-2" width="5" height="1.3" transform="translate(-6597.035 -2456.327)"/>
      <rect id="矩形_13798" data-name="矩形 13798" class="cls-2" width="5" height="1.3" transform="translate(-6586.035 -2456.327)"/>
      <rect id="矩形_13799" data-name="矩形 13799" class="cls-2" width="5" height="1.3" transform="matrix(0.602, -0.799, 0.799, 0.602, -6587.75, -2459.683)"/>
      <rect id="矩形_13965" data-name="矩形 13965" class="cls-2" width="5" height="1.3" transform="matrix(0.602, -0.799, 0.799, 0.602, -6594.283, -2449.682)"/>
      <rect id="矩形_13797" data-name="矩形 13797" class="cls-2" width="5" height="1.3" transform="translate(-6585.06 -2448.9) rotate(-127)"/>
      <rect id="矩形_13964" data-name="矩形 13964" class="cls-2" width="5" height="1.3" transform="translate(-6591.294 -2458.9) rotate(-127)"/>
    </g>
  </g>
</svg>
