<svg xmlns="http://www.w3.org/2000/svg" xmlns:xlink="http://www.w3.org/1999/xlink" width="35" height="30" viewBox="0 0 35 30">
  <defs>
    <style>
      .cls-1, .cls-5, .cls-7 {
        fill: none;
      }

      .cls-1 {
        stroke: #fff;
        stroke-width: 3px;
      }

      .cls-2, .cls-3 {
        fill: #fff;
      }

      .cls-2 {
        stroke: #707070;
        opacity: 0;
      }

      .cls-4 {
        clip-path: url(#clip-path);
      }

      .cls-6, .cls-8 {
        stroke: none;
      }

      .cls-8 {
        fill: #fff;
      }
    </style>
    <clipPath id="clip-path">
      <rect id="矩形_2774" data-name="矩形 2774" class="cls-1" width="17.612" height="15.601"/>
    </clipPath>
  </defs>
  <g id="组_19758" data-name="组 19758" transform="translate(-1113 -217)">
    <g id="矩形_3123" data-name="矩形 3123" class="cls-2" transform="translate(1113 217)">
      <rect class="cls-6" width="35" height="30"/>
      <rect class="cls-7" x="0.5" y="0.5" width="34" height="29"/>
    </g>
    <g id="组_5129" data-name="组 5129" transform="translate(641.875 -923.539)">
      <g id="组_5116" data-name="组 5116" transform="translate(471.5 1146.358)">
        <circle id="椭圆_440" data-name="椭圆 440" class="cls-3" cx="1.5" cy="1.5" r="1.5" transform="translate(0 14.18)"/>
        <circle id="椭圆_442" data-name="椭圆 442" class="cls-3" cx="1.5" cy="1.5" r="1.5" transform="translate(30.992 14.18)"/>
        <g id="蒙版组_153" data-name="蒙版组 153" class="cls-4" transform="translate(0.19 0)">
          <g id="多边形_37" data-name="多边形 37" class="cls-5" transform="translate(-0.19 0.295)">
            <path class="cls-6" d="M7.448,3.4a2,2,0,0,1,3.547,0l5.923,11.363a2,2,0,0,1-1.774,2.924H3.3a2,2,0,0,1-1.774-2.924Z"/>
            <path class="cls-8" d="M 9.22115421295166 3.326719284057617 C 8.841423988342285 3.326719284057617 8.509923934936523 3.527748107910156 8.334394454956055 3.864479064941406 L 2.411214828491211 15.22730827331543 C 2.176294326782227 15.677978515625 2.355123519897461 16.06332969665527 2.442914009094238 16.20809936523438 C 2.530704498291016 16.35285949707031 2.789753913879395 16.68955993652344 3.297974586486816 16.68955993652344 L 15.14433479309082 16.68955993652344 C 15.65254402160645 16.68955993652344 15.9116039276123 16.35285949707031 15.99939441680908 16.20808792114258 C 16.08718490600586 16.06332969665527 16.26601409912109 15.67796897888184 16.03109359741211 15.22730827331543 L 10.10791397094727 3.864479064941406 C 9.932384490966797 3.527748107910156 9.600884437561035 3.326719284057617 9.22115421295166 3.326719284057617 M 9.22115421295166 2.326723098754883 C 9.921029090881348 2.326723098754883 10.62090492248535 2.68522834777832 10.99466419219971 3.402238845825195 L 16.91784477233887 14.76506900787354 C 17.61192512512207 16.0965690612793 16.64588356018066 17.6895580291748 15.14433479309082 17.6895580291748 L 3.297974586486816 17.6895580291748 C 1.796424865722656 17.6895580291748 0.83038330078125 16.09657859802246 1.524463653564453 14.76506900787354 L 7.447644233703613 3.402238845825195 C 7.821404457092285 2.68522834777832 8.521279335021973 2.326723098754883 9.22115421295166 2.326723098754883 Z"/>
          </g>
        </g>
        <g id="蒙版组_154" data-name="蒙版组 154" class="cls-4" transform="translate(16.184 0)">
          <g id="多边形_38" data-name="多边形 38" class="cls-5" transform="translate(-0.19 0.295)">
            <path class="cls-6" d="M7.448,3.4a2,2,0,0,1,3.547,0l5.923,11.363a2,2,0,0,1-1.774,2.924H3.3a2,2,0,0,1-1.774-2.924Z"/>
            <path class="cls-8" d="M 9.22115421295166 3.326719284057617 C 8.841423988342285 3.326719284057617 8.509923934936523 3.527748107910156 8.334394454956055 3.864479064941406 L 2.411214828491211 15.22730827331543 C 2.176294326782227 15.677978515625 2.355123519897461 16.06332969665527 2.442914009094238 16.20809936523438 C 2.530704498291016 16.35285949707031 2.789753913879395 16.68955993652344 3.297974586486816 16.68955993652344 L 15.14433479309082 16.68955993652344 C 15.65254402160645 16.68955993652344 15.9116039276123 16.35285949707031 15.99939441680908 16.20808792114258 C 16.08718490600586 16.06332969665527 16.26601409912109 15.67796897888184 16.03109359741211 15.22730827331543 L 10.10791397094727 3.864479064941406 C 9.932384490966797 3.527748107910156 9.600884437561035 3.326719284057617 9.22115421295166 3.326719284057617 M 9.22115421295166 2.326723098754883 C 9.921029090881348 2.326723098754883 10.62090492248535 2.68522834777832 10.99466419219971 3.402238845825195 L 16.91784477233887 14.76506900787354 C 17.61192512512207 16.0965690612793 16.64588356018066 17.6895580291748 15.14433479309082 17.6895580291748 L 3.297974586486816 17.6895580291748 C 1.796424865722656 17.6895580291748 0.83038330078125 16.09657859802246 1.524463653564453 14.76506900787354 L 7.447644233703613 3.402238845825195 C 7.821404457092285 2.68522834777832 8.521279335021973 2.326723098754883 9.22115421295166 2.326723098754883 Z"/>
          </g>
        </g>
      </g>
      <rect id="矩形_2783" data-name="矩形 2783" class="cls-3" width="12" height="6" transform="translate(474.699 1145)"/>
      <rect id="矩形_2784" data-name="矩形 2784" class="cls-3" width="12" height="6" transform="translate(482.979 1160.055)"/>
      <rect id="矩形_2785" data-name="矩形 2785" class="cls-3" width="12" height="6" transform="translate(490.883 1145)"/>
    </g>
  </g>
</svg>
