<svg id="组_6713" data-name="组 6713" xmlns="http://www.w3.org/2000/svg" width="35" height="30" viewBox="0 0 35 30">
  <defs>
    <style>
      .cls-1 {
        fill: #fff;
      }

      .cls-2, .cls-3 {
        fill: none;
        stroke: #fff;
      }

      .cls-3 {
        stroke-miterlimit: 10;
      }
    </style>
  </defs>
  <g id="组_4726" data-name="组 4726">
    <g id="组_4722" data-name="组 4722">
      <rect id="矩形_526" data-name="矩形 526" class="cls-1" width="12" height="6" transform="translate(23 24)"/>
      <rect id="矩形_531" data-name="矩形 531" class="cls-1" width="12" height="6" transform="translate(0 24)"/>
      <rect id="矩形_529" data-name="矩形 529" class="cls-1" width="12" height="6" transform="translate(11 12)"/>
      <rect id="矩形_532" data-name="矩形 532" class="cls-1" width="12" height="6"/>
      <path id="路径_731" data-name="路径 731" class="cls-2" d="M-13578.684,7953.677h6.245v-23.835h-7.138" transform="translate(13588 -7926.52)"/>
      <path id="路径_736" data-name="路径 736" class="cls-2" d="M-13573.332,7953.677h-6.245v-23.835h7.138" transform="translate(13599.001 -7926.52)"/>
    </g>
    <g id="组_4724" data-name="组 4724" transform="translate(1.671 8.586)">
      <rect id="矩形_2490" data-name="矩形 2490" class="cls-1" width="1" height="12" transform="translate(2.329)"/>
      <g id="组_4723" data-name="组 4723" transform="translate(0 10) rotate(-45)">
        <rect id="矩形_2491" data-name="矩形 2491" class="cls-1" width="1" height="4" transform="translate(0 0)"/>
        <rect id="矩形_2492" data-name="矩形 2492" class="cls-1" width="1" height="4" transform="translate(4 3) rotate(90)"/>
      </g>
    </g>
  </g>
  <g id="组_4733" data-name="组 4733" transform="translate(19.421 3.318)">
    <path id="路径_5586" data-name="路径 5586" class="cls-3" d="M448.922,200.431v-5.3H438.827v5.3h0" transform="translate(-438.827 -195.133)"/>
    <path id="路径_5587" data-name="路径 5587" class="cls-1" d="M2.971,0,0,.048,1.443,1.9Z" transform="matrix(1, 0.017, -0.017, 1, 8.636, 4.728)"/>
  </g>
</svg>
