<svg xmlns="http://www.w3.org/2000/svg" width="16" height="16" viewBox="0 0 16 16">
  <defs>
    <style>
      .cls-1 {
        fill: #fff;
        stroke: #707070;
        opacity: 0;
      }

      .cls-2 {
        fill: #666;
      }

      .cls-3 {
        stroke: none;
      }

      .cls-4 {
        fill: none;
      }
    </style>
  </defs>
  <g id="组_18888" data-name="组 18888" transform="translate(4631 17166)">
    <g id="矩形_12980" data-name="矩形 12980" class="cls-1" transform="translate(-4631 -17166)">
      <rect class="cls-3" width="16" height="16"/>
      <rect class="cls-4" x="0.5" y="0.5" width="15" height="15"/>
    </g>
    <path id="路径_24385" data-name="路径 24385" class="cls-2" d="M112.252,42.205a6.314,6.314,0,0,0-1.181.88,1.355,1.355,0,0,1-1.151.037c-.418-.213-.2-.551-.843-.571-.323-.008-.638-.008-.953-.008-.278.008-.557.022-.843.029-.967.022-1.062.646-1.687.624-.425-.015-.96-.352-1.884-.542-.645-.133-1.268-.168-1.4-.455s.162-.608.183-.887c.022-.374-.278-.88-.058-1.072.19-.168.594-.044.857-.19a.617.617,0,0,0,.4-.631.647.647,0,0,1-.235.776,1.078,1.078,0,0,1-.609.111c-.168-.016-.271.007-.315.073-.066.08-.044.227.037.418a1.073,1.073,0,0,1,.161.549c-.007.235-.271.514-.227.712.015.074.088.14.271.19.293.08.828.161,1.349.287a5.772,5.772,0,0,0,1.555.359c1.114-.154.476-1.349.3-1.634-.946-1.482-1.569-2.449-2.067-2.068-.125.1-.132-.25-.125-.389.022-.484.264-.659.411-1.034a5.972,5.972,0,0,1,.916-1.943,6.193,6.193,0,0,0,.912-1.43c-.081-.763-.1-1.569-.117-2.272a1.8,1.8,0,0,1,.953-1.877,1.631,1.631,0,0,1,.762-.154,2.165,2.165,0,0,1,2.317,2.375,4.57,4.57,0,0,0,.22,1.569,3.764,3.764,0,0,0,.975,1.6A5.813,5.813,0,0,1,112.3,38.23c.117.72-.044,1.167-.2,1.189-.235.035-.381.776-1.114.747-.469-.022-.513-.3-.645-.543-.213-.374-.425-.256-.506.14a1.568,1.568,0,0,0,.051.71,3.237,3.237,0,0,1,.007,1.43c-.154,1.012.711,1.2,1.291.718a3.323,3.323,0,0,1,1.415-.8c1.092-.374.726-.7.139-.9a.92.92,0,0,1-.36-1.232,1.215,1.215,0,0,0,.748,1.224c.9.559-.337,1.021-.873,1.292Zm-1.232-3.541A2.483,2.483,0,0,0,111,37.117a2.432,2.432,0,0,0-.873-1.3,2.285,2.285,0,0,1,.418.608,2.978,2.978,0,0,1,.4,2.039.371.371,0,0,1-.366.307c-.513.059-.213-.616-.425-1.531-.242-1.027-.491-1.1-.549-1.181-.3-1.333-.631-1.2-.727-1.7-.08-.447.389-.814-.249-.939-.2-.037-.476-.235-.586-.25s-.169-.741.241-.763.477.455.4.646c-.117.19.007.264.206.2.161-.051.058-.476.1-.535-.1-.616-.36-.7-.623-.755-1.012.08-.558,1.2-.66,1.093-.147-.154-.571-.015-.571-.111.007-.571-.184-.9-.447-.909-.293-.007-.411.4-.425.637s.125.683.235.646c.073-.022.2-.169.066-.161-.066,0-.168-.162-.183-.352s.067-.382.315-.374c.286.007.286.579.256.6a1.406,1.406,0,0,0-.227.213c-.094.154-.278.2-.351.264-.125.131-.154.278-.058.329.337.19.227.41.7.426a2.045,2.045,0,0,0,.748-.11c.161-.051.682-.161.792-.352.051-.08.11-.08.146-.058.073.036.088.176-.1.22-.256.074-.513.213-.747.3a1.917,1.917,0,0,1-.513.168c-.484.088-.842-.176-.521.14a.582.582,0,0,0,.491.162c.616-.022,1.3-.764,1.364-.434.014.073-.191.161-.352.242-.571.278-.975.836-1.342.645-.33-.176-.659-.99-.653-.622.007.564-.741,1.062-.4,1.708a3.3,3.3,0,0,0-.806,1.693,6.886,6.886,0,0,1-.052.938c-.11.323-.608-.308-.447-1.077.029-.131,0-.162-.037-.094a1.447,1.447,0,0,0,.073,1.216c.067.154.235.22.36.352.256.292,1.268,1.041,1.444,1.224a.45.45,0,0,1-.308.762c.242.455.476.5.47,1.239.278-.146.169-.469.051-.673-.081-.148-.183-.213-.162-.25s.162-.148.242-.051a1.388,1.388,0,0,0,1.217.264,1.727,1.727,0,0,0,1.3-.638c.117-.19.2-.256.25-.22s.081.161.073.381a2.473,2.473,0,0,1-.168.675c-.067.227-.088.381.132.389.058-.411.176-.815.205-1.225.037-.469-.3-1.333.066-1.767a.418.418,0,0,1,.374-.131c.021-.587.924-.542,1.224-.3,0-.133-.286-.257-.4-.309Zm-5.982-2.111c-.052.094-.183.168-.081.183.037.007.14-.082.184-.183.036-.125.073-.191.015-.213S105.1,36.45,105.038,36.554Zm1.678-3.974c-.088-.022-.073.109-.029.1s.067.044.051.11c-.015.088-.007.148.059.148.007,0,.021,0,.021-.022A.326.326,0,0,0,106.716,32.58Zm.2.674c-.073.007-.059-.162.176-.147C106.944,33.121,107,33.254,106.915,33.254Zm.6-.125c.213-.094.286.052.213.081S107.647,33.092,107.516,33.129Zm.887-.594c-.1.008-.066.051-.021.066s.117.118.132.227c0,.015.073-.015.073-.037A.246.246,0,0,0,108.4,32.535Zm.425-1.583a.294.294,0,0,0-.176-.111c-.147.015-.074.168-.1.242s-.139.147-.066.205.11-.08.25-.131c.036-.016.205.007.241-.074C108.989,31.047,108.894,31,108.828,30.952Zm.814,3.239c-.139-.087-.168-.234-.219-.183-.154.168.19.521.337.551.088.015.154-.1.132-.206C109.862,34.214,109.759,34.265,109.642,34.191Z" transform="translate(-4730.817 -17194.619)"/>
  </g>
</svg>
