<svg xmlns="http://www.w3.org/2000/svg" width="22" height="22" viewBox="0 0 22 22"><defs><style>.a,.b{fill:#fff;}.a{stroke:#707070;opacity:0;}.c,.e{stroke:none;}.d{fill:none;}.e{fill:#909090;}</style></defs><g transform="translate(-885 -159)"><g class="a" transform="translate(885 159)"><rect class="c" width="22" height="22"/><rect class="d" x="0.5" y="0.5" width="21" height="21"/></g><g class="b" transform="translate(-22233.502 -15242.25)"><path class="c" d="M 23135.25 15417.9990234375 L 23123.751953125 15417.9990234375 C 23121.958984375 15417.9990234375 23120.501953125 15416.5400390625 23120.501953125 15414.7470703125 C 23120.501953125 15412.9580078125 23121.958984375 15411.501953125 23123.751953125 15411.501953125 L 23124.025390625 15411.501953125 L 23124.525390625 15411.501953125 L 23124.525390625 15411.001953125 C 23124.525390625 15408.5205078125 23126.857421875 15406.501953125 23129.72265625 15406.501953125 C 23132.591796875 15406.501953125 23134.92578125 15408.5205078125 23134.92578125 15411.001953125 L 23134.92578125 15411.4794921875 L 23135.40234375 15411.5048828125 C 23137.140625 15411.5849609375 23138.501953125 15413.0087890625 23138.501953125 15414.7470703125 C 23138.501953125 15416.5400390625 23137.04296875 15417.9990234375 23135.25 15417.9990234375 Z"/><path class="e" d="M 23135.25 15417.4990234375 C 23136.767578125 15417.4990234375 23138.001953125 15416.2646484375 23138.001953125 15414.7470703125 C 23138.001953125 15413.2763671875 23136.849609375 15412.072265625 23135.380859375 15412.0048828125 L 23134.42578125 15411.95703125 L 23134.42578125 15411.001953125 C 23134.42578125 15408.7958984375 23132.31640625 15407.001953125 23129.72265625 15407.001953125 C 23127.1328125 15407.001953125 23125.025390625 15408.7958984375 23125.025390625 15411.001953125 L 23125.025390625 15412.001953125 L 23123.751953125 15412.001953125 C 23122.236328125 15412.001953125 23121.001953125 15413.2333984375 23121.001953125 15414.7470703125 C 23121.001953125 15416.2646484375 23122.236328125 15417.4990234375 23123.751953125 15417.4990234375 L 23135.25 15417.4990234375 M 23135.25 15418.4990234375 L 23123.751953125 15418.4990234375 C 23121.6796875 15418.4990234375 23120.001953125 15416.8203125 23120.001953125 15414.7470703125 C 23120.001953125 15412.6796875 23121.6796875 15411.001953125 23123.751953125 15411.001953125 L 23124.025390625 15411.001953125 C 23124.025390625 15408.2373046875 23126.580078125 15406.001953125 23129.72265625 15406.001953125 C 23132.875 15406.001953125 23135.42578125 15408.2373046875 23135.42578125 15411.001953125 C 23135.42578125 15411.0029296875 23135.42578125 15411.0048828125 23135.42578125 15411.005859375 C 23137.412109375 15411.0966796875 23139.001953125 15412.73828125 23139.001953125 15414.7470703125 C 23139.001953125 15416.8203125 23137.318359375 15418.4990234375 23135.25 15418.4990234375 Z"/></g></g></svg>