<svg id="组_21011" data-name="组 21011" xmlns="http://www.w3.org/2000/svg" width="46.917" height="25.385" viewBox="0 0 46.917 25.385">
  <defs>
    <style>
      .cls-1 {
        fill: #fd492b;
      }

      .cls-2 {
        fill: #fff;
      }

      .cls-3 {
        fill: #020202;
      }
    </style>
  </defs>
  <g id="组_18723" data-name="组 18723" transform="translate(0 0)">
    <rect id="矩形_12715" data-name="矩形 12715" class="cls-1" width="25.385" height="25.385" rx="2" transform="translate(21.532)"/>
    <g id="组_18725" data-name="组 18725" transform="translate(26.172 2.477)">
      <path id="路径_24330" data-name="路径 24330" class="cls-2" d="M531.5,268.28c-.117.854-.7,4.56-2.152,6.295a.145.145,0,0,0,.142.233c1.2-.253,3.293-2.741,3.718-3.259a.254.254,0,0,1,.2-.093l.772.008a.257.257,0,0,1,.2.1l1.542,2.077a.257.257,0,0,0,.454-.085l.273-.99a.258.258,0,0,0-.073-.256l-.433-.4a.257.257,0,0,1,.175-.445h2.148a.143.143,0,0,0,.144-.156c-.039-.418-.2-1.535-.8-1.535l-.551.032a2.179,2.179,0,0,0-.343.027l-2.748.437a.144.144,0,0,1-.149-.212l.374-.676a.144.144,0,0,0-.075-.2l-2.629-1.011A.143.143,0,0,0,531.5,268.28Z" transform="translate(-529.318 -268.093)"/>
      <path id="路径_24331" data-name="路径 24331" class="cls-2" d="M551.211,268.016s0,4.16-1.9,5.677a.072.072,0,0,0,.041.129,5.29,5.29,0,0,0,3.019-2.3.28.28,0,0,1,.243-.143h1.013a.279.279,0,0,1,.258.167,13.747,13.747,0,0,0,1.462,2.819c.2,0,.751-.987.972-1.4a.269.269,0,0,0-.05-.319l-1.476-1.456,2.921-.209a.406.406,0,0,0,.372-.466c-.055-.363-.3-.839-1.162-.967-.767.128-3.793.469-3.793.469a2.577,2.577,0,0,0,.524-1.406C553.64,267.888,551.211,268.016,551.211,268.016Z" transform="translate(-540.678 -268.008)"/>
      <path id="路径_24332" data-name="路径 24332" class="cls-2" d="M530.169,285.532a.332.332,0,0,0-.26.363c.166,1.322.819,6.987.22,9.99,0,1.044,1.152,1.2,1.152,1.2a1.957,1.957,0,0,0,1.307-2.055v-8.519a.318.318,0,0,0-.049-.173A2.071,2.071,0,0,0,530.169,285.532Z" transform="translate(-529.653 -277.934)"/>
      <path id="路径_24333" data-name="路径 24333" class="cls-2" d="M544.557,283.7l8.516-.356a.96.96,0,0,1,.614.178,2.388,2.388,0,0,1,.755,2.142c-.057,2.1,0,7.7,0,7.7s.339,2.945-1.366,2.945c-1.47,0-3.087-1.344-3.5-1.715a.087.087,0,0,1,.027-.146l1.073-.432a1.8,1.8,0,0,0,1.13-1.667l.025-7.707-2.752.019a5.68,5.68,0,0,0-2.093.39,2.154,2.154,0,0,1-1.888.017,1.641,1.641,0,0,1-.622-1.277A.086.086,0,0,1,544.557,283.7Z" transform="translate(-537.942 -276.736)"/>
      <path id="路径_24334" data-name="路径 24334" class="cls-2" d="M534.937,281.074a.155.155,0,0,0-.125.228c.38.673,1.637,2.74,2.615,2.406C538.567,283.318,538.7,280.8,534.937,281.074Z" transform="translate(-532.433 -275.432)"/>
      <path id="路径_24335" data-name="路径 24335" class="cls-2" d="M539.916,289.23h1.132l.445.6,3.495-.312a1.628,1.628,0,0,1,2.386.312v5.583s-.043,1.833-.852,1.833-1.321-1.023-1.321-1.023l-3.026.043s-.213.938-.682.98-1.577-1.066-1.577-1.066Z" transform="translate(-535.349 -280.016)"/>
      <path id="路径_24336" data-name="路径 24336" class="cls-1" d="M544.465,293.148V295l3.466-.284v-1.563Z" transform="translate(-537.938 -282.315)"/>
      <path id="路径_24337" data-name="路径 24337" class="cls-1" d="M544.465,299.6v1.847l3.466-.284V299.6Z" transform="translate(-537.938 -285.986)"/>
    </g>
    <g id="组_18726" data-name="组 18726" transform="translate(0 2.88)">
      <path id="路径_24328" data-name="路径 24328" d="M485.543,270.172l12.306-.294a1.825,1.825,0,0,1,1.777,2.435c-.028.075-.06.151-.095.23a4.246,4.246,0,0,0-.332,1.908c.041,1,.013,1.83-.013,2.324a2.257,2.257,0,0,1-.449,1.264,1.191,1.191,0,0,1-.921.532.961.961,0,0,1-.91-.646.585.585,0,0,0-.592-.36l-10.295.969a.744.744,0,0,1-.668-.3,1.913,1.913,0,0,1-.49-1.566c.262-.734,9.78-.67,11.258-.655a.179.179,0,0,0,.179-.192l-.061-.958a.18.18,0,0,0-.194-.168l-9.236.742a.718.718,0,0,1-.28-.031,1.413,1.413,0,0,1-1.014-1.039.557.557,0,0,1,.539-.656c2.348-.027,8.7-.2,10.214-.243a.307.307,0,0,0,.3-.34l-.135-1.335a.309.309,0,0,0-.325-.277l-10.18.564a.624.624,0,0,1-.535-.251,2.6,2.6,0,0,1-.426-.9A.607.607,0,0,1,485.543,270.172Z" transform="translate(-482.806 -269.877)"/>
      <path id="路径_24329" data-name="路径 24329" d="M491.927,290.182l2.157.235a.48.48,0,0,1,.428.477v.9l2.987-.7a.717.717,0,0,1,.8.36l.926,1.73a.4.4,0,0,1-.358.594l-3.766-.022a.505.505,0,0,0-.508.5l-.077,4.615s-.171,2.159-2.841.966a6.246,6.246,0,0,1-2.4-1.552.293.293,0,0,1,.2-.464l.876-.127a1.5,1.5,0,0,0,1.287-1.5l-.013-1.7a.506.506,0,0,0-.539-.5l-9.619.634a.3.3,0,0,1-.282-.15l-.983-1.694a.3.3,0,0,1,.255-.456l10.965-.244-.02-1.418A.48.48,0,0,1,491.927,290.182Z" transform="translate(-480.154 -281.432)"/>
      <path id="路径_24338" data-name="路径 24338" class="cls-3" d="M491.156,302.18a.326.326,0,0,1,.3-.458c.9.014,2.73.191,2.688,1.389,0,0-.114,2.1-.966,2.045C492.522,305.112,491.562,303.1,491.156,302.18Z" transform="translate(-486.399 -288.001)"/>
    </g>
  </g>
</svg>
