<svg xmlns="http://www.w3.org/2000/svg" width="14" height="15" viewBox="0 0 14 15">
  <defs>
    <style>
      .cls-1 {
        fill: #666;
      }
    </style>
  </defs>
  <g id="组_6129" data-name="组 6129" transform="translate(162.474 -126.837) rotate(90)">
    <path id="路径_1132" data-name="路径 1132" class="cls-1" d="M135.03,445.485a.809.809,0,0,1-.236.572l-6.569,6.635a.811.811,0,0,1-1.153-1.142l6.569-6.635a.812.812,0,0,1,1.147-.006A.8.8,0,0,1,135.03,445.485Z" transform="translate(0 -290.457)"/>
    <path id="路径_1133" data-name="路径 1133" class="cls-1" d="M477.5,452.054a.813.813,0,0,1-1.383.578l-6.634-6.569a.811.811,0,1,1,1.142-1.153l6.634,6.569A.8.8,0,0,1,477.5,452.054Z" transform="translate(-335.659 -290.457)"/>
    <path id="路径_1134" data-name="路径 1134" class="cls-1" d="M135.03,149.285a.809.809,0,0,1-.236.572l-6.569,6.635a.811.811,0,0,1-1.153-1.142l6.569-6.635a.812.812,0,0,1,1.147-.006A.8.8,0,0,1,135.03,149.285Z" transform="translate(0 0)"/>
    <path id="路径_1135" data-name="路径 1135" class="cls-1" d="M477.5,155.854a.813.813,0,0,1-1.383.577l-6.634-6.569a.811.811,0,1,1,1.142-1.153l6.634,6.567A.809.809,0,0,1,477.5,155.854Z" transform="translate(-335.659)"/>
  </g>
</svg>
