<svg xmlns="http://www.w3.org/2000/svg" width="16" height="16" viewBox="0 0 16 16">
  <defs>
    <style>
      .cls-1 {
        fill: #fff;
        stroke: #707070;
        opacity: 0;
      }

      .cls-2 {
        fill: #666;
      }

      .cls-3 {
        stroke: none;
      }

      .cls-4 {
        fill: none;
      }
    </style>
  </defs>
  <g id="组_18885" data-name="组 18885" transform="translate(4631 17323)">
    <g id="矩形_12977" data-name="矩形 12977" class="cls-1" transform="translate(-4631 -17323)">
      <rect class="cls-3" width="16" height="16"/>
      <rect class="cls-4" x="0.5" y="0.5" width="15" height="15"/>
    </g>
    <path id="路径_24387" data-name="路径 24387" class="cls-2" d="M13,108.8a.869.869,0,0,1,.867.867v7.022a.869.869,0,0,1-.867.867H8.756l.78,1.56a.457.457,0,0,1-.173.563.261.261,0,0,1-.173.043H4.725a.41.41,0,0,1-.433-.433c0-.087,0-.13.043-.173l.78-1.56H.867A.869.869,0,0,1,0,116.689v-7.022a.869.869,0,0,1,.867-.867Zm-4.9,2.514c-.477-.043-.91.26-1.17.26-.217,0-.563-.26-.954-.26a1.481,1.481,0,0,0-1.214.737A3.109,3.109,0,0,0,5.115,115l.087.13c.217.3.477.65.824.607.39,0,.52-.26.954-.26s.563.26.954.217c.39,0,.65-.347.91-.737a3.493,3.493,0,0,0,.39-.824H9.189a1.257,1.257,0,0,1-.737-1.17,1.394,1.394,0,0,1,.65-1.127A1.2,1.2,0,0,0,8.106,111.314Zm0-1.43a1.389,1.389,0,0,0-.867.433,1.288,1.288,0,0,0-.3.91,1.131,1.131,0,0,0,.867-.433A1.288,1.288,0,0,0,8.106,109.884Z" transform="translate(-4629.8 -17429.313)"/>
  </g>
</svg>
