<svg xmlns="http://www.w3.org/2000/svg" width="16" height="16" viewBox="0 0 16 16">
  <defs>
    <style>
      .cls-1 {
        fill: #fff;
        stroke: #707070;
        opacity: 0;
      }

      .cls-2 {
        fill: #666;
      }

      .cls-3 {
        stroke: none;
      }

      .cls-4 {
        fill: none;
      }
    </style>
  </defs>
  <g id="组_4727" data-name="组 4727" transform="translate(-66 -780)">
    <g id="矩形_2554" data-name="矩形 2554" class="cls-1" transform="translate(66 780)">
      <rect class="cls-3" width="16" height="16"/>
      <rect class="cls-4" x="0.5" y="0.5" width="15" height="15"/>
    </g>
    <path id="路径_5949" data-name="路径 5949" class="cls-2" d="M102.531,71.689a3.343,3.343,0,1,0-3.921.023,5.335,5.335,0,0,0-3.385,4.958.5.5,0,0,0,1,0,4.333,4.333,0,0,1,4.328-4.328c.021,0,.041,0,.061,0s.02,0,.031,0a4.333,4.333,0,0,1,4.328,4.328.5.5,0,0,0,1,0A5.335,5.335,0,0,0,102.531,71.689ZM98.214,69a2.341,2.341,0,1,1,2.341,2.341A2.343,2.343,0,0,1,98.214,69Z" transform="translate(-26.602 716.587)"/>
  </g>
</svg>
