<svg xmlns="http://www.w3.org/2000/svg" width="22" height="22" viewBox="0 0 22 22">
  <defs>
    <style>
      .cls-1, .cls-2 {
        fill: #fff;
      }

      .cls-1 {
        stroke: #707070;
        opacity: 0;
      }

      .cls-3 {
        stroke: none;
      }

      .cls-4 {
        fill: none;
      }
    </style>
  </defs>
  <g id="组_3982" data-name="组 3982" transform="translate(-38 -353)">
    <g id="矩形_2317" data-name="矩形 2317" class="cls-1" transform="translate(38 353)">
      <rect class="cls-3" width="22" height="22"/>
      <rect class="cls-4" x="0.5" y="0.5" width="21" height="21"/>
    </g>
    <path id="路径_5516" data-name="路径 5516" class="cls-2" d="M59.919,53.284l-3.5-4.522a1.486,1.486,0,0,0-1.166-.574H47.133a1.486,1.486,0,0,0-1.169.573l-3.5,4.523a1.472,1.472,0,0,0,.074,1.89l7.557,8.35a1.477,1.477,0,0,0,2.19,0l7.557-8.35a1.471,1.471,0,0,0,.073-1.89Zm-1.074.986-7.557,8.35a.127.127,0,0,1-.188,0l-7.557-8.35a.126.126,0,0,1-.006-.162l3.5-4.524a.127.127,0,0,1,.1-.049h8.123a.127.127,0,0,1,.1.049l3.5,4.524a.127.127,0,0,1-.006.161Zm-4.529.117-3.028,3.346a.127.127,0,0,1-.188,0l-3.093-3.418a.675.675,0,0,0-1,.9L50.1,58.638a1.477,1.477,0,0,0,2.19,0l3.028-3.346a.674.674,0,0,0-1-.9Z" transform="translate(-2.193 307.9)"/>
  </g>
</svg>
