<svg xmlns="http://www.w3.org/2000/svg" width="22" height="22" viewBox="0 0 22 22">
  <defs>
    <style>
      .cls-1 {
        fill: #fff;
        stroke: #707070;
        opacity: 0;
      }

      .cls-2 {
        fill: #666;
      }

      .cls-3 {
        stroke: none;
      }

      .cls-4 {
        fill: none;
      }
    </style>
  </defs>
  <g id="组_3982" data-name="组 3982" transform="translate(-38 -353)">
    <g id="矩形_2317" data-name="矩形 2317" class="cls-1" transform="translate(38 353)">
      <rect class="cls-3" width="22" height="22"/>
      <rect class="cls-4" x="0.5" y="0.5" width="21" height="21"/>
    </g>
    <path id="路径_5516" data-name="路径 5516" class="cls-2" d="M58.315,52.824l-3.181-4.113a1.352,1.352,0,0,0-1.061-.522h-7.39a1.352,1.352,0,0,0-1.063.522l-3.181,4.114a1.339,1.339,0,0,0,.068,1.719l6.875,7.6a1.343,1.343,0,0,0,1.992,0l6.875-7.6a1.338,1.338,0,0,0,.067-1.719Zm-.977.9-6.875,7.6a.116.116,0,0,1-.171,0l-6.875-7.6a.115.115,0,0,1-.005-.147l3.18-4.115a.115.115,0,0,1,.092-.044h7.389a.115.115,0,0,1,.091.044l3.18,4.115a.115.115,0,0,1-.005.147Zm-4.12.107-2.754,3.044a.116.116,0,0,1-.171,0l-2.814-3.11a.614.614,0,0,0-.911.823l2.814,3.11a1.343,1.343,0,0,0,1.992,0l2.754-3.044a.613.613,0,1,0-.911-.822Z" transform="translate(-1.377 308.615)"/>
  </g>
</svg>
