<svg xmlns="http://www.w3.org/2000/svg" width="46" height="46" viewBox="0 0 46 46"><defs><style>.a,.b,.e{fill:#fff;}.a{stroke:#707070;opacity:0;}.b{stroke:#909090;}.c{fill:#d3d3d3;}.d{fill:#fd492b;}.f{fill:rgba(255,255,255,0.87);font-size:8px;font-family:SourceHanSansSC-Medium, Source Han Sans SC;font-weight:500;letter-spacing:-0.026em;}.g{stroke:none;}.h{fill:none;}</style></defs><g transform="translate(22372 15501)"><g class="a" transform="translate(-22372 -15501)"><rect class="g" width="46" height="46"/><rect class="h" x="0.5" y="0.5" width="45" height="45"/></g><g transform="translate(-22371.012 -15502.044)"><g transform="translate(4 5)"><g transform="translate(5.075)"><path class="b" d="M98.38,0h19.044l9.522,9.522V35.707a2.38,2.38,0,0,1-2.38,2.38H98.38A2.38,2.38,0,0,1,96,35.707V2.38A2.38,2.38,0,0,1,98.38,0Z" transform="translate(-96)"/><path class="c" d="M672.278.773c.445.039,9.418,9.377,9.418,9.377h-6.831a2.59,2.59,0,0,1-2.587-2.592S672.305,8.589,672.278.773Z" transform="translate(-651.098 -0.296)"/></g><rect class="d" width="23.805" height="23.805" rx="2" transform="translate(0 7.457)"/><g transform="translate(4.081 8.383)"><path class="e" d="M283,69h2.916l3.888,6.8h-2.916Z" transform="translate(-281.056 -65.112)"/><path class="e" d="M289,69h2.916L289,70.944Z" transform="translate(-281.225 -65.112)"/><path class="e" d="M284.517,76.873c1.362.187,4.678.455,6.2-1.069a10.5,10.5,0,0,0,2.916-6.8h2.916s-.972,4.86-3.888,7.775c-1.944,1.944-5.832,1.944-11.663.972,0,0,1.516-3.1,1.944-3.888C283.482,74.09,282.744,76.718,284.517,76.873Z" transform="translate(-281 -65.112)"/><circle class="e" cx="1.458" cy="1.458" r="1.458" transform="translate(12.635 0)"/></g><text class="f" transform="translate(11 28.22)"><tspan x="-7.432" y="0">mm</tspan></text></g></g></g></svg>