<svg xmlns="http://www.w3.org/2000/svg" width="22" height="22" viewBox="0 0 22 22">
  <defs>
    <style>
      .cls-1 {
        fill: #fff;
        stroke: #707070;
      }

      .cls-1, .cls-2 {
        opacity: 0;
      }

      .cls-2, .cls-3, .cls-5 {
        fill: none;
      }

      .cls-2, .cls-3 {
        stroke: #fd492b;
      }

      .cls-2 {
        stroke-width: 2px;
      }

      .cls-4 {
        stroke: none;
      }
    </style>
  </defs>
  <g id="组_3663" data-name="组 3663" transform="translate(-4595 1512)">
    <g id="矩形_2292" data-name="矩形 2292" class="cls-1" transform="translate(4595 -1512)">
      <rect class="cls-4" width="22" height="22"/>
      <rect class="cls-5" x="0.5" y="0.5" width="21" height="21"/>
    </g>
    <g id="组_3656" data-name="组 3656" transform="translate(4392.517 -2090.484)">
      <g id="矩形_25" data-name="矩形 25" class="cls-2" transform="translate(205.483 581.484)">
        <rect class="cls-4" width="16" height="16"/>
        <rect class="cls-5" x="1" y="1" width="14" height="14"/>
      </g>
      <g id="组_2169" data-name="组 2169" transform="translate(205.996 582.118)">
        <g id="组_2170" data-name="组 2170" transform="translate(0 0)">
          <path id="路径_2589" data-name="路径 2589" class="cls-3" d="M24.346-1.362,17.307.589a.294.294,0,0,0-.249.281V11.392a.293.293,0,0,0,.248.282l8.556,1.5a.344.344,0,0,0,.058.009.31.31,0,0,0,.191-.061.284.284,0,0,0,.114-.22L26.2,0a3.5,3.5,0,0,0-.09-.855c-.3-.787-1.677-.523-1.764-.5ZM31.421.774,26.2.722V11.438l5.22.052a.59.59,0,0,0,.612-.564V1.338a.59.59,0,0,0-.611-.564ZM28.059,3.31v0Z" transform="translate(-17.057 1.419)"/>
          <line id="直线_377" data-name="直线 377" class="cls-3" x2="4.867" transform="translate(8.798 4.396)"/>
          <line id="直线_378" data-name="直线 378" class="cls-3" x2="4.867" transform="translate(8.798 6.623)"/>
          <line id="直线_379" data-name="直线 379" class="cls-3" x2="4.867" transform="translate(8.798 8.849)"/>
          <line id="直线_380" data-name="直线 380" class="cls-3" x2="4.867" transform="translate(8.798 11.075)"/>
        </g>
      </g>
    </g>
  </g>
</svg>
