<svg xmlns="http://www.w3.org/2000/svg" width="22" height="22" viewBox="0 0 22 22">
  <defs>
    <style>
      .cls-1 {
        fill: #fff;
        stroke: #707070;
      }

      .cls-1, .cls-2 {
        opacity: 0;
      }

      .cls-2, .cls-3, .cls-5 {
        fill: none;
      }

      .cls-2, .cls-3 {
        stroke: #333;
      }

      .cls-2 {
        stroke-width: 2px;
      }

      .cls-4 {
        stroke: none;
      }
    </style>
  </defs>
  <g id="组_3658" data-name="组 3658" transform="translate(-4595 1512)">
    <g id="矩形_2292" data-name="矩形 2292" class="cls-1" transform="translate(4595 -1512)">
      <rect class="cls-4" width="22" height="22"/>
      <rect class="cls-5" x="0.5" y="0.5" width="21" height="21"/>
    </g>
    <g id="组_3656" data-name="组 3656" transform="translate(4392.146 -2090.855)">
      <g id="矩形_25" data-name="矩形 25" class="cls-2" transform="translate(205.854 581.855)">
        <rect class="cls-4" width="16" height="16"/>
        <rect class="cls-5" x="1" y="1" width="14" height="14"/>
      </g>
      <g id="组_2169" data-name="组 2169" transform="translate(206.002 582.131)">
        <g id="组_2170" data-name="组 2170" transform="translate(0 0)">
          <path id="路径_2589" data-name="路径 2589" class="cls-3" d="M24.7-1.359,17.319.687a.308.308,0,0,0-.262.295V12.016a.308.308,0,0,0,.26.3l8.973,1.571a.36.36,0,0,0,.06.009.325.325,0,0,0,.2-.064.3.3,0,0,0,.12-.231L26.646.067a3.669,3.669,0,0,0-.095-.9c-.32-.826-1.759-.548-1.85-.53Zm7.42,2.24L26.646.826V12.065l5.475.055a.619.619,0,0,0,.641-.591V1.472a.619.619,0,0,0-.64-.591ZM28.595,3.54v0Z" transform="translate(-17.057 1.419)"/>
          <line id="直线_377" data-name="直线 377" class="cls-3" x2="5.104" transform="translate(9.226 4.611)"/>
          <line id="直线_378" data-name="直线 378" class="cls-3" x2="5.104" transform="translate(9.226 6.945)"/>
          <line id="直线_379" data-name="直线 379" class="cls-3" x2="5.104" transform="translate(9.226 9.28)"/>
          <line id="直线_380" data-name="直线 380" class="cls-3" x2="5.104" transform="translate(9.226 11.615)"/>
        </g>
      </g>
    </g>
  </g>
</svg>
