<svg xmlns="http://www.w3.org/2000/svg" width="16" height="16" viewBox="0 0 16 16">
  <defs>
    <style>
      .cls-1 {
        fill: #fff;
        stroke: #707070;
        opacity: 0;
      }

      .cls-2 {
        fill: #666;
      }

      .cls-3 {
        stroke: none;
      }

      .cls-4 {
        fill: none;
      }
    </style>
  </defs>
  <g id="组_5151" data-name="组 5151" transform="translate(-143 -370)">
    <g id="矩形_2796" data-name="矩形 2796" class="cls-1" transform="translate(143 370)">
      <rect class="cls-3" width="16" height="16"/>
      <rect class="cls-4" x="0.5" y="0.5" width="15" height="15"/>
    </g>
    <path id="路径_5853" data-name="路径 5853" class="cls-2" d="M148.734,124.551a.516.516,0,0,1-.372-.164l-1.175-1.259-1.175,1.259a.511.511,0,1,1-.742-.7l1.568-1.671a.516.516,0,0,1,.372-.164.483.483,0,0,1,.372.164l1.567,1.67a.516.516,0,0,1-.019.719.835.835,0,0,1-.392.144Zm-1.569,9.918a.483.483,0,0,1-.372-.164l-1.567-1.67a.512.512,0,1,1,.744-.7l1.175,1.258,1.176-1.258a.511.511,0,1,1,.742.7l-1.567,1.672a.349.349,0,0,1-.327.164Zm0-.823a.511.511,0,0,1-.516-.516V123.108a.516.516,0,1,1,1.031,0V133.13a.511.511,0,0,1-.516.516Zm-4.041-7.754H137.7a.516.516,0,1,1,0-1.031h5.424a.511.511,0,0,1,.516.516.524.524,0,0,1-.516.516Zm0,2.6H137.7a.516.516,0,0,1,0-1.031h5.424a.511.511,0,0,1,.516.516.524.524,0,0,1-.516.516Zm-.02,2.97h-5.424a.516.516,0,0,1,0-1.031H143.1a.511.511,0,0,1,.516.516A.524.524,0,0,1,143.1,131.46Z" transform="translate(7.775 249.84)"/>
  </g>
</svg>
