<svg xmlns="http://www.w3.org/2000/svg" width="16" height="16" viewBox="0 0 16 16">
  <defs>
    <style>
      .cls-1 {
        fill: #fff;
        stroke: #707070;
        opacity: 0;
      }

      .cls-2 {
        fill: #666;
      }

      .cls-3 {
        stroke: none;
      }

      .cls-4 {
        fill: none;
      }
    </style>
  </defs>
  <g id="组_4731" data-name="组 4731" transform="translate(-61 -801)">
    <g id="矩形_2555" data-name="矩形 2555" class="cls-1" transform="translate(61 801)">
      <rect class="cls-3" width="16" height="16"/>
      <rect class="cls-4" x="0.5" y="0.5" width="15" height="15"/>
    </g>
    <g id="组_4730" data-name="组 4730" transform="translate(-19.029 738.653)">
      <path id="路径_5950" data-name="路径 5950" class="cls-2" d="M92.534,75.243a1.9,1.9,0,0,1-1.36.65H84.884a1.9,1.9,0,0,1-1.36-.65,3.472,3.472,0,0,1-.777-2.642c.153-2.226,2.56-3.9,3.294-4.362a.628.628,0,0,0,.094-.073h3.789a.63.63,0,0,0,.095.074c.734.46,3.14,2.136,3.294,4.361a3.474,3.474,0,0,1-.777,2.642Zm-7.067-9.779c.1-.128.241-.282.385-.289a.594.594,0,0,1,.4.236.626.626,0,0,0,.972-.062,1.713,1.713,0,0,1,.4-.41.662.662,0,0,1,.81,0,1.716,1.716,0,0,1,.4.409.627.627,0,0,0,.972.062.59.59,0,0,1,.4-.236c.144.007.289.161.385.289.447.594-.324,1.448-.676,1.788a.629.629,0,0,0-.1.121H86.241a.635.635,0,0,0-.1-.121C85.791,66.912,85.02,66.058,85.467,65.464ZM94.1,72.547c-.165-2.4-2.373-4.138-3.491-4.869.944-.979,1.169-1.953.613-2.691a1.319,1.319,0,0,0-.976-.6,1.231,1.231,0,0,0-.885.354,2.553,2.553,0,0,0-.261-.278.39.39,0,0,0-.063-.063q-.077-.06-.159-.114a1.534,1.534,0,0,0-.648-.262c-.023,0-.047,0-.07-.006l-.046,0q-.084,0-.169,0l-.048,0c-.023,0-.046,0-.069.006a1.532,1.532,0,0,0-.647.262q-.08.052-.159.114a.392.392,0,0,0-.063.063,2.564,2.564,0,0,0-.261.278,1.235,1.235,0,0,0-.885-.354,1.319,1.319,0,0,0-.976.6c-.556.738-.331,1.712.613,2.691-1.118.732-3.326,2.47-3.491,4.869a4.249,4.249,0,0,0,.988,3.238,2.693,2.693,0,0,0,1.938.9h6.291a2.694,2.694,0,0,0,1.938-.9A4.25,4.25,0,0,0,94.1,72.547Z" transform="translate(0 0)"/>
      <path id="路径_5951" data-name="路径 5951" class="cls-2" d="M365.17,428.917h-1.338v-.565h1.338a.407.407,0,1,0,0-.814h-.879l1.126-1.132a.408.408,0,0,0,0-.576.4.4,0,0,0-.572,0l-1.44,1.448-1.441-1.448a.4.4,0,0,0-.572,0,.409.409,0,0,0,0,.576l1.126,1.132h-.833a.407.407,0,1,0,0,.814h1.339v.565h-1.339a.407.407,0,1,0,0,.814h1.339v1.413a.4.4,0,0,0,.81,0v-1.413h1.338a.407.407,0,1,0,0-.814Z" transform="translate(-275.376 -356.584)"/>
    </g>
  </g>
</svg>
