<svg xmlns="http://www.w3.org/2000/svg" width="22" height="22" viewBox="0 0 22 22">
  <defs>
    <style>
      .cls-1 {
        fill: #fff;
        stroke: #707070;
      }

      .cls-1, .cls-2 {
        opacity: 0;
      }

      .cls-2, .cls-3, .cls-4, .cls-6 {
        fill: none;
      }

      .cls-2, .cls-3, .cls-4 {
        stroke: #333;
      }

      .cls-4 {
        stroke-width: 0.8px;
      }

      .cls-5 {
        stroke: none;
      }
    </style>
  </defs>
  <g id="组_3660" data-name="组 3660" transform="translate(-4628 1512)">
    <g id="矩形_2293" data-name="矩形 2293" class="cls-1" transform="translate(4628 -1512)">
      <rect class="cls-5" width="22" height="22"/>
      <rect class="cls-6" x="0.5" y="0.5" width="21" height="21"/>
    </g>
    <g id="组_3659" data-name="组 3659" transform="translate(3911.771 -1529.229)">
      <g id="组_3654" data-name="组 3654" transform="translate(719.151 20.151)">
        <g id="矩形_27" data-name="矩形 27" class="cls-2" transform="translate(0.078 0.078)">
          <rect class="cls-5" width="16" height="16"/>
          <rect class="cls-6" x="0.5" y="0.5" width="15" height="15"/>
        </g>
        <path id="路径_63" data-name="路径 63" class="cls-3" d="M106.8,8.87h-3.288a4.677,4.677,0,0,0-4.653,4.691,2.2,2.2,0,0,0,2.189,2.2h8.215a2.18,2.18,0,0,0,1.558-.638,2.216,2.216,0,0,0,.649-1.564,4.716,4.716,0,0,0-1.37-3.322,4.637,4.637,0,0,0-3.3-1.369Zm-1.635-.522a4.174,4.174,0,1,0-4.144-4.169,4.157,4.157,0,0,0,4.144,4.169Z" transform="translate(-97.086 0.196)"/>
      </g>
      <path id="路径_4914" data-name="路径 4914" class="cls-4" d="M13.084,19h1.691a.381.381,0,0,1,.381.381h0a1.143,1.143,0,0,1-1.143,1.143h-.161a1.143,1.143,0,0,1-1.143-1.143h0A.381.381,0,0,1,13.084,19Z" transform="translate(713.295 5.893)"/>
    </g>
  </g>
</svg>
