<svg xmlns="http://www.w3.org/2000/svg" width="22" height="22" viewBox="0 0 22 22">
  <defs>
    <style>
      .cls-1 {
        fill: #fff;
        stroke: #707070;
      }

      .cls-1, .cls-2 {
        opacity: 0;
      }

      .cls-2, .cls-3, .cls-4, .cls-6 {
        fill: none;
      }

      .cls-2, .cls-3, .cls-4 {
        stroke: #fd492b;
      }

      .cls-4 {
        stroke-width: 0.8px;
      }

      .cls-5 {
        stroke: none;
      }
    </style>
  </defs>
  <g id="组_3665" data-name="组 3665" transform="translate(-4628 1512)">
    <g id="矩形_2293" data-name="矩形 2293" class="cls-1" transform="translate(4628 -1512)">
      <rect class="cls-5" width="22" height="22"/>
      <rect class="cls-6" x="0.5" y="0.5" width="21" height="21"/>
    </g>
    <g id="组_3659" data-name="组 3659" transform="translate(3912.116 -1528.884)">
      <g id="组_3654" data-name="组 3654" transform="translate(719.151 20.151)">
        <g id="矩形_27" data-name="矩形 27" class="cls-2" transform="translate(-0.267 -0.267)">
          <rect class="cls-5" width="16" height="16"/>
          <rect class="cls-6" x="0.5" y="0.5" width="15" height="15"/>
        </g>
        <path id="路径_63" data-name="路径 63" class="cls-3" d="M106.46,8.491h-3.147a4.477,4.477,0,0,0-4.454,4.491,2.1,2.1,0,0,0,2.1,2.109h7.864a2.086,2.086,0,0,0,1.491-.611,2.122,2.122,0,0,0,.621-1.5,4.514,4.514,0,0,0-1.312-3.18,4.439,4.439,0,0,0-3.159-1.31Zm-1.565-.5A4,4,0,1,0,100.928,4a3.979,3.979,0,0,0,3.967,3.991Z" transform="translate(-97.162 0.188)"/>
      </g>
      <path id="路径_4914" data-name="路径 4914" class="cls-4" d="M13.068,19h1.619a.365.365,0,0,1,.365.365h0a1.094,1.094,0,0,1-1.094,1.094H13.8a1.094,1.094,0,0,1-1.094-1.094h0A.365.365,0,0,1,13.068,19Z" transform="translate(713.002 5.69)"/>
    </g>
  </g>
</svg>
