<svg xmlns="http://www.w3.org/2000/svg" width="48" height="41" viewBox="0 0 48 41">
  <defs>
    <style>
      .cls-1 {
        fill: #c5c5c5;
      }
    </style>
  </defs>
  <path id="路径_4836" data-name="路径 4836" class="cls-1" d="M32.479.4A3.358,3.358,0,0,1,34.56,3.461v8.424a7.85,7.85,0,0,1,6.763,7.54,7.85,7.85,0,0,1-6.761,7.542v8.36a3.363,3.363,0,0,1-2.083,3.066,3.825,3.825,0,0,1-3.864-.437L17.27,29.334l1.814,7.6A3.2,3.2,0,0,1,18.37,39.8a3.728,3.728,0,0,1-2.842,1.269H13.214a3.584,3.584,0,0,1-3.552-2.638L6.881,27.09H3.641A3.525,3.525,0,0,1,0,23.7V15.158a3.528,3.528,0,0,1,3.643-3.392H14.232L28.615.833A3.825,3.825,0,0,1,32.479.4ZM13.536,27.09H10.087l2.621,10.69a.511.511,0,0,0,.506.376h2.314a.527.527,0,0,0,.4-.18.471.471,0,0,0,.1-.412l-2.5-10.472Zm17.054-24L16.351,13.908V24.881L30.59,35.705a.528.528,0,0,0,.552.062.464.464,0,0,0,.3-.437V3.461a.464.464,0,0,0-.3-.437.528.528,0,0,0-.552.062ZM42.667,30.8l1.682,1.556a1.385,1.385,0,0,1,.01,2.057,1.633,1.633,0,0,1-2.208.009l-1.682-1.556a1.385,1.385,0,0,1-.01-2.057A1.645,1.645,0,0,1,42.667,30.8ZM13.229,14.671l-9.586,0a.5.5,0,0,0-.521.485V23.7a.5.5,0,0,0,.521.483l9.586,0Zm21.334.2v9.112A4.821,4.821,0,0,0,38.2,19.429a4.821,4.821,0,0,0-3.638-4.556ZM46.44,17.99a1.458,1.458,0,1,1,0,2.909H44.76a1.457,1.457,0,1,1,0-2.907h1.68ZM44.359,4.441A1.385,1.385,0,0,1,44.35,6.5L42.667,8.054a1.644,1.644,0,0,1-2.208-.009,1.385,1.385,0,0,1,.01-2.057l1.682-1.554a1.645,1.645,0,0,1,2.208.007Z" transform="translate(0 -0.065)"/>
</svg>
