<svg xmlns="http://www.w3.org/2000/svg" width="89" height="89" viewBox="0 0 89 89">
  <defs>
    <style>
      .cls-1 {
        fill: #d8d8d8;
        stroke: #979797;
        stroke-miterlimit: 10;
        opacity: 0;
      }

      .cls-2 {
        fill: #f75151;
      }

      .cls-3 {
        fill: #34b561;
      }

      .cls-4 {
        fill: #7287fb;
      }

      .cls-5 {
        fill: #93ff7f;
      }
    </style>
  </defs>
  <g id="编组_23" data-name="编组 23" transform="translate(0.5 0.5)">
    <g id="编组_18" data-name="编组 18">
      <rect id="矩形备份_4" data-name="矩形备份 4" class="cls-1" width="88" height="88"/>
      <path id="形状结合" class="cls-2" d="M30.833,62a30.654,30.654,0,0,1-21.8-9.08,31.083,31.083,0,0,1,0-43.841A30.849,30.849,0,0,1,61.667,31,31.012,31.012,0,0,1,42.835,59.564,30.5,30.5,0,0,1,30.833,62Zm0-45.467A14.467,14.467,0,1,0,45.222,31,14.444,14.444,0,0,0,30.833,16.533Z" transform="translate(11 12)"/>
      <path id="形状结合-2" data-name="形状结合" class="cls-3" d="M19.292,28.8c-2.88,0-5.2-1.316-6.048-3.434-.019-.048-.038-.1-.055-.144A14.4,14.4,0,0,0,0,16.533c3.4,0,6.167-3.709,6.167-8.267S3.4,0,.006,0A30.5,30.5,0,0,1,12,2.436a30.721,30.721,0,0,1,9.8,6.643,30.9,30.9,0,0,1,6.608,9.854l.03.071c.034.082.067.16.1.239l-.016.006a5.574,5.574,0,0,1-.656,4.932,9.751,9.751,0,0,1-4.689,3.833A10.446,10.446,0,0,1,19.292,28.8Z" transform="translate(41.833 12)"/>
      <path id="形状结合-3" data-name="形状结合" class="cls-4" d="M19.292,28.8c-2.88,0-5.2-1.316-6.048-3.434-.019-.048-.038-.1-.055-.144A14.4,14.4,0,0,0,0,16.533c3.4,0,6.167-3.709,6.167-8.267S3.4,0,.006,0A30.5,30.5,0,0,1,12,2.436a30.721,30.721,0,0,1,9.8,6.643,30.9,30.9,0,0,1,6.608,9.854l.03.071c.034.082.067.16.1.239l-.016.006a5.574,5.574,0,0,1-.656,4.932,9.751,9.751,0,0,1-4.689,3.833A10.446,10.446,0,0,1,19.292,28.8Z" transform="translate(63.708 21.161) rotate(45)"/>
      <path id="形状结合-4" data-name="形状结合" class="cls-5" d="M19.292,28.8c-2.88,0-5.2-1.316-6.048-3.434-.019-.048-.038-.1-.055-.144A14.4,14.4,0,0,0,0,16.533c3.4,0,6.167-3.709,6.167-8.267S3.4,0,.006,0A30.5,30.5,0,0,1,12,2.436a30.721,30.721,0,0,1,9.8,6.643,30.9,30.9,0,0,1,6.608,9.854l.03.071c.034.082.067.16.1.239l-.016.006a5.574,5.574,0,0,1-.656,4.932,9.751,9.751,0,0,1-4.689,3.833A10.446,10.446,0,0,1,19.292,28.8Z" transform="translate(72.376 47.115) rotate(97)"/>
    </g>
  </g>
</svg>
