<svg xmlns="http://www.w3.org/2000/svg" width="79.996" height="18.002" viewBox="0 0 79.996 18.002"><defs><style>.a{fill:#333;}</style></defs><path class="a" d="M18904.813,16629.348v0l-6.229,0a2,2,0,0,1-1.439-.607l18.391-17.393h6.934l-17.654,18Zm55.014,0h0l-7.545,0,9.367-10.578.139-.443-11.23,11.021h-3.113l6.273-6.406-6.646,6.406h-2.873l10.234-10.8-11.1,10.8h-6.482l18.2-18h7.736l-8.422,8.922,9.266-8.922h6.791l-4.586,5.125,5.549-5.125h3.191a1.99,1.99,0,0,1,1.234.424l-9.656,9.445,10.279-8.611a1.991,1.991,0,0,1,.143.742v8.084h-.4l-8.275,7.914-7.213,0,10.869-10.74v-.168l-11.734,10.908Zm-23.441,0h0l-10.477,0,16.221-16.4-16.746,16.4h-6.939l17.141-17.338-17.7,17.338h-3.408l7.553-7.711-8,7.711h-4.789l15.082-15.408-16.951,15.408h-2.322l18.477-18h7.566l-1.687,1.662,1.857-1.662h9.506l-12.754,12.637-2.33,2.715,15.615-15.352h13.189l-18.105,18Zm38.2,0h-1.592l3.592-3.885v1.885A2,2,0,0,1,18974.58,16629.346Zm-2.234,0h-3.357l7.592-7.428v3.307l-4.234,4.119Zm-75.469-.953v0a2,2,0,0,1-.293-1.045v-6.523l7.793-8.643-7.793,8.158v-3.609l.066.066,5.451-5.449h4.813l-4.844,5.174,5.461-5.174h7.961c-1.445,1.314-14.246,12.939-18.615,17.045Zm-.293-13.994v-1.053a2,2,0,0,1,2-2h1.051l-3.049,3.051Z" transform="translate(-18896.584 -16611.346)"/></svg>