<svg xmlns="http://www.w3.org/2000/svg" width="80.002" height="18.002" viewBox="0 0 80.002 18.002"><defs><style>.a{fill:#333;}</style></defs><path class="a" d="M21260.986,16592h0l-6.971,0v-.582h-.576v.582h-33.1v-.582h-.576v.582h-32.193a2,2,0,0,1-2-2v-14a2,2,0,0,1,1.242-1.852v5.076h.582v-5.219l.057,0c.039,0,.08,0,.121,0h76a2,2,0,0,1,2,2v8.451h-.08v.287h.08v2.178h-.08v1.6h.08V16590a2,2,0,0,1-2,2h-2v-.582h-.576v.584Zm-55.18-.611v0l-.578.059.033.287.576-.059-.031-.287Zm-18,0v0l-.578.059.033.287.576-.059-.031-.287Zm24.4.025v.291h.576v-.289h-.576Zm23.658-.582v.584h.582v-.582h-.582Zm-6.82,0v.584h.58v-.582h-.58Zm-34.693,0v.584h1.158v-.582h-1.158Zm25.4-6.965v5.227h.576v-5.225h-.576Zm-8.568,0v5.227h2.9v-5.225h-2.9Zm-5.807,0v5.227h1.162v-5.225h-1.162Zm-11.611,3.191v1.748h2.322v-1.746h-2.322Zm-6.967,0v1.748h1.164v-1.746h-1.164Zm74.18-.145v1.748h.576v-1.746h-.576Zm-8.279,0v1.748h1.744v-1.746h-1.744Zm-3.887-.145v1.742h.582v-1.74h-.582Zm-2.322-2.32v4.063h.582v-4.061h-.582Zm-10.629,2.32v1.742h.582v-1.74h-.582Zm-6.82,0v1.742h.58v-1.74h-.58Zm31.938-2.32v.584h.576v-.582h-.576Zm-8.279,0v.584h1.744v-.582h-1.744Zm-65.9-.582v1.166h1.164v-1.164h-1.164Zm49.063.582v.289h.582v-.287h-.582Zm-6.82,0v.289h.58v-.287h-.58Zm-35.275-.582v.584h2.322v-.582h-2.322Zm69.129-9.289v4.064h1.451v-4.062h-1.451Zm-2.066,0v4.064h.582v-4.062h-.582Zm-8.129,0v4.064h1.744v-4.062h-1.744Zm-5.92,0v4.064h.582v-4.062h-.582Zm-10.918,0v4.064h1.164v-4.062h-1.164Zm-7.4,0v4.064h1.158v-4.062h-1.158Zm-6.533,0v4.064h1.447v-4.062h-1.447Zm-3.773,0v4.064h.869v-4.062h-.869Zm-6.973,0v4.064h4.068v-4.062h-4.068Zm-5.807,0v4.064h1.162v-4.062h-1.162Zm-11.611,0v4.064h2.322v-4.062h-2.322Z" transform="translate(-21185.564 -16574)"/></svg>