<svg xmlns="http://www.w3.org/2000/svg" width="79.998" height="18" viewBox="0 0 79.998 18"><defs><style>.a{fill:#333;}</style></defs><path class="a" d="M18892,16697h-76a2,2,0,0,1-2-2v-14a2,2,0,0,1,2-2h76a2,2,0,0,1,2,2v14A2,2,0,0,1,18892,16697Zm-2-4a1,1,0,1,0,1,1.043v-.08A1,1,0,0,0,18890,16693Zm-6,0a1,1,0,1,0,1,1A1,1,0,0,0,18884,16693Zm-6,0a1,1,0,1,0,1,1A1,1,0,0,0,18878,16693Zm-6,0a1,1,0,1,0,1,1A1,1,0,0,0,18872,16693Zm-6,0a1,1,0,1,0,1,1A1,1,0,0,0,18866,16693Zm-6,0a1,1,0,1,0,1,1A1,1,0,0,0,18860,16693Zm-6,0a1,1,0,1,0,1,1A1,1,0,0,0,18854,16693Zm-6,0a1,1,0,1,0,1,1A1,1,0,0,0,18848,16693Zm-6,0a1,1,0,1,0,1,1A1,1,0,0,0,18842,16693Zm-6,0a1,1,0,1,0,1,1A1,1,0,0,0,18836,16693Zm-6,0a1,1,0,1,0,1,1A1,1,0,0,0,18830,16693Zm-6,0a1,1,0,1,0,1,1A1,1,0,0,0,18824,16693Zm-6,0a1,1,0,1,0,1,1A1,1,0,0,0,18818,16693Zm72-6a1,1,0,1,0,1,1.039v-.08A.993.993,0,0,0,18890,16687Zm-6,0a1,1,0,1,0,1,1A1,1,0,0,0,18884,16687Zm-6,0a1,1,0,1,0,1,1A1,1,0,0,0,18878,16687Zm-6,0a1,1,0,1,0,1,1A1,1,0,0,0,18872,16687Zm-6,0a1,1,0,1,0,1,1A1,1,0,0,0,18866,16687Zm-6,0a1,1,0,1,0,1,1A1,1,0,0,0,18860,16687Zm-6,0a1,1,0,1,0,1,1A1,1,0,0,0,18854,16687Zm-6,0a1,1,0,1,0,1,1A1,1,0,0,0,18848,16687Zm-6,0a1,1,0,1,0,1,1A1,1,0,0,0,18842,16687Zm-6,0a1,1,0,1,0,1,1A1,1,0,0,0,18836,16687Zm-6,0a1,1,0,1,0,1,1A1,1,0,0,0,18830,16687Zm-6,0a1,1,0,1,0,1,1A1,1,0,0,0,18824,16687Zm-6,0a1,1,0,1,0,1,1A1,1,0,0,0,18818,16687Zm72-6a1,1,0,1,0,1,1.039v-.082A.993.993,0,0,0,18890,16681Zm-6,0a1,1,0,1,0,1,1A1,1,0,0,0,18884,16681Zm-6,0a1,1,0,1,0,1,1A1,1,0,0,0,18878,16681Zm-6,0a1,1,0,1,0,1,1A1,1,0,0,0,18872,16681Zm-6,0a1,1,0,1,0,1,1A1,1,0,0,0,18866,16681Zm-6,0a1,1,0,1,0,1,1A1,1,0,0,0,18860,16681Zm-6,0a1,1,0,1,0,1,1A1,1,0,0,0,18854,16681Zm-6,0a1,1,0,1,0,1,1A1,1,0,0,0,18848,16681Zm-6,0a1,1,0,1,0,1,1A1,1,0,0,0,18842,16681Zm-6,0a1,1,0,1,0,1,1A1,1,0,0,0,18836,16681Zm-6,0a1,1,0,1,0,1,1A1,1,0,0,0,18830,16681Zm-6,0a1,1,0,1,0,1,1A1,1,0,0,0,18824,16681Zm-6,0a1,1,0,1,0,1,1A1,1,0,0,0,18818,16681Z" transform="translate(-18814.002 -16679)"/></svg>