<svg xmlns="http://www.w3.org/2000/svg" width="110.849" height="100.709" viewBox="0 0 110.849 100.709">
  <defs>
    <style>
      .cls-1 {
        fill: #f4f4f4;
      }

      .cls-2 {
        fill: #fff;
      }

      .cls-3 {
        fill: #e1e1e1;
      }

      .cls-4 {
        fill: #f5f5f5;
      }

      .cls-5 {
        fill: #e4e4e4;
      }

      .cls-6 {
        fill: #b2b2b2;
      }

      .cls-7, .cls-8 {
        fill: #e9e9e9;
      }

      .cls-7 {
        stroke: #a1a1a1;
        stroke-width: 2px;
      }
    </style>
  </defs>
  <g id="组_4787" data-name="组 4787" transform="translate(-132 -260.807)">
    <g id="组_4044" data-name="组 4044" transform="translate(2.925 14.022)">
      <g id="组_4042" data-name="组 4042" transform="translate(11.575 13.978)">
        <g id="Group" transform="translate(117.5 258.761)">
          <path id="Fill_1" data-name="Fill 1" class="cls-1" d="M110.849,8.876c0,4.9-24.814,8.876-55.425,8.876S0,13.778,0,8.876,24.814,0,55.425,0s55.425,3.974,55.425,8.876" transform="translate(0 57.003)"/>
          <path id="Fill_11" data-name="Fill 11" class="cls-2" d="M3.658.624A2.145,2.145,0,1,1,.624.632,2.146,2.146,0,0,1,3.658.624" transform="translate(45.169 0.197)"/>
          <path id="Fill_13" data-name="Fill 13" class="cls-2" d="M15.087,10.692a14.375,14.375,0,0,0-5.647-5.61,14.389,14.389,0,0,0-7.83-1.716,1.84,1.84,0,0,1-1.6-1.487A1.908,1.908,0,0,1,2.106,0a18.309,18.309,0,0,1,8.888,2.276,18.336,18.336,0,0,1,6.8,6.563,1.9,1.9,0,0,1-.951,2.594,1.762,1.762,0,0,1-1.757-.745" transform="translate(51.048 0)"/>
          <path id="Fill_15" data-name="Fill 15" class="cls-3" d="M7.222,3.611A3.611,3.611,0,1,1,3.611,0,3.611,3.611,0,0,1,7.222,3.611" transform="translate(6.251 34.213)"/>
          <path id="Fill_17" data-name="Fill 17" class="cls-4" d="M6,3A3,3,0,1,1,3,0,3,3,0,0,1,6,3" transform="translate(90.055 30.67)"/>
          <path id="Fill_19" data-name="Fill 19" class="cls-5" d="M5.6,2.8A2.8,2.8,0,1,1,2.8,0,2.8,2.8,0,0,1,5.6,2.8" transform="translate(94.453 -2.603)"/>
        </g>
      </g>
      <g id="组_4043" data-name="组 4043" transform="translate(6 1)">
        <path id="Fill_11-2" data-name="Fill 11" class="cls-2" d="M2.972.507A1.743,1.743,0,1,1,.507.514,1.744,1.744,0,0,1,2.972.507" transform="matrix(0.978, 0.208, -0.208, 0.978, 180.135, 254.982)"/>
        <path id="Fill_13-2" data-name="Fill 13" class="cls-2" d="M12.259,8.688A11.681,11.681,0,0,0,7.67,4.13,11.692,11.692,0,0,0,1.307,2.735a1.5,1.5,0,0,1-1.3-1.208A1.55,1.55,0,0,1,1.711,0a14.877,14.877,0,0,1,7.222,1.85A14.9,14.9,0,0,1,14.46,7.185a1.546,1.546,0,0,1-.773,2.108,1.432,1.432,0,0,1-1.428-.605" transform="matrix(0.978, 0.208, -0.208, 0.978, 184.842, 255.819)"/>
      </g>
    </g>
    <g id="组_4053" data-name="组 4053" transform="translate(40.822 173.448)">
      <path id="路径_5561" data-name="路径 5561" class="cls-6" d="M185.163,149.128l-18.935-18.309a3.862,3.862,0,0,0-2.958-1.441H130.142a3.86,3.86,0,0,0-2.957,1.441L108.14,149.128l.055,10.7h77.02v-9.954l-.055-.746Zm0,0" transform="translate(0 -15.899)"/>
      <g id="组_4054" data-name="组 4054" transform="translate(120.03 88.359)">
        <rect id="矩形_2369" data-name="矩形 2369" class="cls-7" width="53.646" height="70.468" rx="5.05" transform="translate(0 0)"/>
        <g id="组_4045" data-name="组 4045" transform="translate(8.638 10.245)">
          <rect id="矩形_2370" data-name="矩形 2370" class="cls-2" width="36.817" height="12.585" rx="1.839" transform="translate(0)"/>
          <rect id="矩形_2371" data-name="矩形 2371" class="cls-2" width="35.466" height="3.851" rx="1.925" transform="translate(0 29.487)"/>
          <rect id="矩形_2372" data-name="矩形 2372" class="cls-2" width="18.945" height="3.851" rx="1.925" transform="translate(0 39.343)"/>
          <rect id="矩形_2373" data-name="矩形 2373" class="cls-2" width="6.032" height="3.851" rx="1.925" transform="translate(21.759 39.343)"/>
          <rect id="矩形_2374" data-name="矩形 2374" class="cls-2" width="36.393" height="3.851" rx="1.925" transform="translate(0 19.558)"/>
        </g>
      </g>
      <path id="路径_5566" data-name="路径 5566" class="cls-8" d="M180.774,188.423H112.713a4.541,4.541,0,0,1-4.337-3.537,4.918,4.918,0,0,1-.143-1.181V161.554h20.531a3.491,3.491,0,0,1,3.383,3.576v.026a3.471,3.471,0,0,0,3.4,3.546h22.4a3.484,3.484,0,0,0,3.4-3.56,3.5,3.5,0,0,1,3.38-3.587h20.527V183.7a4.968,4.968,0,0,1-.142,1.181,4.54,4.54,0,0,1-4.338,3.537Zm0,0" transform="translate(-0.036 -28.371)"/>
    </g>
  </g>
</svg>
