<svg xmlns="http://www.w3.org/2000/svg" width="111.023" height="90.453" viewBox="0 0 111.023 90.453">
  <defs>
    <style>
      .cls-1 {
        fill: #f4f4f4;
      }

      .cls-2 {
        fill: #cacaca;
      }

      .cls-3 {
        fill: #e9e9e9;
      }

      .cls-4 {
        fill: none;
        stroke: #c8c8c8;
        stroke-miterlimit: 10;
        stroke-width: 2px;
      }

      .cls-5 {
        fill: #fff;
      }

      .cls-6 {
        fill: #e1e1e1;
      }

      .cls-7 {
        fill: #f5f5f5;
      }

      .cls-8 {
        fill: #e4e4e4;
      }
    </style>
  </defs>
  <g id="Group" transform="translate(0 -0.926)">
    <path id="Fill_1" data-name="Fill 1" class="cls-1" d="M111.023,8.89c0,4.91-24.853,8.89-55.512,8.89S0,13.8,0,8.89,24.853,0,55.512,0s55.512,3.98,55.512,8.89" transform="translate(0 73.599)"/>
    <g id="组_4078" data-name="组 4078" transform="translate(23.433 1.925)">
      <path id="Fill_3" data-name="Fill 3" class="cls-2" d="M7.435,5.188,5.214,7.42,0,2.232,2.22,0Z" transform="translate(39.54 39.453)"/>
      <path id="Fill_5" data-name="Fill 5" class="cls-2" d="M14.277,12.039l-2.186,2.2a1.958,1.958,0,0,1-2.768.007L.577,5.542A1.957,1.957,0,0,1,.57,2.774L2.756.576A1.958,1.958,0,0,1,5.524.57l8.745,8.7a1.957,1.957,0,0,1,.008,2.768" transform="translate(43.352 43.238)"/>
      <path id="Fill_7" data-name="Fill 7" class="cls-3" d="M42.009,7.171a24.634,24.634,0,1,1-34.838.088,24.635,24.635,0,0,1,34.838-.088" transform="translate(0 0)"/>
      <path id="Stroke_9" data-name="Stroke 9" class="cls-4" d="M42.009,7.171a24.634,24.634,0,1,1-34.838.088A24.635,24.635,0,0,1,42.009,7.171Z" transform="translate(0 0)"/>
    </g>
    <path id="Fill_11" data-name="Fill 11" class="cls-5" d="M3.663.625A2.148,2.148,0,1,1,.625.633,2.15,2.15,0,0,1,3.663.625" transform="translate(45.24 6.703)"/>
    <path id="Fill_13" data-name="Fill 13" class="cls-5" d="M15.11,10.709A14.4,14.4,0,0,0,9.454,5.09,14.412,14.412,0,0,0,1.611,3.371a1.843,1.843,0,0,1-1.6-1.49A1.911,1.911,0,0,1,2.109,0a18.337,18.337,0,0,1,8.9,2.28,18.365,18.365,0,0,1,6.812,6.574,1.905,1.905,0,0,1-.953,2.6,1.765,1.765,0,0,1-1.76-.746" transform="translate(51.129 6.506)"/>
    <path id="Fill_15" data-name="Fill 15" class="cls-6" d="M7.234,3.617A3.617,3.617,0,1,1,3.617,0,3.617,3.617,0,0,1,7.234,3.617" transform="translate(6.261 40.772)"/>
    <path id="Fill_17" data-name="Fill 17" class="cls-7" d="M6.009,3A3,3,0,1,1,3,0a3,3,0,0,1,3,3" transform="translate(90.196 37.224)"/>
    <path id="Fill_19" data-name="Fill 19" class="cls-8" d="M5.61,2.8A2.805,2.805,0,1,1,2.805,0,2.805,2.805,0,0,1,5.61,2.8" transform="translate(87.59 9.835)"/>
  </g>
</svg>
