<svg xmlns="http://www.w3.org/2000/svg" width="24.37" height="24" viewBox="0 0 24.37 24">
  <defs>
    <style>
      .cls-1 {
        fill: #fff;
        stroke: #707070;
        opacity: 0;
      }

      .cls-2 {
        fill: #707070;
      }

      .cls-3 {
        stroke: none;
      }

      .cls-4 {
        fill: none;
      }
    </style>
  </defs>
  <g id="组_5920" data-name="组 5920" transform="translate(0 -0.186)">
    <g id="矩形_3109" data-name="矩形 3109" class="cls-1" transform="translate(0.37 0.186)">
      <rect class="cls-3" width="24" height="24"/>
      <rect class="cls-4" x="0.5" y="0.5" width="23" height="23"/>
    </g>
    <path id="路径_7278" data-name="路径 7278" class="cls-2" d="M76,193.993c-4.4,0-8.325-2.776-11.767-8.2a1.488,1.488,0,0,1,0-1.6C67.674,178.776,71.6,176,76,176s8.325,2.776,11.768,8.2a1.488,1.488,0,0,1,0,1.6c-3.442,5.423-7.367,8.2-11.768,8.2Zm0-16.2c-3.641,0-7.012,2.358-10.123,7.2,3.11,4.842,6.482,7.2,10.123,7.2s7.012-2.358,10.123-7.2C83.012,180.155,79.64,177.8,76,177.8Zm-.013,11.4a4.2,4.2,0,1,1,4.237-4.2,4.217,4.217,0,0,1-4.237,4.2ZM76,187.4a2.4,2.4,0,1,0-2.427-2.4A2.414,2.414,0,0,0,76,187.4Z" transform="translate(-64 -172.997)"/>
  </g>
</svg>
