<svg xmlns="http://www.w3.org/2000/svg" width="16" height="16" viewBox="0 0 16 16">
  <defs>
    <style>
      .cls-1 {
        fill: #fff;
        stroke: #707070;
        opacity: 0;
      }

      .cls-2 {
        fill: #666;
      }

      .cls-3 {
        stroke: none;
      }

      .cls-4 {
        fill: none;
      }
    </style>
  </defs>
  <g id="组_18886" data-name="组 18886" transform="translate(4631 17204)">
    <g id="矩形_12979" data-name="矩形 12979" class="cls-1" transform="translate(-4631 -17204)">
      <rect class="cls-3" width="16" height="16"/>
      <rect class="cls-4" x="0.5" y="0.5" width="15" height="15"/>
    </g>
    <path id="路径_24386" data-name="路径 24386" class="cls-2" d="M123.1,48H112.709a.709.709,0,0,0-.709.709V60.99a.709.709,0,0,0,.709.709H123.1a.709.709,0,0,0,.709-.709V48.709A.709.709,0,0,0,123.1,48Zm-5.2,13.226a.472.472,0,1,1,.472-.472A.472.472,0,0,1,117.9,61.226Zm4.487-1.417h-8.975V49.417h8.975Z" transform="translate(-4740.807 -17250.752)"/>
  </g>
</svg>
