<svg xmlns="http://www.w3.org/2000/svg" width="22" height="22" viewBox="0 0 22 22"><defs><style>.a{fill:#fff;stroke:#707070;opacity:0;}.b,.e{fill:none;}.b{stroke:#666;stroke-width:1.2px;}.c{fill:#666;}.d{stroke:none;}</style></defs><g transform="translate(-308.278 -213.278)"><g class="a" transform="translate(308.278 213.278)"><rect class="d" width="22" height="22"/><rect class="e" x="0.5" y="0.5" width="21" height="21"/></g><g transform="translate(311.687 215.169)"><g transform="translate(0 0)"><g class="b" transform="translate(0 6.68)"><rect class="d" width="15.182" height="11.539" rx="2"/><rect class="e" x="0.6" y="0.6" width="13.982" height="10.339" rx="1.4"/></g><g class="b" transform="translate(3.644)"><path class="d" d="M4.251,0h0A4.251,4.251,0,0,1,8.5,4.251V7.895a0,0,0,0,1,0,0H0a0,0,0,0,1,0,0V4.251A4.251,4.251,0,0,1,4.251,0Z"/><path class="e" d="M4.251.6h0A3.651,3.651,0,0,1,7.9,4.251V7.295a0,0,0,0,1,0,0H.6a0,0,0,0,1,0,0V4.251A3.651,3.651,0,0,1,4.251.6Z"/></g></g><rect class="c" width="1.034" height="4.308" rx="0.517" transform="translate(7.074 9.971)"/></g></g></svg>