<svg xmlns="http://www.w3.org/2000/svg" width="80" height="80" viewBox="0 0 80 80">
  <defs>
    <style>
      .cls-1 {
        fill: #47d368;
      }

      .cls-2 {
        fill: #fff;
      }
    </style>
  </defs>
  <g id="组_7018" data-name="组 7018" transform="translate(-64 -64)">
    <path id="路径_7697" data-name="路径 7697" class="cls-1" d="M104,104m-40,0a40,40,0,1,0,40-40,40,40,0,0,0-40,40Z" transform="translate(0 0)"/>
    <path id="路径_7698" data-name="路径 7698" class="cls-2" d="M326.528,352.881a2.949,2.949,0,0,1,0,4.118l-22.912,23.308a2.83,2.83,0,0,1-4.048,0l-11.456-11.654a2.946,2.946,0,0,1-.822-2.852,2.889,2.889,0,0,1,2.066-2.1,2.833,2.833,0,0,1,2.8.837l9.432,9.6,20.888-21.249a2.83,2.83,0,0,1,4.048,0Z" transform="translate(-203.32 -262.594)"/>
  </g>
</svg>
