<svg xmlns="http://www.w3.org/2000/svg" xmlns:xlink="http://www.w3.org/1999/xlink" width="56" height="56" viewBox="0 0 56 56">
  <defs>
    <style>
      .cls-1 {
        fill: #fff;
      }

      .cls-2 {
        clip-path: url(#clip-path);
      }

      .cls-3 {
        fill: #e94848;
      }

      .cls-4 {
        fill: rgba(255,255,255,0.4);
      }
    </style>
    <clipPath id="clip-path">
      <rect id="矩形_2068" data-name="矩形 2068" class="cls-1" width="56" height="56" rx="2" transform="translate(20 467)"/>
    </clipPath>
  </defs>
  <g id="蒙版组_90" data-name="蒙版组 90" class="cls-2" transform="translate(-20 -467)">
    <g id="组_3391" data-name="组 3391" transform="translate(-4.51 421.667)">
      <path id="路径_4820" data-name="路径 4820" class="cls-3" d="M158.154,0,202.09,44.749v73.839a15.521,15.521,0,0,1-15.378,15.665H107.626a15.526,15.526,0,0,1-15.379-15.665V15.665A15.523,15.523,0,0,1,107.626,0Z" transform="translate(-92.247)"/>
      <path id="路径_4821" data-name="路径 4821" class="cls-1" d="M347.3,375.48a5.321,5.321,0,0,0-5.248,5.346c0,3.643,1.989,8.171,4.088,12.425a107.62,107.62,0,0,1-5.876,15.536c-4.863,1.94-9.2,3.387-11.807,5.529a5.468,5.468,0,0,0-1.625,3.924,5.325,5.325,0,0,0,5.249,5.346,5.156,5.156,0,0,0,3.838-1.635c1.916-2.337,4.181-6.572,6.2-10.441a106.975,106.975,0,0,1,14.218-4.893,21.207,21.207,0,0,0,12.479,4.674,5.343,5.343,0,0,0,0-10.685c-3.276,0-8.036,1.189-11.673,2.441a39.508,39.508,0,0,1-7.616-10.093c1.4-4.37,3.021-8.739,3.021-12.126a5.321,5.321,0,0,0-5.248-5.346Zm0,3.2a2.1,2.1,0,0,1,2.1,2.136c0,1.6-.842,4.565-1.818,7.738-1.306-3.088-2.38-6.053-2.38-7.732a2.092,2.092,0,0,1,2.1-2.136v-.006Zm.9,18.3a42.422,42.422,0,0,0,5.444,7.048c-3.113.866-6.151,1.977-9.154,3.136,1.453-3.325,2.611-6.786,3.71-10.19Zm20.615,6.834a2.136,2.136,0,0,1,0,4.272,19.253,19.253,0,0,1-8.415-2.606,37.132,37.132,0,0,1,8.415-1.671v.005ZM337.5,413.382a51.37,51.37,0,0,1-3.967,6.444,1.977,1.977,0,0,1-1.446.549,2.093,2.093,0,0,1-2.1-2.136,2.322,2.322,0,0,1,.555-1.489A35.037,35.037,0,0,1,337.5,413.382Z" transform="translate(-296.078 -326.252)"/>
      <path id="路径_4822" data-name="路径 4822" class="cls-4" d="M638.88,44.749H611.1c-8.489,0-16.153-7.8-16.153-16.453V0L638.88,44.749Z" transform="translate(-529.036)"/>
    </g>
  </g>
</svg>
