<svg xmlns="http://www.w3.org/2000/svg" width="22" height="22" viewBox="0 0 22 22">
  <defs>
    <style>
      .cls-1 {
        fill: #fff;
        stroke: #707070;
        opacity: 0;
      }

      .cls-2 {
        fill: #666;
      }

      .cls-3 {
        stroke: none;
      }

      .cls-4 {
        fill: none;
      }
    </style>
  </defs>
  <g id="组_5929" data-name="组 5929" transform="translate(11288 -6672)">
    <g id="矩形_3115" data-name="矩形 3115" class="cls-1" transform="translate(-11288 6672)">
      <rect class="cls-3" width="22" height="22"/>
      <rect class="cls-4" x="0.5" y="0.5" width="21" height="21"/>
    </g>
    <path id="路径_7284" data-name="路径 7284" class="cls-2" d="M196.371,145.694c.021.007.043.012.069.018a6.934,6.934,0,0,1,2.445,1.111.531.531,0,0,0,.055.025,7.049,7.049,0,0,1,.761.628.642.642,0,0,0,.881,0,.582.582,0,0,0,0-.845,8.28,8.28,0,0,0-3.1-1.869A5.176,5.176,0,0,0,200.1,140.3a5.41,5.41,0,0,0-10.812,0,5.18,5.18,0,0,0,2.676,4.49,7.943,7.943,0,0,0-5.434,7.437.573.573,0,0,0,.055.242.621.621,0,0,0,.574.375.607.607,0,0,0,.618-.6,6.871,6.871,0,0,1,6.981-6.732c.04,0,.084,0,.124,0,.16,0,.32.01.476.025.117.007.236.025.353.039.074.007.146.018.218.031C196.083,145.636,196.229,145.66,196.371,145.694Zm-1.674-1.386a4.016,4.016,0,1,1,4.161-4.013A4.1,4.1,0,0,1,194.7,144.308Zm1.034,4.346a.545.545,0,0,0,.556.534h6.4a.534.534,0,1,0,0-1.067h-6.4A.545.545,0,0,0,195.731,148.654Zm6.956,1.281h-6.4a.534.534,0,1,0,0,1.067h6.4a.534.534,0,1,0,0-1.067Zm0,1.837h-6.4a.534.534,0,1,0,0,1.067h6.4a.534.534,0,1,0,0-1.067Z" transform="translate(-11471.888 6539.037)"/>
  </g>
</svg>
