<svg xmlns="http://www.w3.org/2000/svg" width="89" height="89" viewBox="0 0 89 89">
  <defs>
    <style>
      .cls-1 {
        fill: #d8d8d8;
        stroke: #979797;
        stroke-miterlimit: 10;
        opacity: 0;
      }

      .cls-2 {
        fill: #f75151;
      }

      .cls-3 {
        fill: #ffee15;
      }

      .cls-4 {
        fill: #fc95c9;
      }
    </style>
  </defs>
  <g id="编组_22" data-name="编组 22" transform="translate(0.5 0.5)">
    <rect id="矩形备份_8" data-name="矩形备份 8" class="cls-1" width="88" height="88"/>
    <g id="编组" transform="translate(8 11)">
      <path id="形状结合备份_2" data-name="形状结合备份 2" class="cls-2" d="M32.5,65A32.508,32.508,0,0,1,19.849,2.554a32.508,32.508,0,0,1,25.3,59.892A32.3,32.3,0,0,1,32.5,65Zm0-47.667A15.167,15.167,0,1,0,47.667,32.5,15.184,15.184,0,0,0,32.5,17.333Z"/>
      <path id="形状结合" class="cls-3" d="M28.076,32.351a3.4,3.4,0,0,1,.036-.5,4.757,4.757,0,0,0-9.48.474h0A15.19,15.19,0,0,0,3.611,17.242,3.836,3.836,0,0,1,0,13.457,3.813,3.813,0,0,1,3.56,9.419h.05V9.356a4.687,4.687,0,0,0,0-9.328V0a32.561,32.561,0,0,1,12.5,2.54A32.465,32.465,0,0,1,26.462,9.469a32.221,32.221,0,0,1,6.979,10.275A31.924,31.924,0,0,1,36,32.327h0c0,.008,0,.016,0,.023a3.974,3.974,0,0,1-7.921,0Z" transform="translate(29 0)"/>
      <path id="形状结合-2" data-name="形状结合" class="cls-4" d="M28.1,32.7a3.468,3.468,0,0,1,.036-.5,4.758,4.758,0,0,0-9.488.478h0A15.281,15.281,0,0,0,3.614,17.428h0v-.005A3.854,3.854,0,0,1,0,13.6a4.068,4.068,0,0,1,.986-2.831A3.56,3.56,0,0,1,3.562,9.521h.051V9.458a4.743,4.743,0,0,0,0-9.429V0A32.309,32.309,0,0,1,16.124,2.568,32.66,32.66,0,0,1,36.032,32.674h0c0,.008,0,.016,0,.023a3.974,3.974,0,0,1-7.928,0Z" transform="translate(63.071 20.528) rotate(74)"/>
    </g>
  </g>
</svg>
