<svg xmlns="http://www.w3.org/2000/svg" width="24" height="24" viewBox="0 0 24 24">
  <defs>
    <style>
      .cls-1 {
        fill: #fff;
        opacity: 0;
      }

      .cls-1, .cls-2 {
        stroke: #707070;
      }

      .cls-2, .cls-3, .cls-5 {
        fill: none;
      }

      .cls-2 {
        stroke-width: 2px;
      }

      .cls-4, .cls-6 {
        stroke: none;
      }

      .cls-6 {
        fill: #707070;
      }
    </style>
  </defs>
  <g id="组_3948" data-name="组 3948" transform="translate(-245 -38)">
    <g id="矩形_2318" data-name="矩形 2318" class="cls-1" transform="translate(245 38)">
      <rect class="cls-4" width="24" height="24"/>
      <rect class="cls-5" x="0.5" y="0.5" width="23" height="23"/>
    </g>
    <g id="组_3947" data-name="组 3947" transform="translate(0.931 -7.069)">
      <g id="椭圆_376" data-name="椭圆 376" class="cls-2" transform="translate(245.069 46.069)">
        <circle class="cls-4" cx="11" cy="11" r="11"/>
        <circle class="cls-5" cx="11" cy="11" r="10"/>
      </g>
      <g id="多边形_18" data-name="多边形 18" class="cls-3" transform="translate(261.151 51.479) rotate(90)">
        <path class="cls-4" d="M4.931.959a.8.8,0,0,1,1.318,0l4.069,5.919a.8.8,0,0,1-.659,1.253H1.521A.8.8,0,0,1,.862,6.878Z"/>
        <path class="cls-6" d="M 5.590095043182373 3.000732898712158 L 3.231749057769775 6.431052207946777 L 7.948440551757813 6.431052207946777 L 5.590095043182373 3.000732898712158 M 5.590092658996582 0.6121044158935547 C 5.84023904800415 0.6121044158935547 6.090386390686035 0.7276973724365234 6.249326705932617 0.9588823318481445 L 10.31859683990479 6.877821922302246 C 10.68352603912354 7.408632278442383 10.30351638793945 8.131052017211914 9.659366607666016 8.131052017211914 L 1.52082633972168 8.131052017211914 C 0.8766765594482422 8.131052017211914 0.4966669082641602 7.408632278442383 0.8615865707397461 6.877821922302246 L 4.930866241455078 0.9588823318481445 C 5.08980131149292 0.7276973724365234 5.339946269989014 0.6121044158935547 5.590092658996582 0.6121044158935547 Z"/>
      </g>
    </g>
  </g>
</svg>
