<svg xmlns="http://www.w3.org/2000/svg" width="24" height="24" viewBox="0 0 24 24">
  <defs>
    <style>
      .cls-1 {
        fill: #fff;
        stroke: #707070;
        opacity: 0;
      }

      .cls-2, .cls-3, .cls-5 {
        fill: none;
      }

      .cls-2 {
        stroke: #fff;
        stroke-width: 1.5px;
      }

      .cls-4, .cls-6 {
        stroke: none;
      }

      .cls-6 {
        fill: #fff;
      }
    </style>
  </defs>
  <g id="组_6087" data-name="组 6087" transform="translate(0.088 -0.186)">
    <g id="矩形_2318" data-name="矩形 2318" class="cls-1" transform="translate(-0.088 0.186)">
      <rect class="cls-4" width="24" height="24"/>
      <rect class="cls-5" x="0.5" y="0.5" width="23" height="23"/>
    </g>
    <g id="组_3947" data-name="组 3947" transform="translate(2 2)">
      <g id="椭圆_376" data-name="椭圆 376" class="cls-2" transform="translate(-0.088 0.186)">
        <circle class="cls-4" cx="10" cy="10" r="10"/>
        <circle class="cls-5" cx="10" cy="10" r="9.25"/>
      </g>
      <g id="多边形_18" data-name="多边形 18" class="cls-3" transform="translate(14.62 4.852) rotate(90)">
        <path class="cls-4" d="M4.324,1.2a1,1,0,0,1,1.648,0L9.219,5.922A1,1,0,0,1,8.4,7.488H1.9a1,1,0,0,1-.824-1.567Z"/>
        <path class="cls-6" d="M 5.148157596588135 2.647701740264893 L 2.85154914855957 5.988227844238281 L 7.444775581359863 5.988227844238281 L 5.148157596588135 2.647701740264893 M 5.148158550262451 0.7651376724243164 C 5.460841178894043 0.7651376724243164 5.773523330688477 0.9096274375915527 5.972198486328125 1.198607444763184 L 9.219328880310059 5.921697616577148 C 9.675488471984863 6.585207462310791 9.200468063354492 7.488227844238281 8.395288467407227 7.488227844238281 L 1.901028633117676 7.488227844238281 C 1.095848083496094 7.488227844238281 0.6208286285400391 6.585207462310791 1.076988220214844 5.921697616577148 L 4.324118614196777 1.198607444763184 C 4.522793769836426 0.9096274375915527 4.835475921630859 0.7651376724243164 5.148158550262451 0.7651376724243164 Z"/>
      </g>
    </g>
  </g>
</svg>
