<svg xmlns="http://www.w3.org/2000/svg" width="22" height="22" viewBox="0 0 22 22">
  <defs>
    <style>
      .cls-1 {
        fill: #fff;
        stroke: #707070;
        opacity: 0;
      }

      .cls-2, .cls-3, .cls-5 {
        fill: none;
      }

      .cls-2 {
        stroke: #707070;
        stroke-width: 1.5px;
      }

      .cls-4, .cls-6 {
        stroke: none;
      }

      .cls-6 {
        fill: #707070;
      }
    </style>
  </defs>
  <g id="组_19265" data-name="组 19265" transform="translate(-1062 -165)">
    <g id="组_19246" data-name="组 19246" transform="translate(481 -201)">
      <g id="矩形_13146" data-name="矩形 13146" class="cls-1" transform="translate(581 366)">
        <rect class="cls-4" width="22" height="22"/>
        <rect class="cls-5" x="0.5" y="0.5" width="21" height="21"/>
      </g>
    </g>
    <g id="组_3947" data-name="组 3947" transform="translate(819.539 121.539)">
      <g id="椭圆_376" data-name="椭圆 376" class="cls-2" transform="translate(245.46 46.46)">
        <circle class="cls-4" cx="8" cy="8" r="8"/>
        <circle class="cls-5" cx="8" cy="8" r="7.25"/>
      </g>
      <g id="多边形_18" data-name="多边形 18" class="cls-3" transform="translate(258.222 49.77) rotate(90)">
        <path class="cls-4" d="M3.856,1.262a1,1,0,0,1,1.668,0L8.355,5.544A1,1,0,0,1,7.521,7.1H1.86a1,1,0,0,1-.834-1.551Z"/>
        <path class="cls-6" d="M 4.690420150756836 2.720028400421143 L 2.789740562438965 5.595157146453857 L 6.591094970703125 5.595157146453857 L 4.690420150756836 2.720028400421143 M 4.690416812896729 0.813349723815918 C 5.008677959442139 0.813349723815918 5.326940536499023 0.9628620147705078 5.524620532989502 1.261887073516846 L 8.355210304260254 5.543686866760254 C 8.79469108581543 6.208497047424316 8.317950248718262 7.095157146453857 7.521010398864746 7.095157146453857 L 1.859830856323242 7.095157146453857 C 1.062891006469727 7.095157146453857 0.5861501693725586 6.208497047424316 1.025630950927734 5.543686866760254 L 3.856220722198486 1.261887073516846 C 4.053895473480225 0.9628620147705078 4.372155666351318 0.813349723815918 4.690416812896729 0.813349723815918 Z"/>
      </g>
    </g>
  </g>
</svg>
