<svg xmlns="http://www.w3.org/2000/svg" width="22" height="22" viewBox="0 0 22 22">
  <defs>
    <style>
      .cls-1 {
        fill: #fff;
        stroke: #707070;
        opacity: 0;
      }

      .cls-2 {
        fill: #666;
      }

      .cls-3 {
        stroke: none;
      }

      .cls-4 {
        fill: none;
      }
    </style>
  </defs>
  <g id="组_3981" data-name="组 3981" transform="translate(-34 -261)">
    <g id="矩形_2316" data-name="矩形 2316" class="cls-1" transform="translate(34 261)">
      <rect class="cls-3" width="22" height="22"/>
      <rect class="cls-4" x="0.5" y="0.5" width="21" height="21"/>
    </g>
    <g id="组_3943" data-name="组 3943" transform="translate(36.93 263.93)">
      <path id="路径_5513" data-name="路径 5513" class="cls-2" d="M147.347,289.073a.745.745,0,0,1-.763-.763c0-.436.327-.654.763-.763h1.309c.109,0,.109,0,.109-.109v-6.87c0-.109,0-.109-.109-.109H135.569c-.109,0-.109,0-.109.109v6.87c0,.109,0,.109.109.109h1.309a.745.745,0,0,1,.763.763c0,.436-.327.654-.763.763h-1.309a1.491,1.491,0,0,1-1.527-1.527v-6.98a1.491,1.491,0,0,1,1.527-1.527h13.087a1.491,1.491,0,0,1,1.527,1.527v6.87a1.491,1.491,0,0,1-1.527,1.527Z" transform="translate(-134.042 -275.941)"/>
      <path id="路径_5514" data-name="路径 5514" class="cls-2" d="M257.892,149.67a1.491,1.491,0,0,1-1.527-1.527v-5.235a.763.763,0,0,1,1.527,0v5.235c0,.109,0,.109.109.109h7.852c.109,0,.109,0,.109-.109v-5.235a.745.745,0,0,1,.763-.763c.436,0,.654.327.763.763v5.235a1.491,1.491,0,0,1-1.527,1.527Zm8.724-11.56a.745.745,0,0,1-.763-.763v-2.29c0-.109,0-.109-.109-.109h-7.961c-.109,0-.109,0-.109.109v2.29a.745.745,0,0,1-.763.763.729.729,0,0,1-.654-.763v-2.29a1.491,1.491,0,0,1,1.527-1.527h7.961a1.491,1.491,0,0,1,1.527,1.527v2.29A.614.614,0,0,1,266.616,138.11Z" transform="translate(-253.653 -133.53)"/>
      <path id="路径_5515" data-name="路径 5515" class="cls-2" d="M225.5,401.509a.654.654,0,1,1,0-1.309h5.344a.654.654,0,0,1,0,1.309Zm-2.835-3.053a.745.745,0,0,1-.763-.763c0-.436.327-.654.763-.763h11.015c.218,0,.327.109.545.218a.833.833,0,0,1,.218.545.745.745,0,0,1-.763.763Zm10.142-2.726a.86.86,0,0,1-.872-.872.872.872,0,1,1,1.745,0A.8.8,0,0,1,232.807,395.729Z" transform="translate(-220.03 -388.436)"/>
    </g>
  </g>
</svg>
