<svg xmlns="http://www.w3.org/2000/svg" width="40" height="40" viewBox="0 0 40 40">
  <defs>
    <style>
      .cls-1 {
        fill: #4cafe9;
      }
    </style>
  </defs>
  <path id="路径_4913" data-name="路径 4913" class="cls-1" d="M20,0A20,20,0,1,0,40,20,20,20,0,0,0,20,0Zm8.862,24.885a14.548,14.548,0,0,1-1.795,3.279s2.075.705,1.9,2.538c0,0,.069,2.045-4.432,1.9,0,0-3.167-.247-4.116-1.586h-.837c-.949,1.34-4.115,1.586-4.115,1.586-4.5.141-4.433-1.9-4.433-1.9-.176-1.833,1.9-2.538,1.9-2.538a14.569,14.569,0,0,1-1.794-3.279c-2.815,4.548-2.533-.635-2.533-.635a9.781,9.781,0,0,1,2.744-5.077c-.317-2.786.844-3.279.844-3.279C12.438,7.277,19.845,7.427,20,7.432s7.562-.155,7.806,8.463c0,0,1.161.494.844,3.279a9.772,9.772,0,0,1,2.744,5.077s.281,5.184-2.532.635Zm0,0"/>
</svg>
