<svg xmlns="http://www.w3.org/2000/svg" width="18" height="18" viewBox="0 0 18 18">
  <defs>
    <style>
      .cls-1 {
        fill: #fff;
        stroke: #707070;
        opacity: 0;
      }

      .cls-2, .cls-3, .cls-5 {
        fill: none;
      }

      .cls-2, .cls-3 {
        stroke: #333;
        stroke-miterlimit: 10;
        stroke-width: 1.2px;
      }

      .cls-3 {
        stroke-linecap: round;
      }

      .cls-4 {
        stroke: none;
      }
    </style>
  </defs>
  <g id="组_19504" data-name="组 19504" transform="translate(-1203 -290)">
    <g id="矩形_13638" data-name="矩形 13638" class="cls-1" transform="translate(1203 290)">
      <rect class="cls-4" width="18" height="18"/>
      <rect class="cls-5" x="0.5" y="0.5" width="17" height="17"/>
    </g>
    <g id="组_19475" data-name="组 19475" transform="translate(2070.169 -232.222)">
      <path id="路径_24838" data-name="路径 24838" class="cls-2" d="M-850.88,527.25l-6.414-3.59a.117.117,0,0,0-.114,0l-6.356,3.59a.117.117,0,0,0-.005.2l6.362,3.962a.117.117,0,0,0,.125,0l6.409-3.962A.117.117,0,0,0-850.88,527.25Z" transform="translate(-0.849 0.548)"/>
      <path id="路径_24839" data-name="路径 24839" class="cls-3" d="M-864.784,588.784l6.586,3.687a.117.117,0,0,0,.114,0l6.528-3.628" transform="translate(0 -57.34)"/>
      <path id="路径_24840" data-name="路径 24840" class="cls-3" d="M-864.784,616.784l6.586,3.687a.117.117,0,0,0,.114,0l6.528-3.628" transform="translate(0 -82.234)"/>
    </g>
  </g>
</svg>
