<svg xmlns="http://www.w3.org/2000/svg" width="35" height="30" viewBox="0 0 35 30">
  <g id="组_21726" data-name="组 21726" transform="translate(-873 -655)">
    <g id="矩形_13070" data-name="矩形 13070" transform="translate(873 655)" fill="#fff" stroke="#707070" stroke-width="1" opacity="0">
      <rect width="35" height="30" stroke="none"/>
      <rect x="0.5" y="0.5" width="34" height="29" fill="none"/>
    </g>
    <g id="组_18960" data-name="组 18960" transform="translate(51.5)">
      <g id="椭圆_1794" data-name="椭圆 1794" transform="translate(824 655)" fill="none" stroke="#fff" stroke-width="1.3">
        <circle cx="15" cy="15" r="15" stroke="none"/>
        <circle cx="15" cy="15" r="14.35" fill="none"/>
      </g>
      <g id="椭圆_1796" data-name="椭圆 1796" transform="translate(824 662.999)" fill="none" stroke="#fff" stroke-width="1.3">
        <circle cx="7" cy="7" r="7" stroke="none"/>
        <circle cx="7" cy="7" r="6.35" fill="none"/>
      </g>
      <g id="路径_26196" data-name="路径 26196" transform="translate(824 658.5)" fill="none">
        <path d="M11.5,0A11.5,11.5,0,1,1,0,11.5,11.5,11.5,0,0,1,11.5,0Z" stroke="none"/>
        <path d="M 11.5 1.299999237060547 C 5.875699996948242 1.299999237060547 1.299999237060547 5.875699996948242 1.299999237060547 11.5 C 1.299999237060547 17.12430000305176 5.875699996948242 21.70000076293945 11.5 21.70000076293945 C 17.12430000305176 21.70000076293945 21.70000076293945 17.12430000305176 21.70000076293945 11.5 C 21.70000076293945 5.875699996948242 17.12430000305176 1.299999237060547 11.5 1.299999237060547 M 11.5 0 C 17.85127067565918 0 23 5.14872932434082 23 11.5 C 23 17.85127067565918 17.85127067565918 23 11.5 23 C 5.14872932434082 23 0 17.85127067565918 0 11.5 C 0 5.14872932434082 5.14872932434082 0 11.5 0 Z" stroke="none" fill="#fff"/>
      </g>
    </g>
  </g>
</svg>
