<svg xmlns="http://www.w3.org/2000/svg" width="18" height="18" viewBox="0 0 18 18">
  <defs>
    <style>
      .cls-1 {
        fill: #fff;
        stroke: #707070;
        opacity: 0;
      }

      .cls-2 {
        fill: #333;
      }

      .cls-3, .cls-4, .cls-6 {
        fill: none;
      }

      .cls-3, .cls-4 {
        stroke: #333;
        stroke-width: 1.2px;
      }

      .cls-3 {
        stroke-miterlimit: 10;
      }

      .cls-5 {
        stroke: none;
      }
    </style>
  </defs>
  <g id="组_19515" data-name="组 19515" transform="translate(-1266 -376)">
    <g id="矩形_13705" data-name="矩形 13705" class="cls-1" transform="translate(1266 376)">
      <rect class="cls-5" width="18" height="18"/>
      <rect class="cls-6" x="0.5" y="0.5" width="17" height="17"/>
    </g>
    <g id="组_19497" data-name="组 19497" transform="translate(3656.981 -219.867)">
      <rect id="矩形_13699" data-name="矩形 13699" class="cls-2" width="15.037" height="1.263" rx="0.632" transform="translate(-2389.535 599.98)"/>
      <path id="矩形_13700" data-name="矩形 13700" class="cls-3" d="M0,0H10.534a0,0,0,0,1,0,0V9.036a2,2,0,0,1-2,2H2a2,2,0,0,1-2-2V0A0,0,0,0,1,0,0Z" transform="translate(-2387.123 600.603)"/>
      <path id="路径_24850" data-name="路径 24850" class="cls-4" d="M1.053,0H5.97A1.053,1.053,0,0,1,7.023,1.053V2.512H0V1.053A1.053,1.053,0,0,1,1.053,0Z" transform="translate(-2385.528 598.094)"/>
      <rect id="矩形_13702" data-name="矩形 13702" class="cls-2" width="1.129" height="6.521" rx="0.565" transform="translate(-2384.532 602.609)"/>
      <rect id="矩形_13703" data-name="矩形 13703" class="cls-2" width="1.129" height="6.521" rx="0.565" transform="translate(-2382.419 602.609)"/>
      <rect id="矩形_13704" data-name="矩形 13704" class="cls-2" width="1.129" height="6.521" rx="0.565" transform="translate(-2380.308 602.609)"/>
    </g>
  </g>
</svg>
