<svg xmlns="http://www.w3.org/2000/svg" width="22" height="22" viewBox="0 0 22 22">
  <defs>
    <style>
      .cls-1 {
        fill: #fff;
        stroke: #707070;
        opacity: 0;
      }

      .cls-2 {
        fill: #666;
      }

      .cls-3 {
        stroke: none;
      }

      .cls-4 {
        fill: none;
      }
    </style>
  </defs>
  <g id="组_3992" data-name="组 3992" transform="translate(-1514 -260)">
    <g id="矩形_2337" data-name="矩形 2337" class="cls-1" transform="translate(1514 260)">
      <rect class="cls-3" width="22" height="22"/>
      <rect class="cls-4" x="0.5" y="0.5" width="21" height="21"/>
    </g>
    <path id="路径_5542" data-name="路径 5542" class="cls-2" d="M18.4,13.7A2.214,2.214,0,0,1,16.444,17H2.166A2.2,2.2,0,0,1,.3,13.7L7.485,1.133a2.1,2.1,0,0,1,3.733,0L18.4,13.7Zm-1.462.867-.013-.023L9.742,1.978l-.048-.091a.407.407,0,0,0-.684,0l-.049.091-7.2,12.585a.506.506,0,0,0,.4.739H16.444a.516.516,0,0,0,.5-.739ZM9.266,5.1a.69.69,0,0,0-.765.583V9.617a.69.69,0,0,0,.765.584h.17a.69.69,0,0,0,.765-.584V5.684A.69.69,0,0,0,9.436,5.1h-.17ZM8.5,12.732a.832.832,0,0,0,.249.588.863.863,0,0,0,1.2,0,.819.819,0,0,0,0-1.176.863.863,0,0,0-1.2,0,.832.832,0,0,0-.249.588Z" transform="translate(1516.65 262.5)"/>
  </g>
</svg>
