<svg id="组_19817" data-name="组 19817" xmlns="http://www.w3.org/2000/svg" width="35" height="30" viewBox="0 0 35 30">
  <defs>
    <style>
      .cls-1 {
        fill: #333;
      }

      .cls-2, .cls-3 {
        fill: none;
        stroke: #333;
        stroke-width: 1.3px;
      }

      .cls-3 {
        stroke-miterlimit: 10;
      }
    </style>
  </defs>
  <g id="组_4726" data-name="组 4726">
    <g id="组_4722" data-name="组 4722">
      <rect id="矩形_526" data-name="矩形 526" class="cls-1" width="12" height="6" transform="translate(0 24)"/>
      <rect id="矩形_531" data-name="矩形 531" class="cls-1" width="12" height="6" transform="translate(23 24)"/>
      <rect id="矩形_529" data-name="矩形 529" class="cls-1" width="12" height="6" transform="translate(12 12)"/>
      <rect id="矩形_532" data-name="矩形 532" class="cls-1" width="12" height="6" transform="translate(23)"/>
      <path id="路径_731" data-name="路径 731" class="cls-2" d="M-13573.332,7953.677h-6.245v-23.835h7.138" transform="translate(13599.016 -7926.52)"/>
      <path id="路径_736" data-name="路径 736" class="cls-2" d="M-13578.684,7953.677h6.245v-23.835h-7.138" transform="translate(13588.015 -7926.52)"/>
    </g>
    <g id="组_4724" data-name="组 4724" transform="translate(27.522 8.586)">
      <rect id="矩形_2490" data-name="矩形 2490" class="cls-1" width="1.3" height="12" transform="translate(2.178)"/>
      <g id="组_4723" data-name="组 4723" transform="translate(2.828 13.166) rotate(-135)">
        <rect id="矩形_2491" data-name="矩形 2491" class="cls-1" width="1.3" height="4" transform="translate(0.006 0)"/>
        <rect id="矩形_2492" data-name="矩形 2492" class="cls-1" width="1.3" height="4" transform="translate(0 1.307) rotate(-90)"/>
      </g>
    </g>
  </g>
  <g id="组_4733" data-name="组 4733" transform="translate(3.489 3.318)">
    <path id="路径_5586" data-name="路径 5586" class="cls-3" d="M438.827,200.431v-5.3h10.095v5.3h0" transform="translate(-436.832 -195.133)"/>
    <path id="路径_5587" data-name="路径 5587" class="cls-1" d="M3.947,2.526,0,2.462,1.918,0Z" transform="matrix(-1, 0.017, -0.017, -1, 3.99, 6.934)"/>
  </g>
</svg>
