<svg xmlns="http://www.w3.org/2000/svg" width="16" height="16" viewBox="0 0 16 16">
  <defs>
    <style>
      .cls-1 {
        fill: #fff;
        stroke: #707070;
        opacity: 0;
      }

      .cls-2 {
        fill: #333;
      }

      .cls-3 {
        stroke: none;
      }

      .cls-4 {
        fill: none;
      }
    </style>
  </defs>
  <g id="组_3683" data-name="组 3683" transform="translate(-358 -145)">
    <g id="矩形_2307" data-name="矩形 2307" class="cls-1" transform="translate(358 145)">
      <rect class="cls-3" width="16" height="16"/>
      <rect class="cls-4" x="0.5" y="0.5" width="15" height="15"/>
    </g>
    <path id="路径_4926" data-name="路径 4926" class="cls-2" d="M260.249,4.224a.352.352,0,0,0-.257.116l-3.885,4.224a.421.421,0,0,0,.009.55.344.344,0,0,0,.506.009L260.507,4.9a.418.418,0,0,0,0-.56.353.353,0,0,0-.257-.116ZM256.364,0a.352.352,0,0,0-.257.116A.411.411,0,0,0,256,.4a.41.41,0,0,0,.108.28L259.992,4.9a.344.344,0,0,0,.506-.01.421.421,0,0,0,.009-.55L256.621.116A.353.353,0,0,0,256.364,0Z" transform="translate(107.694 148.385)"/>
  </g>
</svg>
