<svg xmlns="http://www.w3.org/2000/svg" width="35" height="30" viewBox="0 0 35 30">
  <defs>
    <style>
      .cls-1, .cls-2 {
        fill: #fff;
      }

      .cls-1 {
        stroke: #707070;
        opacity: 0;
      }

      .cls-3, .cls-5 {
        fill: none;
      }

      .cls-3 {
        stroke: #fff;
        stroke-linecap: round;
        stroke-miterlimit: 10;
        stroke-width: 1.5px;
      }

      .cls-4 {
        stroke: none;
      }
    </style>
  </defs>
  <g id="组_19957" data-name="组 19957" transform="translate(-271 -396)">
    <g id="矩形_12548" data-name="矩形 12548" class="cls-1" transform="translate(271 396)">
      <rect class="cls-4" width="35" height="30"/>
      <rect class="cls-5" x="0.5" y="0.5" width="34" height="29"/>
    </g>
    <g id="组_19761" data-name="组 19761" transform="translate(6809.598 2853.781)">
      <rect id="矩形_13792" data-name="矩形 13792" class="cls-2" width="20.109" height="1.5" rx="0.75" transform="translate(-6533 -2443.532)"/>
      <path id="路径_24914" data-name="路径 24914" class="cls-3" d="M-6497.481-2426.579h-11.58c-.519,0-.938-.753-.938-1.681v-19.058c0-.929.419-1.681.938-1.681h11.58" transform="translate(-15.784 -4.992)"/>
      <path id="多边形_130" data-name="多边形 130" class="cls-2" d="M2.549.719a.5.5,0,0,1,.859,0l2.1,3.514a.5.5,0,0,1-.429.756H.881a.5.5,0,0,1-.429-.756Z" transform="translate(-6509.196 -2456.971) rotate(90)"/>
      <path id="多边形_131" data-name="多边形 131" class="cls-2" d="M2.549.719a.5.5,0,0,1,.859,0l2.1,3.514a.5.5,0,0,1-.429.756H.881a.5.5,0,0,1-.429-.756Z" transform="translate(-6509.196 -2445.76) rotate(90)"/>
      <path id="多边形_132" data-name="多边形 132" class="cls-2" d="M2.549.719a.5.5,0,0,1,.859,0l2.1,3.514a.5.5,0,0,1-.429.756H.881a.5.5,0,0,1-.429-.756Z" transform="translate(-6509.196 -2434.55) rotate(90)"/>
    </g>
  </g>
</svg>
