<svg xmlns="http://www.w3.org/2000/svg" width="89" height="89" viewBox="0 0 89 89">
  <defs>
    <style>
      .cls-1 {
        fill: #d8d8d8;
        stroke: #979797;
        stroke-miterlimit: 10;
        opacity: 0;
      }

      .cls-2 {
        fill: #9274ed;
      }

      .cls-3 {
        fill: #f09ace;
      }

      .cls-4 {
        fill: #ff9f7f;
      }
    </style>
  </defs>
  <g id="编组_20" data-name="编组 20" transform="translate(0.5 0.5)">
    <rect id="矩形备份_6" data-name="矩形备份 6" class="cls-1" width="88" height="88"/>
    <g id="编组_14" data-name="编组 14" transform="translate(12 12)">
      <g id="编组_13" data-name="编组 13" transform="translate(15 15)">
        <g id="编组_12备份" data-name="编组 12备份" transform="translate(0 2)">
          <path id="形状结合" class="cls-2" d="M16,32A16,16,0,0,1,4.686,4.686,15.9,15.9,0,0,1,16,0V16H32A16,16,0,0,1,16,32Z"/>
          <path id="形状结合-2" data-name="形状结合" class="cls-3" d="M0,16V0A16,16,0,0,1,16,16Z" transform="translate(32 16) rotate(90)"/>
        </g>
        <path id="形状结合-3" data-name="形状结合" class="cls-4" d="M0,16V0A16,16,0,0,1,16,16Z" transform="translate(18)"/>
      </g>
      <path id="形状结合-4" data-name="形状结合" class="cls-2" d="M30.833,62a30.659,30.659,0,0,1-21.8-9.079,31.084,31.084,0,0,1,0-43.842A30.659,30.659,0,0,1,30.833,0H31V12h-.167a19,19,0,1,0,19,19H61.667A31.011,31.011,0,0,1,42.835,59.564,30.5,30.5,0,0,1,30.833,62Z" transform="translate(0 2)"/>
      <path id="形状结合-5" data-name="形状结合" class="cls-4" d="M19,31A19.022,19.022,0,0,0,.167,12V0A30.493,30.493,0,0,1,12,2.436a30.721,30.721,0,0,1,9.8,6.643,30.893,30.893,0,0,1,6.608,9.854A30.938,30.938,0,0,1,30.834,31Z" transform="translate(33)"/>
      <path id="形状结合-6" data-name="形状结合" class="cls-3" d="M19,31A19.022,19.022,0,0,0,.167,12V0A30.493,30.493,0,0,1,12,2.436a30.721,30.721,0,0,1,9.8,6.643,30.893,30.893,0,0,1,6.608,9.854A30.938,30.938,0,0,1,30.834,31Z" transform="matrix(0.017, 1, -1, 0.017, 61.829, 32.459)"/>
    </g>
  </g>
</svg>
