<svg id="组_18585" data-name="组 18585" xmlns="http://www.w3.org/2000/svg" width="16" height="16" viewBox="0 0 16 16">
  <defs>
    <style>
      .cls-1 {
        fill: #fff;
        stroke: #707070;
        opacity: 0;
      }

      .cls-2 {
        fill: #666;
      }

      .cls-3 {
        stroke: none;
      }

      .cls-4 {
        fill: none;
      }
    </style>
  </defs>
  <g id="矩形_4257" data-name="矩形 4257" class="cls-1">
    <rect class="cls-3" width="16" height="16"/>
    <rect class="cls-4" x="0.5" y="0.5" width="15" height="15"/>
  </g>
  <path id="路径_24232" data-name="路径 24232" class="cls-2" d="M5.8,54.173h6.163l-1.74-1.74a.718.718,0,0,1,1.015-1.015l3.045,3.045a.783.783,0,0,1,.218.508.658.658,0,0,1-.218.508l-3.045,3.045a.718.718,0,1,1-1.015-1.015l2.1-2.1H5.8c-2.465,0-4.5,1.668-4.5,3.7s2.03,3.7,4.5,3.7h5.148a.771.771,0,0,1,.653.725.65.65,0,0,1-.653.653H5.8c-3.19,0-5.8-2.248-5.8-5S2.61,54.173,5.8,54.173Z" transform="translate(0.749 -49.69)"/>
</svg>
