<svg xmlns="http://www.w3.org/2000/svg" width="18" height="18" viewBox="0 0 18 18">
  <defs>
    <style>
      .cls-1, .cls-3 {
        fill: #fff;
      }

      .cls-1 {
        stroke: #707070;
        opacity: 0;
      }

      .cls-2, .cls-5 {
        fill: none;
      }

      .cls-2 {
        stroke: #fff;
        stroke-miterlimit: 10;
        stroke-width: 1.2px;
      }

      .cls-4 {
        stroke: none;
      }
    </style>
  </defs>
  <g id="组_19548" data-name="组 19548" transform="translate(-1203 -354)">
    <g id="矩形_13644" data-name="矩形 13644" class="cls-1" transform="translate(1203 354)">
      <rect class="cls-4" width="18" height="18"/>
      <rect class="cls-5" x="0.5" y="0.5" width="17" height="17"/>
    </g>
    <g id="组_19481" data-name="组 19481" transform="translate(2563.969 -166.615)">
      <path id="路径_24843" data-name="路径 24843" class="cls-2" d="M-1346.721,534.722h-11.148a.133.133,0,0,1-.131-.135V523.135a.133.133,0,0,1,.131-.135h9.015a.13.13,0,0,1,.1.051l2.133,2.774a.139.139,0,0,1,.028.084v8.678A.133.133,0,0,1-1346.721,534.722Z" transform="translate(0.324 0.755)"/>
      <path id="矩形_13651" data-name="矩形 13651" class="cls-2" d="M0,0H6.314a1,1,0,0,1,1,1V2.661a1,1,0,0,1-1,1H1a1,1,0,0,1-1-1V0A0,0,0,0,1,0,0Z" transform="translate(-1355.777 524)"/>
      <rect id="矩形_13652" data-name="矩形 13652" class="cls-3" width="4.876" height="1.2" rx="0.6" transform="translate(-1355.06 529.242)"/>
      <rect id="矩形_13653" data-name="矩形 13653" class="cls-3" width="6.597" height="1.2" rx="0.6" transform="translate(-1355.06 531.393)"/>
    </g>
  </g>
</svg>
