<svg xmlns="http://www.w3.org/2000/svg" width="22" height="22" viewBox="0 0 22 22">
  <defs>
    <style>
      .cls-1 {
        fill: #fff;
        stroke: #707070;
        opacity: 0;
      }

      .cls-2 {
        fill: #666;
      }

      .cls-3 {
        stroke: none;
      }

      .cls-4 {
        fill: none;
      }
    </style>
  </defs>
  <g id="组_3939" data-name="组 3939" transform="translate(-31.418 -97.418)">
    <g id="矩形_2312" data-name="矩形 2312" class="cls-1" transform="translate(31.418 97.418)">
      <rect class="cls-3" width="22" height="22"/>
      <rect class="cls-4" x="0.5" y="0.5" width="21" height="21"/>
    </g>
    <path id="路径_542" data-name="路径 542" class="cls-2" d="M11.455,0c1.116,0,4.717,3.6,4.717,4.717v9.434a2.022,2.022,0,0,1-2.022,2.022H2.022A2.022,2.022,0,0,1,0,14.151V2.022A2.022,2.022,0,0,1,2.022,0ZM2.7,1.348H2.022a.674.674,0,0,0-.674.674V14.151a.674.674,0,0,0,.674.674H14.151a.674.674,0,0,0,.674-.674V4.717a6.948,6.948,0,0,0-1.348-1.624v2.3a2.022,2.022,0,0,1-1.9,2.018l-.118,0H4.717A2.022,2.022,0,0,1,2.7,5.509l0-.118Zm8.76,10.781a.674.674,0,1,1,0,1.348H4.717a.674.674,0,1,1,0-1.348Zm-2.022-2.7a.674.674,0,1,1,0,1.348H4.717a.674.674,0,1,1,0-1.348Zm2.022-8.086H4.043V5.391a.674.674,0,0,0,.595.669l.079,0h6.738a.674.674,0,0,0,.669-.595l0-.079V1.814a2.062,2.062,0,0,0-.674-.466Z" transform="translate(34.333 100.332)"/>
  </g>
</svg>
