<svg xmlns="http://www.w3.org/2000/svg" width="22" height="22" viewBox="0 0 22 22">
  <defs>
    <style>
      .cls-1, .cls-3 {
        fill: #fff;
      }

      .cls-1 {
        stroke: #707070;
        opacity: 0;
      }

      .cls-2, .cls-5 {
        fill: none;
      }

      .cls-2 {
        stroke: #fff;
        stroke-miterlimit: 10;
        stroke-width: 1.5px;
      }

      .cls-4 {
        stroke: none;
      }
    </style>
  </defs>
  <g id="组_20130" data-name="组 20130" transform="translate(-185 -233)">
    <g id="矩形_14006" data-name="矩形 14006" class="cls-1" transform="translate(185 233)">
      <rect class="cls-4" width="22" height="22"/>
      <rect class="cls-5" x="0.5" y="0.5" width="21" height="21"/>
    </g>
    <g id="组_20112" data-name="组 20112" transform="translate(5606.5 -338.875)">
      <rect id="矩形_14004" data-name="矩形 14004" class="cls-2" width="13.002" height="12.75" rx="1" transform="translate(-5416.918 576.5)"/>
      <path id="矩形_14005" data-name="矩形 14005" class="cls-2" d="M0,0H6.817a0,0,0,0,1,0,0V4.522a1,1,0,0,1-1,1H1a1,1,0,0,1-1-1V0A0,0,0,0,1,0,0Z" transform="translate(-5413.888 576.5)"/>
      <rect id="矩形_14007" data-name="矩形 14007" class="cls-3" width="1.5" height="2.933" rx="0.75" transform="translate(-5410.498 577.794)"/>
    </g>
  </g>
</svg>
