<svg xmlns="http://www.w3.org/2000/svg" width="18" height="18" viewBox="0 0 18 18">
  <defs>
    <style>
      .cls-1 {
        fill: #fff;
        stroke: #707070;
        opacity: 0;
      }

      .cls-2, .cls-5 {
        fill: none;
      }

      .cls-2 {
        stroke: #333;
        stroke-miterlimit: 10;
        stroke-width: 1.2px;
      }

      .cls-3 {
        fill: #333;
      }

      .cls-4 {
        stroke: none;
      }
    </style>
  </defs>
  <g id="组_19510" data-name="组 19510" transform="translate(-1203 -354)">
    <g id="矩形_13644" data-name="矩形 13644" class="cls-1" transform="translate(1203 354)">
      <rect class="cls-4" width="18" height="18"/>
      <rect class="cls-5" x="0.5" y="0.5" width="17" height="17"/>
    </g>
    <g id="组_19481" data-name="组 19481" transform="translate(2563.488 -167.109)">
      <path id="路径_24843" data-name="路径 24843" class="cls-2" d="M-1345.771,535.709h-12.087a.144.144,0,0,1-.142-.146V523.146a.144.144,0,0,1,.142-.146h9.774a.141.141,0,0,1,.112.055l2.313,3.008a.15.15,0,0,1,.031.091v9.409A.144.144,0,0,1-1345.771,535.709Z" transform="translate(0.324 0.755)"/>
      <path id="矩形_13651" data-name="矩形 13651" class="cls-2" d="M0,0H6.931a1,1,0,0,1,1,1V2.969a1,1,0,0,1-1,1H1a1,1,0,0,1-1-1V0A0,0,0,0,1,0,0Z" transform="translate(-1355.617 524.021)"/>
      <rect id="矩形_13652" data-name="矩形 13652" class="cls-3" width="5.287" height="1.2" rx="0.6" transform="translate(-1354.84 529.705)"/>
      <rect id="矩形_13653" data-name="矩形 13653" class="cls-3" width="7.153" height="1.2" rx="0.6" transform="translate(-1354.84 532.037)"/>
    </g>
  </g>
</svg>
