<svg xmlns="http://www.w3.org/2000/svg" width="22" height="22" viewBox="0 0 22 22">
  <defs>
    <style>
      .cls-1 {
        fill: #fff;
        stroke: #707070;
        opacity: 0;
      }

      .cls-2 {
        fill: #666;
      }

      .cls-3 {
        stroke: none;
      }

      .cls-4 {
        fill: none;
      }
    </style>
  </defs>
  <g id="组_3986" data-name="组 3986" transform="translate(-1604 -230)">
    <g id="矩形_2332" data-name="矩形 2332" class="cls-1" transform="translate(1604 230)">
      <rect class="cls-3" width="22" height="22"/>
      <rect class="cls-4" x="0.5" y="0.5" width="21" height="21"/>
    </g>
    <path id="路径_5533" data-name="路径 5533" class="cls-2" d="M115.442,102.4a3.01,3.01,0,0,1,3.01,3.01v10.032a3.01,3.01,0,0,1-3.01,3.01H105.41a3.01,3.01,0,0,1-3.01-3.01V105.41a3.01,3.01,0,0,1,3.01-3.01Zm0,1.5h-.314v3.762a.752.752,0,0,1-.752.752h-7.9a.752.752,0,0,1-.752-.752V103.9h-.314a1.5,1.5,0,0,0-1.5,1.48v10.057a1.505,1.505,0,0,0,1.48,1.5h10.057a1.5,1.5,0,0,0,1.5-1.48V105.41a1.5,1.5,0,0,0-1.48-1.5h-.025Zm-1.651,0h-6.729v3.177h6.728V103.9Zm-1.421.836a.209.209,0,0,1,.209.209v.92a.209.209,0,0,1-.209.209h-.92a.209.209,0,0,1-.209-.209v-.919a.209.209,0,0,1,.209-.209Z" transform="translate(1504.574 130.174)"/>
  </g>
</svg>
