<svg xmlns="http://www.w3.org/2000/svg" width="24" height="24" viewBox="0 0 24 24">
  <defs>
    <style>
      .cls-1 {
        fill: #fff;
        stroke: #707070;
        opacity: 0;
      }

      .cls-2 {
        fill: #707070;
      }

      .cls-3 {
        stroke: none;
      }

      .cls-4 {
        fill: none;
      }
    </style>
  </defs>
  <g id="组_5922" data-name="组 5922" transform="translate(-0.295 -0.186)">
    <g id="矩形_3111" data-name="矩形 3111" class="cls-1" transform="translate(0.295 0.186)">
      <rect class="cls-3" width="24" height="24"/>
      <rect class="cls-4" x="0.5" y="0.5" width="23" height="23"/>
    </g>
    <path id="路径_7280" data-name="路径 7280" class="cls-2" d="M12.725,0c1.24,0,5.24,4,5.24,5.24V15.719a2.246,2.246,0,0,1-2.246,2.246H2.246A2.246,2.246,0,0,1,0,15.719V2.246A2.246,2.246,0,0,1,2.246,0ZM2.994,1.5H2.246a.749.749,0,0,0-.749.749V15.719a.749.749,0,0,0,.749.749H15.719a.749.749,0,0,0,.749-.749V5.24a7.7,7.7,0,0,0-1.5-1.8V5.988a2.246,2.246,0,0,1-2.114,2.241l-.132,0H5.24A2.246,2.246,0,0,1,3,6.12l0-.132V1.5Zm9.731,11.977a.749.749,0,1,1,0,1.5H5.24a.749.749,0,1,1,0-1.5Zm-2.246-2.994a.749.749,0,0,1,0,1.5H5.24a.749.749,0,1,1,0-1.5ZM12.725,1.5H4.491V5.988a.749.749,0,0,0,.66.744l.088,0h7.485a.749.749,0,0,0,.743-.66l.006-.088V2.015a2.283,2.283,0,0,0-.749-.518Z" transform="translate(3.018 3.018)"/>
  </g>
</svg>
