<svg xmlns="http://www.w3.org/2000/svg" width="24" height="24" viewBox="0 0 24 24">
  <defs>
    <style>
      .cls-1 {
        fill: #fff;
        stroke: #707070;
        opacity: 0;
      }

      .cls-2 {
        fill: #707070;
      }

      .cls-3 {
        stroke: none;
      }

      .cls-4 {
        fill: none;
      }
    </style>
  </defs>
  <g id="组_5925" data-name="组 5925" transform="translate(-567 -908)">
    <g id="矩形_3113" data-name="矩形 3113" class="cls-1" transform="translate(567 908)">
      <rect class="cls-3" width="24" height="24"/>
      <rect class="cls-4" x="0.5" y="0.5" width="23" height="23"/>
    </g>
    <path id="路径_7282" data-name="路径 7282" class="cls-2" d="M74,64A10,10,0,1,0,84,74,10,10,0,0,0,74,64Zm6.061,16.061A8.54,8.54,0,1,1,81.9,77.336,8.545,8.545,0,0,1,80.061,80.061Zm-1.7-9.4-5.784,5.784L69.634,73.5a.714.714,0,0,0-1.01,1.01l3.452,3.452a.714.714,0,0,0,1.01,0l6.289-6.289a.714.714,0,1,0-1.01-1.01Z" transform="translate(505 846.246)"/>
  </g>
</svg>
