<svg xmlns="http://www.w3.org/2000/svg" width="20" height="20" viewBox="0 0 20 20">
  <defs>
    <style>
      .cls-1 {
        fill: #fff;
        stroke: #707070;
        opacity: 0;
      }

      .cls-2, .cls-6 {
        fill: none;
      }

      .cls-2 {
        stroke: #333;
        stroke-linecap: round;
        stroke-miterlimit: 10;
        stroke-width: 1.25px;
      }

      .cls-3 {
        fill: #fd5438;
      }

      .cls-4 {
        fill: #333;
      }

      .cls-5 {
        stroke: none;
      }
    </style>
  </defs>
  <g id="组_21022" data-name="组 21022" transform="translate(-50 -68)">
    <g id="矩形_13983" data-name="矩形 13983" class="cls-1" transform="translate(50 68)">
      <rect class="cls-5" width="20" height="20"/>
      <rect class="cls-6" x="0.5" y="0.5" width="19" height="19"/>
    </g>
    <g id="组_19981" data-name="组 19981" transform="translate(53.381 71.175)">
      <path id="路径_24963" data-name="路径 24963" class="cls-2" d="M-2725.5-870.783v-4.2a.546.546,0,0,1,.573-.515h3.69" transform="translate(2725.704 875.5)"/>
      <path id="路径_24964" data-name="路径 24964" class="cls-2" d="M-2689.238-870.783v-4.2a.546.546,0,0,0-.572-.515h-3.69" transform="translate(2702.851 875.5)"/>
      <path id="路径_24965" data-name="路径 24965" class="cls-2" d="M-2725.5-839.5v4.2a.546.546,0,0,0,.573.514h3.69" transform="translate(2725.704 848.432)"/>
      <path id="路径_24966" data-name="路径 24966" class="cls-2" d="M-2689.238-839.5v4.2a.546.546,0,0,1-.572.514h-3.69" transform="translate(2702.851 848.432)"/>
      <rect id="矩形_14183" data-name="矩形 14183" class="cls-3" width="10.195" height="10.195" rx="1" transform="translate(1.522 1.738)"/>
      <rect id="矩形_13982" data-name="矩形 13982" class="cls-4" width="14.123" height="1.2" rx="0.6" transform="translate(-0.442 6.235)"/>
    </g>
  </g>
</svg>
