<svg xmlns="http://www.w3.org/2000/svg" width="43.261" height="26.124" viewBox="0 0 43.261 26.124">
  <defs>
    <style>
      .cls-1 {
        fill: #ec705a;
      }

      .cls-2 {
        fill: #fff;
      }
    </style>
  </defs>
  <g id="组_3687" data-name="组 3687" transform="translate(-749.74 -706.876)">
    <path id="路径_4866" data-name="路径 4866" class="cls-1" d="M477.8,887.576l15.007-9.54L521.063,861.5v21.848c0,2.337-2.71,4.233-6.059,4.24l-18.744.036Z" transform="translate(271.938 -154.624)"/>
    <path id="路径_4867" data-name="路径 4867" class="cls-2" d="M346.635,257.46a.66.66,0,0,0-.916-.018.646.646,0,0,0-.04.908l2.979,3.147a.825.825,0,0,0,1.138.055l8.268-7.176a.646.646,0,0,0,.061-.917.66.66,0,0,0-.925-.061l-7.911,6.867Z" transform="translate(431.227 466.702)"/>
  </g>
</svg>
