<svg xmlns="http://www.w3.org/2000/svg" width="18" height="18" viewBox="0 0 18 18">
  <g id="组_6748" data-name="组 6748" transform="translate(-63.8 -64)">
    <path id="路径_7627" data-name="路径 7627" d="M548.7,901.8l0,0,0,0m0,.363v0m0,.372h0" transform="translate(-475.159 -820.947)" fill="#4c4c4c"/>
    <path id="路径_7628" data-name="路径 7628" d="M72.8,73m-9,0a9,9,0,1,0,9-9A9,9,0,0,0,63.8,73Z" transform="translate(0 0)" fill="#69c0ff"/>
    <path id="路径_7629" data-name="路径 7629" d="M72.8,73m-9,0a9,9,0,1,0,9-9A9,9,0,0,0,63.8,73Z" transform="translate(0 0)" fill="#ff3434"/>
    <path id="路径_7630" data-name="路径 7630" d="M278.336,338.08a1.016,1.016,0,0,0-1.4,0l-4.432,4.277-2.1-2.025a1.007,1.007,0,0,0-.713-.292.973.973,0,0,0-.99.956.939.939,0,0,0,.3.688l2.8,2.7a1.016,1.016,0,0,0,1.4,0l5.133-4.955a.93.93,0,0,0,0-1.35Z" transform="translate(-200.863 -268.232)" fill="#fff"/>
  </g>
</svg>
