<svg xmlns="http://www.w3.org/2000/svg" width="32.351" height="30.331" viewBox="0 0 32.351 30.331">
  <defs>
    <style>
      .cls-1 {
        fill: #ec705a;
      }

      .cls-2 {
        fill: #fff;
      }
    </style>
  </defs>
  <g id="组_3688" data-name="组 3688" transform="translate(-732.648 -508.999)">
    <path id="路径_4868" data-name="路径 4868" class="cls-1" d="M477.8,893.791l10.521-11.814L508.133,861.5v27.056c0,2.894-1.9,5.242-4.248,5.251l-13.141.045Z" transform="translate(-128.852 1017.132) rotate(-90)"/>
    <path id="路径_4869" data-name="路径 4869" class="cls-2" d="M346.567,257.2a.62.62,0,0,0-.861-.017.607.607,0,0,0-.037.853l2.8,2.956a.775.775,0,0,0,1.069.052l7.766-6.741a.607.607,0,0,0,.058-.862.62.62,0,0,0-.869-.057l-7.431,6.45Z" transform="translate(403.486 259.764)"/>
  </g>
</svg>
