<svg xmlns="http://www.w3.org/2000/svg" width="32" height="32" viewBox="0 0 32 32">
  <defs>
    <style>
      .cls-1, .cls-2 {
        fill: #fff;
      }

      .cls-1 {
        stroke: #707070;
        opacity: 0;
      }

      .cls-3 {
        stroke: none;
      }

      .cls-4 {
        fill: none;
      }
    </style>
  </defs>
  <g id="组_3692" data-name="组 3692" transform="translate(-814 -250)">
    <g id="矩形_2314" data-name="矩形 2314" class="cls-1" transform="translate(814 250)">
      <rect class="cls-3" width="32" height="32"/>
      <rect class="cls-4" x="0.5" y="0.5" width="31" height="31"/>
    </g>
    <path id="路径_4929" data-name="路径 4929" class="cls-2" d="M78.859,64.565A14.294,14.294,0,1,0,93.153,78.86,14.294,14.294,0,0,0,78.859,64.565Zm7.882,9.929-9.648,9.648a1.4,1.4,0,0,1-1.667,0l-4.45-4.45a.975.975,0,0,1,1.378-1.378L76.26,82.22l9.1-9.1a.975.975,0,0,1,1.378,1.378Z" transform="translate(751.577 187.575)"/>
  </g>
</svg>
