<svg xmlns="http://www.w3.org/2000/svg" width="16" height="16" viewBox="0 0 16 16">
  <defs>
    <style>
      .cls-1 {
        fill: #fff;
        stroke: #707070;
        opacity: 0;
      }

      .cls-2 {
        fill: #666;
      }

      .cls-3 {
        stroke: none;
      }

      .cls-4 {
        fill: none;
      }
    </style>
  </defs>
  <g id="组_4703" data-name="组 4703" transform="translate(-218.97 -667.97)">
    <g id="矩形_1470" data-name="矩形 1470" class="cls-1" transform="translate(218.97 667.97)">
      <rect class="cls-3" width="16" height="16"/>
      <rect class="cls-4" x="0.5" y="0.5" width="15" height="15"/>
    </g>
    <g id="组_2378" data-name="组 2378" transform="translate(220.907 669.91)">
      <path id="路径_2725" data-name="路径 2725" class="cls-2" d="M322.532,324.545a2.273,2.273,0,1,1,2.273-2.273A2.232,2.232,0,0,1,322.532,324.545Zm0-3.788a1.515,1.515,0,1,0,1.515,1.515A1.52,1.52,0,0,0,322.532,320.758Z" transform="translate(-316.468 -316.212)"/>
      <path id="路径_2726" data-name="路径 2726" class="cls-2" d="M7.578,12.121H4.548a.358.358,0,0,1-.379-.379V10.3a8.263,8.263,0,0,1-.833-.455l-1.212.758a.4.4,0,0,1-.53-.152L.079,7.8a.325.325,0,0,1,.152-.53l1.212-.758V5.606L.23,4.848a.325.325,0,0,1-.152-.53L1.594,1.667a.353.353,0,0,1,.53-.076l1.212.758a2.94,2.94,0,0,1,.833-.455V.379A.358.358,0,0,1,4.548,0h3.03a.358.358,0,0,1,.379.379V1.818a8.263,8.263,0,0,1,.833.455L10,1.515a.4.4,0,0,1,.53.152l1.515,2.651a.325.325,0,0,1-.152.53l-1.212.758v.909l1.212.758a.435.435,0,0,1,.152.53l-1.515,2.651a.435.435,0,0,1-.53.152L8.791,9.848a2.94,2.94,0,0,1-.833.455v1.439a.358.358,0,0,1-.379.379Zm-2.651-.758H7.2V10.075A.417.417,0,0,1,7.427,9.7a4.83,4.83,0,0,0,1.061-.606.483.483,0,0,1,.455,0l1.136.682L11.215,7.8l-1.136-.682c-.152-.152-.227-.3-.152-.455,0-.227.076-.379.076-.606a1.668,1.668,0,0,0-.076-.606.579.579,0,0,1,.152-.379l1.136-.682-1.136-1.97-1.136.682a.483.483,0,0,1-.455,0A4.83,4.83,0,0,0,7.427,2.5.655.655,0,0,1,7.2,2.045V.758H4.927V2.045a.417.417,0,0,1-.227.379,4.83,4.83,0,0,0-1.061.606.483.483,0,0,1-.455,0L2.048,2.424.912,4.394l1.136.682a.277.277,0,0,1,.152.379c0,.227-.076.379-.076.606a1.668,1.668,0,0,0,.076.606.277.277,0,0,1-.152.379L.912,7.727,2.048,9.7l1.136-.682a.483.483,0,0,1,.455,0A4.83,4.83,0,0,0,4.7,9.621.417.417,0,0,1,4.927,10Z" transform="translate(0 0)"/>
    </g>
  </g>
</svg>
