<svg xmlns="http://www.w3.org/2000/svg" width="16" height="16" viewBox="0 0 16 16">
  <defs>
    <style>
      .cls-1 {
        fill: #fff;
        stroke: #707070;
        opacity: 0;
      }

      .cls-2 {
        fill: #999;
      }

      .cls-3 {
        stroke: none;
      }

      .cls-4 {
        fill: none;
      }
    </style>
  </defs>
  <g id="组_3733" data-name="组 3733" transform="translate(-1526 -403)">
    <g id="矩形_2209" data-name="矩形 2209" class="cls-1" transform="translate(1526 403)">
      <rect class="cls-3" width="16" height="16"/>
      <rect class="cls-4" x="0.5" y="0.5" width="15" height="15"/>
    </g>
    <g id="组_3734" data-name="组 3734" transform="translate(-0.106 0.199)">
      <path id="路径_4893" data-name="路径 4893" class="cls-2" d="M182.262,173.243a1.288,1.288,0,0,1,.4.272l3.373,3.376a1.288,1.288,0,0,1-.39,2.088l-1.2.529-2.242,2.245-.178,2.469a1.288,1.288,0,0,1-2.2.818l-2.177-2.179-.91-.911-2.252-2.254a1.288,1.288,0,0,1,.815-2.194l2.54-.19,2.2-2.2.517-1.193a1.288,1.288,0,0,1,1.694-.67Z" transform="translate(1354.277 231.138)"/>
      <rect id="矩形_2210" data-name="矩形 2210" class="cls-2" width="6" height="1.5" rx="0.75" transform="translate(1527.525 416.268) rotate(-45)"/>
    </g>
  </g>
</svg>
