<svg xmlns="http://www.w3.org/2000/svg" width="22" height="22" viewBox="0 0 22 22">
  <defs>
    <style>
      .cls-1 {
        fill: #fff;
        stroke: #707070;
        opacity: 0;
      }

      .cls-2 {
        fill: #333;
      }

      .cls-3 {
        stroke: none;
      }

      .cls-4 {
        fill: none;
      }
    </style>
  </defs>
  <g id="组_2379" data-name="组 2379" transform="translate(-219.049 -668.049)">
    <g id="矩形_1470" data-name="矩形 1470" class="cls-1" transform="translate(219.049 668.049)">
      <rect class="cls-3" width="22" height="22"/>
      <rect class="cls-4" x="0.5" y="0.5" width="21" height="21"/>
    </g>
    <g id="组_2378" data-name="组 2378" transform="translate(219.981 668.986)">
      <path id="路径_2725" data-name="路径 2725" class="cls-2" d="M324.033,327.547a3.773,3.773,0,1,1,3.773-3.773A3.706,3.706,0,0,1,324.033,327.547Zm0-6.289a2.516,2.516,0,1,0,2.516,2.516A2.523,2.523,0,0,0,324.033,321.258Z" transform="translate(-313.965 -313.711)"/>
      <path id="路径_2726" data-name="路径 2726" class="cls-2" d="M12.583,20.125H7.552a.594.594,0,0,1-.629-.629v-2.39a13.719,13.719,0,0,1-1.384-.755L3.527,17.61a.663.663,0,0,1-.88-.252l-2.516-4.4a.54.54,0,0,1,.252-.88l2.013-1.258V9.308L.382,8.05a.54.54,0,0,1-.252-.88l2.516-4.4a.587.587,0,0,1,.88-.126L5.539,3.9a4.881,4.881,0,0,1,1.384-.755V.629A.594.594,0,0,1,7.552,0h5.031a.594.594,0,0,1,.629.629v2.39a13.72,13.72,0,0,1,1.384.755l2.013-1.258a.663.663,0,0,1,.88.252L20,7.17a.54.54,0,0,1-.252.88L17.74,9.308v1.509l2.013,1.258a.722.722,0,0,1,.252.88l-2.516,4.4a.722.722,0,0,1-.88.252L14.6,16.352a4.881,4.881,0,0,1-1.384.755V19.5a.594.594,0,0,1-.629.629Zm-4.4-1.258h3.773V16.729a.692.692,0,0,1,.377-.629,8.02,8.02,0,0,0,1.761-1.006.8.8,0,0,1,.755,0l1.887,1.132,1.887-3.27-1.887-1.132c-.252-.252-.377-.5-.252-.755,0-.377.126-.629.126-1.006a2.769,2.769,0,0,0-.126-1.006.961.961,0,0,1,.252-.629L18.621,7.3l-1.887-3.27L14.847,5.157a.8.8,0,0,1-.755,0,8.02,8.02,0,0,0-1.761-1.006,1.087,1.087,0,0,1-.377-.755V1.258H8.181V3.4a.692.692,0,0,1-.377.629A8.02,8.02,0,0,0,6.043,5.031a.8.8,0,0,1-.755,0L3.4,4.025,1.514,7.3,3.4,8.427a.459.459,0,0,1,.252.629c0,.377-.126.629-.126,1.006a2.77,2.77,0,0,0,.126,1.006A.459.459,0,0,1,3.4,11.7L1.514,12.83,3.4,16.1l1.887-1.132a.8.8,0,0,1,.755,0A8.02,8.02,0,0,0,7.8,15.974a.692.692,0,0,1,.377.629Z" transform="translate(0 0)"/>
    </g>
  </g>
</svg>
