<svg xmlns="http://www.w3.org/2000/svg" width="22" height="22" viewBox="0 0 22 22">
  <defs>
    <style>
      .cls-1 {
        fill: #fff;
        stroke: #707070;
        opacity: 0;
      }

      .cls-2 {
        fill: #666;
      }

      .cls-3 {
        stroke: none;
      }

      .cls-4 {
        fill: none;
      }
    </style>
  </defs>
  <g id="组_3979" data-name="组 3979" transform="translate(-31 -181)">
    <g id="矩形_2314" data-name="矩形 2314" class="cls-1" transform="translate(31 181)">
      <rect class="cls-3" width="22" height="22"/>
      <rect class="cls-4" x="0.5" y="0.5" width="21" height="21"/>
    </g>
    <path id="路径_544" data-name="路径 544" class="cls-2" d="M40.525,35.227a.811.811,0,1,1,1.622,0v5.3a1.622,1.622,0,0,1-1.622,1.622h-12.9A1.622,1.622,0,0,1,26,40.525v-12.9A1.622,1.622,0,0,1,27.622,26h5.3a.811.811,0,0,1,0,1.622h-5.3v12.9h12.9Zm.056-6.485-5.528,5.516A.822.822,0,1,1,33.889,33.1l5.546-5.534H36.683a.781.781,0,1,1,0-1.563h3.976a1.486,1.486,0,0,1,1.487,1.484v3.967a.783.783,0,0,1-1.566,0Z" transform="translate(7.926 157.927)"/>
  </g>
</svg>
