<svg xmlns="http://www.w3.org/2000/svg" width="18" height="18" viewBox="0 0 18 18">
  <defs>
    <style>
      .cls-1 {
        fill: #fff;
        stroke: #707070;
        opacity: 0;
      }

      .cls-2, .cls-5 {
        fill: none;
      }

      .cls-2 {
        stroke: #22181b;
        stroke-miterlimit: 10;
        stroke-width: 1.2px;
      }

      .cls-3 {
        fill: #22181b;
      }

      .cls-4 {
        stroke: none;
      }
    </style>
  </defs>
  <g id="组_19740" data-name="组 19740" transform="translate(-36 -495)">
    <g id="矩形_3507" data-name="矩形 3507" class="cls-1" transform="translate(36 495)">
      <rect class="cls-4" width="18" height="18"/>
      <rect class="cls-5" x="0.5" y="0.5" width="17" height="17"/>
    </g>
    <g id="组_19739" data-name="组 19739" transform="translate(6477.782 3111.656)">
      <circle id="椭圆_1874" data-name="椭圆 1874" class="cls-2" cx="2.155" cy="2.155" r="2.155" transform="translate(-6439.749 -2615.155)"/>
      <circle id="椭圆_1875" data-name="椭圆 1875" class="cls-2" cx="2.156" cy="2.156" r="2.156" transform="translate(-6430.125 -2615.156)"/>
      <path id="矩形_13784" data-name="矩形 13784" class="cls-2" d="M2.386,0h0A2.386,2.386,0,0,1,4.773,2.386V7.744a.341.341,0,0,1-.341.341H.341A.341.341,0,0,1,0,7.744V2.386A2.386,2.386,0,0,1,2.386,0Z" transform="translate(-6439.981 -2608.397)"/>
      <path id="矩形_13785" data-name="矩形 13785" class="cls-2" d="M2.386,0h0A2.386,2.386,0,0,1,4.773,2.386V7.744a.341.341,0,0,1-.341.341H.341A.341.341,0,0,1,0,7.744V2.386A2.386,2.386,0,0,1,2.386,0Z" transform="translate(-6430.355 -2608.397)"/>
      <path id="矩形_13786" data-name="矩形 13786" class="cls-3" d="M0,0H1.2a0,0,0,0,1,0,0V3.124a.6.6,0,0,1-.6.6h0a.6.6,0,0,1-.6-.6V0A0,0,0,0,1,0,0Z" transform="translate(-6435.754 -2604.153) rotate(-60)"/>
      <rect id="矩形_13787" data-name="矩形 13787" class="cls-3" width="1.2" height="3.484" rx="0.6" transform="translate(-6430.359 -2605.122) rotate(60)"/>
    </g>
  </g>
</svg>
