<svg xmlns="http://www.w3.org/2000/svg" width="22" height="22" viewBox="0 0 22 22">
  <defs>
    <style>
      .cls-1 {
        fill: #fff;
        stroke: #707070;
        opacity: 0;
      }

      .cls-2 {
        fill: #333;
      }

      .cls-3 {
        stroke: none;
      }

      .cls-4 {
        fill: none;
      }
    </style>
  </defs>
  <g id="组_3509" data-name="组 3509" transform="translate(-333 -40)">
    <g id="矩形_1308" data-name="矩形 1308" class="cls-1" transform="translate(333 40)">
      <rect class="cls-3" width="22" height="22"/>
      <rect class="cls-4" x="0.5" y="0.5" width="21" height="21"/>
    </g>
    <path id="路径_4835" data-name="路径 4835" class="cls-2" d="M14.748,16.69,21.31,9.765a1.739,1.739,0,0,0,0-2.373L14.75.466c-.808-.852-1.871-.4-1.871.776V4.411C5.938,5.7,1.9,10.72.534,17.924a.708.708,0,0,0,1.278.545c2.544-3.755,6.035-5.568,11.067-5.72v3.166c0,1.175,1.065,1.625,1.87.776ZM14.511,1.9l5.947,6.338a.278.278,0,0,1,0,.373l-6.177,6.726.228-3.469a.714.714,0,0,0-.7-.721A16.517,16.517,0,0,0,2.42,15.68a14.584,14.584,0,0,1,11.49-10.1.715.715,0,0,0,.6-.715l-.23-3.3.228.338Z" transform="translate(332.811 41.596)"/>
  </g>
</svg>
