<svg xmlns="http://www.w3.org/2000/svg" width="20" height="20" viewBox="0 0 20 20">
  <defs>
    <style>
      .cls-1 {
        fill: #fff;
        stroke: #707070;
        opacity: 0;
      }

      .cls-2 {
        fill: #666;
      }

      .cls-3 {
        stroke: none;
      }

      .cls-4 {
        fill: none;
      }
    </style>
  </defs>
  <g id="组_6124" data-name="组 6124" transform="translate(-295 -370)">
    <g id="矩形_3233" data-name="矩形 3233" class="cls-1" transform="translate(295 370)">
      <rect class="cls-3" width="20" height="20"/>
      <rect class="cls-4" x="0.5" y="0.5" width="19" height="19"/>
    </g>
    <path id="路径_7368" data-name="路径 7368" class="cls-2" d="M17.369,37.594a2.816,2.816,0,0,0-2.629,1.635L8.959,36.769a3.411,3.411,0,0,0,.523-1.854,3.539,3.539,0,0,0-.1-.842l3.691-2.865a2.965,2.965,0,0,0,1.8.589,2.9,2.9,0,1,0,0-5.8,2.827,2.827,0,0,0-2.9,2.9,3.1,3.1,0,0,0,.218,1.146l-3.4,2.613a3.707,3.707,0,0,0-3.05-1.719,3.741,3.741,0,0,0,0,7.482,3.926,3.926,0,0,0,2.09-.573l6.639,2.831a2.9,2.9,0,1,0,2.9-3.084ZM14.875,27.212a1.649,1.649,0,0,1,1.669,1.669,1.533,1.533,0,0,1-1.669,1.669,1.639,1.639,0,0,1-1.669-1.669A1.8,1.8,0,0,1,14.875,27.212ZM5.741,37.173a2.292,2.292,0,1,1,2.292-2.292A2.331,2.331,0,0,1,5.741,37.173Zm11.628,4.988A1.534,1.534,0,0,1,15.7,40.492a1.669,1.669,0,0,1,3.338,0A1.55,1.55,0,0,1,17.369,42.161Z" transform="translate(293.867 345.296)"/>
  </g>
</svg>
