<svg xmlns="http://www.w3.org/2000/svg" width="18" height="18" viewBox="0 0 18 18">
  <defs>
    <style>
      .cls-1 {
        fill: #fff;
        stroke: #707070;
        opacity: 0;
      }

      .cls-2 {
        fill: #707070;
      }

      .cls-3 {
        stroke: none;
      }

      .cls-4 {
        fill: none;
      }
    </style>
  </defs>
  <g id="组_17099" data-name="组 17099" transform="translate(-1099 -753)">
    <g id="矩形_3947" data-name="矩形 3947" class="cls-1" transform="translate(1099 753)">
      <rect class="cls-3" width="18" height="18"/>
      <rect class="cls-4" x="0.5" y="0.5" width="17" height="17"/>
    </g>
    <path id="路径_8130" data-name="路径 8130" class="cls-2" d="M15.54,125.467l.691.691v-2.764a.592.592,0,0,1,1.185,0v2.764l.592-.691a.558.558,0,0,1,.79.79l-2.073,1.974-2.073-2.073a.6.6,0,0,1,0-.79A.625.625,0,0,1,15.54,125.467ZM16.724,115.2l2.073,1.974a.558.558,0,0,1-.79.79l-.691-.691v2.764a.592.592,0,0,1-1.185,0v-2.764l-.691.691a.558.558,0,0,1-.79-.79Zm-4.047.987H3.792a.592.592,0,0,0,0,1.185h8.885a.6.6,0,0,0,0-1.185Zm0,3.356H3.792a.592.592,0,0,0,0,1.185h8.885a.742.742,0,0,0,.494-.691A.466.466,0,0,0,12.677,119.544Zm0,3.258H3.792a.592.592,0,1,0,0,1.185h8.885a.569.569,0,0,0,.592-.592Q13.121,122.8,12.677,122.8Zm0,3.258H3.792a.592.592,0,0,0,0,1.185h8.885a.569.569,0,0,0,.592-.592C13.171,126.355,12.973,126.059,12.677,126.059Z" transform="translate(1096.927 640.284)"/>
  </g>
</svg>
