<svg xmlns="http://www.w3.org/2000/svg" width="32" height="32" viewBox="0 0 32 32">
  <defs>
    <style>
      .cls-1 {
        fill: #fff;
        stroke: #707070;
      }

      .cls-2 {
        fill: #666;
      }

      .cls-3 {
        stroke: none;
      }

      .cls-4 {
        fill: none;
      }
    </style>
  </defs>
  <g id="组_838" data-name="组 838" transform="translate(-1868 -853)">
    <g id="矩形_452" data-name="矩形 452" class="cls-1" transform="translate(1868 853)">
      <rect class="cls-3" width="32" height="32" rx="2"/>
      <rect class="cls-4" x="0.5" y="0.5" width="31" height="31" rx="1.5"/>
    </g>
    <path id="路径_584" data-name="路径 584" class="cls-2" d="M83.306,200.838a2.255,2.255,0,1,1-2.255,2.255A2.256,2.256,0,0,1,83.306,200.838ZM93.45,213.379H78.011a.46.46,0,0,1-.4-.69l1.834-4.372a1.842,1.842,0,0,1,3.19,0l.849,1.473a.921.921,0,0,0,1.627-.062l2.766-5.762a1.38,1.38,0,0,1,2.49,0l3.5,8.754a.459.459,0,0,1-.414.658Z" transform="translate(1798.755 660.163)"/>
  </g>
</svg>
