<svg xmlns="http://www.w3.org/2000/svg" width="22" height="22" viewBox="0 0 22 22">
  <defs>
    <style>
      .cls-1 {
        fill: #fff;
        stroke: #707070;
      }

      .cls-1, .cls-2 {
        opacity: 0;
      }

      .cls-2, .cls-3, .cls-4, .cls-6 {
        fill: none;
      }

      .cls-2, .cls-3, .cls-4 {
        stroke: #fd492b;
      }

      .cls-3 {
        stroke-width: 0.8px;
      }

      .cls-5 {
        stroke: none;
      }
    </style>
  </defs>
  <g id="组_3664" data-name="组 3664" transform="translate(-608 -32)">
    <g id="矩形_2291" data-name="矩形 2291" class="cls-1" transform="translate(608 32)">
      <rect class="cls-5" width="22" height="22"/>
      <rect class="cls-6" x="0.5" y="0.5" width="21" height="21"/>
    </g>
    <g id="组_3655" data-name="组 3655" transform="translate(488.799 -166.909)">
      <g id="矩形_1005" data-name="矩形 1005" class="cls-2" transform="translate(122.202 201.909)">
        <rect class="cls-5" width="16" height="16"/>
        <rect class="cls-6" x="0.5" y="0.5" width="15" height="15"/>
      </g>
      <g id="图层_2" data-name="图层 2" transform="translate(123.902 202.033)">
        <g id="图层_1" data-name="图层 1" transform="translate(0 0)">
          <rect id="矩形_1140" data-name="矩形 1140" class="cls-3" width="4.426" height="1.134" rx="0.567" transform="translate(4.293 14.616)"/>
          <path id="路径_2223" data-name="路径 2223" class="cls-4" d="M12.949,6.21a6.041,6.041,0,0,0-2-4.5A6.72,6.72,0,0,0,6.137-.01,6.472,6.472,0,0,0,.1,4.892a6.131,6.131,0,0,0,3.358,6.832.7.7,0,0,1,.383.645h0a.7.7,0,0,0,.217.51.775.775,0,0,0,.534.214H8.382a.775.775,0,0,0,.537-.213.7.7,0,0,0,.218-.512v-.03a.692.692,0,0,1,.375-.623A6.183,6.183,0,0,0,12.949,6.21Z" transform="translate(0.045 0.017)"/>
          <path id="路径_2224" data-name="路径 2224" class="cls-3" d="M13.086,19h1.7a.383.383,0,0,1,.383.383h0a1.148,1.148,0,0,1-1.148,1.148h-.162a1.148,1.148,0,0,1-1.148-1.148h0A.383.383,0,0,1,13.086,19Z" transform="translate(-7.427 -11.367)"/>
        </g>
      </g>
    </g>
  </g>
</svg>
