<svg xmlns="http://www.w3.org/2000/svg" width="17.999" height="17.999" viewBox="0 0 17.999 17.999">
  <defs>
    <style>
      .cls-1, .cls-2, .cls-3, .cls-5 {
        fill: none;
      }

      .cls-1 {
        stroke: #707070;
        opacity: 0;
      }

      .cls-2, .cls-3 {
        stroke: #333;
        stroke-miterlimit: 10;
        stroke-width: 1.2px;
      }

      .cls-2 {
        stroke-linecap: round;
      }

      .cls-4 {
        stroke: none;
      }
    </style>
  </defs>
  <g id="组_19870" data-name="组 19870" transform="translate(-36.002 -585.996)">
    <g id="矩形_1005" data-name="矩形 1005" class="cls-1" transform="translate(36.002 585.996)">
      <rect class="cls-4" width="17.999" height="17.999"/>
      <rect class="cls-5" x="0.5" y="0.5" width="16.999" height="16.999"/>
    </g>
    <g id="组_19712" data-name="组 19712" transform="translate(6542.036 3063.775)">
      <g id="组_19868" data-name="组 19868" transform="translate(-6504.91 -2475.896)">
        <path id="路径_24910" data-name="路径 24910" class="cls-2" d="M-6490.706-2471.572v-3.28c0-.018-.038-.033-.038-.033l-2.025.026a.03.03,0,0,0-.026.033v1.617c0,.03-.028.045-.044.025l-2.235-2.671a.022.022,0,0,0-.036,0l-4.895,6.044c-.018.021-.006.058.018.058l2.317-.092a.031.031,0,0,1,.026.034l-.01,1.924" transform="translate(6504.922 2475.865)"/>
        <path id="路径_24911" data-name="路径 24911" class="cls-3" d="M-6489.278-2468.829c.023,0,.035-.036.019-.057l-1.517-2.689v-3.242c0-.019-.011-.034-.026-.034h-2.034a.031.031,0,0,0-.025.034v1.6c0,.028-.027.043-.044.023l-2.235-2.642a.022.022,0,0,0-.035,0l-1.925,2.276a.023.023,0,0,1-.036,0l-1.941-2.294a.021.021,0,0,0-.035,0l-5.881,6.949c-.016.021-.005.057.019.057h2.848c.014,0,.025.015.025.034v7.153a.031.031,0,0,0,.027.034h10.106a.031.031,0,0,0,.027-.034v-7.134a.03.03,0,0,1,.026-.033Z" transform="translate(6505 2475.865)"/>
      </g>
    </g>
  </g>
</svg>
