<svg xmlns="http://www.w3.org/2000/svg" width="35" height="30" viewBox="0 0 35 30">
  <defs>
    <style>
      .cls-1, .cls-2 {
        fill: #fff;
      }

      .cls-1 {
        stroke: #707070;
        opacity: 0;
      }

      .cls-3 {
        stroke: none;
      }

      .cls-4 {
        fill: none;
      }
    </style>
  </defs>
  <g id="组_18610" data-name="组 18610" transform="translate(-88 -537)">
    <g id="矩形_12532" data-name="矩形 12532" class="cls-1" transform="translate(88 537)">
      <rect class="cls-3" width="35" height="30"/>
      <rect class="cls-4" x="0.5" y="0.5" width="34" height="29"/>
    </g>
    <g id="组_18609" data-name="组 18609" transform="translate(0.908 -0.113)">
      <path id="矩形_12552" data-name="矩形 12552" class="cls-2" d="M.016,0H17.25A.75.75,0,0,1,18,.75v0a.75.75,0,0,1-.75.75H.75A.75.75,0,0,1,0,.75V.016A.016.016,0,0,1,.016,0Z" transform="translate(101 551.573) rotate(-40)"/>
      <path id="矩形_12553" data-name="矩形 12553" class="cls-2" d="M.75,0h16.5A.75.75,0,0,1,18,.75v0a.75.75,0,0,1-.75.75H.016A.016.016,0,0,1,0,1.484V.75A.75.75,0,0,1,.75,0Z" transform="translate(101.643 551.503) rotate(40)"/>
      <rect id="矩形_12554" data-name="矩形 12554" class="cls-2" width="22" height="1.5" rx="0.75" transform="translate(93.43 551.339)"/>
    </g>
  </g>
</svg>
