<svg xmlns="http://www.w3.org/2000/svg" width="35" height="30" viewBox="0 0 35 30">
  <defs>
    <style>
      .cls-1, .cls-3 {
        fill: #fff;
      }

      .cls-1 {
        stroke: #707070;
        opacity: 0;
      }

      .cls-2, .cls-5 {
        fill: none;
      }

      .cls-2 {
        stroke: #fff;
        stroke-linecap: round;
        stroke-miterlimit: 10;
        stroke-width: 1.5px;
      }

      .cls-4 {
        stroke: none;
      }
    </style>
  </defs>
  <g id="组_18614" data-name="组 18614" transform="translate(-229 -537)">
    <g id="矩形_12551" data-name="矩形 12551" class="cls-1" transform="translate(229 537)">
      <rect class="cls-4" width="35" height="30"/>
      <rect class="cls-5" x="0.5" y="0.5" width="34" height="29"/>
    </g>
    <g id="组_18613" data-name="组 18613" transform="translate(0.5 -0.045)">
      <g id="组_18606" data-name="组 18606" transform="translate(-36.799 2.994)">
        <g id="组_6632" data-name="组 6632" transform="translate(1040.466 554.244)">
          <path id="路径_7590" data-name="路径 7590" class="cls-2" d="M-749.107,3.006A11.066,11.066,0,0,1-760.286-7.942,11.066,11.066,0,0,1-749.107-18.89" transform="translate(-0.68 2.749)"/>
        </g>
        <rect id="矩形_3531" data-name="矩形 3531" class="cls-3" width="12.299" height="1.5" transform="translate(279.5 548.302)"/>
        <rect id="矩形_12536" data-name="矩形 12536" class="cls-3" width="8" height="1.5" rx="0.75" transform="translate(271.799 548.302)"/>
      </g>
      <circle id="椭圆_1742" data-name="椭圆 1742" class="cls-3" cx="2" cy="2" r="2" transform="translate(253 539.097)"/>
      <circle id="椭圆_1743" data-name="椭圆 1743" class="cls-3" cx="2" cy="2" r="2" transform="translate(253 550.045)"/>
      <circle id="椭圆_1744" data-name="椭圆 1744" class="cls-3" cx="2" cy="2" r="2" transform="translate(253 560.993)"/>
    </g>
  </g>
</svg>
