<svg xmlns="http://www.w3.org/2000/svg" width="24" height="24" viewBox="0 0 24 24">
  <defs>
    <style>
      .cls-1 {
        fill: #fff;
        stroke: #707070;
        opacity: 0;
      }

      .cls-2 {
        fill: #e3684e;
      }

      .cls-3 {
        fill: #f9b54c;
      }

      .cls-4 {
        fill: #54c0eb;
      }

      .cls-5 {
        fill: #f2f9ff;
      }

      .cls-6 {
        fill: #4cdbc4;
      }

      .cls-7 {
        fill: #5d6d7e;
      }

      .cls-8 {
        fill: #434f5b;
      }

      .cls-9 {
        stroke: none;
      }

      .cls-10 {
        fill: none;
      }
    </style>
  </defs>
  <g id="组_6811" data-name="组 6811" transform="translate(-1675 -11)">
    <g id="矩形_3582" data-name="矩形 3582" class="cls-1" transform="translate(1675 11)">
      <rect class="cls-9" width="24" height="24"/>
      <rect class="cls-10" x="0.5" y="0.5" width="23" height="23"/>
    </g>
    <g id="组_6810" data-name="组 6810" transform="translate(1582 -94.617)">
      <path id="路径_7688" data-name="路径 7688" class="cls-2" d="M112.348,144a.348.348,0,0,0-.348.348v16a.348.348,0,0,0,.348.348h3.479a.348.348,0,0,0,.348-.348v-16a.348.348,0,0,0-.348-.348Zm1.74,16a1.392,1.392,0,1,1,1.392-1.392A1.392,1.392,0,0,1,114.088,160Z" transform="translate(-15.652 -34.614)"/>
      <path id="路径_7689" data-name="路径 7689" class="cls-3" d="M127.383,124.621a.348.348,0,0,0-.45.2L121.2,139.763a.348.348,0,0,0,.2.45l3.248,1.247a.348.348,0,0,0,.45-.2l5.735-14.943a.348.348,0,0,0-.2-.45Zm-4.321,16.4a1.392,1.392,0,1,1,1.392-1.392A1.392,1.392,0,0,1,123.062,141.025Z" transform="translate(-24.627 -15.634)"/>
      <path id="路径_7690" data-name="路径 7690" class="cls-4" d="M132.474,232.665a.348.348,0,0,0-.492,0l-11.317,11.318a.348.348,0,0,0,0,.492l2.461,2.461a.348.348,0,0,0,.492,0l11.317-11.318a.348.348,0,0,0,0-.492l-2.46-2.46Zm-10.01,13.977a1.392,1.392,0,1,1,1.392-1.392A1.392,1.392,0,0,1,122.465,246.643Z" transform="translate(-24.029 -121.252)"/>
      <path id="路径_7691" data-name="路径 7691" class="cls-5" d="M138.018,459.387a.348.348,0,0,0-.446-.208l-15.039,5.474a.348.348,0,0,0-.208.445l1.19,3.27a.348.348,0,0,0,.446.207L139,463.1a.348.348,0,0,0,.208-.446Zm-13.851,8.922a1.392,1.392,0,1,1,1.392-1.392A1.392,1.392,0,0,1,124.168,468.309Z" transform="translate(-25.732 -342.919)"/>
      <path id="路径_7692" data-name="路径 7692" class="cls-6" d="M128.7,720m0,.7v2.783a.615.615,0,0,1-.7.7H112.7a.615.615,0,0,1-.7-.7V720.7a.615.615,0,0,1,.7-.7H128A.615.615,0,0,1,128.7,720.7Z" transform="translate(-15.652 -598.089)"/>
      <path id="路径_7693" data-name="路径 7693" class="cls-7" d="M96.7,122.265v3.474h16v-3.479h-16Zm16,4.17h-16a.7.7,0,0,1-.7-.7v-16a.7.7,0,0,1,.7-.7h3.479a.7.7,0,0,1,.7.7v2.223l1.111-2.893a.7.7,0,0,1,.9-.4l3.248,1.247a.7.7,0,0,1,.4.9l-.958,2.5,2.136-2.136a.7.7,0,0,1,.984,0l2.461,2.461a.7.7,0,0,1,0,.984l-2.4,2.4,2.973-1.082a.7.7,0,0,1,.892.415l1.19,3.27a.7.7,0,0,1-.416.891l-2.893,1.053H112.7a.7.7,0,0,1,.7.7v3.479a.7.7,0,0,1-.7.7Zm-4.24-4.871,4.689-1.706-1.19-3.27-13.671,4.976ZM96.7,121.4l.638-.232,2.841-7.4v-4.035H96.7Zm1.127-.411.094-.035,6.444-6.444,1.518-3.955-3.248-1.247-4.3,11.213Zm1.642-.6,7.736-2.816,3.458-3.458-2.46-2.461-8.734,8.735Z"/>
      <path id="路径_7694" data-name="路径 7694" class="cls-8" d="M161.044,770.088A1.044,1.044,0,1,0,160,769.044,1.044,1.044,0,0,0,161.044,770.088Z" transform="translate(-62.608 -645.045)"/>
    </g>
  </g>
</svg>
