<svg xmlns="http://www.w3.org/2000/svg" xmlns:xlink="http://www.w3.org/1999/xlink" width="35" height="35" viewBox="0 0 35 35">
  <defs>
    <style>
      .cls-1 {
        fill: #fff;
        stroke: #707070;
        opacity: 0;
      }

      .cls-2, .cls-5 {
        fill: #666;
      }

      .cls-3 {
        fill: url(#linear-gradient);
      }

      .cls-4 {
        fill: url(#linear-gradient-2);
      }

      .cls-5 {
        font-size: 12px;
        font-family: PingFang SC Medium, PingFang SC;
      }

      .cls-6 {
        stroke: none;
      }

      .cls-7 {
        fill: none;
      }
    </style>
    <linearGradient id="linear-gradient" x1="0.28" x2="0.722" y2="0.949" gradientUnits="objectBoundingBox">
      <stop offset="0" stop-color="#eceaea"/>
      <stop offset="0.499" stop-color="#e2e1e1"/>
      <stop offset="1" stop-color="#d8d8d8"/>
    </linearGradient>
    <linearGradient id="linear-gradient-2" x1="0.277" x2="0.763" y2="1" gradientUnits="objectBoundingBox">
      <stop offset="0" stop-color="#cccaca"/>
      <stop offset="1" stop-color="#f1f0f0"/>
    </linearGradient>
  </defs>
  <g id="组_6107" data-name="组 6107" transform="translate(-554 -479)">
    <g id="矩形_3216" data-name="矩形 3216" class="cls-1" transform="translate(554 479)">
      <rect class="cls-6" width="35" height="35"/>
      <rect class="cls-7" x="0.5" y="0.5" width="34" height="34"/>
    </g>
    <g id="组_5176" data-name="组 5176" transform="translate(-536.011 -3207)">
      <rect id="矩形_2803" data-name="矩形 2803" class="cls-2" width="2" height="10" rx="1" transform="translate(1106.57 3686)"/>
      <rect id="矩形_2804" data-name="矩形 2804" class="cls-2" width="2" height="9.701" rx="1" transform="translate(1106.541 3711.299)"/>
      <g id="组_5217" data-name="组 5217" transform="translate(1097.335 3694.129)">
        <path id="路径_5860" data-name="路径 5860" class="cls-3" d="M-1346.529-200.967h-10.177l-5.088,8.813,5.088,8.813h10.177l5.088-8.813Z" transform="translate(1361.794 201.24)"/>
        <path id="路径_5861" data-name="路径 5861" class="cls-4" d="M-1348.948-200.967h-8.565l-4.282,7.417,4.282,7.417h8.565l4.282-7.417Z" transform="translate(1363.406 202.636)"/>
        <text id="_1" data-name="1" class="cls-5" transform="translate(6.676 13.586)"><tspan x="0" y="0">1</tspan></text>
      </g>
    </g>
  </g>
</svg>
