<svg xmlns="http://www.w3.org/2000/svg" width="35" height="35" viewBox="0 0 35 35">
  <defs>
    <style>
      .cls-1, .cls-3 {
        fill: #fff;
      }

      .cls-1 {
        stroke: #707070;
        opacity: 0;
      }

      .cls-2, .cls-5 {
        fill: none;
      }

      .cls-2 {
        stroke: #fff;
        stroke-width: 2px;
      }

      .cls-4 {
        stroke: none;
      }
    </style>
  </defs>
  <g id="组_19735" data-name="组 19735" transform="translate(-314 -488)">
    <g id="组_6105" data-name="组 6105" transform="translate(57 58)">
      <g id="矩形_3212" data-name="矩形 3212" class="cls-1" transform="translate(257 430)">
        <rect class="cls-4" width="35" height="35"/>
        <rect class="cls-5" x="0.5" y="0.5" width="34" height="34"/>
      </g>
      <g id="组_6092" data-name="组 6092" transform="translate(60.5 23)">
        <g id="椭圆_1" data-name="椭圆 1" class="cls-2" transform="translate(205 415.5)">
          <circle class="cls-4" cx="9" cy="9" r="9"/>
          <circle class="cls-5" cx="9" cy="9" r="8"/>
        </g>
        <rect id="矩形_2" data-name="矩形 2" class="cls-3" width="2" height="9.722" rx="1" transform="translate(213 407)"/>
        <rect id="矩形_3" data-name="矩形 3" class="cls-3" width="2" height="9.722" rx="1" transform="translate(213 432.278)"/>
      </g>
    </g>
    <path id="多边形_39" data-name="多边形 39" class="cls-3" d="M3.61.488a.5.5,0,0,1,.781,0l2.96,3.7A.5.5,0,0,1,6.96,5H1.04a.5.5,0,0,1-.39-.812Z" transform="translate(319 501.5) rotate(90)"/>
  </g>
</svg>
