<svg xmlns="http://www.w3.org/2000/svg" width="63.265" height="77.557" viewBox="0 0 63.265 77.557">
  <defs>
    <style>
      .cls-1 {
        fill: #fd5436;
      }
    </style>
  </defs>
  <g id="组_16999" data-name="组 16999" transform="translate(-81.459 -531.254) rotate(45)">
    <path id="联合_40" data-name="联合 40" class="cls-1" d="M-3328.382,24850.432l-27.624-26.676a4,4,0,0,1,2.782-6.873h12.611V24778a4,4,0,0,1,4-4h22.023a4,4,0,0,1,4,4v38.881h12.617a4,4,0,0,1,2.775,6.873l-27.624,26.676a3.973,3.973,0,0,1-2.776,1.123A3.99,3.99,0,0,1-3328.382,24850.432Z" transform="translate(15676.766 20219.943) rotate(135)"/>
  </g>
</svg>
