<svg xmlns="http://www.w3.org/2000/svg" xmlns:xlink="http://www.w3.org/1999/xlink" width="50" height="50" viewBox="0 0 50 50">
  <defs>
    <style>
      .cls-1 {
        fill: #fff;
      }

      .cls-2 {
        fill: #ff765e;
      }

      .cls-3 {
        filter: url(#椭圆_467);
      }
    </style>
    <filter id="椭圆_467" x="0" y="0" width="50" height="50" filterUnits="userSpaceOnUse">
      <feOffset dy="3" input="SourceAlpha"/>
      <feGaussianBlur stdDeviation="3" result="blur"/>
      <feFlood flood-opacity="0.102"/>
      <feComposite operator="in" in2="blur"/>
      <feComposite in="SourceGraphic"/>
    </filter>
  </defs>
  <g id="组_6122" data-name="组 6122" transform="translate(-320 -220)">
    <g id="组_6123" data-name="组 6123">
      <g class="cls-3" transform="matrix(1, 0, 0, 1, 320, 220)">
        <circle id="椭圆_467-2" data-name="椭圆 467" class="cls-1" cx="16" cy="16" r="16" transform="translate(9 6)"/>
      </g>
      <g id="组_6121" data-name="组 6121" transform="translate(185.023 158.225)">
        <path id="路径_7366" data-name="路径 7366" class="cls-2" d="M152.652,214.34a.611.611,0,0,1,0-1.222H167.3a.611.611,0,0,1,0,1.222Zm11.416-11.733a.6.6,0,0,1-.431-.179l-2.56-2.56a.611.611,0,0,1,.864-.864l2.56,2.56a.612.612,0,0,1-.432,1.043h0Z" transform="translate(0 -121.491)"/>
        <path id="路径_7367" data-name="路径 7367" class="cls-2" d="M154.777,89.793a.681.681,0,0,1-.649-.886l1.306-4.143a.682.682,0,0,1,.168-.277l9.586-9.586a.681.681,0,0,1,.963,0l2.837,2.837a.681.681,0,0,1,0,.963L159.4,88.288a.681.681,0,0,1-.277.168l-4.143,1.306a.68.68,0,0,1-.2.032Zm1.905-4.461-.863,2.737,2.737-.863,8.986-8.986-1.874-1.874-8.987,8.986Z" transform="translate(-2.012)"/>
      </g>
    </g>
  </g>
</svg>
