<svg xmlns="http://www.w3.org/2000/svg" width="16" height="16" viewBox="0 0 16 16"><defs><style>.a{fill:#fff;stroke:#707070;opacity:0;}.b{fill:#666;}.c,.e{fill:none;}.c{stroke:#666;stroke-linecap:round;stroke-width:1.2px;}.d{stroke:none;}</style></defs><g transform="translate(-444 -847)"><g class="a" transform="translate(444 847)"><rect class="d" width="16" height="16"/><rect class="e" x="0.5" y="0.5" width="15" height="15"/></g><g transform="translate(46.328 571.501)"><path class="b" d="M412.629,281.008a7.573,7.573,0,1,0,.594,2.939,7.527,7.527,0,0,0-.594-2.939Zm-2.393,7.5a6.451,6.451,0,1,1,1.891-4.563,6.4,6.4,0,0,1-1.891,4.563Zm0,0" transform="translate(0 0)"/><line class="c" y2="7" transform="translate(405.672 281)"/><path class="c" d="M-.574,13.713,2.537,9.346,5.6,13.713" transform="translate(403.172 271)"/></g></g></svg>