<svg xmlns="http://www.w3.org/2000/svg" width="28.114" height="28.114" viewBox="0 0 28.114 28.114">
  <defs>
    <style>
      .cls-1 {
        fill: #fff;
        opacity: 0.71;
      }
    </style>
  </defs>
  <path id="路径_7583" data-name="路径 7583" class="cls-1" d="M14.057,0A14.057,14.057,0,1,0,28.114,14.057v-.019A14.056,14.056,0,0,0,14.057,0Zm6.019,18.247a1.314,1.314,0,1,1-1.809,1.905l-4.211-4.286-4.21,4.19a1.347,1.347,0,1,1-1.9-1.9l4.19-4.209L7.943,9.751a1.347,1.347,0,1,1,1.9-1.9l4.209,4.382,4.21-4.21a1.314,1.314,0,0,1,1.809,1.9l-4.189,4.191,4.189,4.133Z"/>
</svg>
