<svg xmlns="http://www.w3.org/2000/svg" width="14" height="13.999" viewBox="0 0 14 13.999">
  <defs>
    <style>
      .cls-1 {
        fill: #fd492b;
      }

      .cls-2 {
        fill: #fff;
      }
    </style>
  </defs>
  <g id="组_21076" data-name="组 21076" transform="translate(-42 -42)">
    <path id="路径_25701" data-name="路径 25701" class="cls-1" d="M44.334,42A2.34,2.34,0,0,0,42,44.334v9.333A2.34,2.34,0,0,0,44.334,56h9.333A2.34,2.34,0,0,0,56,53.665V44.334A2.342,2.342,0,0,0,53.665,42ZM49,53.794a4.8,4.8,0,1,1,4.8-4.8A4.8,4.8,0,0,1,49,53.794Z"/>
    <path id="路径_25702" data-name="路径 25702" class="cls-2" d="M194.746,190a4.746,4.746,0,1,0,4.746,4.746A4.746,4.746,0,0,0,194.746,190Zm1.974,4.57h-.937a.3.3,0,0,1,.015.09v2.089a.326.326,0,0,1-.326.326h-1.449a.326.326,0,0,1-.326-.326v-2.089a.311.311,0,0,1,.015-.09h-.937a.327.327,0,0,1-.2-.588l1.974-1.5a.327.327,0,0,1,.4,0l1.974,1.5A.328.328,0,0,1,196.72,194.57Z" transform="translate(-145.75 -145.747)"/>
    <path id="路径_25703" data-name="路径 25703" class="cls-1" d="M360.637,355.776l-2.117-1.6a.351.351,0,0,0-.424,0l-2.117,1.6a.351.351,0,0,0,.212.631H357.2a.35.35,0,0,1,.335-.253h1.554a.35.35,0,0,1,.335.253h1.006A.351.351,0,0,0,360.637,355.776Z" transform="translate(-309.309 -307.505)"/>
    <path id="路径_25704" data-name="路径 25704" class="cls-1" d="M442.505,484h-1.554a.35.35,0,0,0-.335.253.325.325,0,0,0-.016.1v2.24a.35.35,0,0,0,.349.349H442.5a.35.35,0,0,0,.349-.349v-2.24a.333.333,0,0,0-.016-.1A.343.343,0,0,0,442.505,484Z" transform="translate(-392.729 -435.518)"/>
  </g>
</svg>
