<svg xmlns="http://www.w3.org/2000/svg" width="64" height="64" viewBox="0 0 64 64">
  <defs>
    <style>
      .cls-1 {
        fill: #666;
      }
    </style>
  </defs>
  <path id="路径_7701" data-name="路径 7701" class="cls-1" d="M103.385,96a7.392,7.392,0,0,0-7.37,6.942l-.015.443v8a2.462,2.462,0,0,0,2.462,2.462,2.487,2.487,0,0,0,2.437-2.129l.025-.332v-8a2.452,2.452,0,0,1,2.166-2.447l.3-.015h49.231a2.452,2.452,0,0,1,2.447,2.166l.015.3v49.231a2.452,2.452,0,0,1-2.166,2.447l-.3.015H103.385a2.452,2.452,0,0,1-2.447-2.166l-.015-.3v-7.077a2.462,2.462,0,0,0-2.462-2.462,2.487,2.487,0,0,0-2.437,2.129l-.025.332v7.077a7.392,7.392,0,0,0,6.942,7.37l.443.015h49.231a7.392,7.392,0,0,0,7.37-6.942l.015-.443V103.385a7.394,7.394,0,0,0-6.942-7.37L152.615,96Zm16.51,20.414a2.46,2.46,0,0,0-3.7,3.23l.217.251,5.647,5.644h-23.6a2.461,2.461,0,0,0-2.444,2.173L96,128a2.487,2.487,0,0,0,2.129,2.437l.332.025h23.6l-5.644,5.644a2.439,2.439,0,0,0-.529,2.651l.145.308.167.271.217.251a2.483,2.483,0,0,0,3.23.217l.251-.217,9.846-9.846a2.452,2.452,0,0,0,.273-3.143l-.057-.086-.217-.251Z" transform="translate(-96 -96)"/>
</svg>
