<svg xmlns="http://www.w3.org/2000/svg" width="16" height="16" viewBox="0 0 16 16">
  <defs>
    <style>
      .cls-1 {
        fill: #fff;
        stroke: #707070;
        opacity: 0;
      }

      .cls-2 {
        fill: #666;
      }

      .cls-3 {
        stroke: none;
      }

      .cls-4 {
        fill: none;
      }
    </style>
  </defs>
  <g id="组_6655" data-name="组 6655" transform="translate(-443.126 -846.126)">
    <g id="矩形_3507" data-name="矩形 3507" class="cls-1" transform="translate(443.126 846.126)">
      <rect class="cls-3" width="16" height="16"/>
      <rect class="cls-4" x="0.5" y="0.5" width="15" height="15"/>
    </g>
    <g id="组_6646" data-name="组 6646" transform="translate(445.014 848.015)">
      <path id="路径_7597" data-name="路径 7597" class="cls-2" d="M409.864,280.129a6.13,6.13,0,1,0,.48,2.379,6.093,6.093,0,0,0-.48-2.379Zm-1.937,6.072a5.222,5.222,0,1,1,1.53-3.693,5.183,5.183,0,0,1-1.53,3.693Zm0,0" transform="translate(-398.121 -276.396)"/>
      <path id="路径_7598" data-name="路径 7598" class="cls-2" d="M414.131,283.826a2.23,2.23,0,0,0-2.227,2.227.444.444,0,0,0,.887,0,1.339,1.339,0,1,1,2.679,0,1.157,1.157,0,0,1-.023.257c-.006.027-.013.055-.021.081a1.2,1.2,0,0,1-.491.668,2.817,2.817,0,0,0-1.26,2.079.443.443,0,0,0,.426.461h.018a.444.444,0,0,0,.443-.426,1.659,1.659,0,0,1,.117-.457,2.008,2.008,0,0,1,.754-.924,2.093,2.093,0,0,0,.847-1.163c.01-.037.021-.077.029-.115a1.99,1.99,0,0,0,.049-.461,2.232,2.232,0,0,0-2.228-2.227Zm0,0" transform="translate(-408.004 -281.724)"/>
      <path id="路径_7599" data-name="路径 7599" class="cls-2" d="M417.516,307.2a.625.625,0,1,0,.625-.625.625.625,0,0,0-.625.625Zm0,0" transform="translate(-412.028 -298.032)"/>
    </g>
  </g>
</svg>
