<svg xmlns="http://www.w3.org/2000/svg" width="16" height="16" viewBox="0 0 16 16">
  <defs>
    <style>
      .cls-1 {
        fill: #fff;
        stroke: #707070;
        opacity: 0;
      }

      .cls-2 {
        fill: #999;
      }

      .cls-3 {
        stroke: none;
      }

      .cls-4 {
        fill: none;
      }
    </style>
  </defs>
  <g id="组_6127" data-name="组 6127" transform="translate(4.629 3.814)">
    <g id="组_6125" data-name="组 6125" transform="translate(-5 -4)">
      <g id="矩形_3109" data-name="矩形 3109" class="cls-1" transform="translate(0.371 0.186)">
        <rect class="cls-3" width="16" height="16"/>
        <rect class="cls-4" x="0.5" y="0.5" width="15" height="15"/>
      </g>
      <path id="路径_7278" data-name="路径 7278" class="cls-2" d="M72,188c-2.933,0-5.55-1.85-7.845-5.466a.992.992,0,0,1,0-1.064C66.45,177.85,69.067,176,72,176s5.55,1.851,7.845,5.466a.992.992,0,0,1,0,1.064C77.55,186.145,74.933,188,72,188Zm0-10.8c-2.427,0-4.675,1.572-6.749,4.8,2.074,3.228,4.321,4.8,6.749,4.8s4.675-1.572,6.749-4.8C76.675,178.77,74.427,177.2,72,177.2Zm-.009,7.6a2.8,2.8,0,1,1,2.825-2.8,2.811,2.811,0,0,1-2.825,2.8ZM72,183.6a1.6,1.6,0,1,0-1.618-1.6A1.609,1.609,0,0,0,72,183.6Z" transform="translate(-63.629 -173.813)"/>
    </g>
  </g>
</svg>
