<svg xmlns="http://www.w3.org/2000/svg" width="29.464" height="14.732" viewBox="0 0 29.464 14.732">
  <defs>
    <style>
      .cls-1 {
        fill: #fd492b;
      }
    </style>
  </defs>
  <path id="路径_8083" data-name="路径 8083" class="cls-1" d="M27.5.477H1.968a1.94,1.94,0,0,0-1.391.593A2.048,2.048,0,0,0,0,2.5V13.189a2.046,2.046,0,0,0,.577,1.429,1.942,1.942,0,0,0,1.391.591H27.5a1.942,1.942,0,0,0,1.391-.591,2.054,2.054,0,0,0,.577-1.428V2.5a2.046,2.046,0,0,0-.577-1.429A1.936,1.936,0,0,0,27.5.477ZM7.481,12.228q-.507,0-.881-.982L3.657,3.46H5.932L7.925,8.8l3.3-5.342h2.294L8.6,11.257q-.606.971-1.115.971Zm5.363-.13,1.19-8.638h2.1L14.94,12.1h-2.1ZM25.77,6.7a3.6,3.6,0,0,1-1.309,2.371A3.784,3.784,0,0,1,22,9.929H18.482l-.3,2.168h-2.1l.607-4.4h5.819a1.161,1.161,0,0,0,1.164-1.021.831.831,0,0,0-.2-.727.912.912,0,0,0-.687-.265H16.972L18.664,3.46H22.9a2.916,2.916,0,0,1,2.211.863A2.738,2.738,0,0,1,25.771,6.7Z" transform="translate(0 -0.477)"/>
</svg>
