<svg id="组_3695" data-name="组 3695" xmlns="http://www.w3.org/2000/svg" width="16" height="16" viewBox="0 0 16 16">
  <defs>
    <style>
      .cls-1 {
        fill: #fff;
        stroke: #707070;
        opacity: 0;
      }

      .cls-2 {
        fill: #ec705a;
      }

      .cls-3 {
        stroke: none;
      }

      .cls-4 {
        fill: none;
      }
    </style>
  </defs>
  <g id="矩形_2315" data-name="矩形 2315" class="cls-1">
    <rect class="cls-3" width="15.743" height="16"/>
    <rect class="cls-4" x="0.5" y="0.5" width="14.743" height="15"/>
  </g>
  <path id="路径_4930" data-name="路径 4930" class="cls-2" d="M36.671,28.8a8,8,0,1,1-7.871,8A7.936,7.936,0,0,1,36.671,28.8Zm0,1.165A6.835,6.835,0,1,0,43.4,36.8,6.78,6.78,0,0,0,36.671,29.965Zm0,6.2a.629.629,0,0,1,.617.533l.008.1v3.781a.625.625,0,0,1-1.243.1l-.008-.1V36.8A.631.631,0,0,1,36.671,36.164Zm0-3.442a.9.9,0,1,1-.886.9A.893.893,0,0,1,36.671,32.721Z" transform="translate(-28.542 -28.799)"/>
</svg>
