<svg xmlns="http://www.w3.org/2000/svg" width="16" height="16" viewBox="0 0 16 16">
  <defs>
    <style>
      .cls-1 {
        fill: #fff;
        stroke: #707070;
        opacity: 0;
      }

      .cls-2 {
        fill: #666;
      }

      .cls-3 {
        stroke: none;
      }

      .cls-4 {
        fill: none;
      }
    </style>
  </defs>
  <g id="组_18900" data-name="组 18900" transform="translate(-20 -920)">
    <g id="矩形_12997" data-name="矩形 12997" class="cls-1" transform="translate(20 920)">
      <rect class="cls-3" width="16" height="16"/>
      <rect class="cls-4" x="0.5" y="0.5" width="15" height="15"/>
    </g>
    <path id="路径_24405" data-name="路径 24405" class="cls-2" d="M56.2,56.05a6.43,6.43,0,0,1-.031.769H47.435A2.706,2.706,0,0,0,50.2,59.434a2.786,2.786,0,0,0,2.43-1.354h3.2a6.067,6.067,0,0,1-5.722,4.061,5.821,5.821,0,0,1-2.676-.646,7.446,7.446,0,0,1-2.984.892c-1.292,0-1.784-.769-1.784-2a6.763,6.763,0,0,1,.369-2.061,11.3,11.3,0,0,1,.831-1.753,16.716,16.716,0,0,1,3.6-4.584,10.815,10.815,0,0,0-3.23,2.676,6.051,6.051,0,0,1,5.876-4.707h.369a8.74,8.74,0,0,1,3.292-.892c1.2,0,2.276.461,2.276,1.846a5.64,5.64,0,0,1-.585,2.184A6.183,6.183,0,0,1,56.2,56.05Zm-.523-4.83a1.308,1.308,0,0,0-1.415-1.354,4.794,4.794,0,0,0-1.938.523,5.975,5.975,0,0,1,2.953,2.461A4.38,4.38,0,0,0,55.68,51.22ZM43.621,60.542A1.24,1.24,0,0,0,45,61.9a3.948,3.948,0,0,0,2-.646,5.95,5.95,0,0,1-2.646-3.23A6.8,6.8,0,0,0,43.621,60.542Zm3.815-5.383h5.476a2.75,2.75,0,0,0-5.476,0Z" transform="translate(-21.435 872.273)"/>
  </g>
</svg>
