<svg xmlns="http://www.w3.org/2000/svg" width="40" height="40" viewBox="0 0 40 40">
  <defs>
    <style>
      .cls-1 {
        fill: #00bc0d;
      }

      .cls-2 {
        fill: #fff;
      }
    </style>
  </defs>
  <g id="组_3938" data-name="组 3938" transform="translate(-110.4 -114.4)">
    <path id="路径_4914" data-name="路径 4914" class="cls-1" d="M110.4,134.4a20,20,0,1,0,20-20A20,20,0,0,0,110.4,134.4Zm0,0" transform="translate(0 0)"/>
    <path id="路径_4915" data-name="路径 4915" class="cls-2" d="M483.937,454.451a7.09,7.09,0,0,0-7.458-6.36,6.442,6.442,0,1,0-.021,12.72,11.338,11.338,0,0,0,2.634-.439l2.436,1.317-.659-2.2A6.672,6.672,0,0,0,483.937,454.451Zm-9.867-1.1a.878.878,0,1,1,0-1.756,1,1,0,0,1,1.1.878,1.012,1.012,0,0,1-.375.675,1,1,0,0,1-.744.2Zm4.872,0a.878.878,0,1,1,0-1.756,1,1,0,0,1,1.1.878,1.016,1.016,0,0,1-.385.685.992.992,0,0,1-.76.193Zm0,0" transform="translate(-341.415 -317.593)"/>
    <path id="路径_4916" data-name="路径 4916" class="cls-2" d="M291.853,323.292h.851a8.937,8.937,0,0,0-9.037-6.237,8.356,8.356,0,0,0-8.967,7.624,7.318,7.318,0,0,0,3.582,6.044l-.9,2.7,3.143-1.585a15.538,15.538,0,0,0,3.143.439h.83a6.552,6.552,0,0,1-.268-1.874,7.316,7.316,0,0,1,7.624-7.115Zm-4.872-2.436a1.119,1.119,0,1,1,0,2.238,1.141,1.141,0,1,1,.048-2.238Zm-6.264,2.238a1.137,1.137,0,1,1,0-2.238,1.119,1.119,0,1,1,0,2.238Zm0,0" transform="translate(-156.54 -192.982)"/>
  </g>
</svg>
