<svg xmlns="http://www.w3.org/2000/svg" width="20" height="20" viewBox="0 0 20 20">
  <defs>
    <style>
      .cls-1 {
        fill: #fff;
        stroke: #707070;
        opacity: 0;
      }

      .cls-2 {
        fill: #666;
      }

      .cls-3 {
        stroke: none;
      }

      .cls-4 {
        fill: none;
      }
    </style>
  </defs>
  <g id="组_6117" data-name="组 6117" transform="translate(-355 -88)">
    <g id="矩形_3229" data-name="矩形 3229" class="cls-1" transform="translate(355 88)">
      <rect class="cls-3" width="20" height="20"/>
      <rect class="cls-4" x="0.5" y="0.5" width="19" height="19"/>
    </g>
    <path id="路径_7363" data-name="路径 7363" class="cls-2" d="M32.837,8.679l.01-.095A2.589,2.589,0,0,0,31.99,6l-.038-.028-.041-.022a2.28,2.28,0,0,0-1.09-.248,6.855,6.855,0,0,0-1.469.219c-.255.057-.5.112-.733.148,0-.038-.008-.075-.011-.108a2.3,2.3,0,0,0-1.272-2.183A3.548,3.548,0,0,0,26,3.527a4.593,4.593,0,0,0-2.019.5c-2.906,1.467-5.327,4.7-5.632,7.521l0,.065c0,3.44,3.627,6.136,8.257,6.136a10.53,10.53,0,0,0,5.841-1.632,5.784,5.784,0,0,0,2.717-4.277c.174-2.086-1.253-2.714-2.324-3.162Zm1.115,3.062c-.228,2.735-3.389,4.8-7.35,4.8-3.935,0-7.021-2.146-7.045-4.892.276-2.4,2.452-5.265,4.962-6.532A3.384,3.384,0,0,1,26,4.738a2.322,2.322,0,0,1,.88.166c.4.161.465.567.52,1.168.036.406.113,1.25.9,1.25l.058,0a8.174,8.174,0,0,0,1.256-.214,5.9,5.9,0,0,1,1.2-.19A1.157,1.157,0,0,1,31.3,7c.418.341.4.839.337,1.451-.042.393-.107.987.429,1.216.083.036.167.071.25.106,1.14.476,1.73.781,1.631,1.963Zm-1-8.611a.606.606,0,0,0,0,1.212A1.068,1.068,0,0,1,34.026,5.4a.606.606,0,0,0,1.213,0,2.282,2.282,0,0,0-2.285-2.272ZM32.764,0a.606.606,0,0,0,0,1.212,4.294,4.294,0,0,1,4.369,4.2.606.606,0,1,0,1.212,0A5.506,5.506,0,0,0,32.764,0ZM27.269,8.032a6.815,6.815,0,0,0-1.577.189A6.147,6.147,0,0,0,22.5,10.053a3.379,3.379,0,0,0-.895,3.036c.383,1.608,2.1,2.688,4.266,2.688a6.848,6.848,0,0,0,1.577-.187,6.157,6.157,0,0,0,3.193-1.834,3.381,3.381,0,0,0,.894-3.035c-.383-1.608-2.1-2.689-4.266-2.689Zm2.461,4.923a4.932,4.932,0,0,1-2.563,1.455,5.61,5.61,0,0,1-1.3.155c-1.6,0-2.837-.706-3.087-1.758a2.207,2.207,0,0,1,.627-1.954A4.932,4.932,0,0,1,25.972,9.4a5.6,5.6,0,0,1,1.3-.155c1.6,0,2.836.706,3.087,1.757A2.206,2.206,0,0,1,29.73,12.955Zm-3.76-1.479a1.428,1.428,0,0,0-.582.126,1.384,1.384,0,0,0-.687.657,1.115,1.115,0,0,0-.024.938,1.152,1.152,0,0,0,1.08.657,1.431,1.431,0,0,0,.582-.127,1.384,1.384,0,0,0,.687-.656,1.115,1.115,0,0,0,.024-.938A1.152,1.152,0,0,0,25.97,11.476Zm.327,1.246a.587.587,0,0,1-.288.268.627.627,0,0,1-.252.055.359.359,0,0,1-.343-.179.311.311,0,0,1,.015-.258.586.586,0,0,1,.288-.268.629.629,0,0,1,.252-.056.358.358,0,0,1,.343.179A.316.316,0,0,1,26.3,12.722Z" transform="translate(336.654 89.125)"/>
  </g>
</svg>
