<svg id="组_3939" data-name="组 3939" xmlns="http://www.w3.org/2000/svg" width="40" height="40" viewBox="0 0 40 40">
  <defs>
    <style>
      .cls-1 {
        fill: #d81e06;
      }
    </style>
  </defs>
  <path id="路径_4917" data-name="路径 4917" class="cls-1" d="M357.628,600.867a1.951,1.951,0,0,0-1.952,1.746,1.411,1.411,0,0,0,1.524,1.375,1.862,1.862,0,0,0,1.93-1.735,1.389,1.389,0,0,0-1.5-1.387Zm2.51-.7a2.335,2.335,0,0,0-.8.625c-.044.057.263.391.512.748.32-.351.608-.553.714-.826C360.616,600.6,360.187,600.145,360.137,600.171Z" transform="translate(-342.004 -577.01)"/>
  <path id="路径_4918" data-name="路径 4918" class="cls-1" d="M246.393,476.053a9.982,9.982,0,0,0-1.545-.775,12.018,12.018,0,0,0-5.576-.761,11.5,11.5,0,0,0-7.624,3.241c-2.4,2.48-2.078,5.62.751,7.588a10.431,10.431,0,0,0,6.388,1.732c.417,0,.836.033,1.251-.006a11.932,11.932,0,0,0,7.022-2.814c2.917-2.582,2.624-6.137-.666-8.2Zm-3.237,7.291a5.591,5.591,0,0,1-4.662,2.429c-2.408.016-4.215-1.337-4.535-3.441a3.5,3.5,0,0,1,.047-1.324,4.928,4.928,0,0,1,3.86-3.738,4.817,4.817,0,0,1,5.106,1.35,3.815,3.815,0,0,1,.184,4.724Z" transform="translate(-221.913 -456.874)"/>
  <path id="路径_4919" data-name="路径 4919" class="cls-1" d="M20,0A20,20,0,1,0,40,20,20,20,0,0,0,20,0Zm9.537,25.971C27.83,28.6,25.205,29.9,22.273,30.622a34.953,34.953,0,0,1-3.67.575c-3.636-.09-6.449-.628-8.985-2.2-3.2-1.986-4.127-4.962-2.456-8.337a17.061,17.061,0,0,1,8.253-8.019,7.386,7.386,0,0,1,2.2-.592,1.961,1.961,0,0,1,2.4,2.229c-.009.339-.085.672-.1,1.014-.015.291.006.587.014.88.3-.049.6-.08.892-.145a23.4,23.4,0,0,1,3.551-.741c2.073-.11,3,1.145,2.371,3.114-.271.839-.069,1.121.715,1.4,2.948,1.063,3.8,3.551,2.09,6.174ZM27.992,14.935a2.841,2.841,0,0,0-1.944-.767.936.936,0,0,1,0-1.872h.007a4.671,4.671,0,0,1,3.4,1.481A3.536,3.536,0,0,1,30,16.9a.937.937,0,0,1-.912.727.878.878,0,0,1-.21-.026.936.936,0,0,1-.7-1.122,1.763,1.763,0,0,0-.186-1.546ZM33.5,18a.94.94,0,0,1-.925.792,1,1,0,0,1-.146-.014.937.937,0,0,1-.78-1.07C32,15.5,31.646,13.777,30.6,12.6c-1.828-2.047-5.178-1.926-5.211-1.926A.937.937,0,1,1,25.3,8.8c.174-.006,4.275-.15,6.69,2.549,1.44,1.616,1.948,3.852,1.51,6.646Z"/>
</svg>
