<svg xmlns="http://www.w3.org/2000/svg" xmlns:xlink="http://www.w3.org/1999/xlink" width="56" height="56" viewBox="0 0 56 56">
  <defs>
    <style>
      .cls-1 {
        fill: #fff;
      }

      .cls-2 {
        clip-path: url(#clip-path);
      }

      .cls-3 {
        fill: #4c98fc;
      }

      .cls-4 {
        fill: #a5d1fd;
      }
    </style>
    <clipPath id="clip-path">
      <rect id="矩形_2067" data-name="矩形 2067" class="cls-1" width="56" height="56" rx="2" transform="translate(20 168)"/>
    </clipPath>
  </defs>
  <g id="蒙版组_89" data-name="蒙版组 89" class="cls-2" transform="translate(-20 -168)">
    <g id="组_3389" data-name="组 3389" transform="translate(6.494 141.233)">
      <path id="路径_4811" data-name="路径 4811" class="cls-3" d="M125.679,23.777V84.525a3.725,3.725,0,0,1-3.773,3.675H46.44a3.725,3.725,0,0,1-3.773-3.675V3.675A3.725,3.725,0,0,1,46.44,0h54.826Z" transform="translate(-42.667 0)"/>
      <path id="路径_4812" data-name="路径 4812" class="cls-4" d="M705.28,20.426V0l24.16,24.16H709.014a3.734,3.734,0,0,1-3.734-3.734Z" transform="translate(-646.428)"/>
      <path id="路径_4813" data-name="路径 4813" class="cls-1" d="M281.813,470.94m0-2.334v-28.94a2.063,2.063,0,0,1,2.334-2.334h0a2.063,2.063,0,0,1,2.334,2.334v28.94a2.063,2.063,0,0,1-2.334,2.334h0A2.063,2.063,0,0,1,281.813,468.606Z" transform="translate(-260.651 -400.028)"/>
      <path id="路径_4814" data-name="路径 4814" class="cls-1" d="M270.715,582.951m1.65-1.65,17.823-17.823a2.063,2.063,0,0,1,3.3,0h0a2.062,2.062,0,0,1,0,3.3L275.666,584.6a2.062,2.062,0,0,1-3.3,0h0A2.063,2.063,0,0,1,272.365,581.3Z" transform="translate(-250.463 -514.456)"/>
      <path id="路径_4815" data-name="路径 4815" class="cls-1" d="M486.18,553.287m1.65,1.65,17.823,17.823a2.063,2.063,0,0,1,0,3.3h0a2.063,2.063,0,0,1-3.3,0L484.53,558.238a2.063,2.063,0,0,1,0-3.3h0A2.063,2.063,0,0,1,487.83,554.937Z" transform="translate(-444.546 -505.905)"/>
      <path id="路径_4816" data-name="路径 4816" class="cls-1" d="M688.853,470.94m0-2.334v-28.94a2.063,2.063,0,0,1,2.334-2.334h0a2.063,2.063,0,0,1,2.334,2.334v28.94a2.063,2.063,0,0,1-2.334,2.334h0A2.063,2.063,0,0,1,688.853,468.606Z" transform="translate(-631.671 -400.028)"/>
    </g>
  </g>
</svg>
